M48
METRIC,LZ,000.000
;FILE_FORMAT=3:3
;TYPE=PLATED
;Layer: PTH_Through_Via
;EasyEDA v6.5.40, 2024-02-01 00:24:09
;faf3267638cc42b38ab6b6bb7f3975a6,cb1d8df9e4d043698efa6217e4288dd5,10
;Gerber Generator version 0.2
;Holesize 1 = 0.301 mm
T01C0.301
;Holesize 2 = 0.306 mm
T02C0.306
;Holesize 3 = 0.310 mm
T03C0.310
;Holesize 4 = 0.351 mm
T04C0.351
%
G05
G90
T01
X066294Y153035
T02
X086741Y116459
X086741Y112395
X086741Y133350
X081026Y126111
X086868Y141986
X086741Y146558
X085090Y107442
X086741Y137668
X086614Y150622
X086360Y154559
X054102Y155829
X086741Y120650
X086741Y124968
X086741Y129159
X066167Y160909
X036576Y160909
X072558Y123975
X053213Y142621
X050673Y140716
T03
X048895Y142621
T04
X061722Y126619
M30
