M48
METRIC,LZ,000.000
;FILE_FORMAT=3:3
;TYPE=PLATED
;Layer: PTH_Through
;EasyEDA v6.5.39, 2024-01-24 12:43:59
;deea6d9213314a98b6ebed6103c3b4d4,cb1d8df9e4d043698efa6217e4288dd5,10
;Gerber Generator version 0.2
;Holesize 1 = 0.301 mm
T01C0.301
;Holesize 2 = 0.306 mm
T02C0.306
;Holesize 3 = 0.701 mm
T03C0.701
;Holesize 4 = 0.800 mm
T04C0.800
;Holesize 5 = 0.850 mm
T05C0.850
;Holesize 6 = 0.915 mm
T06C0.915
;Holesize 7 = 0.951 mm
T07C0.951
;Holesize 8 = 1.000 mm
T08C1.000
;Holesize 9 = 1.016 mm
T09C1.016
;Holesize 10 = 1.021 mm
T10C1.021
;Holesize 11 = 1.101 mm
T11C1.101
;Holesize 12 = 1.701 mm
T12C1.701
;Holesize 13 = 3.048 mm
T13C3.048
%
G05
G90
T01
X066167Y154559
T02
X086741Y116459
X086741Y112395
X086741Y133350
X081026Y126111
X086868Y141986
X086741Y146558
X085090Y107442
X086741Y137668
X086614Y150622
X089027Y154305
X053213Y155956
X086741Y120650
X086741Y124968
X086741Y129159
X036576Y160909
T03
X038100Y163576
X039370Y163576
X040640Y163576
T04
X043180Y155829
X058420Y155829
X043180Y153289
X058420Y153289
X043180Y150749
X058420Y150749
X043180Y148209
X058420Y148209
X043180Y145669
X058420Y145669
X043180Y143129
X058420Y143129
X043180Y140589
X058420Y140589
X043180Y138049
X058420Y138049
X043180Y135509
X058420Y135509
X043180Y132969
X058420Y132969
X043180Y130429
X058420Y130429
X043180Y127889
X058420Y127889
X043180Y125349
X058420Y125349
X043180Y122809
X058420Y122809
X043180Y120269
X058420Y120269
X043180Y117729
X058420Y117729
X043180Y115189
X058420Y115189
X043180Y112649
X058420Y112649
X043180Y110109
X058420Y110109
X043180Y107569
X058420Y107569
T05
X027350Y153019
X029350Y151019
X029350Y153019
X025350Y153019
X027350Y151019
X025350Y151019
T06
X083312Y157098
X082042Y154558
X080772Y157098
X079502Y154558
X078232Y157098
X076962Y154558
X075692Y157098
X074422Y154558
T07
X016510Y107569
X016510Y112649
X016510Y115189
X016510Y110109
X016510Y117729
X031750Y110109
X031750Y107569
X016510Y120269
X019050Y120269
X021590Y120269
X024130Y120269
X026670Y120269
X029210Y120269
X031750Y120269
X031750Y117729
X031750Y115189
X031750Y112649
X016510Y122809
X016510Y127889
X016510Y130429
X016510Y132969
X016510Y135509
X016510Y138049
X016510Y140589
X016510Y143129
X016510Y145669
X016510Y148209
X016510Y150749
X016510Y153289
X016510Y155829
X016510Y158369
X016510Y160909
X016510Y163449
X016510Y165989
X031750Y165989
X031750Y163449
X031750Y160909
X031750Y158369
X031750Y155829
X031750Y153289
X031750Y150749
X031750Y148209
X031750Y145669
X031750Y143129
X031750Y140589
X031750Y138049
X031750Y135509
X031750Y132969
X031750Y130429
X031750Y127889
X031750Y122809
X029210Y163449
X031750Y125349
X016510Y125349
X022860Y165379
X025400Y165379
X019510Y159639
X019510Y157099
X019510Y154559
X019510Y152019
X019510Y149479
T08
X007874Y113030G85X007874Y113030
X007874Y115570G85X007874Y115570
X007874Y118110G85X007874Y118110
X007874Y120650G85X007874Y120650
X007874Y123190G85X007874Y123190
X007874Y125730G85X007874Y125730
X007874Y128270G85X007874Y128270
X007874Y130810G85X007874Y130810
X007874Y133350G85X007874Y133350
X007874Y135890G85X007874Y135890
X007874Y138430G85X007874Y138430
X007874Y140970G85X007874Y140970
X007874Y143510G85X007874Y143510
X007874Y146050G85X007874Y146050
X007874Y148590G85X007874Y148590
X007874Y151130G85X007874Y151130
X007874Y153670G85X007874Y153670
X007874Y156210G85X007874Y156210
X007874Y158750G85X007874Y158750
X007874Y161290G85X007874Y161290
X067564Y125221
X067564Y122681
X067564Y109981
X067564Y107441
X067564Y120141
X067564Y117601
X067564Y112521
X067564Y115061
X075184Y107441
X075184Y109981
X075184Y112521
X075184Y115061
X075184Y117601
X075184Y120141
X075184Y122681
X075184Y125221
X067564Y149224
X067564Y146684
X067564Y133984
X067564Y131444
X067564Y144144
X067564Y141604
X067564Y136524
X067564Y139064
X075184Y131444
X075184Y133984
X075184Y136524
X075184Y139064
X075184Y141604
X075184Y144144
X075184Y146684
X075184Y149224
T09
X046025Y167240G85X046030Y167240
X052527Y167240G85X052533Y167240
X046025Y162719G85X046030Y162719
X052527Y162719G85X052533Y162719
T10
X075082Y168528
X072542Y166828
X085192Y168528
X082652Y166828
T11
X057658Y166243
X057658Y163703
X065278Y163703
X065278Y166243
T12
X086742Y160398
X070992Y160398
T13
X091059Y108458
X091059Y165608
X007874Y165735
X007874Y108585
M30
