G04 Layer: BottomSilkscreenLayer*
G04 EasyEDA v6.5.39, 2024-01-24 12:43:59*
G04 deea6d9213314a98b6ebed6103c3b4d4,cb1d8df9e4d043698efa6217e4288dd5,10*
G04 Gerber Generator version 0.2*
G04 Scale: 100 percent, Rotated: No, Reflected: No *
G04 Dimensions in millimeters *
G04 leading zeros omitted , absolute positions ,4 integer and 5 decimal *
%FSLAX45Y45*%
%MOMM*%

%ADD10C,0.1524*%

%LPD*%
G36*
X8544814Y12877800D02*
G01*
X8539378Y12877596D01*
X8534908Y12877038D01*
X8534908Y12863068D01*
X8547100Y12863068D01*
X8555329Y12862560D01*
X8562492Y12861137D01*
X8568639Y12858800D01*
X8573668Y12855600D01*
X8577580Y12851536D01*
X8580374Y12846659D01*
X8582101Y12841020D01*
X8582660Y12834620D01*
X8582050Y12828625D01*
X8580221Y12822986D01*
X8577326Y12817703D01*
X8573262Y12812979D01*
X8568182Y12808915D01*
X8562086Y12805664D01*
X8555024Y12803276D01*
X8547100Y12801854D01*
X8547100Y12863068D01*
X8534908Y12863068D01*
X8534908Y12802108D01*
X8528964Y12802616D01*
X8523427Y12803733D01*
X8518245Y12805308D01*
X8513521Y12807391D01*
X8509254Y12809982D01*
X8505444Y12812979D01*
X8502142Y12816484D01*
X8499398Y12820345D01*
X8497163Y12824663D01*
X8495588Y12829336D01*
X8494623Y12834315D01*
X8494268Y12839700D01*
X8494877Y12847370D01*
X8496604Y12854482D01*
X8499398Y12861137D01*
X8503158Y12867386D01*
X8492236Y12873482D01*
X8487918Y12866065D01*
X8486038Y12862052D01*
X8484362Y12857784D01*
X8482990Y12853212D01*
X8481974Y12848386D01*
X8481314Y12843205D01*
X8481060Y12837668D01*
X8481314Y12832334D01*
X8482025Y12827101D01*
X8483244Y12822123D01*
X8484971Y12817297D01*
X8487105Y12812776D01*
X8489696Y12808458D01*
X8492744Y12804444D01*
X8496249Y12800787D01*
X8500160Y12797434D01*
X8504428Y12794437D01*
X8509152Y12791846D01*
X8514283Y12789662D01*
X8519769Y12787934D01*
X8525662Y12786664D01*
X8531860Y12785852D01*
X8538464Y12785598D01*
X8544966Y12785852D01*
X8551164Y12786664D01*
X8557006Y12787934D01*
X8562492Y12789662D01*
X8567572Y12791846D01*
X8572347Y12794386D01*
X8576665Y12797332D01*
X8580628Y12800584D01*
X8584133Y12804140D01*
X8587232Y12807950D01*
X8589924Y12812014D01*
X8592108Y12816230D01*
X8593836Y12820650D01*
X8595106Y12825222D01*
X8595868Y12829895D01*
X8596122Y12834620D01*
X8595715Y12841224D01*
X8594547Y12847320D01*
X8592566Y12852958D01*
X8589873Y12857988D01*
X8586470Y12862509D01*
X8582355Y12866471D01*
X8577630Y12869875D01*
X8572246Y12872720D01*
X8566200Y12874904D01*
X8559647Y12876530D01*
X8552484Y12877495D01*
G37*
G36*
X8470138Y12775184D02*
G01*
X8465261Y12774726D01*
X8460486Y12773456D01*
X8455914Y12771323D01*
X8451596Y12768427D01*
X8447582Y12764770D01*
X8443925Y12760350D01*
X8440674Y12755270D01*
X8437880Y12749530D01*
X8435644Y12743129D01*
X8433968Y12736169D01*
X8432901Y12728651D01*
X8432646Y12722860D01*
X8444230Y12722860D01*
X8444738Y12730683D01*
X8446262Y12737693D01*
X8448548Y12743891D01*
X8451545Y12749072D01*
X8455152Y12753289D01*
X8459114Y12756388D01*
X8463432Y12758267D01*
X8467852Y12758928D01*
X8474557Y12757454D01*
X8478977Y12753136D01*
X8481364Y12745974D01*
X8482076Y12736068D01*
X8482076Y12715748D01*
X8482634Y12709448D01*
X8484108Y12701778D01*
X8479383Y12696393D01*
X8474405Y12692684D01*
X8469325Y12690551D01*
X8464296Y12689840D01*
X8459927Y12690398D01*
X8456015Y12692126D01*
X8452612Y12694869D01*
X8449665Y12698628D01*
X8447379Y12703352D01*
X8445652Y12709042D01*
X8444585Y12715544D01*
X8444230Y12722860D01*
X8432646Y12722860D01*
X8432546Y12720574D01*
X8432749Y12713970D01*
X8433460Y12707772D01*
X8434527Y12701981D01*
X8436051Y12696698D01*
X8438032Y12691922D01*
X8440369Y12687655D01*
X8443112Y12683947D01*
X8446211Y12680848D01*
X8449665Y12678410D01*
X8453526Y12676581D01*
X8457742Y12675463D01*
X8462264Y12675108D01*
X8469223Y12676225D01*
X8475878Y12679426D01*
X8482025Y12684556D01*
X8487410Y12691364D01*
X8488172Y12691364D01*
X8491270Y12687452D01*
X8495334Y12684302D01*
X8500364Y12682220D01*
X8506460Y12681458D01*
X8512911Y12682626D01*
X8518550Y12685572D01*
X8523173Y12689484D01*
X8526780Y12693650D01*
X8527542Y12693650D01*
X8532672Y12688417D01*
X8539530Y12683845D01*
X8547811Y12680645D01*
X8557260Y12679426D01*
X8562949Y12679781D01*
X8568232Y12680899D01*
X8573211Y12682677D01*
X8577732Y12685064D01*
X8581796Y12688011D01*
X8585454Y12691465D01*
X8588603Y12695377D01*
X8591245Y12699695D01*
X8593328Y12704368D01*
X8594852Y12709398D01*
X8595817Y12714630D01*
X8596122Y12720066D01*
X8595918Y12724485D01*
X8595309Y12728549D01*
X8594394Y12732156D01*
X8593328Y12735306D01*
X8593328Y12773406D01*
X8580628Y12773406D01*
X8580628Y12750292D01*
X8576056Y12754000D01*
X8570417Y12756997D01*
X8563914Y12758978D01*
X8556752Y12759690D01*
X8551113Y12759334D01*
X8545779Y12758267D01*
X8540902Y12756591D01*
X8536432Y12754305D01*
X8532368Y12751511D01*
X8528812Y12748158D01*
X8525713Y12744348D01*
X8523173Y12740182D01*
X8521090Y12735560D01*
X8519617Y12730683D01*
X8518702Y12725501D01*
X8518398Y12720066D01*
X8529828Y12720066D01*
X8530336Y12724892D01*
X8531758Y12729464D01*
X8534095Y12733680D01*
X8537244Y12737338D01*
X8541207Y12740386D01*
X8545880Y12742722D01*
X8551265Y12744196D01*
X8557260Y12744704D01*
X8563051Y12744196D01*
X8568232Y12742722D01*
X8572754Y12740436D01*
X8576564Y12737439D01*
X8579612Y12733782D01*
X8581847Y12729616D01*
X8583218Y12724993D01*
X8583676Y12720066D01*
X8583218Y12715138D01*
X8581847Y12710515D01*
X8579662Y12706350D01*
X8576665Y12702692D01*
X8572855Y12699695D01*
X8568334Y12697409D01*
X8563152Y12695936D01*
X8557260Y12695428D01*
X8551265Y12695936D01*
X8545880Y12697409D01*
X8541207Y12699746D01*
X8537244Y12702794D01*
X8534095Y12706451D01*
X8531758Y12710668D01*
X8530336Y12715240D01*
X8529828Y12720066D01*
X8518398Y12720066D01*
X8518652Y12715900D01*
X8519363Y12711582D01*
X8520633Y12707315D01*
X8522462Y12703302D01*
X8519718Y12700457D01*
X8516620Y12698120D01*
X8512962Y12696494D01*
X8508492Y12695936D01*
X8503564Y12696901D01*
X8499754Y12700101D01*
X8497214Y12706096D01*
X8496300Y12715494D01*
X8496300Y12737338D01*
X8495893Y12746177D01*
X8494725Y12753848D01*
X8492794Y12760350D01*
X8490000Y12765684D01*
X8486343Y12769850D01*
X8481822Y12772796D01*
X8476437Y12774574D01*
G37*
G36*
X8483600Y12645644D02*
G01*
X8483600Y12631928D01*
X8496808Y12630404D01*
X8496808Y12629896D01*
X8493658Y12626492D01*
X8490712Y12622834D01*
X8488019Y12618872D01*
X8485682Y12614706D01*
X8483752Y12610287D01*
X8482330Y12605664D01*
X8481364Y12600838D01*
X8481277Y12599416D01*
X8495030Y12599416D01*
X8496046Y12607188D01*
X8498941Y12614554D01*
X8503818Y12621818D01*
X8510524Y12629134D01*
X8569960Y12629134D01*
X8575497Y12621920D01*
X8579307Y12614960D01*
X8581440Y12608001D01*
X8582152Y12600940D01*
X8581796Y12596418D01*
X8580678Y12592050D01*
X8578951Y12587935D01*
X8576513Y12584125D01*
X8573516Y12580620D01*
X8569909Y12577470D01*
X8565794Y12574727D01*
X8561171Y12572339D01*
X8556091Y12570460D01*
X8550605Y12569088D01*
X8544712Y12568224D01*
X8538464Y12567920D01*
X8531961Y12568174D01*
X8525916Y12568834D01*
X8520328Y12570002D01*
X8515248Y12571628D01*
X8510676Y12573660D01*
X8506663Y12576149D01*
X8503208Y12579045D01*
X8500313Y12582347D01*
X8498027Y12586004D01*
X8496401Y12590119D01*
X8495385Y12594590D01*
X8495030Y12599416D01*
X8481277Y12599416D01*
X8481060Y12595860D01*
X8481314Y12590830D01*
X8482025Y12586055D01*
X8483193Y12581483D01*
X8484870Y12577216D01*
X8486952Y12573203D01*
X8489492Y12569494D01*
X8492490Y12566091D01*
X8495944Y12562992D01*
X8499805Y12560198D01*
X8504123Y12557709D01*
X8508847Y12555626D01*
X8513978Y12553848D01*
X8519464Y12552476D01*
X8525408Y12551460D01*
X8531758Y12550851D01*
X8538464Y12550648D01*
X8544915Y12550902D01*
X8551062Y12551664D01*
X8556904Y12552883D01*
X8562390Y12554559D01*
X8567470Y12556642D01*
X8572246Y12559131D01*
X8576564Y12561925D01*
X8580526Y12565075D01*
X8584082Y12568529D01*
X8587181Y12572238D01*
X8589873Y12576200D01*
X8592058Y12580315D01*
X8593836Y12584633D01*
X8595106Y12589103D01*
X8595868Y12593726D01*
X8596122Y12598400D01*
X8595258Y12607391D01*
X8592718Y12615265D01*
X8588603Y12622631D01*
X8583168Y12629896D01*
X8602218Y12629134D01*
X8645398Y12629134D01*
X8645398Y12645644D01*
G37*
G36*
X8628380Y12523978D02*
G01*
X8623604Y12523114D01*
X8619998Y12520726D01*
X8617712Y12517120D01*
X8616950Y12512548D01*
X8617712Y12507874D01*
X8619998Y12504267D01*
X8623604Y12501930D01*
X8628380Y12501118D01*
X8633002Y12501930D01*
X8636558Y12504267D01*
X8638794Y12507874D01*
X8639556Y12512548D01*
X8638794Y12517120D01*
X8636558Y12520726D01*
X8633002Y12523114D01*
G37*
G36*
X8483600Y12520676D02*
G01*
X8483600Y12504420D01*
X8593328Y12504420D01*
X8593328Y12520676D01*
G37*
G36*
X8593836Y12485624D02*
G01*
X8579358Y12482322D01*
X8580729Y12477394D01*
X8581136Y12471908D01*
X8580780Y12468402D01*
X8579764Y12464694D01*
X8577986Y12460986D01*
X8575344Y12457226D01*
X8571788Y12453569D01*
X8567318Y12450064D01*
X8561832Y12446762D01*
X8555228Y12443714D01*
X8483600Y12443714D01*
X8483600Y12427204D01*
X8593328Y12427204D01*
X8593328Y12440666D01*
X8573262Y12442444D01*
X8573262Y12442952D01*
X8578189Y12445949D01*
X8582609Y12449302D01*
X8586520Y12452908D01*
X8589822Y12456718D01*
X8592515Y12460782D01*
X8594496Y12465050D01*
X8595715Y12469418D01*
X8596122Y12473940D01*
X8596020Y12477292D01*
X8595664Y12480239D01*
X8594953Y12482982D01*
G37*
G36*
X8527034Y12398756D02*
G01*
X8521750Y12398502D01*
X8516874Y12397689D01*
X8512251Y12396419D01*
X8508034Y12394641D01*
X8504123Y12392456D01*
X8500567Y12389764D01*
X8497366Y12386665D01*
X8494471Y12383160D01*
X8491931Y12379248D01*
X8489696Y12374981D01*
X8487816Y12370409D01*
X8486292Y12365431D01*
X8485124Y12360148D01*
X8484260Y12354610D01*
X8483752Y12348718D01*
X8483600Y12313158D01*
X8497062Y12313158D01*
X8497062Y12339828D01*
X8497265Y12346228D01*
X8497874Y12352172D01*
X8498840Y12357658D01*
X8500313Y12362637D01*
X8502142Y12367107D01*
X8504428Y12371070D01*
X8507171Y12374473D01*
X8510320Y12377318D01*
X8513978Y12379553D01*
X8518093Y12381179D01*
X8522716Y12382144D01*
X8527796Y12382500D01*
X8532317Y12382195D01*
X8536482Y12381230D01*
X8540140Y12379655D01*
X8543442Y12377470D01*
X8546338Y12374727D01*
X8548776Y12371374D01*
X8550859Y12367463D01*
X8552535Y12362992D01*
X8553856Y12357963D01*
X8554770Y12352426D01*
X8555278Y12346381D01*
X8555482Y12339828D01*
X8555482Y12313158D01*
X8568436Y12313158D01*
X8568436Y12335764D01*
X8568893Y12345111D01*
X8570214Y12352985D01*
X8572398Y12359487D01*
X8575344Y12364669D01*
X8579002Y12368580D01*
X8583320Y12371273D01*
X8588298Y12372848D01*
X8593836Y12373356D01*
X8600186Y12372797D01*
X8605469Y12371070D01*
X8609838Y12368225D01*
X8613241Y12364212D01*
X8615832Y12359081D01*
X8617610Y12352782D01*
X8618626Y12345365D01*
X8618982Y12336780D01*
X8618982Y12313158D01*
X8483600Y12313158D01*
X8483600Y12296140D01*
X8632444Y12296140D01*
X8632444Y12339320D01*
X8632240Y12346686D01*
X8631529Y12353594D01*
X8630361Y12359995D01*
X8628735Y12365939D01*
X8626551Y12371273D01*
X8623858Y12376048D01*
X8620658Y12380214D01*
X8616848Y12383668D01*
X8612530Y12386411D01*
X8607552Y12388443D01*
X8602014Y12389713D01*
X8595868Y12390120D01*
X8590432Y12389764D01*
X8585301Y12388646D01*
X8580475Y12386868D01*
X8576005Y12384430D01*
X8572042Y12381280D01*
X8568639Y12377470D01*
X8565794Y12373051D01*
X8563610Y12368022D01*
X8562848Y12368022D01*
X8561120Y12374575D01*
X8558631Y12380518D01*
X8555329Y12385802D01*
X8551214Y12390272D01*
X8546338Y12393828D01*
X8540699Y12396520D01*
X8534247Y12398197D01*
G37*
G36*
X8593328Y12227560D02*
G01*
X8468309Y12183719D01*
X8463381Y12181636D01*
X8458758Y12179300D01*
X8454390Y12176760D01*
X8450326Y12174016D01*
X8446719Y12170968D01*
X8443518Y12167616D01*
X8440775Y12163958D01*
X8438591Y12159945D01*
X8436965Y12155627D01*
X8435949Y12150902D01*
X8435594Y12145772D01*
X8435746Y12142165D01*
X8436152Y12138863D01*
X8436864Y12135866D01*
X8437880Y12133072D01*
X8451342Y12136628D01*
X8450173Y12140438D01*
X8449716Y12142724D01*
X8449564Y12145010D01*
X8450072Y12149582D01*
X8451443Y12153696D01*
X8453678Y12157456D01*
X8456676Y12160808D01*
X8460333Y12163755D01*
X8464550Y12166396D01*
X8469325Y12168682D01*
X8474456Y12170664D01*
X8483092Y12173204D01*
X8593328Y12128754D01*
X8593328Y12146026D01*
X8523071Y12172086D01*
X8499602Y12180316D01*
X8499602Y12181332D01*
X8530590Y12190730D01*
X8593328Y12211304D01*
G37*
G36*
X8513064Y12118594D02*
G01*
X8506663Y12117933D01*
X8500668Y12116054D01*
X8495233Y12112904D01*
X8490508Y12108586D01*
X8486546Y12102998D01*
X8483600Y12096292D01*
X8481720Y12088469D01*
X8481060Y12079478D01*
X8481364Y12073636D01*
X8482177Y12067895D01*
X8483549Y12062358D01*
X8485327Y12057024D01*
X8487511Y12051944D01*
X8490051Y12047169D01*
X8492947Y12042698D01*
X8496046Y12038584D01*
X8507222Y12046966D01*
X8501837Y12054179D01*
X8497671Y12061850D01*
X8494979Y12070384D01*
X8494014Y12079986D01*
X8495436Y12089993D01*
X8499348Y12097105D01*
X8505139Y12101423D01*
X8512302Y12102846D01*
X8516416Y12102236D01*
X8519972Y12100610D01*
X8523071Y12098020D01*
X8525764Y12094667D01*
X8528151Y12090755D01*
X8530234Y12086437D01*
X8536076Y12071248D01*
X8538565Y12065457D01*
X8541410Y12059970D01*
X8544763Y12055043D01*
X8548725Y12050826D01*
X8553450Y12047524D01*
X8558936Y12045442D01*
X8565388Y12044680D01*
X8571687Y12045340D01*
X8577478Y12047169D01*
X8582710Y12050268D01*
X8587232Y12054484D01*
X8590940Y12059818D01*
X8593734Y12066219D01*
X8595512Y12073636D01*
X8596122Y12082018D01*
X8595156Y12091670D01*
X8592616Y12100560D01*
X8588705Y12108535D01*
X8583930Y12115292D01*
X8573262Y12107164D01*
X8577021Y12101525D01*
X8580069Y12095530D01*
X8582152Y12089079D01*
X8582914Y12082018D01*
X8581593Y12072569D01*
X8577986Y12065914D01*
X8572754Y12062002D01*
X8566404Y12060682D01*
X8559241Y12062663D01*
X8554008Y12067997D01*
X8550046Y12075668D01*
X8544204Y12090857D01*
X8541613Y12096851D01*
X8538667Y12102541D01*
X8535263Y12107722D01*
X8531148Y12112142D01*
X8526221Y12115546D01*
X8520226Y12117781D01*
G37*
G36*
X8483600Y12014708D02*
G01*
X8483600Y11997944D01*
X8551164Y11997944D01*
X8558580Y11997639D01*
X8564930Y11996674D01*
X8570163Y11995048D01*
X8574379Y11992711D01*
X8577630Y11989714D01*
X8579866Y11985955D01*
X8581186Y11981434D01*
X8581644Y11976100D01*
X8581339Y11971934D01*
X8580526Y11968022D01*
X8579104Y11964212D01*
X8577122Y11960504D01*
X8574633Y11956745D01*
X8571585Y11952935D01*
X8563864Y11944858D01*
X8483600Y11944858D01*
X8483600Y11928348D01*
X8593328Y11928348D01*
X8593328Y11941810D01*
X8577326Y11943588D01*
X8577326Y11944096D01*
X8581136Y11948109D01*
X8584641Y11952224D01*
X8587841Y11956491D01*
X8590635Y11960910D01*
X8592921Y11965584D01*
X8594648Y11970461D01*
X8595766Y11975642D01*
X8596122Y11981180D01*
X8595817Y11986666D01*
X8594902Y11991594D01*
X8593378Y11996064D01*
X8591245Y12000026D01*
X8588552Y12003532D01*
X8585250Y12006529D01*
X8581339Y12009018D01*
X8576868Y12011101D01*
X8571788Y12012676D01*
X8566150Y12013793D01*
X8559952Y12014504D01*
X8553196Y12014708D01*
G37*
G36*
X8544814Y11900662D02*
G01*
X8539378Y11900458D01*
X8534908Y11899900D01*
X8534908Y11885930D01*
X8547100Y11885930D01*
X8555329Y11885422D01*
X8562492Y11883999D01*
X8568639Y11881662D01*
X8573668Y11878462D01*
X8577580Y11874398D01*
X8580374Y11869521D01*
X8582101Y11863882D01*
X8582660Y11857482D01*
X8582050Y11851487D01*
X8580221Y11845798D01*
X8577326Y11840514D01*
X8573262Y11835790D01*
X8568182Y11831675D01*
X8562086Y11828424D01*
X8555024Y11826036D01*
X8547100Y11824716D01*
X8547100Y11885930D01*
X8534908Y11885930D01*
X8534908Y11824716D01*
X8528964Y11825274D01*
X8523427Y11826341D01*
X8518245Y11827967D01*
X8513521Y11830050D01*
X8509254Y11832640D01*
X8505444Y11835688D01*
X8502142Y11839194D01*
X8499398Y11843054D01*
X8497163Y11847372D01*
X8495588Y11851995D01*
X8494623Y11856974D01*
X8494268Y11862308D01*
X8494877Y11870131D01*
X8496604Y11877344D01*
X8499398Y11883999D01*
X8503158Y11890248D01*
X8492236Y11896344D01*
X8487918Y11888774D01*
X8486038Y11884710D01*
X8484362Y11880392D01*
X8482990Y11875820D01*
X8481974Y11870994D01*
X8481314Y11865813D01*
X8481060Y11860276D01*
X8481314Y11854942D01*
X8482025Y11849811D01*
X8483244Y11844832D01*
X8484971Y11840057D01*
X8487105Y11835536D01*
X8489696Y11831269D01*
X8492744Y11827256D01*
X8496249Y11823598D01*
X8500160Y11820245D01*
X8504428Y11817299D01*
X8509152Y11814708D01*
X8514283Y11812524D01*
X8519769Y11810796D01*
X8525662Y11809526D01*
X8531860Y11808714D01*
X8538464Y11808460D01*
X8544966Y11808714D01*
X8551164Y11809526D01*
X8557006Y11810796D01*
X8562492Y11812524D01*
X8567572Y11814708D01*
X8572347Y11817248D01*
X8576665Y11820194D01*
X8580628Y11823395D01*
X8584133Y11826951D01*
X8587232Y11830761D01*
X8589924Y11834774D01*
X8592108Y11838990D01*
X8593836Y11843410D01*
X8595106Y11847931D01*
X8595868Y11852554D01*
X8596122Y11857228D01*
X8595715Y11863832D01*
X8594547Y11869978D01*
X8592566Y11875566D01*
X8589873Y11880697D01*
X8586470Y11885218D01*
X8582355Y11889232D01*
X8577630Y11892635D01*
X8572246Y11895480D01*
X8566200Y11897715D01*
X8559647Y11899341D01*
X8552484Y11900306D01*
G37*
G36*
X8544814Y11789156D02*
G01*
X8539378Y11788952D01*
X8534908Y11788140D01*
X8534908Y11774424D01*
X8547100Y11774424D01*
X8555329Y11773916D01*
X8562492Y11772493D01*
X8568639Y11770106D01*
X8573668Y11766854D01*
X8577580Y11762790D01*
X8580374Y11757914D01*
X8582101Y11752326D01*
X8582660Y11745976D01*
X8582050Y11739981D01*
X8580221Y11734292D01*
X8577326Y11729008D01*
X8573262Y11724233D01*
X8568182Y11720118D01*
X8562086Y11716816D01*
X8555024Y11714378D01*
X8547100Y11712956D01*
X8547100Y11774424D01*
X8534908Y11774424D01*
X8534908Y11713210D01*
X8528964Y11713768D01*
X8523427Y11714835D01*
X8518245Y11716461D01*
X8513521Y11718544D01*
X8509254Y11721134D01*
X8505444Y11724182D01*
X8502142Y11727688D01*
X8499398Y11731548D01*
X8497163Y11735866D01*
X8495588Y11740489D01*
X8494623Y11745468D01*
X8494268Y11750802D01*
X8494877Y11758625D01*
X8496604Y11765838D01*
X8499398Y11772493D01*
X8503158Y11778742D01*
X8492236Y11784838D01*
X8487918Y11777268D01*
X8486038Y11773204D01*
X8484362Y11768886D01*
X8482990Y11764314D01*
X8481974Y11759488D01*
X8481314Y11754307D01*
X8481060Y11748770D01*
X8481314Y11743436D01*
X8482025Y11738305D01*
X8483244Y11733326D01*
X8484971Y11728500D01*
X8487105Y11723979D01*
X8489696Y11719661D01*
X8492744Y11715648D01*
X8496249Y11711990D01*
X8500160Y11708587D01*
X8504428Y11705590D01*
X8509152Y11702999D01*
X8514283Y11700814D01*
X8519769Y11699036D01*
X8525662Y11697766D01*
X8531860Y11696954D01*
X8538464Y11696700D01*
X8544966Y11696954D01*
X8551164Y11697766D01*
X8557006Y11699087D01*
X8562492Y11700814D01*
X8567572Y11702999D01*
X8572347Y11705590D01*
X8576665Y11708536D01*
X8580628Y11711787D01*
X8584133Y11715343D01*
X8587232Y11719153D01*
X8589924Y11723217D01*
X8592108Y11727434D01*
X8593836Y11731853D01*
X8595106Y11736374D01*
X8595868Y11741048D01*
X8596122Y11745722D01*
X8595715Y11752326D01*
X8594547Y11758472D01*
X8592566Y11764060D01*
X8589873Y11769191D01*
X8586470Y11773712D01*
X8582355Y11777726D01*
X8577630Y11781129D01*
X8572246Y11783974D01*
X8566200Y11786209D01*
X8559647Y11787835D01*
X8552484Y11788800D01*
G37*
G36*
X8618220Y11694414D02*
G01*
X8618220Y11648948D01*
X8483600Y11648948D01*
X8483600Y11631676D01*
X8618220Y11631676D01*
X8618220Y11586464D01*
X8632444Y11586464D01*
X8632444Y11694414D01*
G37*
G36*
X8533892Y11581384D02*
G01*
X8533892Y11530076D01*
X8546846Y11530076D01*
X8546846Y11581384D01*
G37*
G36*
X8483600Y11510264D02*
G01*
X8483600Y11418316D01*
X8493506Y11418316D01*
X8505596Y11431778D01*
X8517077Y11443665D01*
X8527948Y11454079D01*
X8538260Y11462969D01*
X8548065Y11470436D01*
X8557361Y11476431D01*
X8561882Y11478920D01*
X8570569Y11482882D01*
X8578900Y11485473D01*
X8586927Y11486743D01*
X8590788Y11486896D01*
X8597138Y11486489D01*
X8602980Y11485219D01*
X8608212Y11483086D01*
X8612733Y11480038D01*
X8616442Y11476126D01*
X8619185Y11471249D01*
X8620912Y11465458D01*
X8621522Y11458702D01*
X8621166Y11454130D01*
X8620201Y11449710D01*
X8618575Y11445443D01*
X8616492Y11441379D01*
X8613902Y11437518D01*
X8610904Y11433810D01*
X8607602Y11430304D01*
X8603996Y11426952D01*
X8613140Y11417300D01*
X8617864Y11421821D01*
X8622131Y11426494D01*
X8625840Y11431320D01*
X8629040Y11436400D01*
X8631580Y11441836D01*
X8633409Y11447576D01*
X8634577Y11453774D01*
X8634984Y11460480D01*
X8634628Y11466880D01*
X8633612Y11472824D01*
X8631936Y11478310D01*
X8629599Y11483289D01*
X8626652Y11487759D01*
X8623147Y11491722D01*
X8619134Y11495125D01*
X8614562Y11497970D01*
X8609482Y11500205D01*
X8603945Y11501831D01*
X8597950Y11502796D01*
X8591550Y11503152D01*
X8587028Y11502999D01*
X8582456Y11502440D01*
X8577935Y11501577D01*
X8573363Y11500408D01*
X8568791Y11498884D01*
X8564168Y11497056D01*
X8554923Y11492534D01*
X8545576Y11486794D01*
X8536076Y11479987D01*
X8526475Y11472164D01*
X8516721Y11463375D01*
X8506714Y11453723D01*
X8496554Y11443208D01*
X8497468Y11455501D01*
X8497824Y11467592D01*
X8497824Y11510264D01*
G37*
G36*
X8558530Y11398758D02*
G01*
X8549081Y11398554D01*
X8540242Y11397945D01*
X8532063Y11396980D01*
X8524443Y11395557D01*
X8517483Y11393830D01*
X8511133Y11391747D01*
X8505393Y11389309D01*
X8500262Y11386515D01*
X8495741Y11383365D01*
X8491829Y11379962D01*
X8488527Y11376202D01*
X8485835Y11372189D01*
X8483752Y11367871D01*
X8482228Y11363248D01*
X8481364Y11358422D01*
X8481060Y11353292D01*
X8494268Y11353292D01*
X8494674Y11357559D01*
X8495944Y11361572D01*
X8498078Y11365280D01*
X8501126Y11368735D01*
X8505037Y11371834D01*
X8509812Y11374577D01*
X8515553Y11377015D01*
X8522208Y11378996D01*
X8529828Y11380622D01*
X8538413Y11381790D01*
X8547963Y11382502D01*
X8558530Y11382756D01*
X8568893Y11382502D01*
X8578291Y11381790D01*
X8586673Y11380622D01*
X8594140Y11378996D01*
X8600694Y11377015D01*
X8606332Y11374577D01*
X8611006Y11371834D01*
X8614867Y11368735D01*
X8617762Y11365280D01*
X8619896Y11361572D01*
X8621115Y11357559D01*
X8621522Y11353292D01*
X8621115Y11349024D01*
X8619896Y11345011D01*
X8617762Y11341303D01*
X8614867Y11337848D01*
X8611006Y11334750D01*
X8606332Y11332006D01*
X8600694Y11329568D01*
X8594140Y11327587D01*
X8586673Y11325961D01*
X8578291Y11324793D01*
X8568893Y11324082D01*
X8558530Y11323828D01*
X8547963Y11324082D01*
X8538413Y11324793D01*
X8529828Y11325961D01*
X8522208Y11327587D01*
X8515553Y11329568D01*
X8509812Y11332006D01*
X8505037Y11334750D01*
X8501126Y11337848D01*
X8498078Y11341303D01*
X8495944Y11345011D01*
X8494674Y11349024D01*
X8494268Y11353292D01*
X8481060Y11353292D01*
X8481364Y11348161D01*
X8482228Y11343284D01*
X8483752Y11338712D01*
X8485835Y11334343D01*
X8488527Y11330330D01*
X8491829Y11326571D01*
X8495741Y11323116D01*
X8500262Y11319967D01*
X8505393Y11317122D01*
X8511133Y11314684D01*
X8517483Y11312550D01*
X8524443Y11310772D01*
X8532063Y11309400D01*
X8540242Y11308384D01*
X8549081Y11307775D01*
X8558530Y11307572D01*
X8567877Y11307775D01*
X8576614Y11308384D01*
X8584742Y11309400D01*
X8592210Y11310772D01*
X8599119Y11312550D01*
X8605367Y11314684D01*
X8611057Y11317122D01*
X8616086Y11319967D01*
X8620556Y11323116D01*
X8624366Y11326571D01*
X8627618Y11330330D01*
X8630310Y11334343D01*
X8632342Y11338712D01*
X8633815Y11343284D01*
X8634679Y11348161D01*
X8634984Y11353292D01*
X8634679Y11358422D01*
X8633815Y11363248D01*
X8632342Y11367871D01*
X8630310Y11372189D01*
X8627618Y11376202D01*
X8624366Y11379962D01*
X8620556Y11383365D01*
X8616086Y11386515D01*
X8611057Y11389309D01*
X8605367Y11391747D01*
X8599119Y11393830D01*
X8592210Y11395608D01*
X8584742Y11396980D01*
X8576614Y11397945D01*
X8567877Y11398554D01*
G37*
G36*
X8531860Y11286490D02*
G01*
X8524036Y11286032D01*
X8516823Y11284661D01*
X8510219Y11282476D01*
X8504224Y11279530D01*
X8498941Y11275923D01*
X8494268Y11271707D01*
X8490305Y11267033D01*
X8487003Y11261902D01*
X8484412Y11256365D01*
X8482584Y11250574D01*
X8481415Y11244580D01*
X8481060Y11238484D01*
X8481517Y11230254D01*
X8482736Y11222837D01*
X8484616Y11216132D01*
X8487105Y11210188D01*
X8490051Y11204803D01*
X8493404Y11199977D01*
X8496909Y11195659D01*
X8500618Y11191748D01*
X8511540Y11199876D01*
X8508339Y11203228D01*
X8505291Y11206835D01*
X8502446Y11210798D01*
X8499906Y11215116D01*
X8497824Y11219840D01*
X8496198Y11225072D01*
X8495131Y11230864D01*
X8494776Y11237214D01*
X8495436Y11243716D01*
X8497366Y11249812D01*
X8500465Y11255400D01*
X8504682Y11260277D01*
X8509965Y11264290D01*
X8516213Y11267338D01*
X8523376Y11269319D01*
X8531352Y11269980D01*
X8539124Y11269421D01*
X8546033Y11267694D01*
X8552027Y11264950D01*
X8557056Y11261242D01*
X8561070Y11256568D01*
X8564016Y11251133D01*
X8565794Y11244884D01*
X8566404Y11237976D01*
X8565845Y11230914D01*
X8564168Y11224717D01*
X8561374Y11218875D01*
X8557514Y11212830D01*
X8563356Y11203686D01*
X8632444Y11208258D01*
X8632444Y11279378D01*
X8618220Y11279378D01*
X8618220Y11222990D01*
X8573008Y11218926D01*
X8575598Y11224107D01*
X8577630Y11229543D01*
X8578900Y11235436D01*
X8579358Y11242040D01*
X8579053Y11248085D01*
X8578138Y11253876D01*
X8576564Y11259362D01*
X8574328Y11264493D01*
X8571433Y11269218D01*
X8567877Y11273485D01*
X8563660Y11277244D01*
X8558733Y11280444D01*
X8553094Y11282984D01*
X8546744Y11284915D01*
X8539683Y11286083D01*
G37*
G36*
X8529066Y11177016D02*
G01*
X8522106Y11176609D01*
X8515553Y11175492D01*
X8509457Y11173663D01*
X8503869Y11171174D01*
X8498789Y11168126D01*
X8494318Y11164519D01*
X8490407Y11160506D01*
X8487105Y11156035D01*
X8484514Y11151209D01*
X8482634Y11146078D01*
X8481466Y11140694D01*
X8481060Y11135106D01*
X8494268Y11135106D01*
X8494928Y11140541D01*
X8496808Y11145520D01*
X8499856Y11149990D01*
X8503970Y11153800D01*
X8509000Y11156950D01*
X8514943Y11159286D01*
X8521649Y11160760D01*
X8529066Y11161268D01*
X8536432Y11160861D01*
X8543086Y11159591D01*
X8548979Y11157458D01*
X8553907Y11154460D01*
X8557920Y11150549D01*
X8560866Y11145723D01*
X8562746Y11139982D01*
X8563356Y11133328D01*
X8563102Y11129721D01*
X8562238Y11125911D01*
X8560816Y11121999D01*
X8558784Y11117986D01*
X8556040Y11113973D01*
X8552637Y11109909D01*
X8548471Y11105946D01*
X8543544Y11102086D01*
X8535974Y11102797D01*
X8528964Y11103864D01*
X8522563Y11105337D01*
X8516772Y11107216D01*
X8511590Y11109452D01*
X8507120Y11112042D01*
X8503259Y11114989D01*
X8500059Y11118291D01*
X8497519Y11121999D01*
X8495741Y11126012D01*
X8494623Y11130381D01*
X8494268Y11135106D01*
X8481060Y11135106D01*
X8481364Y11129822D01*
X8482228Y11124742D01*
X8483650Y11119916D01*
X8485682Y11115344D01*
X8488273Y11111026D01*
X8491423Y11106962D01*
X8495131Y11103254D01*
X8499449Y11099850D01*
X8504326Y11096752D01*
X8509762Y11094008D01*
X8515756Y11091672D01*
X8522309Y11089690D01*
X8529421Y11088166D01*
X8537143Y11086998D01*
X8545372Y11086338D01*
X8554212Y11086084D01*
X8562797Y11086287D01*
X8570772Y11086846D01*
X8578291Y11087760D01*
X8585250Y11089030D01*
X8591702Y11090554D01*
X8597646Y11092434D01*
X8603132Y11094618D01*
X8608110Y11097006D01*
X8612632Y11099698D01*
X8616696Y11102594D01*
X8620302Y11105692D01*
X8623503Y11108994D01*
X8626297Y11112500D01*
X8628684Y11116157D01*
X8630666Y11119967D01*
X8632240Y11123879D01*
X8633460Y11127892D01*
X8634323Y11132007D01*
X8634831Y11136172D01*
X8634984Y11140440D01*
X8634679Y11145875D01*
X8633866Y11150955D01*
X8632545Y11155629D01*
X8630767Y11160048D01*
X8628583Y11164062D01*
X8626094Y11167821D01*
X8623300Y11171275D01*
X8620252Y11174476D01*
X8609838Y11165078D01*
X8614613Y11159998D01*
X8618220Y11154156D01*
X8620506Y11147704D01*
X8621268Y11140948D01*
X8621064Y11137087D01*
X8620455Y11133328D01*
X8619439Y11129670D01*
X8617966Y11126114D01*
X8616035Y11122761D01*
X8613597Y11119561D01*
X8610701Y11116513D01*
X8607196Y11113719D01*
X8603183Y11111179D01*
X8598560Y11108893D01*
X8593328Y11106861D01*
X8587536Y11105134D01*
X8581034Y11103711D01*
X8573871Y11102644D01*
X8566048Y11101933D01*
X8557514Y11101578D01*
X8561476Y11105235D01*
X8565032Y11109198D01*
X8568131Y11113414D01*
X8570722Y11117783D01*
X8572804Y11122253D01*
X8574278Y11126774D01*
X8575243Y11131346D01*
X8575548Y11135868D01*
X8575243Y11142014D01*
X8574278Y11147755D01*
X8572652Y11152987D01*
X8570366Y11157813D01*
X8567470Y11162131D01*
X8563914Y11165941D01*
X8559749Y11169243D01*
X8554872Y11171986D01*
X8549386Y11174171D01*
X8543290Y11175746D01*
X8536482Y11176711D01*
G37*
G36*
X8278114Y12231878D02*
G01*
X8272678Y12231674D01*
X8268208Y12231116D01*
X8268208Y12217146D01*
X8280400Y12217146D01*
X8288629Y12216638D01*
X8295792Y12215215D01*
X8301939Y12212878D01*
X8306968Y12209678D01*
X8310880Y12205614D01*
X8313674Y12200737D01*
X8315401Y12195098D01*
X8315959Y12188698D01*
X8315350Y12182703D01*
X8313521Y12177014D01*
X8310625Y12171730D01*
X8306562Y12166955D01*
X8301481Y12162891D01*
X8295386Y12159640D01*
X8288324Y12157252D01*
X8280400Y12155932D01*
X8280400Y12217146D01*
X8268208Y12217146D01*
X8268208Y12155932D01*
X8262264Y12156490D01*
X8256727Y12157557D01*
X8251545Y12159183D01*
X8246821Y12161266D01*
X8242553Y12163856D01*
X8238744Y12166904D01*
X8235442Y12170410D01*
X8232698Y12174270D01*
X8230463Y12178588D01*
X8228888Y12183211D01*
X8227923Y12188190D01*
X8227568Y12193524D01*
X8228177Y12201347D01*
X8229904Y12208560D01*
X8232698Y12215215D01*
X8236458Y12221464D01*
X8225536Y12227560D01*
X8221218Y12219990D01*
X8219338Y12215926D01*
X8217662Y12211608D01*
X8216290Y12207036D01*
X8215274Y12202210D01*
X8214614Y12197029D01*
X8214359Y12191492D01*
X8214614Y12186158D01*
X8215325Y12181027D01*
X8216544Y12176048D01*
X8218271Y12171273D01*
X8220405Y12166752D01*
X8222996Y12162485D01*
X8226044Y12158472D01*
X8229549Y12154814D01*
X8233460Y12151461D01*
X8237728Y12148515D01*
X8242452Y12145924D01*
X8247583Y12143740D01*
X8253069Y12142012D01*
X8258962Y12140742D01*
X8265159Y12139930D01*
X8271764Y12139676D01*
X8278266Y12139930D01*
X8284464Y12140742D01*
X8290306Y12142012D01*
X8295792Y12143740D01*
X8300872Y12145924D01*
X8305647Y12148464D01*
X8309965Y12151410D01*
X8313928Y12154611D01*
X8317433Y12158167D01*
X8320531Y12161977D01*
X8323224Y12165990D01*
X8325408Y12170206D01*
X8327136Y12174626D01*
X8328406Y12179147D01*
X8329168Y12183770D01*
X8329422Y12188444D01*
X8329015Y12195048D01*
X8327847Y12201194D01*
X8325866Y12206782D01*
X8323173Y12211913D01*
X8319770Y12216434D01*
X8315655Y12220448D01*
X8310930Y12223851D01*
X8305546Y12226696D01*
X8299500Y12228931D01*
X8292947Y12230557D01*
X8285784Y12231522D01*
G37*
G36*
X8216900Y12109704D02*
G01*
X8216900Y12095988D01*
X8230108Y12094718D01*
X8230108Y12093956D01*
X8226958Y12090552D01*
X8224012Y12086945D01*
X8221319Y12083034D01*
X8218982Y12078868D01*
X8217052Y12074499D01*
X8215630Y12069927D01*
X8214664Y12065152D01*
X8214562Y12063476D01*
X8228330Y12063476D01*
X8229346Y12071248D01*
X8232241Y12078716D01*
X8237118Y12085980D01*
X8243824Y12093194D01*
X8303259Y12093194D01*
X8308797Y12085980D01*
X8312607Y12079020D01*
X8314740Y12072213D01*
X8315452Y12065254D01*
X8315096Y12060631D01*
X8313978Y12056262D01*
X8312251Y12052147D01*
X8309813Y12048286D01*
X8306816Y12044730D01*
X8303209Y12041581D01*
X8299094Y12038787D01*
X8294471Y12036450D01*
X8289391Y12034520D01*
X8283905Y12033148D01*
X8278012Y12032284D01*
X8271764Y12031980D01*
X8265261Y12032234D01*
X8259216Y12032894D01*
X8253628Y12034062D01*
X8248548Y12035688D01*
X8243976Y12037720D01*
X8239963Y12040209D01*
X8236508Y12043105D01*
X8233613Y12046407D01*
X8231327Y12050064D01*
X8229701Y12054179D01*
X8228685Y12058650D01*
X8228330Y12063476D01*
X8214562Y12063476D01*
X8214359Y12060174D01*
X8214614Y12055094D01*
X8215325Y12050268D01*
X8216493Y12045696D01*
X8218170Y12041378D01*
X8220252Y12037364D01*
X8222792Y12033605D01*
X8225790Y12030202D01*
X8229244Y12027052D01*
X8233105Y12024258D01*
X8237423Y12021769D01*
X8242147Y12019686D01*
X8247278Y12017908D01*
X8252764Y12016536D01*
X8258708Y12015520D01*
X8265058Y12014911D01*
X8271764Y12014708D01*
X8278215Y12014962D01*
X8284362Y12015724D01*
X8290204Y12016943D01*
X8295690Y12018619D01*
X8300770Y12020702D01*
X8305546Y12023191D01*
X8309864Y12025985D01*
X8313826Y12029135D01*
X8317382Y12032589D01*
X8320481Y12036298D01*
X8323173Y12040260D01*
X8325358Y12044375D01*
X8327136Y12048693D01*
X8328406Y12053163D01*
X8329168Y12057786D01*
X8329422Y12062460D01*
X8328558Y12071553D01*
X8326018Y12079427D01*
X8321903Y12086691D01*
X8316468Y12093956D01*
X8335518Y12093194D01*
X8378698Y12093194D01*
X8378698Y12109704D01*
G37*
G36*
X8271764Y11993372D02*
G01*
X8265109Y11993118D01*
X8258860Y11992305D01*
X8252968Y11990984D01*
X8247481Y11989206D01*
X8242350Y11987022D01*
X8237626Y11984380D01*
X8233308Y11981383D01*
X8229447Y11978081D01*
X8225993Y11974423D01*
X8222945Y11970461D01*
X8220354Y11966295D01*
X8218220Y11961876D01*
X8216544Y11957253D01*
X8215325Y11952478D01*
X8214614Y11947601D01*
X8214359Y11942572D01*
X8228075Y11942572D01*
X8228431Y11947398D01*
X8229498Y11951919D01*
X8231225Y11956186D01*
X8233613Y11960047D01*
X8236559Y11963603D01*
X8240115Y11966752D01*
X8244179Y11969496D01*
X8248802Y11971832D01*
X8253882Y11973661D01*
X8259419Y11974982D01*
X8265414Y11975795D01*
X8271764Y11976100D01*
X8278063Y11975795D01*
X8284006Y11974982D01*
X8289544Y11973661D01*
X8294624Y11971832D01*
X8299196Y11969496D01*
X8303310Y11966752D01*
X8306866Y11963603D01*
X8309864Y11960047D01*
X8312251Y11956186D01*
X8314029Y11951919D01*
X8315096Y11947398D01*
X8315452Y11942572D01*
X8315096Y11937796D01*
X8314029Y11933326D01*
X8312251Y11929110D01*
X8309864Y11925249D01*
X8306866Y11921744D01*
X8303310Y11918594D01*
X8299196Y11915851D01*
X8294624Y11913565D01*
X8289544Y11911736D01*
X8284006Y11910415D01*
X8278063Y11909602D01*
X8271764Y11909298D01*
X8265414Y11909602D01*
X8259419Y11910415D01*
X8253882Y11911736D01*
X8248802Y11913565D01*
X8244179Y11915851D01*
X8240115Y11918594D01*
X8236559Y11921744D01*
X8233613Y11925249D01*
X8231225Y11929110D01*
X8229498Y11933326D01*
X8228431Y11937796D01*
X8228075Y11942572D01*
X8214359Y11942572D01*
X8214614Y11937593D01*
X8215325Y11932767D01*
X8216544Y11928043D01*
X8218220Y11923471D01*
X8220354Y11919102D01*
X8222945Y11914936D01*
X8225993Y11911025D01*
X8229447Y11907418D01*
X8233308Y11904116D01*
X8237626Y11901170D01*
X8242350Y11898579D01*
X8247481Y11896394D01*
X8252968Y11894616D01*
X8258860Y11893346D01*
X8265109Y11892534D01*
X8271764Y11892280D01*
X8278418Y11892534D01*
X8284718Y11893346D01*
X8290661Y11894616D01*
X8296198Y11896394D01*
X8301329Y11898579D01*
X8306104Y11901170D01*
X8310422Y11904116D01*
X8314334Y11907418D01*
X8317788Y11911025D01*
X8320836Y11914936D01*
X8323427Y11919102D01*
X8325561Y11923471D01*
X8327237Y11928043D01*
X8328456Y11932767D01*
X8329168Y11937593D01*
X8329422Y11942572D01*
X8329168Y11947601D01*
X8328456Y11952478D01*
X8327237Y11957253D01*
X8325561Y11961876D01*
X8323427Y11966295D01*
X8320836Y11970461D01*
X8317788Y11974423D01*
X8314334Y11978081D01*
X8310422Y11981383D01*
X8306104Y11984380D01*
X8301329Y11987022D01*
X8296198Y11989206D01*
X8290661Y11990984D01*
X8284718Y11992305D01*
X8278418Y11993118D01*
G37*
G36*
X8235696Y11873992D02*
G01*
X8230819Y11869470D01*
X8226552Y11864695D01*
X8222894Y11859666D01*
X8219897Y11854230D01*
X8217509Y11848490D01*
X8215782Y11842343D01*
X8214715Y11835790D01*
X8214359Y11828780D01*
X8214563Y11823344D01*
X8215223Y11818061D01*
X8216290Y11812930D01*
X8217712Y11808002D01*
X8219592Y11803227D01*
X8221878Y11798706D01*
X8224520Y11794388D01*
X8227568Y11790324D01*
X8230971Y11786514D01*
X8234730Y11782958D01*
X8238896Y11779707D01*
X8243366Y11776710D01*
X8248243Y11774017D01*
X8253425Y11771630D01*
X8258962Y11769598D01*
X8264804Y11767870D01*
X8270951Y11766550D01*
X8277453Y11765584D01*
X8284209Y11764975D01*
X8291322Y11764772D01*
X8298332Y11764975D01*
X8305088Y11765584D01*
X8311540Y11766550D01*
X8317687Y11767921D01*
X8323478Y11769648D01*
X8329015Y11771731D01*
X8334197Y11774119D01*
X8339023Y11776811D01*
X8343544Y11779859D01*
X8347709Y11783161D01*
X8351520Y11786768D01*
X8354923Y11790680D01*
X8358022Y11794794D01*
X8360664Y11799163D01*
X8362950Y11803786D01*
X8364880Y11808612D01*
X8366353Y11813641D01*
X8367420Y11818823D01*
X8368080Y11824258D01*
X8368284Y11829796D01*
X8367877Y11836450D01*
X8366810Y11842648D01*
X8365032Y11848439D01*
X8362797Y11853722D01*
X8360105Y11858599D01*
X8357057Y11863019D01*
X8353704Y11866981D01*
X8350250Y11870436D01*
X8339328Y11861038D01*
X8345068Y11854688D01*
X8349589Y11847474D01*
X8352485Y11839244D01*
X8353552Y11830050D01*
X8353298Y11824716D01*
X8352485Y11819686D01*
X8351113Y11814860D01*
X8349284Y11810339D01*
X8346897Y11806072D01*
X8344052Y11802160D01*
X8340750Y11798503D01*
X8336940Y11795201D01*
X8332724Y11792204D01*
X8328050Y11789613D01*
X8322970Y11787327D01*
X8317433Y11785447D01*
X8311540Y11783974D01*
X8305241Y11782907D01*
X8298586Y11782247D01*
X8291575Y11782044D01*
X8284565Y11782247D01*
X8277859Y11782907D01*
X8271560Y11783923D01*
X8265617Y11785346D01*
X8260080Y11787174D01*
X8254949Y11789359D01*
X8250224Y11791950D01*
X8245957Y11794845D01*
X8242096Y11798096D01*
X8238744Y11801652D01*
X8235848Y11805564D01*
X8233460Y11809780D01*
X8231581Y11814302D01*
X8230209Y11819128D01*
X8229396Y11824208D01*
X8229092Y11829542D01*
X8229396Y11834825D01*
X8230209Y11839752D01*
X8231581Y11844426D01*
X8233511Y11848896D01*
X8235950Y11853062D01*
X8238845Y11857075D01*
X8242249Y11860885D01*
X8246109Y11864594D01*
G37*
G36*
X8216900Y11746738D02*
G01*
X8216900Y11727942D01*
X8281162Y11690604D01*
X8281162Y11662918D01*
X8294878Y11662918D01*
X8294878Y11688826D01*
X8295335Y11697360D01*
X8296706Y11704828D01*
X8298992Y11711228D01*
X8302193Y11716562D01*
X8306308Y11720728D01*
X8311388Y11723725D01*
X8317382Y11725554D01*
X8324342Y11726164D01*
X8331352Y11725554D01*
X8337245Y11723725D01*
X8342020Y11720728D01*
X8345779Y11716562D01*
X8348624Y11711228D01*
X8350554Y11704828D01*
X8351672Y11697360D01*
X8352028Y11688826D01*
X8352028Y11662918D01*
X8216900Y11662918D01*
X8216900Y11645900D01*
X8365744Y11645900D01*
X8365744Y11691620D01*
X8365490Y11698986D01*
X8364778Y11705894D01*
X8363559Y11712397D01*
X8361781Y11718340D01*
X8359444Y11723776D01*
X8356447Y11728602D01*
X8352891Y11732818D01*
X8348624Y11736324D01*
X8343646Y11739168D01*
X8338007Y11741251D01*
X8331555Y11742470D01*
X8324342Y11742928D01*
X8318703Y11742623D01*
X8313470Y11741810D01*
X8308644Y11740438D01*
X8304225Y11738610D01*
X8300212Y11736273D01*
X8296554Y11733479D01*
X8293303Y11730228D01*
X8290458Y11726621D01*
X8287969Y11722557D01*
X8285835Y11718188D01*
X8284057Y11713464D01*
X8282686Y11708384D01*
G37*
G36*
X8291830Y11613388D02*
G01*
X8284972Y11613184D01*
X8278368Y11612676D01*
X8272068Y11611762D01*
X8266074Y11610543D01*
X8260384Y11608968D01*
X8255050Y11606987D01*
X8249970Y11604701D01*
X8245246Y11602110D01*
X8240877Y11599113D01*
X8236813Y11595811D01*
X8233156Y11592153D01*
X8229803Y11588140D01*
X8226856Y11583822D01*
X8224266Y11579148D01*
X8222030Y11574170D01*
X8220202Y11568836D01*
X8218779Y11563197D01*
X8217712Y11557203D01*
X8217103Y11550904D01*
X8216900Y11544300D01*
X8216900Y11523980D01*
X8230616Y11523980D01*
X8230616Y11542268D01*
X8230870Y11548872D01*
X8231682Y11555018D01*
X8233003Y11560708D01*
X8234883Y11565991D01*
X8237169Y11570868D01*
X8240014Y11575288D01*
X8243265Y11579250D01*
X8247024Y11582806D01*
X8251190Y11585956D01*
X8255812Y11588648D01*
X8260842Y11590934D01*
X8266277Y11592814D01*
X8272119Y11594236D01*
X8278317Y11595303D01*
X8284921Y11595912D01*
X8291830Y11596116D01*
X8298789Y11595912D01*
X8305342Y11595303D01*
X8311489Y11594236D01*
X8317280Y11592814D01*
X8322614Y11590934D01*
X8327542Y11588648D01*
X8332012Y11585956D01*
X8336076Y11582806D01*
X8339683Y11579250D01*
X8342833Y11575288D01*
X8345525Y11570868D01*
X8347760Y11565991D01*
X8349488Y11560708D01*
X8350758Y11555018D01*
X8351520Y11548872D01*
X8351774Y11542268D01*
X8351774Y11523980D01*
X8216900Y11523980D01*
X8216900Y11507216D01*
X8365744Y11507216D01*
X8365744Y11543792D01*
X8365540Y11550497D01*
X8364931Y11556847D01*
X8363915Y11562892D01*
X8362543Y11568582D01*
X8360765Y11573967D01*
X8358631Y11578996D01*
X8356092Y11583670D01*
X8353196Y11588038D01*
X8349945Y11592052D01*
X8346287Y11595760D01*
X8342325Y11599062D01*
X8338058Y11602059D01*
X8333384Y11604701D01*
X8328406Y11606987D01*
X8323072Y11608917D01*
X8317484Y11610543D01*
X8311540Y11611762D01*
X8305241Y11612676D01*
X8298688Y11613184D01*
G37*
G36*
X8291830Y11474450D02*
G01*
X8284972Y11474297D01*
X8278368Y11473738D01*
X8272068Y11472875D01*
X8266074Y11471656D01*
X8260384Y11470030D01*
X8255050Y11468150D01*
X8249970Y11465864D01*
X8245246Y11463223D01*
X8240877Y11460276D01*
X8236813Y11456974D01*
X8233156Y11453368D01*
X8229803Y11449354D01*
X8226856Y11445087D01*
X8224266Y11440414D01*
X8222030Y11435435D01*
X8220202Y11430152D01*
X8218779Y11424513D01*
X8217712Y11418519D01*
X8217103Y11412220D01*
X8216900Y11405616D01*
X8216900Y11385296D01*
X8230616Y11385296D01*
X8230616Y11403584D01*
X8230870Y11410137D01*
X8231682Y11416233D01*
X8233003Y11421922D01*
X8234883Y11427155D01*
X8237169Y11431981D01*
X8240014Y11436400D01*
X8243265Y11440363D01*
X8247024Y11443919D01*
X8251190Y11447018D01*
X8255812Y11449710D01*
X8260842Y11451996D01*
X8266277Y11453876D01*
X8272119Y11455298D01*
X8278317Y11456365D01*
X8284921Y11456974D01*
X8291830Y11457178D01*
X8298789Y11456974D01*
X8305342Y11456365D01*
X8311489Y11455298D01*
X8317280Y11453876D01*
X8322614Y11451996D01*
X8327542Y11449710D01*
X8332012Y11447018D01*
X8336076Y11443919D01*
X8339683Y11440363D01*
X8342833Y11436400D01*
X8345525Y11431981D01*
X8347760Y11427155D01*
X8349488Y11421922D01*
X8350758Y11416233D01*
X8351520Y11410137D01*
X8351774Y11403584D01*
X8351774Y11385296D01*
X8216900Y11385296D01*
X8216900Y11368532D01*
X8365744Y11368532D01*
X8365744Y11405108D01*
X8365540Y11411813D01*
X8364931Y11418163D01*
X8363915Y11424208D01*
X8362543Y11429898D01*
X8360765Y11435232D01*
X8358631Y11440261D01*
X8356092Y11444935D01*
X8353196Y11449253D01*
X8349945Y11453266D01*
X8346287Y11456924D01*
X8342325Y11460226D01*
X8338058Y11463223D01*
X8333384Y11465814D01*
X8328406Y11468100D01*
X8323072Y11470030D01*
X8317484Y11471605D01*
X8311540Y11472875D01*
X8305241Y11473738D01*
X8298688Y11474297D01*
G37*
G36*
X8326628Y11299698D02*
G01*
X8201609Y11255908D01*
X8196681Y11253825D01*
X8192058Y11251539D01*
X8187690Y11249050D01*
X8183625Y11246256D01*
X8180019Y11243208D01*
X8176818Y11239804D01*
X8174075Y11236147D01*
X8171891Y11232134D01*
X8170265Y11227765D01*
X8169249Y11223040D01*
X8168894Y11217910D01*
X8169046Y11214404D01*
X8169452Y11211102D01*
X8170164Y11208004D01*
X8171180Y11205210D01*
X8184642Y11208766D01*
X8183016Y11214862D01*
X8182864Y11217148D01*
X8183372Y11221720D01*
X8184743Y11225834D01*
X8186978Y11229594D01*
X8189975Y11232946D01*
X8193633Y11235893D01*
X8197850Y11238534D01*
X8202625Y11240820D01*
X8207756Y11242802D01*
X8216392Y11245342D01*
X8326628Y11200892D01*
X8326628Y11218164D01*
X8256371Y11244224D01*
X8232902Y11252708D01*
X8232902Y11253724D01*
X8263890Y11262868D01*
X8326628Y11283442D01*
G37*
G36*
X8273542Y11188700D02*
G01*
X8266684Y11188446D01*
X8260181Y11187684D01*
X8254136Y11186464D01*
X8248446Y11184788D01*
X8243163Y11182705D01*
X8238286Y11180216D01*
X8233867Y11177371D01*
X8229853Y11174222D01*
X8226298Y11170767D01*
X8223148Y11167059D01*
X8220506Y11163096D01*
X8218322Y11158931D01*
X8216595Y11154562D01*
X8215375Y11150041D01*
X8214614Y11145418D01*
X8214359Y11140694D01*
X8214654Y11138154D01*
X8228330Y11138154D01*
X8228685Y11142827D01*
X8229752Y11147247D01*
X8231479Y11151412D01*
X8233816Y11155222D01*
X8236813Y11158778D01*
X8240420Y11161928D01*
X8244586Y11164722D01*
X8249310Y11167059D01*
X8254593Y11168888D01*
X8260334Y11170310D01*
X8266582Y11171123D01*
X8273288Y11171428D01*
X8279333Y11171224D01*
X8285073Y11170666D01*
X8290356Y11169751D01*
X8295284Y11168380D01*
X8299754Y11166602D01*
X8303717Y11164366D01*
X8307171Y11161725D01*
X8310067Y11158575D01*
X8312353Y11154918D01*
X8314080Y11150803D01*
X8315096Y11146129D01*
X8315452Y11140948D01*
X8314436Y11133632D01*
X8311388Y11126063D01*
X8306460Y11118291D01*
X8299703Y11110214D01*
X8240268Y11110214D01*
X8234629Y11117834D01*
X8230971Y11125250D01*
X8228939Y11132108D01*
X8228330Y11138154D01*
X8214654Y11138154D01*
X8215274Y11132820D01*
X8218017Y11124641D01*
X8222386Y11116564D01*
X8228330Y11108944D01*
X8228330Y11108436D01*
X8216900Y11106658D01*
X8216900Y11093704D01*
X8378698Y11093704D01*
X8378698Y11110214D01*
X8333740Y11110214D01*
X8313674Y11109452D01*
X8316823Y11113363D01*
X8319770Y11117478D01*
X8322462Y11121745D01*
X8324799Y11126165D01*
X8326729Y11130686D01*
X8328152Y11135309D01*
X8329117Y11140033D01*
X8329422Y11144758D01*
X8329168Y11149990D01*
X8328406Y11154867D01*
X8327136Y11159490D01*
X8325459Y11163757D01*
X8323275Y11167668D01*
X8320633Y11171275D01*
X8317585Y11174526D01*
X8314131Y11177473D01*
X8310321Y11180114D01*
X8306053Y11182350D01*
X8301481Y11184280D01*
X8296503Y11185855D01*
X8291220Y11187125D01*
X8285632Y11187988D01*
X8279739Y11188496D01*
G37*
G36*
X7940802Y12008866D02*
G01*
X7940802Y11988546D01*
X7899400Y11988546D01*
X7899400Y11972798D01*
X7940802Y11972798D01*
X7940802Y11925300D01*
X7954009Y11925300D01*
X7954009Y11972798D01*
X8002524Y11972798D01*
X8015630Y11973255D01*
X8028940Y11974068D01*
X8028940Y11973052D01*
X8018170Y11967413D01*
X8007350Y11961368D01*
X7954009Y11925300D01*
X7940802Y11925300D01*
X7940802Y11907520D01*
X7951724Y11907520D01*
X8048244Y11970766D01*
X8048244Y11988546D01*
X7954009Y11988546D01*
X7954009Y12008866D01*
G37*
G36*
X7899400Y11893296D02*
G01*
X7899400Y11801348D01*
X7909306Y11801348D01*
X7921396Y11814810D01*
X7932877Y11826697D01*
X7943748Y11837111D01*
X7954060Y11846001D01*
X7963865Y11853468D01*
X7973161Y11859463D01*
X7977682Y11861952D01*
X7986369Y11865914D01*
X7994700Y11868505D01*
X8002727Y11869775D01*
X8006588Y11869928D01*
X8012938Y11869521D01*
X8018780Y11868251D01*
X8024012Y11866118D01*
X8028533Y11863070D01*
X8032242Y11859158D01*
X8034985Y11854281D01*
X8036712Y11848490D01*
X8037322Y11841734D01*
X8036966Y11837162D01*
X8036001Y11832742D01*
X8034375Y11828475D01*
X8032292Y11824411D01*
X8029702Y11820550D01*
X8026704Y11816842D01*
X8023402Y11813336D01*
X8019796Y11809984D01*
X8028940Y11800332D01*
X8033664Y11804853D01*
X8037931Y11809526D01*
X8041640Y11814403D01*
X8044840Y11819534D01*
X8047380Y11824970D01*
X8049209Y11830710D01*
X8050377Y11836908D01*
X8050784Y11843512D01*
X8050428Y11849912D01*
X8049412Y11855856D01*
X8047736Y11861342D01*
X8045399Y11866321D01*
X8042452Y11870791D01*
X8038947Y11874754D01*
X8034934Y11878157D01*
X8030362Y11881002D01*
X8025282Y11883237D01*
X8019745Y11884863D01*
X8013750Y11885828D01*
X8007350Y11886184D01*
X8002828Y11886031D01*
X7998256Y11885472D01*
X7993735Y11884660D01*
X7984591Y11881967D01*
X7975346Y11878056D01*
X7966049Y11872925D01*
X7956651Y11866676D01*
X7947101Y11859361D01*
X7937398Y11851030D01*
X7927543Y11841784D01*
X7912353Y11826240D01*
X7913268Y11838736D01*
X7913624Y11850624D01*
X7913624Y11893296D01*
G37*
G36*
X7974330Y11781790D02*
G01*
X7964881Y11781586D01*
X7956042Y11780977D01*
X7947863Y11780012D01*
X7940243Y11778640D01*
X7933283Y11776862D01*
X7926933Y11774779D01*
X7921193Y11772341D01*
X7916062Y11769547D01*
X7911541Y11766448D01*
X7907629Y11763044D01*
X7904327Y11759336D01*
X7901635Y11755323D01*
X7899552Y11751056D01*
X7898028Y11746484D01*
X7897164Y11741658D01*
X7896859Y11736578D01*
X7910068Y11736578D01*
X7910474Y11740845D01*
X7911744Y11744807D01*
X7913878Y11748516D01*
X7916925Y11751919D01*
X7920837Y11755018D01*
X7925612Y11757761D01*
X7931353Y11760149D01*
X7938008Y11762130D01*
X7945628Y11763705D01*
X7954213Y11764822D01*
X7963763Y11765534D01*
X7974330Y11765788D01*
X7984693Y11765534D01*
X7994091Y11764822D01*
X8002473Y11763705D01*
X8009940Y11762130D01*
X8016494Y11760149D01*
X8022132Y11757761D01*
X8026806Y11755018D01*
X8030667Y11751919D01*
X8033562Y11748516D01*
X8035696Y11744807D01*
X8036915Y11740845D01*
X8037322Y11736578D01*
X8036915Y11732260D01*
X8035696Y11728196D01*
X8033562Y11724436D01*
X8030667Y11720982D01*
X8026806Y11717832D01*
X8022132Y11715038D01*
X8016494Y11712651D01*
X8009940Y11710619D01*
X8002473Y11708993D01*
X7994091Y11707825D01*
X7984693Y11707114D01*
X7974330Y11706860D01*
X7963763Y11707114D01*
X7954213Y11707825D01*
X7945628Y11708993D01*
X7938008Y11710619D01*
X7931353Y11712651D01*
X7925612Y11715038D01*
X7920837Y11717832D01*
X7916925Y11720982D01*
X7913878Y11724436D01*
X7911744Y11728196D01*
X7910474Y11732260D01*
X7910068Y11736578D01*
X7896859Y11736578D01*
X7897164Y11731396D01*
X7898028Y11726519D01*
X7899552Y11721896D01*
X7901635Y11717528D01*
X7904327Y11713464D01*
X7907629Y11709704D01*
X7911541Y11706250D01*
X7916062Y11703151D01*
X7921193Y11700357D01*
X7926933Y11697868D01*
X7933283Y11695785D01*
X7940243Y11694058D01*
X7947863Y11692636D01*
X7956042Y11691670D01*
X7964881Y11691061D01*
X7974330Y11690858D01*
X7983677Y11691061D01*
X7992414Y11691670D01*
X8000542Y11692636D01*
X8008010Y11694058D01*
X8014919Y11695785D01*
X8021167Y11697868D01*
X8026857Y11700357D01*
X8031886Y11703151D01*
X8036356Y11706250D01*
X8040166Y11709704D01*
X8043418Y11713464D01*
X8046110Y11717528D01*
X8048142Y11721896D01*
X8049615Y11726519D01*
X8050479Y11731396D01*
X8050784Y11736578D01*
X8050479Y11741658D01*
X8049615Y11746484D01*
X8048142Y11751056D01*
X8046110Y11755323D01*
X8043418Y11759336D01*
X8040166Y11763044D01*
X8036356Y11766448D01*
X8031886Y11769547D01*
X8026857Y11772341D01*
X8021167Y11774779D01*
X8014919Y11776862D01*
X8008010Y11778640D01*
X8000542Y11780012D01*
X7992414Y11780977D01*
X7983677Y11781586D01*
G37*
G36*
X7899400Y11670284D02*
G01*
X7899400Y11578336D01*
X7909306Y11578336D01*
X7921396Y11591798D01*
X7932877Y11603685D01*
X7943748Y11614099D01*
X7954060Y11622989D01*
X7963865Y11630456D01*
X7973161Y11636451D01*
X7977682Y11638940D01*
X7986369Y11642902D01*
X7994700Y11645493D01*
X8002727Y11646763D01*
X8006588Y11646916D01*
X8012938Y11646509D01*
X8018780Y11645239D01*
X8024012Y11643106D01*
X8028533Y11640058D01*
X8032242Y11636146D01*
X8034985Y11631269D01*
X8036712Y11625478D01*
X8037322Y11618722D01*
X8036966Y11614150D01*
X8036001Y11609730D01*
X8034375Y11605463D01*
X8032292Y11601399D01*
X8029702Y11597538D01*
X8026704Y11593830D01*
X8023402Y11590324D01*
X8019796Y11586972D01*
X8028940Y11577320D01*
X8033664Y11581841D01*
X8037931Y11586514D01*
X8041640Y11591340D01*
X8044840Y11596420D01*
X8047380Y11601856D01*
X8049209Y11607596D01*
X8050377Y11613794D01*
X8050784Y11620500D01*
X8050428Y11626900D01*
X8049412Y11632844D01*
X8047736Y11638330D01*
X8045399Y11643309D01*
X8042452Y11647779D01*
X8038947Y11651742D01*
X8034934Y11655145D01*
X8030362Y11657990D01*
X8025282Y11660225D01*
X8019745Y11661851D01*
X8013750Y11662816D01*
X8007350Y11663172D01*
X8002828Y11663019D01*
X7998256Y11662460D01*
X7993735Y11661597D01*
X7989163Y11660428D01*
X7984591Y11658904D01*
X7979968Y11657076D01*
X7970723Y11652554D01*
X7961375Y11646814D01*
X7951876Y11640007D01*
X7942275Y11632184D01*
X7932521Y11623395D01*
X7922514Y11613743D01*
X7912353Y11603228D01*
X7913268Y11615521D01*
X7913624Y11627612D01*
X7913624Y11670284D01*
G37*
G36*
X7902702Y11512042D02*
G01*
X7895844Y11511534D01*
X7889443Y11510060D01*
X7883499Y11507673D01*
X7878064Y11504422D01*
X7873136Y11500358D01*
X7868767Y11495532D01*
X7864957Y11489994D01*
X7861808Y11483848D01*
X7871459Y11479784D01*
X7876590Y11487962D01*
X7883042Y11494109D01*
X7890611Y11498021D01*
X7899146Y11499342D01*
X7898892Y11497056D01*
X7899704Y11492179D01*
X7902041Y11488115D01*
X7905851Y11485372D01*
X7911084Y11484356D01*
X7916214Y11485422D01*
X7920024Y11488216D01*
X7922463Y11492280D01*
X7923275Y11497056D01*
X7921853Y11503253D01*
X7917738Y11507978D01*
X7911287Y11510975D01*
G37*
G36*
X7974330Y11458448D02*
G01*
X7964881Y11458244D01*
X7956042Y11457635D01*
X7947863Y11456670D01*
X7940243Y11455298D01*
X7933283Y11453571D01*
X7926933Y11451488D01*
X7921193Y11449100D01*
X7916062Y11446306D01*
X7911541Y11443208D01*
X7907629Y11439804D01*
X7904327Y11436096D01*
X7901635Y11432082D01*
X7899552Y11427764D01*
X7898028Y11423192D01*
X7897164Y11418366D01*
X7896859Y11413236D01*
X7910068Y11413236D01*
X7910474Y11417503D01*
X7911744Y11421465D01*
X7913878Y11425174D01*
X7916925Y11428577D01*
X7920837Y11431676D01*
X7925612Y11434419D01*
X7931353Y11436807D01*
X7938008Y11438788D01*
X7945628Y11440363D01*
X7954213Y11441480D01*
X7963763Y11442192D01*
X7974330Y11442446D01*
X7984693Y11442192D01*
X7994091Y11441480D01*
X8002473Y11440363D01*
X8009940Y11438788D01*
X8016494Y11436807D01*
X8022132Y11434419D01*
X8026806Y11431676D01*
X8030667Y11428577D01*
X8033562Y11425174D01*
X8035696Y11421465D01*
X8036915Y11417503D01*
X8037322Y11413236D01*
X8036915Y11408918D01*
X8035696Y11404854D01*
X8033562Y11401094D01*
X8030667Y11397640D01*
X8026806Y11394490D01*
X8022132Y11391696D01*
X8016494Y11389309D01*
X8009940Y11387277D01*
X8002473Y11385651D01*
X7994091Y11384483D01*
X7984693Y11383772D01*
X7974330Y11383518D01*
X7963763Y11383772D01*
X7954213Y11384483D01*
X7945628Y11385651D01*
X7938008Y11387277D01*
X7931353Y11389309D01*
X7925612Y11391696D01*
X7920837Y11394490D01*
X7916925Y11397640D01*
X7913878Y11401094D01*
X7911744Y11404854D01*
X7910474Y11408918D01*
X7910068Y11413236D01*
X7896859Y11413236D01*
X7897164Y11408105D01*
X7898028Y11403228D01*
X7899552Y11398656D01*
X7901635Y11394287D01*
X7904327Y11390274D01*
X7907629Y11386515D01*
X7911541Y11383060D01*
X7916062Y11379911D01*
X7921193Y11377066D01*
X7926933Y11374628D01*
X7933283Y11372494D01*
X7940243Y11370716D01*
X7947863Y11369344D01*
X7956042Y11368328D01*
X7964881Y11367719D01*
X7974330Y11367516D01*
X7983677Y11367719D01*
X7992414Y11368328D01*
X8000542Y11369344D01*
X8008010Y11370716D01*
X8014919Y11372494D01*
X8021167Y11374628D01*
X8026857Y11377066D01*
X8031886Y11379911D01*
X8036356Y11383060D01*
X8040166Y11386515D01*
X8043418Y11390274D01*
X8046110Y11394287D01*
X8048142Y11398656D01*
X8049615Y11403228D01*
X8050479Y11408105D01*
X8050784Y11413236D01*
X8050479Y11418366D01*
X8049615Y11423192D01*
X8048142Y11427764D01*
X8046110Y11432082D01*
X8043418Y11436096D01*
X8040166Y11439804D01*
X8036356Y11443208D01*
X8031886Y11446306D01*
X8026857Y11449100D01*
X8021167Y11451488D01*
X8014919Y11453571D01*
X8008010Y11455298D01*
X8000542Y11456670D01*
X7992414Y11457635D01*
X7983677Y11458244D01*
G37*
G36*
X7909814Y11342370D02*
G01*
X7904480Y11341354D01*
X7900365Y11338610D01*
X7897774Y11334546D01*
X7896859Y11329670D01*
X7897774Y11324945D01*
X7900365Y11320983D01*
X7904480Y11318240D01*
X7909814Y11317224D01*
X7915351Y11318240D01*
X7919618Y11320983D01*
X7922310Y11324945D01*
X7923275Y11329670D01*
X7922310Y11334546D01*
X7919618Y11338610D01*
X7915351Y11341354D01*
G37*
G36*
X7899400Y11289030D02*
G01*
X7899400Y11209020D01*
X7913116Y11209020D01*
X7913116Y11242294D01*
X8027162Y11242294D01*
X8027162Y11216132D01*
X8038084Y11216132D01*
X8039862Y11225123D01*
X8042097Y11232997D01*
X8044891Y11240008D01*
X8048244Y11246104D01*
X8048244Y11258804D01*
X7913116Y11258804D01*
X7913116Y11289030D01*
G37*
G36*
X8009128Y11188192D02*
G01*
X7899400Y11149076D01*
X7899400Y11129772D01*
X8009128Y11089640D01*
X8009128Y11106912D01*
X7945374Y11128756D01*
X7928965Y11133886D01*
X7913116Y11139170D01*
X7913116Y11139932D01*
X7928965Y11145215D01*
X7945374Y11150346D01*
X8009128Y11171936D01*
G37*
G36*
X1054100Y16204438D02*
G01*
X942594Y16166338D01*
X942594Y16159226D01*
X953008Y16159226D01*
X953008Y16159988D01*
X962710Y16162680D01*
X990853Y16171418D01*
X1008887Y16177260D01*
X1008887Y16141954D01*
X986129Y16149370D01*
X953008Y16159226D01*
X942594Y16159226D01*
X942594Y16152368D01*
X1054100Y16114268D01*
X1054100Y16127730D01*
X1018794Y16138651D01*
X1018794Y16180307D01*
X1054100Y16191738D01*
G37*
G36*
X1012952Y16105378D02*
G01*
X1006551Y16105022D01*
X1000556Y16104006D01*
X995070Y16102431D01*
X990041Y16100247D01*
X985469Y16097605D01*
X981456Y16094506D01*
X978001Y16091052D01*
X975106Y16087191D01*
X972819Y16083076D01*
X971143Y16078758D01*
X970127Y16074237D01*
X969771Y16069563D01*
X969972Y16067532D01*
X980186Y16067532D01*
X980795Y16072612D01*
X982573Y16077336D01*
X985469Y16081552D01*
X989330Y16085210D01*
X994105Y16088207D01*
X999693Y16090493D01*
X1005992Y16091916D01*
X1012952Y16092424D01*
X1020165Y16092017D01*
X1026617Y16090849D01*
X1032154Y16088918D01*
X1036828Y16086226D01*
X1040536Y16082873D01*
X1043228Y16078809D01*
X1044905Y16074136D01*
X1045464Y16068801D01*
X1044752Y16063010D01*
X1042568Y16057422D01*
X1038910Y16051936D01*
X1033780Y16046450D01*
X989330Y16046450D01*
X985113Y16051936D01*
X982268Y16057168D01*
X980694Y16062299D01*
X980186Y16067532D01*
X969972Y16067532D01*
X970432Y16062858D01*
X972312Y16056914D01*
X975360Y16051377D01*
X979424Y16045942D01*
X965200Y16046450D01*
X932687Y16046450D01*
X932687Y16034257D01*
X1054100Y16034257D01*
X1054100Y16044418D01*
X1044194Y16045434D01*
X1044194Y16045942D01*
X1048867Y16051326D01*
X1052626Y16057422D01*
X1055217Y16064128D01*
X1056132Y16071342D01*
X1055827Y16076371D01*
X1054862Y16081095D01*
X1053287Y16085464D01*
X1051102Y16089426D01*
X1048308Y16092982D01*
X1044905Y16096183D01*
X1040993Y16098926D01*
X1036472Y16101161D01*
X1031392Y16102990D01*
X1025753Y16104311D01*
X1019606Y16105124D01*
G37*
G36*
X1033018Y16010636D02*
G01*
X1028700Y16010331D01*
X1024737Y16009315D01*
X1021130Y16007638D01*
X1017879Y16005301D01*
X1014933Y16002254D01*
X1012291Y15998444D01*
X1009954Y15993922D01*
X1007871Y15988639D01*
X1006043Y15982543D01*
X1004468Y15975685D01*
X1003147Y15968065D01*
X1002030Y15959582D01*
X1010412Y15959582D01*
X1011885Y15969640D01*
X1013714Y15978022D01*
X1015847Y15984778D01*
X1018387Y15990112D01*
X1021283Y15994024D01*
X1024534Y15996716D01*
X1028192Y15998190D01*
X1032256Y15998698D01*
X1038555Y15997478D01*
X1042822Y15994227D01*
X1045210Y15989350D01*
X1045971Y15983457D01*
X1045260Y15977362D01*
X1043127Y15971519D01*
X1039520Y15965678D01*
X1034542Y15959582D01*
X1002030Y15959582D01*
X993952Y15960344D01*
X986891Y15963087D01*
X981862Y15968472D01*
X979932Y15977107D01*
X980744Y15984321D01*
X982878Y15991027D01*
X985824Y15997021D01*
X989076Y16002254D01*
X980440Y16007334D01*
X976833Y16001085D01*
X973378Y15993516D01*
X970787Y15984880D01*
X969771Y15975330D01*
X970381Y15968370D01*
X972159Y15962477D01*
X975055Y15957651D01*
X978966Y15953841D01*
X983792Y15950946D01*
X989482Y15948913D01*
X995934Y15947745D01*
X1003046Y15947390D01*
X1054100Y15947390D01*
X1054100Y15957550D01*
X1043940Y15958566D01*
X1043940Y15959074D01*
X1048715Y15965271D01*
X1052626Y15971977D01*
X1055166Y15979140D01*
X1056132Y15986760D01*
X1055725Y15991738D01*
X1054608Y15996259D01*
X1052677Y16000323D01*
X1050086Y16003828D01*
X1046784Y16006673D01*
X1042822Y16008857D01*
X1038250Y16010178D01*
G37*
G36*
X972566Y15929610D02*
G01*
X971803Y15918434D01*
X957580Y15918434D01*
X951636Y15918078D01*
X946353Y15917011D01*
X941781Y15915182D01*
X937971Y15912642D01*
X934923Y15909391D01*
X932738Y15905378D01*
X931367Y15900603D01*
X930910Y15895066D01*
X931113Y15891510D01*
X931621Y15888106D01*
X932434Y15884855D01*
X933450Y15881857D01*
X943102Y15884651D01*
X942086Y15886988D01*
X941374Y15889376D01*
X940816Y15894050D01*
X941882Y15899333D01*
X945083Y15903092D01*
X950366Y15905276D01*
X957580Y15905988D01*
X971803Y15905988D01*
X971803Y15888207D01*
X981964Y15888207D01*
X981964Y15905988D01*
X1054100Y15905988D01*
X1054100Y15918434D01*
X981964Y15918434D01*
X981964Y15929610D01*
G37*
G36*
X971803Y15871951D02*
G01*
X971803Y15861792D01*
X986790Y15860522D01*
X986790Y15860268D01*
X979830Y15855442D01*
X974445Y15849803D01*
X970991Y15843605D01*
X969771Y15836900D01*
X970076Y15832226D01*
X970635Y15830194D01*
X971550Y15828263D01*
X982218Y15830550D01*
X981303Y15834309D01*
X980948Y15838424D01*
X981964Y15843808D01*
X985316Y15849447D01*
X991362Y15854832D01*
X1000506Y15859506D01*
X1054100Y15859506D01*
X1054100Y15871951D01*
G37*
G36*
X971803Y15815310D02*
G01*
X971803Y15803118D01*
X1022603Y15803118D01*
X1032764Y15802203D01*
X1039825Y15799257D01*
X1043889Y15794126D01*
X1045210Y15786607D01*
X1044397Y15780512D01*
X1041806Y15774974D01*
X1037285Y15769437D01*
X1030732Y15763494D01*
X971803Y15763494D01*
X971803Y15751301D01*
X1054100Y15751301D01*
X1054100Y15761462D01*
X1040892Y15762478D01*
X1040892Y15762986D01*
X1047140Y15768878D01*
X1051915Y15775279D01*
X1055014Y15782391D01*
X1056132Y15790418D01*
X1055624Y15796463D01*
X1054100Y15801594D01*
X1051560Y15805861D01*
X1048054Y15809366D01*
X1043533Y15812007D01*
X1038047Y15813836D01*
X1031544Y15814954D01*
X1024128Y15815310D01*
G37*
G36*
X945387Y15724886D02*
G01*
X941933Y15724276D01*
X939292Y15722447D01*
X937615Y15719755D01*
X937006Y15716250D01*
X937615Y15712744D01*
X939292Y15710052D01*
X941933Y15708274D01*
X945387Y15707613D01*
X948994Y15708223D01*
X951687Y15710052D01*
X953414Y15712744D01*
X954024Y15716250D01*
X953414Y15719755D01*
X951687Y15722447D01*
X948994Y15724276D01*
G37*
G36*
X971803Y15722346D02*
G01*
X971803Y15710154D01*
X1054100Y15710154D01*
X1054100Y15722346D01*
G37*
G36*
X972566Y15691612D02*
G01*
X971803Y15678657D01*
X948436Y15677134D01*
X948436Y15666719D01*
X971803Y15666719D01*
X971803Y15644113D01*
X981964Y15644113D01*
X981964Y15666719D01*
X1029716Y15666719D01*
X1036523Y15666110D01*
X1041653Y15663976D01*
X1044854Y15659963D01*
X1045971Y15653766D01*
X1045768Y15651378D01*
X1043686Y15644113D01*
X1053084Y15641828D01*
X1055166Y15649092D01*
X1055878Y15652750D01*
X1056132Y15656306D01*
X1055624Y15662249D01*
X1054150Y15667177D01*
X1051814Y15671139D01*
X1048664Y15674238D01*
X1044752Y15676473D01*
X1040180Y15678048D01*
X1034948Y15678912D01*
X1029208Y15679166D01*
X981964Y15679166D01*
X981964Y15691612D01*
G37*
G36*
X942594Y15590012D02*
G01*
X942594Y15577566D01*
X1054100Y15577566D01*
X1054100Y15590012D01*
G37*
G36*
X942594Y15546324D02*
G01*
X942594Y15533624D01*
X1043432Y15533624D01*
X1043432Y15484348D01*
X1054100Y15484348D01*
X1054100Y15546324D01*
G37*
G36*
X942594Y15464790D02*
G01*
X942594Y15452090D01*
X1054100Y15452090D01*
X1054100Y15464790D01*
G37*
G36*
X976630Y15429738D02*
G01*
X968959Y15429077D01*
X961999Y15427198D01*
X955852Y15424251D01*
X950620Y15420390D01*
X946353Y15415666D01*
X943203Y15410332D01*
X941222Y15404490D01*
X940562Y15398242D01*
X950214Y15398242D01*
X950721Y15402306D01*
X952144Y15406014D01*
X954430Y15409316D01*
X957529Y15412212D01*
X961339Y15414548D01*
X965860Y15416326D01*
X970991Y15417393D01*
X976630Y15417800D01*
X982116Y15417495D01*
X987044Y15416530D01*
X991463Y15414904D01*
X995171Y15412669D01*
X998169Y15409773D01*
X1000404Y15406217D01*
X1001826Y15402051D01*
X1002284Y15397226D01*
X1001420Y15391180D01*
X998626Y15384983D01*
X993800Y15378887D01*
X986790Y15373096D01*
X978509Y15373908D01*
X971194Y15375432D01*
X964946Y15377668D01*
X959713Y15380512D01*
X955649Y15384018D01*
X952652Y15388183D01*
X950823Y15392907D01*
X950214Y15398242D01*
X940562Y15398242D01*
X940917Y15392958D01*
X942035Y15387980D01*
X943864Y15383357D01*
X946454Y15379039D01*
X949756Y15375128D01*
X953820Y15371622D01*
X958545Y15368524D01*
X964031Y15365984D01*
X970229Y15363901D01*
X977137Y15362428D01*
X984808Y15361462D01*
X993140Y15361157D01*
X1001369Y15361361D01*
X1008989Y15362021D01*
X1015949Y15363088D01*
X1022248Y15364510D01*
X1027988Y15366288D01*
X1033170Y15368371D01*
X1037742Y15370759D01*
X1041755Y15373400D01*
X1045260Y15376296D01*
X1048258Y15379446D01*
X1050747Y15382748D01*
X1052728Y15386253D01*
X1054252Y15389860D01*
X1055319Y15393568D01*
X1055928Y15397429D01*
X1056132Y15401290D01*
X1055268Y15409468D01*
X1052931Y15416479D01*
X1049375Y15422422D01*
X1044956Y15427451D01*
X1037082Y15420594D01*
X1040688Y15416631D01*
X1043381Y15412008D01*
X1045108Y15406928D01*
X1045718Y15401544D01*
X1045464Y15397937D01*
X1044651Y15394482D01*
X1043228Y15391130D01*
X1041146Y15387929D01*
X1038453Y15384983D01*
X1034999Y15382240D01*
X1030833Y15379801D01*
X1025906Y15377617D01*
X1020114Y15375839D01*
X1013460Y15374416D01*
X1005941Y15373400D01*
X997458Y15372842D01*
X1003198Y15378582D01*
X1007719Y15384983D01*
X1010615Y15391942D01*
X1011682Y15399257D01*
X1011123Y15405912D01*
X1009396Y15411856D01*
X1006602Y15417038D01*
X1002741Y15421457D01*
X997762Y15424962D01*
X991768Y15427604D01*
X984707Y15429179D01*
G37*
G36*
X1040892Y15348204D02*
G01*
X1032764Y15341854D01*
X1037590Y15336519D01*
X1041704Y15330220D01*
X1044600Y15322702D01*
X1045718Y15313660D01*
X1045311Y15308783D01*
X1044194Y15304312D01*
X1042365Y15300350D01*
X1039825Y15296946D01*
X1036726Y15294152D01*
X1032967Y15292069D01*
X1028700Y15290749D01*
X1023874Y15290292D01*
X1018946Y15290749D01*
X1014526Y15292171D01*
X1010615Y15294610D01*
X1007313Y15298216D01*
X1004620Y15303042D01*
X1002639Y15309138D01*
X1001420Y15316657D01*
X1001014Y15325598D01*
X991108Y15325598D01*
X990650Y15317622D01*
X989380Y15310967D01*
X987399Y15305532D01*
X984707Y15301315D01*
X981456Y15298166D01*
X977696Y15295981D01*
X973531Y15294762D01*
X969010Y15294356D01*
X961542Y15295676D01*
X955751Y15299537D01*
X952042Y15305735D01*
X950721Y15313913D01*
X951534Y15320518D01*
X953820Y15326664D01*
X957275Y15332252D01*
X961644Y15337282D01*
X953769Y15344140D01*
X948486Y15337688D01*
X944321Y15330474D01*
X941578Y15322397D01*
X940562Y15313406D01*
X941019Y15306801D01*
X942441Y15300706D01*
X944676Y15295321D01*
X947826Y15290647D01*
X951788Y15286888D01*
X956513Y15284043D01*
X962050Y15282265D01*
X968248Y15281656D01*
X973175Y15282011D01*
X977646Y15283129D01*
X981710Y15284856D01*
X985316Y15287193D01*
X988466Y15290139D01*
X991158Y15293543D01*
X993394Y15297454D01*
X995171Y15301722D01*
X995934Y15301722D01*
X997407Y15296896D01*
X999490Y15292425D01*
X1002182Y15288361D01*
X1005484Y15284805D01*
X1009396Y15281910D01*
X1013815Y15279725D01*
X1018844Y15278354D01*
X1024382Y15277846D01*
X1031443Y15278557D01*
X1037691Y15280589D01*
X1043127Y15283789D01*
X1047699Y15288056D01*
X1051306Y15293187D01*
X1053947Y15299182D01*
X1055573Y15305786D01*
X1056132Y15312898D01*
X1055776Y15319095D01*
X1054811Y15324683D01*
X1053338Y15329763D01*
X1051356Y15334386D01*
X1049070Y15338450D01*
X1046480Y15342107D01*
X1043736Y15345359D01*
G37*
G36*
X1014984Y15266162D02*
G01*
X942594Y15218918D01*
X942594Y15216378D01*
X957071Y15216378D01*
X957071Y15217140D01*
X973074Y15226030D01*
X1013206Y15252954D01*
X1013206Y15217394D01*
X972159Y15217292D01*
X957071Y15216378D01*
X942594Y15216378D01*
X942594Y15205710D01*
X1013206Y15205710D01*
X1013206Y15190469D01*
X1023112Y15190469D01*
X1023112Y15205710D01*
X1054100Y15205710D01*
X1054100Y15217394D01*
X1023112Y15217394D01*
X1023112Y15266162D01*
G37*
G36*
X1043686Y15171928D02*
G01*
X1043686Y15147036D01*
X958342Y15147036D01*
X958342Y15166594D01*
X950214Y15166594D01*
X948791Y15159786D01*
X947064Y15153843D01*
X945032Y15148610D01*
X942594Y15143988D01*
X942594Y15134590D01*
X1043686Y15134590D01*
X1043686Y15111984D01*
X1054100Y15111984D01*
X1054100Y15171928D01*
G37*
G36*
X1040892Y15063216D02*
G01*
X1032764Y15056866D01*
X1037590Y15051532D01*
X1041704Y15045232D01*
X1044600Y15037714D01*
X1045718Y15028672D01*
X1045311Y15023795D01*
X1044194Y15019324D01*
X1042365Y15015362D01*
X1039825Y15011958D01*
X1036726Y15009164D01*
X1032967Y15007082D01*
X1028700Y15005761D01*
X1023874Y15005304D01*
X1018946Y15005761D01*
X1014526Y15007183D01*
X1010615Y15009622D01*
X1007313Y15013228D01*
X1004620Y15018054D01*
X1002639Y15024150D01*
X1001420Y15031669D01*
X1001014Y15040610D01*
X991108Y15040610D01*
X990650Y15032634D01*
X989380Y15025979D01*
X987399Y15020544D01*
X984707Y15016327D01*
X981456Y15013178D01*
X977696Y15010993D01*
X973531Y15009774D01*
X969010Y15009368D01*
X961542Y15010688D01*
X955751Y15014600D01*
X952042Y15020747D01*
X950721Y15028926D01*
X951534Y15035530D01*
X953820Y15041676D01*
X957275Y15047264D01*
X961644Y15052294D01*
X953769Y15059151D01*
X948486Y15052700D01*
X944321Y15045486D01*
X941578Y15037460D01*
X940562Y15028418D01*
X941019Y15021813D01*
X942441Y15015718D01*
X944676Y15010333D01*
X947826Y15005659D01*
X951788Y15001900D01*
X956513Y14999055D01*
X962050Y14997277D01*
X968248Y14996668D01*
X973175Y14997023D01*
X977646Y14998141D01*
X981710Y14999868D01*
X985316Y15002205D01*
X988466Y15005151D01*
X991158Y15008555D01*
X993394Y15012466D01*
X995171Y15016734D01*
X995934Y15016734D01*
X997407Y15011907D01*
X999490Y15007437D01*
X1002182Y15003373D01*
X1005484Y14999868D01*
X1009396Y14996922D01*
X1013815Y14994737D01*
X1018844Y14993366D01*
X1024382Y14992857D01*
X1031443Y14993569D01*
X1037691Y14995601D01*
X1043127Y14998801D01*
X1047699Y15003068D01*
X1051306Y15008199D01*
X1053947Y15014194D01*
X1055573Y15020798D01*
X1056132Y15027910D01*
X1055776Y15034107D01*
X1054811Y15039695D01*
X1053338Y15044775D01*
X1051356Y15049347D01*
X1049070Y15053462D01*
X1046480Y15057119D01*
X1043736Y15060371D01*
G37*
G36*
X1046226Y14973046D02*
G01*
X1042111Y14972284D01*
X1038961Y14970251D01*
X1037031Y14967254D01*
X1036319Y14963648D01*
X1037031Y14960041D01*
X1039012Y14957044D01*
X1042111Y14955012D01*
X1046226Y14954250D01*
X1050239Y14955012D01*
X1053388Y14957044D01*
X1055420Y14960041D01*
X1056132Y14963648D01*
X1055420Y14967254D01*
X1053388Y14970251D01*
X1050239Y14972284D01*
G37*
G36*
X956818Y14936978D02*
G01*
X953363Y14933523D01*
X950214Y14930018D01*
X947419Y14926360D01*
X945083Y14922550D01*
X943152Y14918486D01*
X941730Y14914168D01*
X940866Y14909495D01*
X940562Y14904466D01*
X941171Y14897404D01*
X942848Y14891105D01*
X945642Y14885619D01*
X949401Y14881047D01*
X954074Y14877389D01*
X959612Y14874697D01*
X966012Y14873020D01*
X973074Y14872462D01*
X977341Y14872665D01*
X981557Y14873274D01*
X985875Y14874290D01*
X990142Y14875662D01*
X994460Y14877440D01*
X998829Y14879523D01*
X1003198Y14881961D01*
X1012088Y14887854D01*
X1021080Y14894966D01*
X1030274Y14903196D01*
X1039672Y14912441D01*
X1044448Y14917419D01*
X1043635Y14908174D01*
X1043432Y14899132D01*
X1043432Y14867128D01*
X1054100Y14867128D01*
X1054100Y14936216D01*
X1046734Y14936216D01*
X1035405Y14923719D01*
X1024839Y14913051D01*
X1014933Y14904161D01*
X1010259Y14900351D01*
X1001268Y14894051D01*
X996950Y14891512D01*
X992784Y14889378D01*
X988771Y14887651D01*
X984808Y14886330D01*
X980998Y14885416D01*
X977239Y14884857D01*
X973582Y14884654D01*
X968857Y14884958D01*
X964539Y14885924D01*
X960678Y14887498D01*
X957275Y14889784D01*
X954532Y14892680D01*
X952449Y14896338D01*
X951179Y14900656D01*
X950721Y14905736D01*
X951737Y14912543D01*
X954481Y14918842D01*
X958646Y14924532D01*
X963930Y14929612D01*
G37*
G36*
X936752Y14845538D02*
G01*
X936752Y14832330D01*
X951484Y14832584D01*
X978916Y14834869D01*
X978916Y14842998D01*
X951484Y14845284D01*
G37*
G36*
X936752Y14817090D02*
G01*
X936752Y14803628D01*
X951484Y14804136D01*
X978916Y14806676D01*
X978916Y14814296D01*
X951484Y14816836D01*
G37*
G36*
X1006856Y14741651D02*
G01*
X999490Y14741499D01*
X992327Y14740940D01*
X985367Y14740128D01*
X978611Y14738959D01*
X972007Y14737486D01*
X965606Y14735708D01*
X953160Y14731238D01*
X947115Y14728596D01*
X935380Y14722500D01*
X929640Y14719046D01*
X933450Y14711426D01*
X938936Y14714575D01*
X944575Y14717471D01*
X950366Y14720112D01*
X956259Y14722449D01*
X968451Y14726310D01*
X980998Y14729053D01*
X987399Y14730018D01*
X1000302Y14731085D01*
X1006856Y14731238D01*
X1013409Y14731085D01*
X1026312Y14730018D01*
X1032713Y14729053D01*
X1045260Y14726310D01*
X1057452Y14722449D01*
X1063345Y14720112D01*
X1069136Y14717471D01*
X1074775Y14714575D01*
X1080262Y14711426D01*
X1084072Y14719046D01*
X1078331Y14722500D01*
X1066596Y14728596D01*
X1060551Y14731238D01*
X1048156Y14735708D01*
X1041704Y14737486D01*
X1035100Y14738959D01*
X1028344Y14740128D01*
X1021384Y14740940D01*
X1014221Y14741499D01*
G37*
G36*
X1043686Y14691613D02*
G01*
X1043686Y14666722D01*
X958342Y14666722D01*
X958342Y14686280D01*
X950214Y14686280D01*
X948791Y14679625D01*
X947064Y14673681D01*
X945032Y14668449D01*
X942594Y14663928D01*
X942594Y14654276D01*
X1043686Y14654276D01*
X1043686Y14631669D01*
X1054100Y14631669D01*
X1054100Y14691613D01*
G37*
G36*
X942594Y14614144D02*
G01*
X942594Y14545056D01*
X949960Y14545056D01*
X956208Y14549780D01*
X962355Y14553996D01*
X968349Y14557756D01*
X974344Y14561108D01*
X980287Y14564055D01*
X986231Y14566646D01*
X992225Y14568881D01*
X998321Y14570811D01*
X1004519Y14572437D01*
X1010869Y14573808D01*
X1024128Y14575891D01*
X1038453Y14577212D01*
X1054100Y14578076D01*
X1054100Y14591030D01*
X1038707Y14590064D01*
X1024534Y14588439D01*
X1011377Y14586051D01*
X999032Y14582800D01*
X987247Y14578634D01*
X975817Y14573402D01*
X964590Y14567103D01*
X953262Y14559534D01*
X953262Y14614144D01*
G37*
G36*
X1014984Y14535150D02*
G01*
X942594Y14487651D01*
X942594Y14485112D01*
X957071Y14485112D01*
X957071Y14485874D01*
X973074Y14494763D01*
X1013206Y14521688D01*
X1013206Y14486128D01*
X972159Y14486026D01*
X957071Y14485112D01*
X942594Y14485112D01*
X942594Y14474444D01*
X1013206Y14474444D01*
X1013206Y14459204D01*
X1023112Y14459204D01*
X1023112Y14474444D01*
X1054100Y14474444D01*
X1054100Y14486128D01*
X1023112Y14486128D01*
X1023112Y14535150D01*
G37*
G36*
X1040892Y14449806D02*
G01*
X1032764Y14443201D01*
X1037590Y14438020D01*
X1041704Y14431772D01*
X1044600Y14424202D01*
X1045718Y14415007D01*
X1045311Y14410131D01*
X1044194Y14405711D01*
X1042365Y14401800D01*
X1039825Y14398396D01*
X1036726Y14395653D01*
X1032967Y14393621D01*
X1028700Y14392351D01*
X1023874Y14391894D01*
X1018946Y14392351D01*
X1014526Y14393773D01*
X1010615Y14396212D01*
X1007313Y14399818D01*
X1004620Y14404644D01*
X1002639Y14410740D01*
X1001420Y14418259D01*
X1001014Y14427200D01*
X991108Y14427200D01*
X990650Y14419122D01*
X989380Y14412417D01*
X987399Y14406981D01*
X984707Y14402663D01*
X981456Y14399513D01*
X977696Y14397329D01*
X973531Y14396110D01*
X969010Y14395704D01*
X961542Y14397075D01*
X955751Y14400987D01*
X952042Y14407184D01*
X950721Y14415262D01*
X951534Y14421916D01*
X953820Y14428063D01*
X957275Y14433702D01*
X961644Y14438630D01*
X953769Y14445488D01*
X948486Y14439087D01*
X944321Y14431924D01*
X941578Y14423898D01*
X940562Y14414754D01*
X941019Y14408150D01*
X942441Y14402054D01*
X944676Y14396669D01*
X947826Y14391995D01*
X951788Y14388236D01*
X956513Y14385391D01*
X962050Y14383613D01*
X968248Y14383004D01*
X973175Y14383359D01*
X977646Y14384477D01*
X981710Y14386204D01*
X985316Y14388541D01*
X988466Y14391487D01*
X991158Y14394891D01*
X993394Y14398802D01*
X995171Y14403069D01*
X995934Y14403069D01*
X997407Y14398244D01*
X999490Y14393773D01*
X1002182Y14389709D01*
X1005484Y14386153D01*
X1009396Y14383257D01*
X1013815Y14381073D01*
X1018844Y14379701D01*
X1024382Y14379194D01*
X1031443Y14379905D01*
X1037691Y14381937D01*
X1043127Y14385188D01*
X1047699Y14389506D01*
X1051306Y14394688D01*
X1053947Y14400631D01*
X1055573Y14407184D01*
X1056132Y14414246D01*
X1055776Y14420494D01*
X1054811Y14426184D01*
X1053338Y14431263D01*
X1051356Y14435836D01*
X1049070Y14439950D01*
X1046480Y14443608D01*
X1043736Y14446859D01*
G37*
G36*
X933450Y14364462D02*
G01*
X929640Y14356842D01*
X935380Y14353387D01*
X947115Y14347291D01*
X953160Y14344650D01*
X959307Y14342313D01*
X965555Y14340230D01*
X972007Y14338401D01*
X978611Y14336928D01*
X985367Y14335760D01*
X992327Y14334947D01*
X999490Y14334388D01*
X1006856Y14334236D01*
X1014221Y14334388D01*
X1021384Y14334947D01*
X1028344Y14335760D01*
X1035100Y14336928D01*
X1041704Y14338401D01*
X1048156Y14340230D01*
X1054404Y14342313D01*
X1060551Y14344650D01*
X1066596Y14347291D01*
X1078331Y14353387D01*
X1084072Y14356842D01*
X1080262Y14364462D01*
X1074775Y14361312D01*
X1069136Y14358416D01*
X1063345Y14355775D01*
X1057452Y14353438D01*
X1045260Y14349577D01*
X1032713Y14346834D01*
X1026312Y14345869D01*
X1013409Y14344802D01*
X1006856Y14344650D01*
X1000302Y14344802D01*
X987399Y14345869D01*
X980998Y14346834D01*
X974699Y14348104D01*
X968451Y14349628D01*
X962304Y14351406D01*
X956259Y14353438D01*
X950366Y14355775D01*
X944575Y14358416D01*
X938936Y14361312D01*
G37*
G36*
X7732725Y13954251D02*
G01*
X7729474Y13954048D01*
X7728203Y13953744D01*
X7728203Y13945107D01*
X7735824Y13945107D01*
X7745526Y13943888D01*
X7752537Y13940434D01*
X7756753Y13934795D01*
X7758175Y13927328D01*
X7756652Y13920063D01*
X7752232Y13913815D01*
X7745222Y13909192D01*
X7735824Y13906754D01*
X7735824Y13945107D01*
X7728203Y13945107D01*
X7728203Y13907007D01*
X7722717Y13907617D01*
X7717790Y13908938D01*
X7713472Y13911021D01*
X7709763Y13913764D01*
X7706817Y13917066D01*
X7704632Y13921028D01*
X7703261Y13925448D01*
X7702803Y13930376D01*
X7703159Y13935303D01*
X7704277Y13939824D01*
X7706004Y13943990D01*
X7708392Y13947901D01*
X7701534Y13951712D01*
X7698790Y13946987D01*
X7696555Y13941755D01*
X7694980Y13935862D01*
X7694422Y13929106D01*
X7695031Y13922552D01*
X7696860Y13916406D01*
X7699857Y13910868D01*
X7703972Y13906093D01*
X7709153Y13902131D01*
X7715300Y13899134D01*
X7722463Y13897254D01*
X7730490Y13896594D01*
X7738364Y13897254D01*
X7745425Y13899184D01*
X7751622Y13902182D01*
X7756804Y13906042D01*
X7760970Y13910665D01*
X7764018Y13915898D01*
X7765897Y13921486D01*
X7766558Y13927328D01*
X7765999Y13933373D01*
X7764322Y13938707D01*
X7761579Y13943330D01*
X7757871Y13947190D01*
X7753299Y13950238D01*
X7747812Y13952423D01*
X7741564Y13953794D01*
G37*
G36*
X7687818Y13890244D02*
G01*
X7683246Y13889634D01*
X7678877Y13887805D01*
X7674864Y13884910D01*
X7671358Y13880896D01*
X7668412Y13875969D01*
X7666126Y13870076D01*
X7664703Y13863421D01*
X7664299Y13857478D01*
X7671562Y13857478D01*
X7672831Y13866774D01*
X7676184Y13873937D01*
X7680909Y13878458D01*
X7686294Y13880084D01*
X7690510Y13879118D01*
X7693355Y13876375D01*
X7694930Y13871854D01*
X7695438Y13865606D01*
X7695488Y13851280D01*
X7696453Y13844269D01*
X7693507Y13840968D01*
X7690459Y13838682D01*
X7687360Y13837361D01*
X7684262Y13836904D01*
X7678978Y13838275D01*
X7674965Y13842339D01*
X7672425Y13848791D01*
X7671562Y13857478D01*
X7664299Y13857478D01*
X7664196Y13855954D01*
X7664500Y13849908D01*
X7665466Y13844473D01*
X7666990Y13839647D01*
X7669072Y13835583D01*
X7671714Y13832281D01*
X7674914Y13829792D01*
X7678572Y13828268D01*
X7682738Y13827760D01*
X7687106Y13828471D01*
X7691272Y13830452D01*
X7695133Y13833652D01*
X7698486Y13837919D01*
X7698994Y13837919D01*
X7700975Y13835430D01*
X7703464Y13833398D01*
X7706614Y13832078D01*
X7710424Y13831569D01*
X7714386Y13832281D01*
X7717942Y13834160D01*
X7720838Y13836599D01*
X7723124Y13839190D01*
X7723631Y13839190D01*
X7726883Y13835989D01*
X7731201Y13833144D01*
X7736331Y13831062D01*
X7742174Y13830300D01*
X7747457Y13830807D01*
X7752181Y13832332D01*
X7756347Y13834719D01*
X7759903Y13837869D01*
X7762748Y13841628D01*
X7764830Y13845946D01*
X7766100Y13850670D01*
X7766558Y13855700D01*
X7766050Y13860983D01*
X7764780Y13865351D01*
X7764780Y13888974D01*
X7756906Y13888974D01*
X7756906Y13874496D01*
X7754061Y13876934D01*
X7750556Y13878864D01*
X7746492Y13880134D01*
X7741920Y13880592D01*
X7736687Y13880084D01*
X7731963Y13878661D01*
X7727899Y13876375D01*
X7724444Y13873378D01*
X7721701Y13869720D01*
X7719720Y13865504D01*
X7718450Y13860780D01*
X7718044Y13855700D01*
X7725156Y13855700D01*
X7726375Y13861643D01*
X7729778Y13866571D01*
X7735112Y13869974D01*
X7742174Y13871194D01*
X7749184Y13869974D01*
X7754467Y13866571D01*
X7757769Y13861643D01*
X7758938Y13855700D01*
X7757769Y13849807D01*
X7754467Y13844930D01*
X7749184Y13841679D01*
X7742174Y13840460D01*
X7735112Y13841679D01*
X7729778Y13845032D01*
X7726375Y13849908D01*
X7725156Y13855700D01*
X7718044Y13855700D01*
X7718602Y13850416D01*
X7719314Y13847724D01*
X7720330Y13845286D01*
X7718755Y13843507D01*
X7716875Y13842034D01*
X7714589Y13841069D01*
X7711694Y13840713D01*
X7708696Y13841272D01*
X7706258Y13843304D01*
X7704632Y13847013D01*
X7704074Y13852906D01*
X7704074Y13866622D01*
X7703108Y13876934D01*
X7700111Y13884351D01*
X7695082Y13888770D01*
G37*
G36*
X7696200Y13809218D02*
G01*
X7696200Y13800582D01*
X7704328Y13799819D01*
X7704328Y13799312D01*
X7700518Y13794943D01*
X7697368Y13789913D01*
X7695234Y13784326D01*
X7694692Y13780262D01*
X7703312Y13780262D01*
X7703921Y13785088D01*
X7705750Y13789710D01*
X7708798Y13794282D01*
X7712964Y13798804D01*
X7750048Y13798804D01*
X7753654Y13794333D01*
X7756093Y13790066D01*
X7757464Y13785748D01*
X7757922Y13781278D01*
X7757414Y13777061D01*
X7755890Y13773150D01*
X7753451Y13769644D01*
X7750200Y13766596D01*
X7746187Y13764158D01*
X7741513Y13762278D01*
X7736281Y13761110D01*
X7730490Y13760704D01*
X7724444Y13761008D01*
X7719059Y13762024D01*
X7714437Y13763599D01*
X7710525Y13765834D01*
X7707426Y13768628D01*
X7705140Y13771930D01*
X7703769Y13775842D01*
X7703312Y13780262D01*
X7694692Y13780262D01*
X7694422Y13778230D01*
X7695031Y13772032D01*
X7696860Y13766495D01*
X7699806Y13761618D01*
X7703870Y13757503D01*
X7709052Y13754252D01*
X7715199Y13751813D01*
X7722362Y13750290D01*
X7730490Y13749782D01*
X7738364Y13750442D01*
X7745425Y13752271D01*
X7751622Y13755116D01*
X7756804Y13758875D01*
X7760970Y13763345D01*
X7764018Y13768425D01*
X7765897Y13773962D01*
X7766558Y13779754D01*
X7765999Y13785392D01*
X7764373Y13790320D01*
X7761833Y13794841D01*
X7758430Y13799312D01*
X7770368Y13798804D01*
X7797292Y13798804D01*
X7797292Y13809218D01*
G37*
G36*
X7786878Y13733272D02*
G01*
X7783779Y13732713D01*
X7781493Y13731240D01*
X7780020Y13729004D01*
X7779512Y13726160D01*
X7780020Y13723162D01*
X7781493Y13720876D01*
X7783779Y13719352D01*
X7786878Y13718794D01*
X7789672Y13719352D01*
X7791805Y13720876D01*
X7793228Y13723162D01*
X7793736Y13726160D01*
X7793228Y13729004D01*
X7791805Y13731240D01*
X7789672Y13732713D01*
G37*
G36*
X7696200Y13731240D02*
G01*
X7696200Y13720826D01*
X7764780Y13720826D01*
X7764780Y13731240D01*
G37*
G36*
X7765034Y13709142D02*
G01*
X7756144Y13707110D01*
X7756956Y13704011D01*
X7757159Y13700760D01*
X7756296Y13696188D01*
X7753502Y13691463D01*
X7748473Y13686993D01*
X7740903Y13682980D01*
X7696200Y13682980D01*
X7696200Y13672819D01*
X7764780Y13672819D01*
X7764780Y13681201D01*
X7752080Y13682218D01*
X7752080Y13682472D01*
X7758074Y13686434D01*
X7762646Y13691107D01*
X7765542Y13696340D01*
X7766558Y13702030D01*
X7766253Y13705789D01*
X7765796Y13707465D01*
G37*
G36*
X7731506Y13654024D02*
G01*
X7723225Y13653414D01*
X7715859Y13651585D01*
X7709509Y13648740D01*
X7704226Y13645032D01*
X7700009Y13640562D01*
X7696911Y13635482D01*
X7695082Y13629944D01*
X7694422Y13624051D01*
X7694626Y13622528D01*
X7703312Y13622528D01*
X7703820Y13626846D01*
X7705242Y13630808D01*
X7707630Y13634364D01*
X7710830Y13637412D01*
X7714894Y13639901D01*
X7719720Y13641781D01*
X7725257Y13642949D01*
X7731506Y13643356D01*
X7737094Y13643101D01*
X7742174Y13642289D01*
X7746695Y13640968D01*
X7750505Y13638987D01*
X7753654Y13636345D01*
X7755991Y13633094D01*
X7757414Y13629081D01*
X7757922Y13624306D01*
X7757261Y13619683D01*
X7755331Y13614958D01*
X7752130Y13610031D01*
X7747762Y13605001D01*
X7710678Y13605001D01*
X7707274Y13609777D01*
X7704988Y13614450D01*
X7703718Y13618768D01*
X7703312Y13622528D01*
X7694626Y13622528D01*
X7695082Y13619124D01*
X7696860Y13614044D01*
X7699654Y13609015D01*
X7703312Y13604240D01*
X7703312Y13603986D01*
X7696200Y13602969D01*
X7696200Y13594842D01*
X7797292Y13594842D01*
X7797292Y13605001D01*
X7769098Y13605001D01*
X7756652Y13604494D01*
X7760462Y13609624D01*
X7763611Y13615060D01*
X7765745Y13620750D01*
X7766558Y13626592D01*
X7765897Y13632942D01*
X7764068Y13638479D01*
X7761020Y13643203D01*
X7756956Y13647064D01*
X7751876Y13650112D01*
X7745882Y13652296D01*
X7739075Y13653566D01*
G37*
G36*
X7678674Y13581126D02*
G01*
X7678674Y13513562D01*
X7685786Y13513562D01*
X7685786Y13581126D01*
G37*
G36*
X7696200Y13505434D02*
G01*
X7696200Y13448030D01*
X7702296Y13448030D01*
X7708646Y13455142D01*
X7714691Y13461542D01*
X7720482Y13467283D01*
X7726070Y13472363D01*
X7731404Y13476833D01*
X7736484Y13480643D01*
X7741412Y13483844D01*
X7746085Y13486434D01*
X7750606Y13488416D01*
X7754975Y13489838D01*
X7759192Y13490701D01*
X7763256Y13490956D01*
X7770825Y13489889D01*
X7776870Y13486638D01*
X7780883Y13481100D01*
X7782306Y13473176D01*
X7781442Y13467638D01*
X7779156Y13462406D01*
X7775651Y13457631D01*
X7771384Y13453363D01*
X7777225Y13447268D01*
X7782763Y13453110D01*
X7787030Y13459307D01*
X7789722Y13466318D01*
X7790688Y13474446D01*
X7790180Y13480338D01*
X7788757Y13485571D01*
X7786471Y13490143D01*
X7783322Y13493953D01*
X7779410Y13497051D01*
X7774838Y13499287D01*
X7769606Y13500658D01*
X7763764Y13501116D01*
X7758988Y13500811D01*
X7754213Y13499896D01*
X7749438Y13498474D01*
X7744612Y13496442D01*
X7739786Y13493902D01*
X7734909Y13490905D01*
X7729981Y13487400D01*
X7725003Y13483437D01*
X7714792Y13474242D01*
X7704328Y13463524D01*
X7704886Y13471347D01*
X7705090Y13478763D01*
X7705090Y13505434D01*
G37*
G36*
X7742936Y13435838D02*
G01*
X7735214Y13435634D01*
X7728153Y13434923D01*
X7721752Y13433856D01*
X7716012Y13432332D01*
X7710982Y13430453D01*
X7706563Y13428167D01*
X7702854Y13425525D01*
X7699806Y13422579D01*
X7697470Y13419226D01*
X7695793Y13415568D01*
X7694777Y13411606D01*
X7694422Y13407390D01*
X7702803Y13407390D01*
X7703413Y13411301D01*
X7705242Y13414857D01*
X7708290Y13417956D01*
X7712608Y13420648D01*
X7718196Y13422782D01*
X7725105Y13424357D01*
X7733334Y13425322D01*
X7742936Y13425678D01*
X7752435Y13425322D01*
X7760563Y13424357D01*
X7767320Y13422782D01*
X7772806Y13420648D01*
X7777022Y13417956D01*
X7779969Y13414857D01*
X7781747Y13411301D01*
X7782306Y13407390D01*
X7781747Y13403478D01*
X7779969Y13399871D01*
X7777022Y13396722D01*
X7772806Y13394029D01*
X7767320Y13391845D01*
X7760563Y13390219D01*
X7752435Y13389203D01*
X7742936Y13388848D01*
X7733334Y13389203D01*
X7725105Y13390219D01*
X7718196Y13391845D01*
X7712608Y13394029D01*
X7708290Y13396722D01*
X7705242Y13399871D01*
X7703413Y13403478D01*
X7702803Y13407390D01*
X7694422Y13407390D01*
X7694777Y13403173D01*
X7695793Y13399211D01*
X7697470Y13395553D01*
X7699806Y13392200D01*
X7702854Y13389254D01*
X7706563Y13386612D01*
X7710982Y13384326D01*
X7716012Y13382447D01*
X7721752Y13380923D01*
X7728153Y13379856D01*
X7735214Y13379145D01*
X7742936Y13378942D01*
X7750657Y13379145D01*
X7757668Y13379856D01*
X7764018Y13380923D01*
X7769656Y13382447D01*
X7774635Y13384326D01*
X7778902Y13386612D01*
X7782509Y13389254D01*
X7785455Y13392200D01*
X7787741Y13395553D01*
X7789367Y13399211D01*
X7790383Y13403173D01*
X7790688Y13407390D01*
X7790383Y13411606D01*
X7789367Y13415568D01*
X7787741Y13419226D01*
X7785455Y13422579D01*
X7782509Y13425525D01*
X7778902Y13428167D01*
X7774635Y13430453D01*
X7769656Y13432332D01*
X7764018Y13433856D01*
X7757668Y13434923D01*
X7750657Y13435634D01*
G37*
G36*
X7726172Y13365734D02*
G01*
X7719059Y13365073D01*
X7712760Y13363194D01*
X7707325Y13360247D01*
X7702753Y13356488D01*
X7699197Y13351967D01*
X7696555Y13346887D01*
X7694980Y13341400D01*
X7694422Y13335762D01*
X7695488Y13325957D01*
X7698384Y13317982D01*
X7702346Y13311530D01*
X7706868Y13306298D01*
X7713725Y13311632D01*
X7709763Y13315950D01*
X7706410Y13321080D01*
X7704175Y13327278D01*
X7703312Y13334746D01*
X7703718Y13338860D01*
X7704886Y13342670D01*
X7706817Y13346176D01*
X7709408Y13349224D01*
X7712709Y13351763D01*
X7716621Y13353694D01*
X7721092Y13354913D01*
X7726172Y13355319D01*
X7735366Y13353897D01*
X7742224Y13349884D01*
X7746542Y13343534D01*
X7748016Y13335254D01*
X7747660Y13330885D01*
X7746542Y13327024D01*
X7744815Y13323316D01*
X7742428Y13319506D01*
X7745984Y13313918D01*
X7789164Y13316712D01*
X7789164Y13361162D01*
X7780274Y13361162D01*
X7780274Y13325856D01*
X7752080Y13323316D01*
X7753807Y13326567D01*
X7755077Y13329970D01*
X7755890Y13333679D01*
X7756144Y13337794D01*
X7755686Y13343432D01*
X7754366Y13348716D01*
X7752080Y13353440D01*
X7748879Y13357555D01*
X7744714Y13360958D01*
X7739532Y13363549D01*
X7733385Y13365175D01*
G37*
G36*
X7724648Y13297154D02*
G01*
X7718196Y13296595D01*
X7712303Y13295071D01*
X7707172Y13292632D01*
X7702753Y13289381D01*
X7699248Y13285520D01*
X7696606Y13281101D01*
X7694980Y13276224D01*
X7694422Y13270992D01*
X7702803Y13270992D01*
X7704378Y13277545D01*
X7708849Y13282777D01*
X7715758Y13286232D01*
X7724648Y13287501D01*
X7733334Y13286435D01*
X7740091Y13283234D01*
X7744459Y13277748D01*
X7745984Y13269976D01*
X7745272Y13265353D01*
X7743088Y13260374D01*
X7739227Y13255345D01*
X7733538Y13250418D01*
X7726578Y13251180D01*
X7720482Y13252450D01*
X7715199Y13254278D01*
X7710830Y13256615D01*
X7707375Y13259460D01*
X7704836Y13262813D01*
X7703312Y13266674D01*
X7702803Y13270992D01*
X7694422Y13270992D01*
X7694726Y13266674D01*
X7695742Y13262559D01*
X7697368Y13258698D01*
X7699603Y13255142D01*
X7702550Y13251891D01*
X7706055Y13248944D01*
X7710220Y13246404D01*
X7715046Y13244271D01*
X7720482Y13242544D01*
X7726476Y13241324D01*
X7733131Y13240512D01*
X7740396Y13240257D01*
X7749082Y13240562D01*
X7756804Y13241528D01*
X7763662Y13243051D01*
X7769707Y13245134D01*
X7774889Y13247674D01*
X7779258Y13250621D01*
X7782864Y13253923D01*
X7785760Y13257580D01*
X7787995Y13261492D01*
X7789519Y13265607D01*
X7790383Y13269874D01*
X7790688Y13274294D01*
X7790027Y13280898D01*
X7788097Y13286587D01*
X7785201Y13291464D01*
X7781544Y13295630D01*
X7775194Y13289788D01*
X7778140Y13286638D01*
X7780375Y13282980D01*
X7781798Y13278967D01*
X7782306Y13274801D01*
X7781798Y13269976D01*
X7780274Y13265454D01*
X7777530Y13261340D01*
X7773517Y13257733D01*
X7768081Y13254685D01*
X7761173Y13252348D01*
X7752689Y13250824D01*
X7742428Y13250163D01*
X7747050Y13254939D01*
X7750606Y13260273D01*
X7752842Y13265861D01*
X7753603Y13271500D01*
X7753146Y13277138D01*
X7751775Y13282168D01*
X7749540Y13286536D01*
X7746390Y13290245D01*
X7742275Y13293191D01*
X7737297Y13295376D01*
X7731455Y13296696D01*
G37*
G36*
X7678674Y13231368D02*
G01*
X7678674Y13164057D01*
X7685786Y13164057D01*
X7685786Y13231368D01*
G37*
G36*
X7764780Y13160756D02*
G01*
X7689850Y13134594D01*
X7685125Y13132765D01*
X7680706Y13130631D01*
X7676692Y13128193D01*
X7673187Y13125348D01*
X7670292Y13122097D01*
X7668107Y13118388D01*
X7666736Y13114223D01*
X7666228Y13109448D01*
X7666583Y13105231D01*
X7667498Y13101574D01*
X7675880Y13103860D01*
X7675168Y13106247D01*
X7674864Y13109194D01*
X7676083Y13114578D01*
X7679385Y13118998D01*
X7684414Y13122503D01*
X7690612Y13125196D01*
X7695946Y13126719D01*
X7764780Y13099034D01*
X7764780Y13109701D01*
X7725664Y13124434D01*
X7706106Y13131292D01*
X7706106Y13131800D01*
X7725664Y13137642D01*
X7764780Y13150596D01*
G37*
G36*
X7714488Y13092684D02*
G01*
X7710576Y13092277D01*
X7706868Y13091109D01*
X7703464Y13089128D01*
X7700467Y13086384D01*
X7697978Y13082879D01*
X7696047Y13078663D01*
X7694828Y13073684D01*
X7694422Y13068046D01*
X7695133Y13060883D01*
X7697114Y13054126D01*
X7700111Y13047929D01*
X7703820Y13042646D01*
X7710931Y13047726D01*
X7707630Y13052348D01*
X7705039Y13057174D01*
X7703413Y13062508D01*
X7702803Y13068554D01*
X7703667Y13074751D01*
X7706004Y13079171D01*
X7709560Y13081863D01*
X7713980Y13082778D01*
X7718806Y13081355D01*
X7722463Y13077647D01*
X7725308Y13072465D01*
X7730490Y13059410D01*
X7734350Y13052907D01*
X7739735Y13048234D01*
X7747253Y13046456D01*
X7754772Y13047980D01*
X7760919Y13052501D01*
X7765034Y13059867D01*
X7766558Y13069824D01*
X7765999Y13075767D01*
X7764373Y13081304D01*
X7761935Y13086283D01*
X7758938Y13090652D01*
X7752080Y13085571D01*
X7754569Y13081914D01*
X7756601Y13078155D01*
X7757922Y13074192D01*
X7758430Y13069824D01*
X7757566Y13063880D01*
X7755280Y13059663D01*
X7751876Y13057174D01*
X7747762Y13056362D01*
X7743342Y13057581D01*
X7740142Y13060883D01*
X7737703Y13065709D01*
X7732420Y13078968D01*
X7728458Y13085826D01*
X7722768Y13090753D01*
G37*
G36*
X7696200Y13027660D02*
G01*
X7696200Y13017246D01*
X7738364Y13017246D01*
X7746898Y13016484D01*
X7752842Y13013994D01*
X7756296Y13009727D01*
X7757414Y13003530D01*
X7756702Y12998450D01*
X7754569Y12993776D01*
X7751114Y12989052D01*
X7746238Y12983972D01*
X7696200Y12983972D01*
X7696200Y12973812D01*
X7764780Y12973812D01*
X7764780Y12982194D01*
X7754620Y12983210D01*
X7754620Y12983464D01*
X7759293Y12988544D01*
X7763052Y12993979D01*
X7765643Y12999923D01*
X7766558Y13006578D01*
X7766151Y13011658D01*
X7764830Y13015976D01*
X7762748Y13019633D01*
X7759801Y13022529D01*
X7756042Y13024815D01*
X7751470Y13026390D01*
X7746085Y13027355D01*
X7739888Y13027660D01*
G37*
G36*
X7732725Y12956286D02*
G01*
X7729474Y12956082D01*
X7728203Y12955778D01*
X7728203Y12947142D01*
X7735824Y12947142D01*
X7745526Y12945922D01*
X7752537Y12942468D01*
X7756753Y12936880D01*
X7758175Y12929362D01*
X7756652Y12922097D01*
X7752232Y12915849D01*
X7745222Y12911226D01*
X7735824Y12908788D01*
X7735824Y12947142D01*
X7728203Y12947142D01*
X7728203Y12909042D01*
X7722717Y12909651D01*
X7717790Y12910972D01*
X7713472Y12913055D01*
X7709763Y12915747D01*
X7706817Y12919100D01*
X7704632Y12923062D01*
X7703261Y12927482D01*
X7702803Y12932410D01*
X7703159Y12937337D01*
X7704277Y12941858D01*
X7706004Y12946024D01*
X7708392Y12949936D01*
X7701534Y12953746D01*
X7698790Y12949021D01*
X7696555Y12943789D01*
X7694980Y12937896D01*
X7694422Y12931140D01*
X7695031Y12924586D01*
X7696860Y12918440D01*
X7699857Y12912902D01*
X7703972Y12908127D01*
X7709153Y12904165D01*
X7715300Y12901168D01*
X7722463Y12899288D01*
X7730490Y12898628D01*
X7738364Y12899288D01*
X7745425Y12901218D01*
X7751622Y12904216D01*
X7756804Y12908076D01*
X7760970Y12912699D01*
X7764018Y12917932D01*
X7765897Y12923520D01*
X7766558Y12929362D01*
X7765999Y12935407D01*
X7764322Y12940741D01*
X7761579Y12945364D01*
X7757871Y12949224D01*
X7753299Y12952272D01*
X7747812Y12954457D01*
X7741564Y12955828D01*
G37*
G36*
X7734553Y12886690D02*
G01*
X7730998Y12886537D01*
X7728203Y12886182D01*
X7728203Y12877546D01*
X7735824Y12877546D01*
X7745526Y12876326D01*
X7752537Y12872821D01*
X7756753Y12867284D01*
X7758175Y12859766D01*
X7756652Y12852450D01*
X7752232Y12846151D01*
X7745222Y12841528D01*
X7735824Y12839192D01*
X7735824Y12877546D01*
X7728203Y12877546D01*
X7728203Y12839192D01*
X7722717Y12839852D01*
X7717790Y12841274D01*
X7713472Y12843408D01*
X7709763Y12846151D01*
X7706817Y12849504D01*
X7704632Y12853466D01*
X7703261Y12857886D01*
X7702803Y12862814D01*
X7703159Y12867589D01*
X7704277Y12872008D01*
X7706004Y12876174D01*
X7708392Y12880086D01*
X7701534Y12883896D01*
X7698790Y12879273D01*
X7696555Y12874040D01*
X7694980Y12868198D01*
X7694422Y12861544D01*
X7695031Y12854990D01*
X7696860Y12848844D01*
X7699857Y12843306D01*
X7703972Y12838531D01*
X7709153Y12834569D01*
X7715300Y12831572D01*
X7722463Y12829692D01*
X7730490Y12829032D01*
X7738364Y12829692D01*
X7745425Y12831572D01*
X7751622Y12834518D01*
X7756804Y12838379D01*
X7760970Y12842951D01*
X7764018Y12848082D01*
X7765897Y12853670D01*
X7766558Y12859512D01*
X7765999Y12865658D01*
X7764322Y12871043D01*
X7761579Y12875717D01*
X7757871Y12879578D01*
X7753299Y12882626D01*
X7747812Y12884861D01*
X7741564Y12886232D01*
G37*
G36*
X7696962Y12822428D02*
G01*
X7694675Y12813233D01*
X7694422Y12810236D01*
X7694828Y12805257D01*
X7696047Y12801142D01*
X7698028Y12797840D01*
X7700670Y12795300D01*
X7703972Y12793421D01*
X7707833Y12792151D01*
X7712202Y12791389D01*
X7717028Y12791186D01*
X7756144Y12791186D01*
X7756144Y12780772D01*
X7764272Y12780772D01*
X7764780Y12791694D01*
X7784338Y12792964D01*
X7784338Y12801600D01*
X7764780Y12801600D01*
X7764780Y12820396D01*
X7756144Y12820396D01*
X7756144Y12801600D01*
X7716520Y12801600D01*
X7710881Y12802108D01*
X7706664Y12803886D01*
X7703972Y12807188D01*
X7703058Y12812268D01*
X7703566Y12816433D01*
X7704836Y12820396D01*
G37*
G36*
X7796784Y12774168D02*
G01*
X7673594Y12735052D01*
X7673594Y12727432D01*
X7796784Y12766548D01*
G37*
G36*
X7732725Y12720574D02*
G01*
X7729474Y12720370D01*
X7728203Y12720066D01*
X7728203Y12711430D01*
X7735824Y12711430D01*
X7745526Y12710210D01*
X7752537Y12706705D01*
X7756753Y12701168D01*
X7758175Y12693650D01*
X7756652Y12686385D01*
X7752232Y12680137D01*
X7745222Y12675514D01*
X7735824Y12673076D01*
X7735824Y12711430D01*
X7728203Y12711430D01*
X7728203Y12673330D01*
X7722717Y12673939D01*
X7717790Y12675260D01*
X7713472Y12677343D01*
X7709763Y12680086D01*
X7706817Y12683388D01*
X7704632Y12687350D01*
X7703261Y12691770D01*
X7702803Y12696698D01*
X7703159Y12701625D01*
X7704277Y12706146D01*
X7706004Y12710312D01*
X7708392Y12714224D01*
X7701534Y12718034D01*
X7698790Y12713309D01*
X7696555Y12708077D01*
X7694980Y12702184D01*
X7694422Y12695428D01*
X7695031Y12688874D01*
X7696860Y12682728D01*
X7699857Y12677190D01*
X7703972Y12672415D01*
X7709153Y12668453D01*
X7715300Y12665456D01*
X7722463Y12663576D01*
X7730490Y12662916D01*
X7738364Y12663576D01*
X7745425Y12665506D01*
X7751622Y12668504D01*
X7756804Y12672364D01*
X7760970Y12676987D01*
X7764018Y12682220D01*
X7765897Y12687808D01*
X7766558Y12693650D01*
X7765999Y12699695D01*
X7764322Y12705029D01*
X7761579Y12709652D01*
X7757871Y12713512D01*
X7753299Y12716560D01*
X7747812Y12718745D01*
X7741564Y12720116D01*
G37*
G36*
X7696200Y12644374D02*
G01*
X7696200Y12635738D01*
X7704328Y12634976D01*
X7704328Y12634468D01*
X7700518Y12630099D01*
X7697368Y12625070D01*
X7695234Y12619482D01*
X7694692Y12615418D01*
X7703312Y12615418D01*
X7703921Y12620244D01*
X7705750Y12624866D01*
X7708798Y12629438D01*
X7712964Y12633960D01*
X7750048Y12633960D01*
X7753654Y12629489D01*
X7756093Y12625171D01*
X7757464Y12620904D01*
X7757922Y12616434D01*
X7757414Y12612217D01*
X7755890Y12608306D01*
X7753451Y12604800D01*
X7750200Y12601752D01*
X7746187Y12599263D01*
X7741513Y12597434D01*
X7736281Y12596266D01*
X7730490Y12595860D01*
X7724444Y12596164D01*
X7719059Y12597180D01*
X7714437Y12598755D01*
X7710525Y12600990D01*
X7707426Y12603784D01*
X7705140Y12607086D01*
X7703769Y12610998D01*
X7703312Y12615418D01*
X7694692Y12615418D01*
X7694422Y12613386D01*
X7695031Y12607188D01*
X7696860Y12601651D01*
X7699806Y12596774D01*
X7703870Y12592710D01*
X7709052Y12589408D01*
X7715199Y12586970D01*
X7722362Y12585446D01*
X7730490Y12584938D01*
X7738364Y12585598D01*
X7745425Y12587427D01*
X7751622Y12590272D01*
X7756804Y12594031D01*
X7760970Y12598501D01*
X7764018Y12603581D01*
X7765897Y12609118D01*
X7766558Y12614910D01*
X7765999Y12620548D01*
X7764373Y12625476D01*
X7761833Y12629997D01*
X7758430Y12634468D01*
X7770368Y12633960D01*
X7797292Y12633960D01*
X7797292Y12644374D01*
G37*
G36*
X7730490Y12571476D02*
G01*
X7722362Y12570815D01*
X7715199Y12568936D01*
X7709052Y12565938D01*
X7703870Y12562027D01*
X7699806Y12557302D01*
X7696860Y12551968D01*
X7695031Y12546126D01*
X7694422Y12539980D01*
X7703312Y12539980D01*
X7703820Y12544399D01*
X7705242Y12548362D01*
X7707579Y12551918D01*
X7710728Y12554966D01*
X7714640Y12557455D01*
X7719263Y12559284D01*
X7724597Y12560401D01*
X7730490Y12560808D01*
X7736331Y12560401D01*
X7741615Y12559284D01*
X7746288Y12557455D01*
X7750302Y12554966D01*
X7753553Y12551918D01*
X7755940Y12548362D01*
X7757414Y12544399D01*
X7757922Y12539980D01*
X7757414Y12535509D01*
X7755940Y12531496D01*
X7753553Y12527940D01*
X7750302Y12524892D01*
X7746288Y12522454D01*
X7741615Y12520676D01*
X7736331Y12519558D01*
X7730490Y12519152D01*
X7724597Y12519558D01*
X7719263Y12520676D01*
X7714640Y12522454D01*
X7710728Y12524892D01*
X7707579Y12527940D01*
X7705242Y12531496D01*
X7703820Y12535509D01*
X7703312Y12539980D01*
X7694422Y12539980D01*
X7695031Y12533833D01*
X7696860Y12527991D01*
X7699806Y12522657D01*
X7703870Y12517932D01*
X7709052Y12514021D01*
X7715199Y12511024D01*
X7722362Y12509144D01*
X7730490Y12508484D01*
X7738618Y12509144D01*
X7745780Y12511024D01*
X7751927Y12514021D01*
X7757109Y12517932D01*
X7761173Y12522657D01*
X7764119Y12527991D01*
X7765948Y12533833D01*
X7766558Y12539980D01*
X7765948Y12546126D01*
X7764119Y12551968D01*
X7761173Y12557302D01*
X7757109Y12562027D01*
X7751927Y12565938D01*
X7745780Y12568936D01*
X7738618Y12570815D01*
G37*
G36*
X7703312Y12501118D02*
G01*
X7699654Y12496292D01*
X7696860Y12490907D01*
X7695082Y12485166D01*
X7694422Y12479020D01*
X7695031Y12472466D01*
X7696860Y12466421D01*
X7699806Y12460986D01*
X7703870Y12456261D01*
X7709052Y12452400D01*
X7715199Y12449505D01*
X7722362Y12447676D01*
X7730490Y12447016D01*
X7738618Y12447727D01*
X7745780Y12449657D01*
X7751927Y12452756D01*
X7757109Y12456820D01*
X7761173Y12461697D01*
X7764119Y12467285D01*
X7765948Y12473330D01*
X7766558Y12479782D01*
X7765897Y12485979D01*
X7764119Y12491313D01*
X7761528Y12495936D01*
X7758430Y12499848D01*
X7751572Y12494260D01*
X7754061Y12491161D01*
X7756093Y12487808D01*
X7757414Y12484150D01*
X7757922Y12480036D01*
X7757414Y12475413D01*
X7755940Y12471196D01*
X7753553Y12467386D01*
X7750302Y12464084D01*
X7746288Y12461392D01*
X7741615Y12459411D01*
X7736331Y12458141D01*
X7730490Y12457684D01*
X7724597Y12458090D01*
X7719263Y12459258D01*
X7714640Y12461189D01*
X7710728Y12463780D01*
X7707579Y12466980D01*
X7705242Y12470739D01*
X7703820Y12475057D01*
X7703312Y12479782D01*
X7703870Y12484557D01*
X7705293Y12489027D01*
X7707477Y12493040D01*
X7710170Y12496546D01*
G37*
G36*
X7765034Y12442190D02*
G01*
X7756144Y12440158D01*
X7756956Y12437059D01*
X7757159Y12433554D01*
X7756296Y12428982D01*
X7753502Y12424308D01*
X7748473Y12419888D01*
X7740903Y12416028D01*
X7696200Y12416028D01*
X7696200Y12405614D01*
X7764780Y12405614D01*
X7764780Y12413996D01*
X7752080Y12415012D01*
X7752080Y12415520D01*
X7758074Y12419380D01*
X7762646Y12424003D01*
X7765542Y12429236D01*
X7766558Y12434824D01*
X7766253Y12438786D01*
X7765796Y12440513D01*
G37*
G36*
X7696200Y12381738D02*
G01*
X7696200Y12373102D01*
X7704328Y12372340D01*
X7704328Y12371832D01*
X7700518Y12367463D01*
X7697368Y12362434D01*
X7695234Y12356846D01*
X7694692Y12352782D01*
X7703312Y12352782D01*
X7703921Y12357608D01*
X7705750Y12362230D01*
X7708798Y12366802D01*
X7712964Y12371324D01*
X7750048Y12371324D01*
X7753654Y12366853D01*
X7756093Y12362586D01*
X7757464Y12358268D01*
X7757922Y12353798D01*
X7757414Y12349581D01*
X7755890Y12345670D01*
X7753451Y12342164D01*
X7750200Y12339116D01*
X7746187Y12336678D01*
X7741513Y12334798D01*
X7736281Y12333630D01*
X7730490Y12333224D01*
X7724444Y12333528D01*
X7719059Y12334544D01*
X7714437Y12336119D01*
X7710525Y12338354D01*
X7707426Y12341148D01*
X7705140Y12344450D01*
X7703769Y12348362D01*
X7703312Y12352782D01*
X7694692Y12352782D01*
X7694422Y12350750D01*
X7695031Y12344552D01*
X7696860Y12339015D01*
X7699806Y12334138D01*
X7703870Y12330074D01*
X7709052Y12326772D01*
X7715199Y12324334D01*
X7722362Y12322810D01*
X7730490Y12322302D01*
X7738364Y12322962D01*
X7745425Y12324791D01*
X7751622Y12327636D01*
X7756804Y12331395D01*
X7760970Y12335865D01*
X7764018Y12340945D01*
X7765897Y12346482D01*
X7766558Y12352274D01*
X7765999Y12357912D01*
X7764373Y12362789D01*
X7761833Y12367361D01*
X7758430Y12371832D01*
X7770368Y12371324D01*
X7797292Y12371324D01*
X7797292Y12381738D01*
G37*
G36*
X7696200Y12303506D02*
G01*
X7696200Y12295124D01*
X7704328Y12294108D01*
X7704328Y12293854D01*
X7700518Y12289332D01*
X7697368Y12284252D01*
X7695234Y12278614D01*
X7694726Y12274804D01*
X7703312Y12274804D01*
X7703921Y12279630D01*
X7705750Y12284252D01*
X7708798Y12288824D01*
X7712964Y12293346D01*
X7750048Y12293346D01*
X7753654Y12288774D01*
X7756093Y12284405D01*
X7757464Y12280138D01*
X7757922Y12275820D01*
X7757414Y12271552D01*
X7755890Y12267641D01*
X7753451Y12264085D01*
X7750200Y12261037D01*
X7746187Y12258497D01*
X7741513Y12256617D01*
X7736281Y12255398D01*
X7730490Y12254992D01*
X7724444Y12255347D01*
X7719059Y12256312D01*
X7714437Y12257887D01*
X7710525Y12260122D01*
X7707426Y12262967D01*
X7705140Y12266371D01*
X7703769Y12270282D01*
X7703312Y12274804D01*
X7694726Y12274804D01*
X7694422Y12272518D01*
X7695031Y12266371D01*
X7696860Y12260834D01*
X7699806Y12256008D01*
X7703870Y12251944D01*
X7709052Y12248692D01*
X7715199Y12246305D01*
X7722362Y12244832D01*
X7730490Y12244324D01*
X7738364Y12244933D01*
X7745425Y12246762D01*
X7751622Y12249556D01*
X7756804Y12253264D01*
X7760970Y12257735D01*
X7764018Y12262764D01*
X7765897Y12268250D01*
X7766558Y12274042D01*
X7765999Y12279680D01*
X7764373Y12284608D01*
X7761833Y12289231D01*
X7758430Y12293854D01*
X7770368Y12293346D01*
X7797292Y12293346D01*
X7797292Y12303506D01*
G37*
G36*
X7796784Y12240514D02*
G01*
X7673594Y12201398D01*
X7673594Y12193778D01*
X7796784Y12232894D01*
G37*
G36*
X7696200Y12181332D02*
G01*
X7696200Y12170918D01*
X7738364Y12170918D01*
X7746898Y12170156D01*
X7752842Y12167768D01*
X7756296Y12163653D01*
X7757414Y12157710D01*
X7756753Y12153442D01*
X7754670Y12149074D01*
X7751216Y12144502D01*
X7746238Y12139676D01*
X7696200Y12139676D01*
X7696200Y12129262D01*
X7738364Y12129262D01*
X7746898Y12128500D01*
X7752842Y12126061D01*
X7756296Y12121845D01*
X7757414Y12115800D01*
X7756753Y12111685D01*
X7754670Y12107265D01*
X7751216Y12102744D01*
X7746238Y12098020D01*
X7696200Y12098020D01*
X7696200Y12087606D01*
X7764780Y12087606D01*
X7764780Y12095988D01*
X7754620Y12097004D01*
X7754620Y12097512D01*
X7759293Y12102185D01*
X7763052Y12107316D01*
X7765643Y12112904D01*
X7766558Y12118848D01*
X7765643Y12125909D01*
X7762951Y12131294D01*
X7758734Y12135154D01*
X7753096Y12137644D01*
X7758531Y12143181D01*
X7762798Y12148769D01*
X7765542Y12154560D01*
X7766558Y12160504D01*
X7766151Y12165431D01*
X7764830Y12169648D01*
X7762748Y12173254D01*
X7759801Y12176150D01*
X7756042Y12178436D01*
X7751470Y12180062D01*
X7746085Y12181027D01*
X7739888Y12181332D01*
G37*
G36*
X7730490Y12069064D02*
G01*
X7722362Y12068403D01*
X7715199Y12066473D01*
X7709052Y12063425D01*
X7703870Y12059462D01*
X7699806Y12054738D01*
X7696860Y12049353D01*
X7695031Y12043511D01*
X7694422Y12037314D01*
X7703312Y12037314D01*
X7703820Y12041784D01*
X7705242Y12045848D01*
X7707579Y12049455D01*
X7710728Y12052503D01*
X7714640Y12054992D01*
X7719263Y12056872D01*
X7724597Y12057989D01*
X7730490Y12058396D01*
X7736331Y12057989D01*
X7741615Y12056872D01*
X7746288Y12054992D01*
X7750302Y12052503D01*
X7753553Y12049455D01*
X7755940Y12045848D01*
X7757414Y12041784D01*
X7757922Y12037314D01*
X7757414Y12032894D01*
X7755940Y12028932D01*
X7753553Y12025376D01*
X7750302Y12022328D01*
X7746288Y12019838D01*
X7741615Y12018010D01*
X7736331Y12016892D01*
X7730490Y12016486D01*
X7724597Y12016892D01*
X7719263Y12018010D01*
X7714640Y12019838D01*
X7710728Y12022328D01*
X7707579Y12025376D01*
X7705242Y12028932D01*
X7703820Y12032894D01*
X7703312Y12037314D01*
X7694422Y12037314D01*
X7695031Y12031167D01*
X7696860Y12025325D01*
X7699806Y12019991D01*
X7703870Y12015266D01*
X7709052Y12011355D01*
X7715199Y12008358D01*
X7722362Y12006478D01*
X7730490Y12005818D01*
X7738618Y12006478D01*
X7745780Y12008358D01*
X7751927Y12011355D01*
X7757109Y12015266D01*
X7761173Y12019991D01*
X7764119Y12025325D01*
X7765948Y12031167D01*
X7766558Y12037314D01*
X7765948Y12043511D01*
X7764119Y12049353D01*
X7761173Y12054738D01*
X7757109Y12059462D01*
X7751927Y12063425D01*
X7745780Y12066473D01*
X7738618Y12068403D01*
G37*
G36*
X7703312Y11998452D02*
G01*
X7699654Y11993626D01*
X7696860Y11988241D01*
X7695082Y11982500D01*
X7694422Y11976354D01*
X7695031Y11969800D01*
X7696860Y11963806D01*
X7699806Y11958370D01*
X7703870Y11953697D01*
X7709052Y11949887D01*
X7715199Y11947042D01*
X7722362Y11945213D01*
X7730490Y11944604D01*
X7738618Y11945315D01*
X7745780Y11947245D01*
X7751927Y11950344D01*
X7757109Y11954408D01*
X7761173Y11959234D01*
X7764119Y11964771D01*
X7765948Y11970766D01*
X7766558Y11977116D01*
X7765897Y11983415D01*
X7764119Y11988749D01*
X7761528Y11993321D01*
X7758430Y11997182D01*
X7751572Y11991848D01*
X7754061Y11988698D01*
X7756093Y11985294D01*
X7757414Y11981637D01*
X7757922Y11977624D01*
X7757414Y11972950D01*
X7755940Y11968683D01*
X7753553Y11964873D01*
X7750302Y11961571D01*
X7746288Y11958929D01*
X7741615Y11956948D01*
X7736331Y11955678D01*
X7730490Y11955272D01*
X7724597Y11955678D01*
X7719263Y11956846D01*
X7714640Y11958777D01*
X7710728Y11961368D01*
X7707579Y11964568D01*
X7705242Y11968327D01*
X7703820Y11972645D01*
X7703312Y11977370D01*
X7703870Y11982043D01*
X7705293Y11986412D01*
X7707477Y11990374D01*
X7710170Y11993880D01*
G37*
G36*
X7702803Y11930126D02*
G01*
X7699451Y11929516D01*
X7696809Y11927789D01*
X7695031Y11925300D01*
X7694422Y11922252D01*
X7695031Y11919204D01*
X7696809Y11916714D01*
X7699451Y11914987D01*
X7702803Y11914378D01*
X7706156Y11914987D01*
X7708798Y11916714D01*
X7710576Y11919204D01*
X7711186Y11922252D01*
X7710576Y11925300D01*
X7708798Y11927789D01*
X7706156Y11929516D01*
G37*
G36*
X7731506Y11899900D02*
G01*
X7723225Y11899290D01*
X7715859Y11897461D01*
X7709509Y11894616D01*
X7704226Y11890908D01*
X7700009Y11886438D01*
X7696911Y11881358D01*
X7695082Y11875820D01*
X7694422Y11869928D01*
X7694626Y11868404D01*
X7703312Y11868404D01*
X7703820Y11872722D01*
X7705242Y11876684D01*
X7707630Y11880240D01*
X7710830Y11883288D01*
X7714894Y11885777D01*
X7719720Y11887657D01*
X7725257Y11888825D01*
X7731506Y11889232D01*
X7737094Y11888978D01*
X7742174Y11888165D01*
X7746695Y11886844D01*
X7750505Y11884863D01*
X7753654Y11882221D01*
X7755991Y11878919D01*
X7757414Y11874957D01*
X7757922Y11870182D01*
X7757261Y11865559D01*
X7755331Y11860834D01*
X7752130Y11855907D01*
X7747762Y11850878D01*
X7710678Y11850878D01*
X7707274Y11855653D01*
X7704988Y11860326D01*
X7703718Y11864644D01*
X7703312Y11868404D01*
X7694626Y11868404D01*
X7695082Y11865000D01*
X7696860Y11859920D01*
X7699654Y11854891D01*
X7703312Y11850116D01*
X7703312Y11849862D01*
X7696200Y11848846D01*
X7696200Y11840718D01*
X7797292Y11840718D01*
X7797292Y11850878D01*
X7769098Y11850878D01*
X7756652Y11850370D01*
X7760462Y11855500D01*
X7763611Y11860936D01*
X7765745Y11866626D01*
X7766558Y11872468D01*
X7765897Y11878818D01*
X7764068Y11884355D01*
X7761020Y11889079D01*
X7756956Y11892940D01*
X7751876Y11895988D01*
X7745882Y11898172D01*
X7739075Y11899442D01*
G37*
G36*
X7696200Y11816588D02*
G01*
X7696200Y11808206D01*
X7707122Y11807190D01*
X7707122Y11806936D01*
X7702042Y11801906D01*
X7698028Y11796572D01*
X7695387Y11790680D01*
X7694422Y11784076D01*
X7694879Y11779046D01*
X7696149Y11774728D01*
X7698333Y11771122D01*
X7701330Y11768226D01*
X7705140Y11766042D01*
X7709763Y11764467D01*
X7715148Y11763552D01*
X7721346Y11763248D01*
X7764780Y11763248D01*
X7764780Y11773408D01*
X7722362Y11773408D01*
X7713980Y11774170D01*
X7708087Y11776659D01*
X7704683Y11780926D01*
X7703566Y11787124D01*
X7704277Y11792153D01*
X7706410Y11796877D01*
X7710119Y11801500D01*
X7715503Y11806428D01*
X7764780Y11806428D01*
X7764780Y11816588D01*
G37*
G36*
X7696200Y11741658D02*
G01*
X7696200Y11731244D01*
X7738364Y11731244D01*
X7746898Y11730482D01*
X7752842Y11727992D01*
X7756296Y11723725D01*
X7757414Y11717528D01*
X7756702Y11712448D01*
X7754569Y11707723D01*
X7751114Y11703050D01*
X7746238Y11697970D01*
X7696200Y11697970D01*
X7696200Y11687810D01*
X7797292Y11687810D01*
X7797292Y11697970D01*
X7769098Y11697970D01*
X7754874Y11697716D01*
X7759395Y11702745D01*
X7763103Y11708079D01*
X7765643Y11713972D01*
X7766558Y11720576D01*
X7766151Y11725656D01*
X7764830Y11729974D01*
X7762748Y11733631D01*
X7759801Y11736527D01*
X7756042Y11738813D01*
X7751470Y11740388D01*
X7746085Y11741353D01*
X7739888Y11741658D01*
G37*
G36*
X7696962Y11673840D02*
G01*
X7694675Y11664645D01*
X7694422Y11661648D01*
X7696047Y11652707D01*
X7700670Y11646916D01*
X7707833Y11643766D01*
X7717028Y11642852D01*
X7756144Y11642852D01*
X7756144Y11632438D01*
X7764272Y11632438D01*
X7764780Y11643106D01*
X7784338Y11644376D01*
X7784338Y11653012D01*
X7764780Y11653012D01*
X7764780Y11672062D01*
X7756144Y11672062D01*
X7756144Y11653012D01*
X7716520Y11653012D01*
X7710881Y11653520D01*
X7706664Y11655348D01*
X7703972Y11658701D01*
X7703058Y11663934D01*
X7703566Y11667947D01*
X7704836Y11671808D01*
G37*
G36*
X7786878Y11618976D02*
G01*
X7783779Y11618417D01*
X7781493Y11616944D01*
X7780020Y11614708D01*
X7779512Y11611864D01*
X7780020Y11608917D01*
X7781493Y11606682D01*
X7783779Y11605260D01*
X7786878Y11604752D01*
X7789672Y11605260D01*
X7791805Y11606682D01*
X7793228Y11608917D01*
X7793736Y11611864D01*
X7793228Y11614708D01*
X7791805Y11616944D01*
X7789672Y11618417D01*
G37*
G36*
X7696200Y11616944D02*
G01*
X7696200Y11606784D01*
X7764780Y11606784D01*
X7764780Y11616944D01*
G37*
G36*
X7687818Y11593068D02*
G01*
X7683246Y11592458D01*
X7678877Y11590629D01*
X7674864Y11587734D01*
X7671358Y11583720D01*
X7668412Y11578793D01*
X7666126Y11572900D01*
X7664703Y11566245D01*
X7664299Y11560302D01*
X7671562Y11560302D01*
X7672831Y11569598D01*
X7676184Y11576761D01*
X7680909Y11581282D01*
X7686294Y11582908D01*
X7690510Y11581942D01*
X7693355Y11579199D01*
X7694930Y11574678D01*
X7695438Y11568430D01*
X7695488Y11554104D01*
X7696453Y11547094D01*
X7693507Y11543792D01*
X7690459Y11541506D01*
X7687360Y11540185D01*
X7684262Y11539728D01*
X7678978Y11541099D01*
X7674965Y11545163D01*
X7672425Y11551615D01*
X7671562Y11560302D01*
X7664299Y11560302D01*
X7664196Y11558778D01*
X7664500Y11552732D01*
X7665466Y11547297D01*
X7666990Y11542471D01*
X7669072Y11538407D01*
X7671714Y11535105D01*
X7674914Y11532616D01*
X7678572Y11531092D01*
X7682738Y11530584D01*
X7687106Y11531295D01*
X7691272Y11533276D01*
X7695133Y11536476D01*
X7698486Y11540744D01*
X7698994Y11540744D01*
X7700975Y11538254D01*
X7703464Y11536222D01*
X7706614Y11534902D01*
X7710424Y11534394D01*
X7714386Y11535105D01*
X7717942Y11536984D01*
X7720838Y11539423D01*
X7723124Y11542014D01*
X7723631Y11542014D01*
X7726883Y11538813D01*
X7731201Y11535968D01*
X7736331Y11533886D01*
X7742174Y11533124D01*
X7747457Y11533632D01*
X7752181Y11535156D01*
X7756347Y11537543D01*
X7759903Y11540693D01*
X7762748Y11544452D01*
X7764830Y11548770D01*
X7766100Y11553494D01*
X7766558Y11558524D01*
X7766050Y11563807D01*
X7764780Y11568176D01*
X7764780Y11591798D01*
X7756906Y11591798D01*
X7756906Y11577320D01*
X7754061Y11579758D01*
X7750556Y11581688D01*
X7746492Y11582958D01*
X7741920Y11583416D01*
X7736687Y11582908D01*
X7731963Y11581485D01*
X7727899Y11579199D01*
X7724444Y11576202D01*
X7721701Y11572544D01*
X7719720Y11568328D01*
X7718450Y11563604D01*
X7718044Y11558524D01*
X7725156Y11558524D01*
X7726375Y11564467D01*
X7729778Y11569395D01*
X7735112Y11572798D01*
X7742174Y11574018D01*
X7749184Y11572798D01*
X7754467Y11569395D01*
X7757769Y11564467D01*
X7758938Y11558524D01*
X7757769Y11552631D01*
X7754467Y11547754D01*
X7749184Y11544503D01*
X7742174Y11543284D01*
X7735112Y11544503D01*
X7729778Y11547856D01*
X7726375Y11552732D01*
X7725156Y11558524D01*
X7718044Y11558524D01*
X7718602Y11553240D01*
X7719314Y11550548D01*
X7720330Y11548110D01*
X7718755Y11546332D01*
X7716875Y11544858D01*
X7714589Y11543893D01*
X7711694Y11543538D01*
X7708696Y11544096D01*
X7706258Y11546128D01*
X7704632Y11549837D01*
X7704074Y11555730D01*
X7704074Y11569446D01*
X7703108Y11579758D01*
X7700111Y11587175D01*
X7695082Y11591594D01*
G37*
G36*
X7796784Y11523726D02*
G01*
X7673594Y11484610D01*
X7673594Y11476990D01*
X7796784Y11516106D01*
G37*
G36*
X7796784Y11473942D02*
G01*
X7673594Y11434826D01*
X7673594Y11427206D01*
X7796784Y11466322D01*
G37*
G36*
X7754620Y11416284D02*
G01*
X7751267Y11415674D01*
X7748625Y11413947D01*
X7746847Y11411458D01*
X7746238Y11408410D01*
X7746847Y11405514D01*
X7748625Y11403076D01*
X7751267Y11401399D01*
X7754620Y11400790D01*
X7757922Y11401399D01*
X7760512Y11403076D01*
X7762138Y11405514D01*
X7762748Y11408410D01*
X7762138Y11411458D01*
X7760512Y11413947D01*
X7757922Y11415674D01*
G37*
G36*
X7702803Y11416284D02*
G01*
X7699451Y11415674D01*
X7696809Y11413947D01*
X7695031Y11411458D01*
X7694422Y11408410D01*
X7695031Y11405514D01*
X7696809Y11403076D01*
X7699451Y11401399D01*
X7702803Y11400790D01*
X7706156Y11401399D01*
X7708798Y11403076D01*
X7710576Y11405514D01*
X7711186Y11408410D01*
X7710576Y11411458D01*
X7708798Y11413947D01*
X7706156Y11415674D01*
G37*
G36*
X7714488Y11386820D02*
G01*
X7710576Y11386413D01*
X7706868Y11385245D01*
X7703464Y11383264D01*
X7700467Y11380520D01*
X7697978Y11377015D01*
X7696047Y11372799D01*
X7694828Y11367820D01*
X7694422Y11362182D01*
X7695133Y11355019D01*
X7697114Y11348262D01*
X7700111Y11342065D01*
X7703820Y11336782D01*
X7710931Y11341862D01*
X7707630Y11346484D01*
X7705039Y11351310D01*
X7703413Y11356644D01*
X7702803Y11362690D01*
X7703667Y11368887D01*
X7706004Y11373307D01*
X7709560Y11375999D01*
X7713980Y11376914D01*
X7718806Y11375491D01*
X7722463Y11371783D01*
X7725308Y11366652D01*
X7730490Y11353546D01*
X7734350Y11347043D01*
X7739735Y11342370D01*
X7747253Y11340592D01*
X7754772Y11342116D01*
X7760919Y11346637D01*
X7765034Y11354003D01*
X7766558Y11363960D01*
X7765999Y11369903D01*
X7764373Y11375440D01*
X7761935Y11380419D01*
X7758938Y11384788D01*
X7752080Y11379708D01*
X7754569Y11376050D01*
X7756601Y11372291D01*
X7757922Y11368328D01*
X7758430Y11363960D01*
X7757566Y11358016D01*
X7755280Y11353800D01*
X7751876Y11351310D01*
X7747762Y11350498D01*
X7743342Y11351717D01*
X7740142Y11355019D01*
X7737703Y11359845D01*
X7732420Y11373104D01*
X7728458Y11379962D01*
X7722768Y11384889D01*
G37*
G36*
X7731506Y11325860D02*
G01*
X7723225Y11325250D01*
X7715859Y11323421D01*
X7709509Y11320576D01*
X7704226Y11316868D01*
X7700009Y11312398D01*
X7696911Y11307318D01*
X7695082Y11301780D01*
X7694422Y11295888D01*
X7694600Y11294364D01*
X7703312Y11294364D01*
X7703820Y11298682D01*
X7705242Y11302644D01*
X7707630Y11306200D01*
X7710830Y11309248D01*
X7714894Y11311737D01*
X7719720Y11313617D01*
X7725257Y11314785D01*
X7731506Y11315192D01*
X7737094Y11314938D01*
X7742174Y11314125D01*
X7746695Y11312804D01*
X7750505Y11310823D01*
X7753654Y11308181D01*
X7755991Y11304930D01*
X7757414Y11300917D01*
X7757922Y11296142D01*
X7757261Y11291570D01*
X7755331Y11286845D01*
X7752130Y11282019D01*
X7747762Y11276838D01*
X7710678Y11276838D01*
X7707274Y11281714D01*
X7704988Y11286388D01*
X7703718Y11290604D01*
X7703312Y11294364D01*
X7694600Y11294364D01*
X7694980Y11291112D01*
X7696606Y11286337D01*
X7699146Y11281511D01*
X7702550Y11276584D01*
X7690612Y11276838D01*
X7666736Y11276838D01*
X7666736Y11266678D01*
X7764780Y11266678D01*
X7764780Y11275060D01*
X7756906Y11276076D01*
X7756906Y11276330D01*
X7760563Y11281359D01*
X7763662Y11286794D01*
X7765745Y11292535D01*
X7766558Y11298428D01*
X7765897Y11304778D01*
X7764068Y11310315D01*
X7761020Y11315039D01*
X7756956Y11318900D01*
X7751876Y11321948D01*
X7745882Y11324132D01*
X7739075Y11325402D01*
G37*
G36*
X7696962Y11252708D02*
G01*
X7694675Y11243513D01*
X7694422Y11240516D01*
X7696047Y11231575D01*
X7700670Y11225784D01*
X7707833Y11222634D01*
X7717028Y11221720D01*
X7756144Y11221720D01*
X7756144Y11211306D01*
X7764272Y11211306D01*
X7764780Y11221974D01*
X7784338Y11223244D01*
X7784338Y11231880D01*
X7764780Y11231880D01*
X7764780Y11250930D01*
X7756144Y11250930D01*
X7756144Y11231880D01*
X7716520Y11231880D01*
X7710881Y11232388D01*
X7706664Y11234216D01*
X7703972Y11237569D01*
X7703058Y11242802D01*
X7703566Y11246815D01*
X7704836Y11250676D01*
G37*
G36*
X7696962Y11208512D02*
G01*
X7694675Y11199418D01*
X7694422Y11196574D01*
X7694828Y11191595D01*
X7696047Y11187480D01*
X7698028Y11184178D01*
X7700670Y11181638D01*
X7703972Y11179759D01*
X7707833Y11178489D01*
X7712202Y11177727D01*
X7717028Y11177524D01*
X7756144Y11177524D01*
X7756144Y11167110D01*
X7764272Y11167110D01*
X7764780Y11177778D01*
X7784338Y11179048D01*
X7784338Y11187938D01*
X7764780Y11187938D01*
X7764780Y11206734D01*
X7756144Y11206734D01*
X7756144Y11187938D01*
X7716520Y11187938D01*
X7710881Y11188446D01*
X7706664Y11190224D01*
X7703972Y11193526D01*
X7703058Y11198606D01*
X7703566Y11202619D01*
X7704836Y11206480D01*
G37*
G36*
X7696200Y11153140D02*
G01*
X7696200Y11142726D01*
X7738364Y11142726D01*
X7746898Y11141913D01*
X7752842Y11139373D01*
X7756296Y11135106D01*
X7757414Y11129010D01*
X7756702Y11123828D01*
X7754569Y11119154D01*
X7751114Y11114481D01*
X7746238Y11109452D01*
X7696200Y11109452D01*
X7696200Y11099292D01*
X7797292Y11099292D01*
X7797292Y11109452D01*
X7769098Y11109452D01*
X7754874Y11108944D01*
X7759395Y11114024D01*
X7763103Y11119459D01*
X7765643Y11125403D01*
X7766558Y11132058D01*
X7766151Y11137138D01*
X7764830Y11141456D01*
X7762748Y11145113D01*
X7759801Y11148009D01*
X7756042Y11150295D01*
X7751470Y11151870D01*
X7746085Y11152835D01*
X7739888Y11153140D01*
G37*
G36*
X9111996Y12706096D02*
G01*
X9106509Y12705842D01*
X9101582Y12705029D01*
X9097162Y12703606D01*
X9093454Y12701524D01*
X9090456Y12698730D01*
X9088221Y12695174D01*
X9086799Y12690805D01*
X9086342Y12685522D01*
X9094724Y12685522D01*
X9095943Y12691973D01*
X9099499Y12696190D01*
X9105341Y12698526D01*
X9113266Y12699238D01*
X9126220Y12699238D01*
X9126220Y12670790D01*
X9113266Y12670790D01*
X9105341Y12671653D01*
X9099499Y12674346D01*
X9095943Y12678918D01*
X9094724Y12685522D01*
X9086342Y12685522D01*
X9087561Y12677648D01*
X9090964Y12671602D01*
X9096400Y12667284D01*
X9103614Y12664694D01*
X9084310Y12631674D01*
X9093708Y12631674D01*
X9112250Y12663678D01*
X9126220Y12663678D01*
X9126220Y12631674D01*
X9134602Y12631674D01*
X9134602Y12706096D01*
G37*
G36*
X9034526Y12706096D02*
G01*
X9034526Y12698984D01*
X9062974Y12698984D01*
X9065006Y12676378D01*
X9062313Y12677698D01*
X9059570Y12678664D01*
X9056573Y12679222D01*
X9053322Y12679426D01*
X9048851Y12679070D01*
X9044686Y12678054D01*
X9040876Y12676327D01*
X9037574Y12673787D01*
X9034830Y12670536D01*
X9032748Y12666472D01*
X9031427Y12661544D01*
X9030970Y12655804D01*
X9031478Y12650063D01*
X9033002Y12644983D01*
X9035338Y12640614D01*
X9038386Y12637008D01*
X9041993Y12634163D01*
X9046057Y12632080D01*
X9050477Y12630810D01*
X9055100Y12630404D01*
X9062872Y12631216D01*
X9069273Y12633452D01*
X9074404Y12636601D01*
X9078468Y12640310D01*
X9074404Y12645644D01*
X9070898Y12642494D01*
X9066733Y12639852D01*
X9061805Y12637973D01*
X9055862Y12637262D01*
X9049410Y12638532D01*
X9044178Y12642189D01*
X9040622Y12647980D01*
X9039352Y12655550D01*
X9040520Y12662916D01*
X9043720Y12668402D01*
X9048800Y12671856D01*
X9055354Y12673076D01*
X9058859Y12672771D01*
X9062008Y12671958D01*
X9064955Y12670586D01*
X9068054Y12668758D01*
X9072626Y12671552D01*
X9070086Y12706096D01*
G37*
G36*
X9053068Y11856212D02*
G01*
X9044533Y11854738D01*
X9038132Y11850725D01*
X9034119Y11844528D01*
X9032748Y11836654D01*
X9032834Y11836146D01*
X9040114Y11836146D01*
X9040977Y11841480D01*
X9043466Y11845848D01*
X9047530Y11848795D01*
X9053068Y11849862D01*
X9057995Y11848947D01*
X9061958Y11846407D01*
X9064548Y11842445D01*
X9065514Y11837416D01*
X9064040Y11831421D01*
X9060129Y11826951D01*
X9054592Y11823598D01*
X9048242Y11820906D01*
X9044736Y11824309D01*
X9042196Y11828068D01*
X9040622Y11832031D01*
X9040114Y11836146D01*
X9032834Y11836146D01*
X9033713Y11830964D01*
X9036202Y11825935D01*
X9039504Y11821718D01*
X9042908Y11818620D01*
X9042908Y11818112D01*
X9038132Y11814860D01*
X9034068Y11810695D01*
X9031274Y11805361D01*
X9030247Y11798808D01*
X9038082Y11798808D01*
X9039758Y11805513D01*
X9044228Y11810339D01*
X9050731Y11814098D01*
X9058402Y11817350D01*
X9062770Y11813946D01*
X9066225Y11809831D01*
X9068511Y11805107D01*
X9069324Y11799824D01*
X9068104Y11794185D01*
X9064701Y11789664D01*
X9059570Y11786666D01*
X9053068Y11785600D01*
X9046972Y11786616D01*
X9042247Y11789359D01*
X9039148Y11793524D01*
X9038082Y11798808D01*
X9030247Y11798808D01*
X9031884Y11791086D01*
X9036608Y11785041D01*
X9043924Y11780977D01*
X9053322Y11779504D01*
X9062669Y11780977D01*
X9070035Y11785142D01*
X9074912Y11791391D01*
X9076690Y11799316D01*
X9075521Y11806224D01*
X9072422Y11811965D01*
X9068003Y11816588D01*
X9062974Y11819890D01*
X9062974Y11820398D01*
X9066834Y11823446D01*
X9070035Y11827306D01*
X9072321Y11831929D01*
X9073134Y11837416D01*
X9071610Y11845086D01*
X9067393Y11851030D01*
X9061043Y11854840D01*
G37*
G36*
X9111996Y11855196D02*
G01*
X9106509Y11854942D01*
X9101582Y11854129D01*
X9097162Y11852706D01*
X9093454Y11850624D01*
X9090456Y11847830D01*
X9088221Y11844274D01*
X9086799Y11839905D01*
X9086342Y11834622D01*
X9094724Y11834622D01*
X9095943Y11841073D01*
X9099499Y11845290D01*
X9105341Y11847626D01*
X9113266Y11848338D01*
X9126220Y11848338D01*
X9126220Y11819890D01*
X9113266Y11819890D01*
X9105341Y11820753D01*
X9099499Y11823446D01*
X9095943Y11828018D01*
X9094724Y11834622D01*
X9086342Y11834622D01*
X9087561Y11826748D01*
X9090964Y11820702D01*
X9096400Y11816384D01*
X9103614Y11813794D01*
X9084310Y11780774D01*
X9093708Y11780774D01*
X9112250Y11812778D01*
X9126220Y11812778D01*
X9126220Y11780774D01*
X9134602Y11780774D01*
X9134602Y11855196D01*
G37*
G36*
X9055862Y12262866D02*
G01*
X9050731Y12262307D01*
X9046006Y12260681D01*
X9041790Y12257938D01*
X9038234Y12254077D01*
X9035288Y12249150D01*
X9033052Y12243155D01*
X9031681Y12236043D01*
X9031449Y12231878D01*
X9039098Y12231878D01*
X9040723Y12242342D01*
X9044025Y12249962D01*
X9049105Y12254687D01*
X9055862Y12256262D01*
X9060992Y12254992D01*
X9065107Y12251436D01*
X9067850Y12246000D01*
X9068816Y12238990D01*
X9068003Y12231878D01*
X9065463Y12226442D01*
X9061196Y12222937D01*
X9055100Y12221718D01*
X9051188Y12222327D01*
X9047073Y12224105D01*
X9043009Y12227306D01*
X9039098Y12231878D01*
X9031449Y12231878D01*
X9031224Y12227814D01*
X9031782Y12217247D01*
X9033459Y12208408D01*
X9036050Y12201144D01*
X9039402Y12195454D01*
X9043416Y12191136D01*
X9047937Y12188190D01*
X9052814Y12186462D01*
X9057894Y12185904D01*
X9063380Y12186462D01*
X9068104Y12187986D01*
X9072067Y12190272D01*
X9075420Y12193270D01*
X9070594Y12198604D01*
X9068054Y12196064D01*
X9065056Y12194235D01*
X9061704Y12193117D01*
X9058148Y12192762D01*
X9054490Y12193168D01*
X9051086Y12194387D01*
X9047886Y12196622D01*
X9045092Y12199823D01*
X9042755Y12204192D01*
X9040876Y12209780D01*
X9039656Y12216688D01*
X9039098Y12225020D01*
X9042857Y12221108D01*
X9047073Y12218111D01*
X9051645Y12216282D01*
X9056370Y12215622D01*
X9060840Y12215977D01*
X9064802Y12217095D01*
X9068257Y12218924D01*
X9071203Y12221514D01*
X9073540Y12224766D01*
X9075267Y12228779D01*
X9076334Y12233554D01*
X9076690Y12238990D01*
X9076283Y12244120D01*
X9075064Y12248743D01*
X9073134Y12252807D01*
X9070543Y12256262D01*
X9067495Y12259056D01*
X9063939Y12261138D01*
X9060027Y12262408D01*
G37*
G36*
X9111996Y12261596D02*
G01*
X9106509Y12261342D01*
X9101582Y12260529D01*
X9097162Y12259106D01*
X9093454Y12257024D01*
X9090456Y12254230D01*
X9088221Y12250674D01*
X9086799Y12246305D01*
X9086342Y12241022D01*
X9094724Y12241022D01*
X9095943Y12247473D01*
X9099499Y12251690D01*
X9105341Y12254026D01*
X9113266Y12254738D01*
X9126220Y12254738D01*
X9126220Y12226290D01*
X9113266Y12226290D01*
X9105341Y12227153D01*
X9099499Y12229846D01*
X9095943Y12234418D01*
X9094724Y12241022D01*
X9086342Y12241022D01*
X9087561Y12233148D01*
X9090964Y12227102D01*
X9096400Y12222784D01*
X9103614Y12220194D01*
X9084310Y12187174D01*
X9093708Y12187174D01*
X9112250Y12219178D01*
X9126220Y12219178D01*
X9126220Y12187174D01*
X9134602Y12187174D01*
X9134602Y12261596D01*
G37*
G36*
X8669782Y10929366D02*
G01*
X8665057Y10928959D01*
X8660892Y10927791D01*
X8657234Y10925911D01*
X8654186Y10923371D01*
X8651697Y10920222D01*
X8649919Y10916513D01*
X8648801Y10912246D01*
X8648446Y10907522D01*
X8649004Y10901883D01*
X8650579Y10896193D01*
X8653119Y10890453D01*
X8656574Y10884662D01*
X8660892Y10878769D01*
X8666022Y10872724D01*
X8671864Y10866577D01*
X8678418Y10860278D01*
X8666226Y10860786D01*
X8644890Y10860786D01*
X8644890Y10853674D01*
X8690864Y10853674D01*
X8690864Y10858754D01*
X8682532Y10866221D01*
X8675420Y10873181D01*
X8669528Y10879734D01*
X8664752Y10885881D01*
X8661146Y10891672D01*
X8658555Y10897108D01*
X8657082Y10902289D01*
X8656574Y10907268D01*
X8657386Y10913414D01*
X8659926Y10918342D01*
X8664295Y10921593D01*
X8670544Y10922762D01*
X8675116Y10922050D01*
X8679281Y10920120D01*
X8683091Y10917275D01*
X8686546Y10913872D01*
X8691372Y10918444D01*
X8686698Y10922914D01*
X8681720Y10926368D01*
X8676132Y10928604D01*
G37*
G36*
X8781796Y10928096D02*
G01*
X8776309Y10927842D01*
X8771382Y10927029D01*
X8766962Y10925606D01*
X8763254Y10923524D01*
X8760256Y10920730D01*
X8758021Y10917174D01*
X8756599Y10912805D01*
X8756142Y10907522D01*
X8764524Y10907522D01*
X8765743Y10913973D01*
X8769299Y10918190D01*
X8775141Y10920526D01*
X8783066Y10921238D01*
X8796020Y10921238D01*
X8796020Y10892790D01*
X8783066Y10892790D01*
X8775141Y10893653D01*
X8769299Y10896346D01*
X8765743Y10900918D01*
X8764524Y10907522D01*
X8756142Y10907522D01*
X8757361Y10899648D01*
X8760764Y10893602D01*
X8766200Y10889284D01*
X8773414Y10886694D01*
X8754110Y10853674D01*
X8763508Y10853674D01*
X8782050Y10885678D01*
X8796020Y10885678D01*
X8796020Y10853674D01*
X8804402Y10853674D01*
X8804402Y10928096D01*
G37*
G36*
X8717280Y10928096D02*
G01*
X8717280Y10860532D01*
X8702040Y10860532D01*
X8702040Y10853674D01*
X8742172Y10853674D01*
X8742172Y10860532D01*
X8725408Y10860532D01*
X8725408Y10917682D01*
X8738616Y10917682D01*
X8738616Y10923016D01*
X8734145Y10923930D01*
X8730183Y10925098D01*
X8726678Y10926470D01*
X8723630Y10928096D01*
G37*
G36*
X8999220Y11450066D02*
G01*
X8990787Y11448846D01*
X8984081Y11445290D01*
X8979712Y11439550D01*
X8978138Y11431778D01*
X8979103Y11425377D01*
X8981795Y11420246D01*
X8985961Y11416334D01*
X8991346Y11413490D01*
X8991346Y11413236D01*
X8985250Y11410848D01*
X8980220Y11406784D01*
X8976868Y11401145D01*
X8975598Y11394186D01*
X8976055Y11389512D01*
X8977426Y11385296D01*
X8979560Y11381689D01*
X8982405Y11378692D01*
X8985859Y11376304D01*
X8989872Y11374526D01*
X8994241Y11373459D01*
X8998966Y11373104D01*
X9006890Y11373916D01*
X9013342Y11376202D01*
X9018524Y11379403D01*
X9022588Y11383264D01*
X9018270Y11388598D01*
X9014764Y11385296D01*
X9010599Y11382552D01*
X9005570Y11380673D01*
X8999474Y11379962D01*
X8993174Y11380978D01*
X8988298Y11383873D01*
X8985097Y11388445D01*
X8983980Y11394440D01*
X8985250Y11400739D01*
X8989314Y11405616D01*
X8996629Y11408816D01*
X9007602Y11409934D01*
X9007602Y11416284D01*
X8997645Y11417401D01*
X8991142Y11420500D01*
X8987586Y11425174D01*
X8986520Y11431016D01*
X8987434Y11436045D01*
X8990025Y11439906D01*
X8994140Y11442446D01*
X8999474Y11443462D01*
X9003944Y11442750D01*
X9008110Y11441176D01*
X9011920Y11438839D01*
X9015222Y11435842D01*
X9019794Y11441430D01*
X9015425Y11444833D01*
X9010650Y11447576D01*
X9005316Y11449405D01*
G37*
G36*
X9111996Y11448796D02*
G01*
X9106509Y11448542D01*
X9101582Y11447729D01*
X9097162Y11446306D01*
X9093454Y11444224D01*
X9090456Y11441430D01*
X9088221Y11437874D01*
X9086799Y11433505D01*
X9086342Y11428222D01*
X9094724Y11428222D01*
X9095943Y11434673D01*
X9099499Y11438890D01*
X9105341Y11441226D01*
X9113266Y11441938D01*
X9126220Y11441938D01*
X9126220Y11413490D01*
X9113266Y11413490D01*
X9105341Y11414353D01*
X9099499Y11417046D01*
X9095943Y11421618D01*
X9094724Y11428222D01*
X9086342Y11428222D01*
X9087561Y11420348D01*
X9090964Y11414302D01*
X9096400Y11409984D01*
X9103614Y11407394D01*
X9084310Y11374374D01*
X9093708Y11374374D01*
X9112250Y11406378D01*
X9126220Y11406378D01*
X9126220Y11374374D01*
X9134602Y11374374D01*
X9134602Y11448796D01*
G37*
G36*
X9047480Y11448796D02*
G01*
X9047480Y11381232D01*
X9032240Y11381232D01*
X9032240Y11374374D01*
X9072372Y11374374D01*
X9072372Y11381232D01*
X9055608Y11381232D01*
X9055608Y11438382D01*
X9068816Y11438382D01*
X9068816Y11443716D01*
X9064345Y11444630D01*
X9060383Y11445798D01*
X9056878Y11447170D01*
X9053830Y11448796D01*
G37*
G36*
X9136380Y13955522D02*
G01*
X9130893Y13955268D01*
X9125915Y13954455D01*
X9121495Y13953032D01*
X9117736Y13950950D01*
X9114637Y13948156D01*
X9112402Y13944600D01*
X9110980Y13940231D01*
X9110472Y13934948D01*
X9119108Y13934948D01*
X9120327Y13941399D01*
X9123883Y13945616D01*
X9129725Y13947952D01*
X9137650Y13948663D01*
X9150604Y13948663D01*
X9150604Y13920216D01*
X9137650Y13920216D01*
X9129725Y13921079D01*
X9123883Y13923772D01*
X9120327Y13928344D01*
X9119108Y13934948D01*
X9110472Y13934948D01*
X9111691Y13927074D01*
X9115196Y13921028D01*
X9120632Y13916710D01*
X9127744Y13914119D01*
X9108694Y13881100D01*
X9118092Y13881100D01*
X9136634Y13913104D01*
X9150604Y13913104D01*
X9150604Y13881100D01*
X9158986Y13881100D01*
X9158986Y13955522D01*
G37*
G36*
X9063228Y13955522D02*
G01*
X9063228Y13945869D01*
X9071102Y13945869D01*
X9076944Y13934948D01*
X9094978Y13908532D01*
X9071102Y13908532D01*
X9071051Y13935710D01*
X9070594Y13945869D01*
X9063228Y13945869D01*
X9063228Y13908532D01*
X9053068Y13908532D01*
X9053068Y13901928D01*
X9063228Y13901928D01*
X9063228Y13881100D01*
X9071102Y13881100D01*
X9071102Y13901928D01*
X9103868Y13901928D01*
X9103868Y13907262D01*
X9072118Y13955522D01*
G37*
G36*
X9063329Y13098018D02*
G01*
X9058097Y13097459D01*
X9053576Y13095935D01*
X9049613Y13093649D01*
X9046311Y13090652D01*
X9051086Y13085318D01*
X9053626Y13087705D01*
X9056522Y13089585D01*
X9059672Y13090753D01*
X9063075Y13091160D01*
X9066885Y13090753D01*
X9070492Y13089534D01*
X9073743Y13087350D01*
X9076690Y13084149D01*
X9079128Y13079831D01*
X9081008Y13074345D01*
X9082278Y13067538D01*
X9082836Y13059410D01*
X9078976Y13063169D01*
X9074708Y13065963D01*
X9070187Y13067690D01*
X9065564Y13068300D01*
X9061043Y13067944D01*
X9057030Y13066826D01*
X9053474Y13064998D01*
X9050528Y13062458D01*
X9048191Y13059206D01*
X9046464Y13055244D01*
X9045397Y13050570D01*
X9045041Y13045186D01*
X9052864Y13045186D01*
X9053728Y13052145D01*
X9056370Y13057530D01*
X9060688Y13060984D01*
X9066834Y13062204D01*
X9070644Y13061645D01*
X9074658Y13059918D01*
X9078671Y13056869D01*
X9082582Y13052298D01*
X9080957Y13041782D01*
X9077604Y13034060D01*
X9072626Y13029285D01*
X9066123Y13027660D01*
X9060840Y13028930D01*
X9056624Y13032536D01*
X9053880Y13038074D01*
X9052864Y13045186D01*
X9045041Y13045186D01*
X9045448Y13040004D01*
X9046718Y13035330D01*
X9048648Y13031165D01*
X9051290Y13027710D01*
X9054388Y13024865D01*
X9057995Y13022783D01*
X9061907Y13021513D01*
X9066123Y13021056D01*
X9071254Y13021614D01*
X9075928Y13023392D01*
X9080042Y13026288D01*
X9083598Y13030301D01*
X9086494Y13035432D01*
X9088678Y13041731D01*
X9089999Y13049148D01*
X9090507Y13057632D01*
X9089898Y13067842D01*
X9088221Y13076377D01*
X9085630Y13083336D01*
X9082227Y13088874D01*
X9078163Y13092988D01*
X9073540Y13095833D01*
X9068562Y13097510D01*
G37*
G36*
X9127032Y13096748D02*
G01*
X9121546Y13096494D01*
X9116568Y13095681D01*
X9112148Y13094258D01*
X9108389Y13092176D01*
X9105341Y13089382D01*
X9103055Y13085826D01*
X9101632Y13081457D01*
X9101175Y13076174D01*
X9109811Y13076174D01*
X9110980Y13082625D01*
X9114586Y13086842D01*
X9120378Y13089178D01*
X9128302Y13089890D01*
X9141307Y13089890D01*
X9141307Y13061442D01*
X9128302Y13061442D01*
X9120378Y13062305D01*
X9114586Y13064998D01*
X9110980Y13069569D01*
X9109811Y13076174D01*
X9101175Y13076174D01*
X9102394Y13068300D01*
X9105900Y13062254D01*
X9111335Y13057936D01*
X9118447Y13055346D01*
X9099397Y13022326D01*
X9108795Y13022326D01*
X9127286Y13054330D01*
X9141307Y13054330D01*
X9141307Y13022326D01*
X9149638Y13022326D01*
X9149638Y13096748D01*
G37*
G36*
X9123680Y15250922D02*
G01*
X9118193Y15250668D01*
X9113215Y15249855D01*
X9108795Y15248432D01*
X9105036Y15246350D01*
X9101937Y15243556D01*
X9099702Y15240000D01*
X9098280Y15235631D01*
X9097772Y15230348D01*
X9106408Y15230348D01*
X9107627Y15236799D01*
X9111183Y15241016D01*
X9117025Y15243352D01*
X9124950Y15244063D01*
X9137904Y15244063D01*
X9137904Y15215616D01*
X9124950Y15215616D01*
X9117025Y15216479D01*
X9111183Y15219172D01*
X9107627Y15223744D01*
X9106408Y15230348D01*
X9097772Y15230348D01*
X9098991Y15222474D01*
X9102496Y15216428D01*
X9107932Y15212110D01*
X9115044Y15209519D01*
X9095994Y15176500D01*
X9105392Y15176500D01*
X9123934Y15208504D01*
X9137904Y15208504D01*
X9137904Y15176500D01*
X9146286Y15176500D01*
X9146286Y15250922D01*
G37*
G36*
X9059164Y15250922D02*
G01*
X9059164Y15183357D01*
X9043924Y15183357D01*
X9043924Y15176500D01*
X9084056Y15176500D01*
X9084056Y15183357D01*
X9067292Y15183357D01*
X9067292Y15240507D01*
X9080500Y15240507D01*
X9080500Y15245842D01*
X9075928Y15246756D01*
X9071914Y15247924D01*
X9068409Y15249296D01*
X9065260Y15250922D01*
G37*
G36*
X9067292Y14845792D02*
G01*
X9062567Y14845385D01*
X9058402Y14844217D01*
X9054744Y14842337D01*
X9051645Y14839848D01*
X9049207Y14836648D01*
X9047429Y14832939D01*
X9046311Y14828672D01*
X9045956Y14823948D01*
X9046514Y14818309D01*
X9048089Y14812619D01*
X9050629Y14806879D01*
X9054084Y14801088D01*
X9058402Y14795195D01*
X9063532Y14789150D01*
X9069374Y14783003D01*
X9075928Y14776704D01*
X9063736Y14777212D01*
X9042400Y14777212D01*
X9042400Y14770100D01*
X9088374Y14770100D01*
X9088374Y14775180D01*
X9080093Y14782647D01*
X9073032Y14789607D01*
X9067139Y14796160D01*
X9062364Y14802307D01*
X9058706Y14808098D01*
X9056116Y14813534D01*
X9054592Y14818715D01*
X9054084Y14823694D01*
X9054947Y14829840D01*
X9057589Y14834768D01*
X9062008Y14838019D01*
X9068308Y14839188D01*
X9072727Y14838476D01*
X9076842Y14836546D01*
X9080652Y14833701D01*
X9084056Y14830298D01*
X9088882Y14834869D01*
X9084310Y14839340D01*
X9079331Y14842794D01*
X9073692Y14845030D01*
G37*
G36*
X9123680Y14844522D02*
G01*
X9118193Y14844268D01*
X9113215Y14843455D01*
X9108795Y14842032D01*
X9105036Y14839950D01*
X9101937Y14837156D01*
X9099702Y14833600D01*
X9098280Y14829231D01*
X9097772Y14823948D01*
X9106408Y14823948D01*
X9107627Y14830399D01*
X9111183Y14834616D01*
X9117025Y14836952D01*
X9124950Y14837663D01*
X9137904Y14837663D01*
X9137904Y14809216D01*
X9124950Y14809216D01*
X9117025Y14810079D01*
X9111183Y14812772D01*
X9107627Y14817344D01*
X9106408Y14823948D01*
X9097772Y14823948D01*
X9098991Y14816074D01*
X9102496Y14810028D01*
X9107932Y14805710D01*
X9115044Y14803119D01*
X9095994Y14770100D01*
X9105392Y14770100D01*
X9123934Y14802104D01*
X9137904Y14802104D01*
X9137904Y14770100D01*
X9146286Y14770100D01*
X9146286Y14844522D01*
G37*
G36*
X9079484Y14375892D02*
G01*
X9071000Y14374672D01*
X9064244Y14371116D01*
X9059773Y14365376D01*
X9058148Y14357604D01*
X9059164Y14351203D01*
X9061907Y14346072D01*
X9066174Y14342160D01*
X9071610Y14339316D01*
X9071610Y14339062D01*
X9065361Y14336674D01*
X9060281Y14332559D01*
X9056878Y14326971D01*
X9055608Y14320012D01*
X9056065Y14315338D01*
X9057436Y14311122D01*
X9059570Y14307515D01*
X9062415Y14304518D01*
X9065869Y14302130D01*
X9069882Y14300352D01*
X9074251Y14299285D01*
X9078976Y14298930D01*
X9086900Y14299742D01*
X9093352Y14302028D01*
X9098534Y14305229D01*
X9102598Y14309090D01*
X9098280Y14314424D01*
X9094774Y14311122D01*
X9090609Y14308378D01*
X9085580Y14306499D01*
X9079484Y14305788D01*
X9073337Y14306804D01*
X9068409Y14309699D01*
X9065158Y14314271D01*
X9063990Y14320266D01*
X9065260Y14326565D01*
X9069324Y14331442D01*
X9076639Y14334642D01*
X9087612Y14335760D01*
X9087612Y14342110D01*
X9077807Y14343227D01*
X9071406Y14346326D01*
X9067850Y14351000D01*
X9066784Y14356842D01*
X9067647Y14361871D01*
X9070238Y14365732D01*
X9074302Y14368272D01*
X9079738Y14369288D01*
X9084157Y14368576D01*
X9088272Y14367001D01*
X9091930Y14364665D01*
X9095232Y14361668D01*
X9099804Y14367256D01*
X9095536Y14370659D01*
X9090761Y14373402D01*
X9085427Y14375231D01*
G37*
G36*
X9136380Y14374622D02*
G01*
X9130893Y14374368D01*
X9125915Y14373555D01*
X9121495Y14372132D01*
X9117736Y14370050D01*
X9114637Y14367256D01*
X9112402Y14363700D01*
X9110980Y14359331D01*
X9110472Y14354048D01*
X9119108Y14354048D01*
X9120327Y14360499D01*
X9123883Y14364716D01*
X9129725Y14367052D01*
X9137650Y14367763D01*
X9150604Y14367763D01*
X9150604Y14339316D01*
X9137650Y14339316D01*
X9129725Y14340179D01*
X9123883Y14342872D01*
X9120327Y14347444D01*
X9119108Y14354048D01*
X9110472Y14354048D01*
X9111691Y14346174D01*
X9115196Y14340128D01*
X9120632Y14335810D01*
X9127744Y14333219D01*
X9108694Y14300200D01*
X9118092Y14300200D01*
X9136634Y14332204D01*
X9150604Y14332204D01*
X9150604Y14300200D01*
X9158986Y14300200D01*
X9158986Y14374622D01*
G37*
G36*
X9127032Y13515848D02*
G01*
X9121546Y13515594D01*
X9116568Y13514781D01*
X9112148Y13513358D01*
X9108389Y13511276D01*
X9105341Y13508482D01*
X9103055Y13504926D01*
X9101632Y13500557D01*
X9101175Y13495274D01*
X9109811Y13495274D01*
X9110980Y13501725D01*
X9114586Y13505942D01*
X9120378Y13508278D01*
X9128302Y13508990D01*
X9141307Y13508990D01*
X9141307Y13480542D01*
X9128302Y13480542D01*
X9120378Y13481405D01*
X9114586Y13484098D01*
X9110980Y13488669D01*
X9109811Y13495274D01*
X9101175Y13495274D01*
X9102394Y13487400D01*
X9105900Y13481354D01*
X9111335Y13477036D01*
X9118447Y13474446D01*
X9099397Y13441426D01*
X9108795Y13441426D01*
X9127286Y13473430D01*
X9141307Y13473430D01*
X9141307Y13441426D01*
X9149638Y13441426D01*
X9149638Y13515848D01*
G37*
G36*
X9045295Y13515848D02*
G01*
X9045295Y13510768D01*
X9049410Y13505230D01*
X9053017Y13499795D01*
X9056065Y13494461D01*
X9058605Y13489178D01*
X9060738Y13483844D01*
X9062516Y13478459D01*
X9063939Y13472972D01*
X9065869Y13461288D01*
X9066987Y13448436D01*
X9067393Y13441426D01*
X9076029Y13441426D01*
X9075013Y13454989D01*
X9074251Y13461187D01*
X9073235Y13467130D01*
X9072016Y13472769D01*
X9070492Y13478205D01*
X9068714Y13483488D01*
X9066631Y13488619D01*
X9064244Y13493699D01*
X9061500Y13498677D01*
X9058402Y13503706D01*
X9054947Y13508736D01*
X9091523Y13508736D01*
X9091523Y13515848D01*
G37*
D10*
X1282598Y13653566D02*
G01*
X1282598Y13532408D01*
X1282598Y13532408D02*
G01*
X1213510Y13532408D01*
X1175410Y13653566D02*
G01*
X1175410Y13532408D01*
X1096924Y13653566D02*
G01*
X1096924Y13532408D01*
X1137310Y13653566D02*
G01*
X1056284Y13653566D01*
X1018184Y13653566D02*
G01*
X1018184Y13532408D01*
X1018184Y13653566D02*
G01*
X943254Y13653566D01*
X1018184Y13595908D02*
G01*
X972210Y13595908D01*
X1018184Y13532408D02*
G01*
X943254Y13532408D01*
X1257300Y13399767D02*
G01*
X1257300Y13278355D01*
X1257300Y13399767D02*
G01*
X1205229Y13399767D01*
X1187957Y13393925D01*
X1182370Y13388083D01*
X1176528Y13376653D01*
X1176528Y13364969D01*
X1182370Y13353539D01*
X1187957Y13347697D01*
X1205229Y13341855D01*
X1257300Y13341855D01*
X1216913Y13341855D02*
G01*
X1176528Y13278355D01*
X1057655Y13382241D02*
G01*
X1069086Y13393925D01*
X1086357Y13399767D01*
X1109471Y13399767D01*
X1126744Y13393925D01*
X1138428Y13382241D01*
X1138428Y13370811D01*
X1132586Y13359127D01*
X1126744Y13353539D01*
X1115313Y13347697D01*
X1080770Y13336267D01*
X1069086Y13330425D01*
X1063244Y13324583D01*
X1057655Y13313153D01*
X1057655Y13295627D01*
X1069086Y13284197D01*
X1086357Y13278355D01*
X1109471Y13278355D01*
X1126744Y13284197D01*
X1138428Y13295627D01*
X979170Y13399767D02*
G01*
X979170Y13278355D01*
X1019555Y13399767D02*
G01*
X938529Y13399767D01*
X1295400Y13145767D02*
G01*
X1295400Y13024355D01*
X1295400Y13145767D02*
G01*
X1255013Y13145767D01*
X1237742Y13139925D01*
X1226057Y13128241D01*
X1220470Y13116811D01*
X1214628Y13099539D01*
X1214628Y13070583D01*
X1220470Y13053311D01*
X1226057Y13041627D01*
X1237742Y13030197D01*
X1255013Y13024355D01*
X1295400Y13024355D01*
X1072642Y13168627D02*
G01*
X1176528Y12983969D01*
X947928Y13116811D02*
G01*
X953770Y13128241D01*
X965200Y13139925D01*
X976629Y13145767D01*
X999744Y13145767D01*
X1011428Y13139925D01*
X1022857Y13128241D01*
X1028700Y13116811D01*
X1034542Y13099539D01*
X1034542Y13070583D01*
X1028700Y13053311D01*
X1022857Y13041627D01*
X1011428Y13030197D01*
X999744Y13024355D01*
X976629Y13024355D01*
X965200Y13030197D01*
X953770Y13041627D01*
X947928Y13053311D01*
X1069086Y12850111D02*
G01*
X1074928Y12861541D01*
X1086357Y12873225D01*
X1098042Y12879067D01*
X1121155Y12879067D01*
X1132586Y12873225D01*
X1144270Y12861541D01*
X1149857Y12850111D01*
X1155700Y12832839D01*
X1155700Y12803883D01*
X1149857Y12786611D01*
X1144270Y12774927D01*
X1132586Y12763497D01*
X1121155Y12757655D01*
X1098042Y12757655D01*
X1086357Y12763497D01*
X1074928Y12774927D01*
X1069086Y12786611D01*
X950213Y12861541D02*
G01*
X961644Y12873225D01*
X979170Y12879067D01*
X1002029Y12879067D01*
X1019555Y12873225D01*
X1030986Y12861541D01*
X1030986Y12850111D01*
X1025144Y12838427D01*
X1019555Y12832839D01*
X1007871Y12826997D01*
X973328Y12815567D01*
X961644Y12809725D01*
X956055Y12803883D01*
X950213Y12792453D01*
X950213Y12774927D01*
X961644Y12763497D01*
X979170Y12757655D01*
X1002029Y12757655D01*
X1019555Y12763497D01*
X1030986Y12774927D01*
X1346200Y12637764D02*
G01*
X1346200Y12516352D01*
X1346200Y12637764D02*
G01*
X1299971Y12516352D01*
X1253744Y12637764D02*
G01*
X1299971Y12516352D01*
X1253744Y12637764D02*
G01*
X1253744Y12516352D01*
X1181100Y12637764D02*
G01*
X1192529Y12631922D01*
X1204213Y12620238D01*
X1210055Y12608808D01*
X1215644Y12591536D01*
X1215644Y12562580D01*
X1210055Y12545308D01*
X1204213Y12533624D01*
X1192529Y12522194D01*
X1181100Y12516352D01*
X1157986Y12516352D01*
X1146555Y12522194D01*
X1134871Y12533624D01*
X1129029Y12545308D01*
X1123442Y12562580D01*
X1123442Y12591536D01*
X1129029Y12608808D01*
X1134871Y12620238D01*
X1146555Y12631922D01*
X1157986Y12637764D01*
X1181100Y12637764D01*
X1004570Y12620238D02*
G01*
X1016000Y12631922D01*
X1033271Y12637764D01*
X1056386Y12637764D01*
X1073657Y12631922D01*
X1085342Y12620238D01*
X1085342Y12608808D01*
X1079500Y12597124D01*
X1073657Y12591536D01*
X1062228Y12585694D01*
X1027429Y12574264D01*
X1016000Y12568422D01*
X1010157Y12562580D01*
X1004570Y12551150D01*
X1004570Y12533624D01*
X1016000Y12522194D01*
X1033271Y12516352D01*
X1056386Y12516352D01*
X1073657Y12522194D01*
X1085342Y12533624D01*
X966470Y12637764D02*
G01*
X966470Y12516352D01*
X1333500Y12383764D02*
G01*
X1333500Y12262352D01*
X1333500Y12383764D02*
G01*
X1287271Y12262352D01*
X1241044Y12383764D02*
G01*
X1287271Y12262352D01*
X1241044Y12383764D02*
G01*
X1241044Y12262352D01*
X1202944Y12383764D02*
G01*
X1202944Y12262352D01*
X1084071Y12366238D02*
G01*
X1095755Y12377922D01*
X1113028Y12383764D01*
X1136142Y12383764D01*
X1153413Y12377922D01*
X1164844Y12366238D01*
X1164844Y12354808D01*
X1159255Y12343124D01*
X1153413Y12337536D01*
X1141729Y12331694D01*
X1107186Y12320264D01*
X1095755Y12314422D01*
X1089913Y12308580D01*
X1084071Y12297150D01*
X1084071Y12279624D01*
X1095755Y12268194D01*
X1113028Y12262352D01*
X1136142Y12262352D01*
X1153413Y12268194D01*
X1164844Y12279624D01*
X1011428Y12383764D02*
G01*
X1022857Y12377922D01*
X1034542Y12366238D01*
X1040129Y12354808D01*
X1045971Y12337536D01*
X1045971Y12308580D01*
X1040129Y12291308D01*
X1034542Y12279624D01*
X1022857Y12268194D01*
X1011428Y12262352D01*
X988313Y12262352D01*
X976629Y12268194D01*
X965200Y12279624D01*
X959357Y12291308D01*
X953770Y12308580D01*
X953770Y12337536D01*
X959357Y12354808D01*
X965200Y12366238D01*
X976629Y12377922D01*
X988313Y12383764D01*
X1011428Y12383764D01*
X1183386Y12100808D02*
G01*
X1189228Y12112238D01*
X1200657Y12123922D01*
X1212342Y12129764D01*
X1235455Y12129764D01*
X1246886Y12123922D01*
X1258570Y12112238D01*
X1264157Y12100808D01*
X1270000Y12083536D01*
X1270000Y12054580D01*
X1264157Y12037308D01*
X1258570Y12025624D01*
X1246886Y12014194D01*
X1235455Y12008352D01*
X1212342Y12008352D01*
X1200657Y12014194D01*
X1189228Y12025624D01*
X1183386Y12037308D01*
X1145286Y12129764D02*
G01*
X1145286Y12008352D01*
X1145286Y12008352D02*
G01*
X1075944Y12008352D01*
X1037844Y12129764D02*
G01*
X1037844Y12008352D01*
X957071Y12129764D02*
G01*
X1037844Y12048738D01*
X1009142Y12077694D02*
G01*
X957071Y12008352D01*
X1396898Y11875566D02*
G01*
X1350924Y11754408D01*
X1304696Y11875566D02*
G01*
X1350924Y11754408D01*
X1231798Y11875566D02*
G01*
X1243482Y11869978D01*
X1254912Y11858294D01*
X1260754Y11846864D01*
X1266596Y11829592D01*
X1266596Y11800636D01*
X1260754Y11783364D01*
X1254912Y11771680D01*
X1243482Y11760250D01*
X1231798Y11754408D01*
X1208684Y11754408D01*
X1197254Y11760250D01*
X1185824Y11771680D01*
X1179982Y11783364D01*
X1174140Y11800636D01*
X1174140Y11829592D01*
X1179982Y11846864D01*
X1185824Y11858294D01*
X1197254Y11869978D01*
X1208684Y11875566D01*
X1231798Y11875566D01*
X1136040Y11875566D02*
G01*
X1136040Y11788952D01*
X1130198Y11771680D01*
X1118768Y11760250D01*
X1101496Y11754408D01*
X1089812Y11754408D01*
X1072540Y11760250D01*
X1061110Y11771680D01*
X1055268Y11788952D01*
X1055268Y11875566D01*
X976782Y11875566D02*
G01*
X976782Y11754408D01*
X1017168Y11875566D02*
G01*
X936396Y11875566D01*
X1219098Y11634266D02*
G01*
X1173124Y11513108D01*
X1126896Y11634266D02*
G01*
X1173124Y11513108D01*
X1088796Y11634266D02*
G01*
X1088796Y11513108D01*
X1050696Y11634266D02*
G01*
X1050696Y11513108D01*
X1050696Y11634266D02*
G01*
X969924Y11513108D01*
X969924Y11634266D02*
G01*
X969924Y11513108D01*
X1183386Y11338803D02*
G01*
X1189228Y11350233D01*
X1200657Y11361917D01*
X1212342Y11367759D01*
X1235455Y11367759D01*
X1246886Y11361917D01*
X1258570Y11350233D01*
X1264157Y11338803D01*
X1270000Y11321531D01*
X1270000Y11292575D01*
X1264157Y11275303D01*
X1258570Y11263619D01*
X1246886Y11252189D01*
X1235455Y11246347D01*
X1212342Y11246347D01*
X1200657Y11252189D01*
X1189228Y11263619D01*
X1183386Y11275303D01*
X1183386Y11292575D01*
X1212342Y11292575D02*
G01*
X1183386Y11292575D01*
X1145286Y11367759D02*
G01*
X1145286Y11246347D01*
X1145286Y11367759D02*
G01*
X1064513Y11246347D01*
X1064513Y11367759D02*
G01*
X1064513Y11246347D01*
X1026413Y11367759D02*
G01*
X1026413Y11246347D01*
X1026413Y11367759D02*
G01*
X986028Y11367759D01*
X968755Y11361917D01*
X957071Y11350233D01*
X951229Y11338803D01*
X945642Y11321531D01*
X945642Y11292575D01*
X951229Y11275303D01*
X957071Y11263619D01*
X968755Y11252189D01*
X986028Y11246347D01*
X1026413Y11246347D01*
X4507991Y13549121D02*
G01*
X4497577Y13554455D01*
X4487163Y13564870D01*
X4482084Y13575029D01*
X4482084Y13595857D01*
X4487163Y13606271D01*
X4497577Y13616686D01*
X4507991Y13622020D01*
X4523740Y13627100D01*
X4549647Y13627100D01*
X4565141Y13622020D01*
X4575556Y13616686D01*
X4585970Y13606271D01*
X4591050Y13595857D01*
X4591050Y13575029D01*
X4585970Y13564870D01*
X4575556Y13554455D01*
X4565141Y13549121D01*
X4502911Y13514831D02*
G01*
X4497577Y13504418D01*
X4482084Y13488924D01*
X4591050Y13488924D01*
X9013819Y12588509D02*
G01*
X9142313Y12588509D01*
X9142313Y12405090D01*
X9013819Y12405090D01*
X8918580Y12588509D02*
G01*
X8790086Y12588509D01*
X8790086Y12405090D01*
X8918580Y12405090D01*
X8918580Y11554190D02*
G01*
X8790086Y11554190D01*
X8790086Y11737609D01*
X8918580Y11737609D01*
X9013819Y11554190D02*
G01*
X9142313Y11554190D01*
X9142313Y11737609D01*
X9013819Y11737609D01*
X8918580Y11973290D02*
G01*
X8790086Y11973290D01*
X8790086Y12156709D01*
X8918580Y12156709D01*
X9013819Y11973290D02*
G01*
X9142313Y11973290D01*
X9142313Y12156709D01*
X9013819Y12156709D01*
X8562980Y10652490D02*
G01*
X8434486Y10652490D01*
X8434486Y10835909D01*
X8562980Y10835909D01*
X8658219Y10652490D02*
G01*
X8786713Y10652490D01*
X8786713Y10835909D01*
X8658219Y10835909D01*
X8918580Y11147790D02*
G01*
X8790086Y11147790D01*
X8790086Y11331209D01*
X8918580Y11331209D01*
X9013819Y11147790D02*
G01*
X9142313Y11147790D01*
X9142313Y11331209D01*
X9013819Y11331209D01*
X8931280Y13675090D02*
G01*
X8802786Y13675090D01*
X8802786Y13858509D01*
X8931280Y13858509D01*
X9026519Y13675090D02*
G01*
X9155013Y13675090D01*
X9155013Y13858509D01*
X9026519Y13858509D01*
X9017198Y13012435D02*
G01*
X9145691Y13012435D01*
X9145691Y12829016D01*
X9017198Y12829016D01*
X8921958Y13012435D02*
G01*
X8793464Y13012435D01*
X8793464Y12829016D01*
X8921958Y12829016D01*
X8918580Y14970490D02*
G01*
X8790086Y14970490D01*
X8790086Y15153909D01*
X8918580Y15153909D01*
X9013819Y14970490D02*
G01*
X9142313Y14970490D01*
X9142313Y15153909D01*
X9013819Y15153909D01*
X8918580Y14564090D02*
G01*
X8790086Y14564090D01*
X8790086Y14747509D01*
X8918580Y14747509D01*
X9013819Y14564090D02*
G01*
X9142313Y14564090D01*
X9142313Y14747509D01*
X9013819Y14747509D01*
X8931280Y14094190D02*
G01*
X8802786Y14094190D01*
X8802786Y14277609D01*
X8931280Y14277609D01*
X9026519Y14094190D02*
G01*
X9155013Y14094190D01*
X9155013Y14277609D01*
X9026519Y14277609D01*
X9017198Y13418835D02*
G01*
X9145691Y13418835D01*
X9145691Y13235416D01*
X9017198Y13235416D01*
X8921958Y13418835D02*
G01*
X8793464Y13418835D01*
X8793464Y13235416D01*
X8921958Y13235416D01*
X4634039Y13445980D02*
G01*
X4634039Y13586980D01*
X4814760Y13586980D02*
G01*
X4814760Y13445980D01*
X4799520Y13430740D02*
G01*
X4649279Y13430740D01*
X4634039Y13808219D02*
G01*
X4634039Y13667219D01*
X4814760Y13667219D02*
G01*
X4814760Y13808219D01*
X4799520Y13823459D02*
G01*
X4649279Y13823459D01*
G75*
G01*
X4814760Y13445980D02*
G02*
X4799521Y13430740I-15240J0D01*
G75*
G01*
X4649279Y13430740D02*
G02*
X4634040Y13445980I1J15240D01*
G75*
G01*
X4814760Y13808220D02*
G03*
X4799521Y13823460I-15240J0D01*
G75*
G01*
X4649279Y13823460D02*
G03*
X4634040Y13808220I1J-15240D01*
M02*
