G04 Layer: BottomPasteMaskLayer*
G04 EasyEDA v6.5.40, 2024-02-01 00:24:09*
G04 faf3267638cc42b38ab6b6bb7f3975a6,cb1d8df9e4d043698efa6217e4288dd5,10*
G04 Gerber Generator version 0.2*
G04 Scale: 100 percent, Rotated: No, Reflected: No *
G04 Dimensions in millimeters *
G04 leading zeros omitted , absolute positions ,4 integer and 5 decimal *
%FSLAX45Y45*%
%MOMM*%

%AMMACRO1*21,1,$1,$2,0,0,$3*%
%ADD10MACRO1,1.8699X1.03X0.0000*%

%LPD*%
G36*
X8801201Y12565786D02*
G01*
X8796172Y12560808D01*
X8796172Y12432792D01*
X8801201Y12427813D01*
X8916212Y12427813D01*
X8921191Y12432792D01*
X8921699Y12473787D01*
X8876690Y12473787D01*
X8876690Y12518796D01*
X8920683Y12518796D01*
X8921191Y12560808D01*
X8916212Y12565786D01*
G37*
G36*
X9016187Y12565786D02*
G01*
X9011208Y12560808D01*
X9011208Y12518796D01*
X9055709Y12518796D01*
X9055709Y12473787D01*
X9011716Y12473787D01*
X9011208Y12432792D01*
X9016187Y12427813D01*
X9131198Y12427813D01*
X9136176Y12432792D01*
X9136176Y12560808D01*
X9131198Y12565786D01*
G37*
G36*
X9016187Y11714886D02*
G01*
X9011208Y11709908D01*
X9010700Y11668912D01*
X9055709Y11668912D01*
X9055709Y11623903D01*
X9011716Y11623903D01*
X9011208Y11581892D01*
X9016187Y11576913D01*
X9131198Y11576913D01*
X9136227Y11581892D01*
X9136227Y11709908D01*
X9131198Y11714886D01*
G37*
G36*
X8801201Y11714886D02*
G01*
X8796223Y11709908D01*
X8796223Y11581892D01*
X8801201Y11576913D01*
X8916212Y11576913D01*
X8921191Y11581892D01*
X8921191Y11623903D01*
X8876690Y11623903D01*
X8876690Y11668912D01*
X8920683Y11668912D01*
X8921191Y11709908D01*
X8916212Y11714886D01*
G37*
G36*
X9016187Y12133986D02*
G01*
X9011208Y12129008D01*
X9010700Y12088012D01*
X9055709Y12088012D01*
X9055709Y12043003D01*
X9011716Y12043003D01*
X9011208Y12000992D01*
X9016187Y11996013D01*
X9131198Y11996013D01*
X9136227Y12000992D01*
X9136227Y12129008D01*
X9131198Y12133986D01*
G37*
G36*
X8801201Y12133986D02*
G01*
X8796223Y12129008D01*
X8796223Y12000992D01*
X8801201Y11996013D01*
X8916212Y11996013D01*
X8921191Y12000992D01*
X8921191Y12043003D01*
X8876690Y12043003D01*
X8876690Y12088012D01*
X8920683Y12088012D01*
X8921191Y12129008D01*
X8916212Y12133986D01*
G37*
G36*
X8660587Y10813186D02*
G01*
X8655608Y10808208D01*
X8655100Y10767212D01*
X8700109Y10767212D01*
X8700109Y10722203D01*
X8656116Y10722203D01*
X8655608Y10680192D01*
X8660587Y10675213D01*
X8775598Y10675213D01*
X8780627Y10680192D01*
X8780627Y10808208D01*
X8775598Y10813186D01*
G37*
G36*
X8445601Y10813186D02*
G01*
X8440623Y10808208D01*
X8440623Y10680192D01*
X8445601Y10675213D01*
X8560612Y10675213D01*
X8565591Y10680192D01*
X8565591Y10722203D01*
X8521090Y10722203D01*
X8521090Y10767212D01*
X8565083Y10767212D01*
X8565591Y10808208D01*
X8560612Y10813186D01*
G37*
G36*
X9016187Y11308486D02*
G01*
X9011208Y11303508D01*
X9010700Y11262512D01*
X9055709Y11262512D01*
X9055709Y11217503D01*
X9011716Y11217503D01*
X9011208Y11175492D01*
X9016187Y11170513D01*
X9131198Y11170513D01*
X9136227Y11175492D01*
X9136227Y11303508D01*
X9131198Y11308486D01*
G37*
G36*
X8801201Y11308486D02*
G01*
X8796223Y11303508D01*
X8796223Y11175492D01*
X8801201Y11170513D01*
X8916212Y11170513D01*
X8921191Y11175492D01*
X8921191Y11217503D01*
X8876690Y11217503D01*
X8876690Y11262512D01*
X8920683Y11262512D01*
X8921191Y11303508D01*
X8916212Y11308486D01*
G37*
G36*
X9016187Y13835786D02*
G01*
X9011208Y13830807D01*
X9010700Y13789812D01*
X9055709Y13789812D01*
X9055709Y13744803D01*
X9011716Y13744803D01*
X9011208Y13702792D01*
X9016187Y13697813D01*
X9131198Y13697813D01*
X9136227Y13702792D01*
X9136227Y13830807D01*
X9131198Y13835786D01*
G37*
G36*
X8801201Y13835786D02*
G01*
X8796223Y13830807D01*
X8796223Y13702792D01*
X8801201Y13697813D01*
X8916212Y13697813D01*
X8921191Y13702792D01*
X8921191Y13744803D01*
X8876690Y13744803D01*
X8876690Y13789812D01*
X8920683Y13789812D01*
X8921191Y13830807D01*
X8916212Y13835786D01*
G37*
G36*
X8804554Y12989712D02*
G01*
X8799576Y12984734D01*
X8799576Y12856718D01*
X8804554Y12851739D01*
X8919565Y12851739D01*
X8924594Y12856718D01*
X8925102Y12897713D01*
X8880094Y12897713D01*
X8880094Y12942722D01*
X8924086Y12942722D01*
X8924594Y12984734D01*
X8919565Y12989712D01*
G37*
G36*
X9019590Y12989712D02*
G01*
X9014561Y12984734D01*
X9014561Y12942722D01*
X9059062Y12942722D01*
X9059062Y12897713D01*
X9015069Y12897713D01*
X9014561Y12856718D01*
X9019590Y12851739D01*
X9134551Y12851739D01*
X9139580Y12856718D01*
X9139580Y12984734D01*
X9134551Y12989712D01*
G37*
G36*
X9016187Y15131186D02*
G01*
X9011208Y15126207D01*
X9010700Y15085212D01*
X9055709Y15085212D01*
X9055709Y15040203D01*
X9011716Y15040203D01*
X9011208Y14998192D01*
X9016187Y14993213D01*
X9131198Y14993213D01*
X9136227Y14998192D01*
X9136227Y15126207D01*
X9131198Y15131186D01*
G37*
G36*
X8801201Y15131186D02*
G01*
X8796223Y15126207D01*
X8796223Y14998192D01*
X8801201Y14993213D01*
X8916212Y14993213D01*
X8921191Y14998192D01*
X8921191Y15040203D01*
X8876690Y15040203D01*
X8876690Y15085212D01*
X8920683Y15085212D01*
X8921191Y15126207D01*
X8916212Y15131186D01*
G37*
G36*
X9016187Y14724786D02*
G01*
X9011208Y14719807D01*
X9010700Y14678812D01*
X9055709Y14678812D01*
X9055709Y14633803D01*
X9011716Y14633803D01*
X9011208Y14591792D01*
X9016187Y14586813D01*
X9131198Y14586813D01*
X9136227Y14591792D01*
X9136227Y14719807D01*
X9131198Y14724786D01*
G37*
G36*
X8801201Y14724786D02*
G01*
X8796223Y14719807D01*
X8796223Y14591792D01*
X8801201Y14586813D01*
X8916212Y14586813D01*
X8921191Y14591792D01*
X8921191Y14633803D01*
X8876690Y14633803D01*
X8876690Y14678812D01*
X8920683Y14678812D01*
X8921191Y14719807D01*
X8916212Y14724786D01*
G37*
G36*
X9016187Y14254886D02*
G01*
X9011208Y14249907D01*
X9010700Y14208912D01*
X9055709Y14208912D01*
X9055709Y14163903D01*
X9011716Y14163903D01*
X9011208Y14121892D01*
X9016187Y14116913D01*
X9131198Y14116913D01*
X9136227Y14121892D01*
X9136227Y14249907D01*
X9131198Y14254886D01*
G37*
G36*
X8801201Y14254886D02*
G01*
X8796223Y14249907D01*
X8796223Y14121892D01*
X8801201Y14116913D01*
X8916212Y14116913D01*
X8921191Y14121892D01*
X8921191Y14163903D01*
X8876690Y14163903D01*
X8876690Y14208912D01*
X8920683Y14208912D01*
X8921191Y14249907D01*
X8916212Y14254886D01*
G37*
G36*
X8804554Y13396112D02*
G01*
X8799576Y13391134D01*
X8799576Y13263118D01*
X8804554Y13258139D01*
X8919565Y13258139D01*
X8924594Y13263118D01*
X8925102Y13304113D01*
X8880094Y13304113D01*
X8880094Y13349122D01*
X8924086Y13349122D01*
X8924594Y13391134D01*
X8919565Y13396112D01*
G37*
G36*
X9019590Y13396112D02*
G01*
X9014561Y13391134D01*
X9014561Y13349122D01*
X9059062Y13349122D01*
X9059062Y13304113D01*
X9015069Y13304113D01*
X9014561Y13263118D01*
X9019590Y13258139D01*
X9134551Y13258139D01*
X9139580Y13263118D01*
X9139580Y13391134D01*
X9134551Y13396112D01*
G37*
G36*
X3959910Y13654887D02*
G01*
X3954881Y13649909D01*
X3954881Y13534898D01*
X3959910Y13529919D01*
X4000906Y13529411D01*
X4000906Y13574420D01*
X4045915Y13574420D01*
X4045915Y13530376D01*
X4087876Y13529919D01*
X4092905Y13534898D01*
X4092905Y13649909D01*
X4087876Y13654887D01*
G37*
G36*
X3959910Y13439901D02*
G01*
X3954881Y13434923D01*
X3954881Y13319912D01*
X3959910Y13314883D01*
X4087876Y13314883D01*
X4092905Y13319912D01*
X4092905Y13434923D01*
X4087876Y13439901D01*
X4045915Y13439901D01*
X4045915Y13395401D01*
X4000906Y13395401D01*
X4000906Y13439394D01*
G37*
G36*
X4622393Y16455288D02*
G01*
X4622393Y16410279D01*
X4577384Y16410279D01*
X4577384Y16454323D01*
X4535424Y16454780D01*
X4530394Y16449801D01*
X4530394Y16334790D01*
X4535424Y16329812D01*
X4663389Y16329812D01*
X4668418Y16334790D01*
X4668418Y16449801D01*
X4663389Y16454780D01*
G37*
G36*
X4535424Y16669816D02*
G01*
X4530394Y16664787D01*
X4530394Y16549776D01*
X4535424Y16544798D01*
X4577384Y16544798D01*
X4577384Y16589298D01*
X4622393Y16589298D01*
X4622393Y16545306D01*
X4663389Y16544798D01*
X4668418Y16549776D01*
X4668418Y16664787D01*
X4663389Y16669816D01*
G37*
D10*
G01*
X7861300Y14924798D03*
G01*
X7861300Y14640775D03*
G01*
X7785100Y12524498D03*
G01*
X7785100Y12240475D03*
M02*
