G04 Layer: TopPasteMaskLayer*
G04 EasyEDA v6.5.39, 2024-01-24 12:43:59*
G04 deea6d9213314a98b6ebed6103c3b4d4,cb1d8df9e4d043698efa6217e4288dd5,10*
G04 Gerber Generator version 0.2*
G04 Scale: 100 percent, Rotated: No, Reflected: No *
G04 Dimensions in millimeters *
G04 leading zeros omitted , absolute positions ,4 integer and 5 decimal *
%FSLAX45Y45*%
%MOMM*%

%AMMACRO1*21,1,$1,$2,0,0,$3*%
%ADD10R,1.8699X1.0300*%
%ADD11R,1.0000X1.2500*%
%ADD12MACRO1,1.0998X1.2502X0.0000*%

%LPD*%
G36*
X8877706Y15490088D02*
G01*
X8836710Y15489580D01*
X8831681Y15484601D01*
X8831681Y15369590D01*
X8836710Y15364612D01*
X8964676Y15364612D01*
X8969705Y15369590D01*
X8969705Y15484601D01*
X8964676Y15489580D01*
X8922715Y15489123D01*
X8922715Y15445079D01*
X8877706Y15445079D01*
G37*
G36*
X8836710Y15704616D02*
G01*
X8831681Y15699587D01*
X8831681Y15584576D01*
X8836710Y15579598D01*
X8877706Y15580106D01*
X8877706Y15624098D01*
X8922715Y15624098D01*
X8922715Y15579598D01*
X8964676Y15579598D01*
X8969705Y15584576D01*
X8969705Y15699587D01*
X8964676Y15704616D01*
G37*
G36*
X1104392Y13289127D02*
G01*
X1099413Y13284098D01*
X1099413Y13169087D01*
X1104392Y13164108D01*
X1146403Y13164616D01*
X1146403Y13208609D01*
X1191412Y13208609D01*
X1191412Y13163600D01*
X1232408Y13164108D01*
X1237386Y13169087D01*
X1237386Y13284098D01*
X1232408Y13289127D01*
G37*
G36*
X1104392Y13074091D02*
G01*
X1099413Y13069112D01*
X1099413Y12954101D01*
X1104392Y12949123D01*
X1232408Y12949123D01*
X1237386Y12954101D01*
X1237386Y13069112D01*
X1232408Y13074091D01*
X1191412Y13073583D01*
X1191412Y13029590D01*
X1146403Y13029590D01*
X1146403Y13074091D01*
G37*
G36*
X1104392Y13898727D02*
G01*
X1099413Y13893698D01*
X1099413Y13778687D01*
X1104392Y13773708D01*
X1146403Y13774216D01*
X1146403Y13818209D01*
X1191412Y13818209D01*
X1191412Y13773200D01*
X1232408Y13773708D01*
X1237386Y13778687D01*
X1237386Y13893698D01*
X1232408Y13898727D01*
G37*
G36*
X1104392Y13683691D02*
G01*
X1099413Y13678712D01*
X1099413Y13563701D01*
X1104392Y13558723D01*
X1232408Y13558723D01*
X1237386Y13563701D01*
X1237386Y13678712D01*
X1232408Y13683691D01*
X1191412Y13683183D01*
X1191412Y13639190D01*
X1146403Y13639190D01*
X1146403Y13683691D01*
G37*
D10*
G01*
X7874000Y14937511D03*
G01*
X7874000Y14653488D03*
D11*
G01*
X8297397Y13766789D03*
G01*
X8517412Y13766789D03*
G01*
X8297478Y12915879D03*
G01*
X8517493Y12915879D03*
D10*
G01*
X7848600Y12511811D03*
G01*
X7848600Y12227788D03*
G01*
X1168400Y11584711D03*
G01*
X1168400Y11300688D03*
D12*
G01*
X8496300Y15062200D03*
G01*
X8293100Y15062200D03*
G01*
X8509000Y14655800D03*
G01*
X8305800Y14655800D03*
D11*
G01*
X8297392Y14198600D03*
G01*
X8517407Y14198600D03*
D12*
G01*
X8509000Y12496800D03*
G01*
X8305800Y12496800D03*
D11*
G01*
X8297392Y13335000D03*
G01*
X8517407Y13335000D03*
D12*
G01*
X8509000Y11582400D03*
G01*
X8305800Y11582400D03*
G01*
X8509000Y12065000D03*
G01*
X8305800Y12065000D03*
G01*
X8509000Y10744200D03*
G01*
X8305800Y10744200D03*
G01*
X8509000Y11176000D03*
G01*
X8305800Y11176000D03*
M02*
