G04 Layer: TopLayer*
G04 EasyEDA v6.5.39, 2024-01-24 12:43:59*
G04 deea6d9213314a98b6ebed6103c3b4d4,cb1d8df9e4d043698efa6217e4288dd5,10*
G04 Gerber Generator version 0.2*
G04 Scale: 100 percent, Rotated: No, Reflected: No *
G04 Dimensions in millimeters *
G04 leading zeros omitted , absolute positions ,4 integer and 5 decimal *
%FSLAX45Y45*%
%MOMM*%

%AMMACRO1*21,1,$1,$2,0,0,$3*%
%ADD10C,0.2500*%
%ADD11C,0.2540*%
%ADD12C,0.3000*%
%ADD13R,1.8699X1.0300*%
%ADD14MACRO1,1.35X1.41X0.0000*%
%ADD15R,1.3500X1.4100*%
%ADD16MACRO1,1.377X1.1325X0.0000*%
%ADD17R,1.3770X1.1325*%
%ADD18R,1.0000X1.2500*%
%ADD19MACRO1,1.1X1.25X0.0000*%
%ADD20C,1.6764*%
%ADD21C,3.5560*%
%ADD22C,1.6000*%
%ADD23C,1.5240*%
%ADD24C,2.5000*%
%ADD25O,1.7500092X1.3999972*%
%ADD26C,1.7000*%
%ADD27O,0.8999982X1.5999968*%
%ADD28R,0.9000X1.6000*%
%ADD29R,1.7000X1.7000*%
%ADD30C,1.8796*%
%ADD31C,1.4000*%
%ADD32C,0.6100*%
%ADD33C,0.0125*%

%LPD*%
G36*
X5787085Y10617200D02*
G01*
X5783630Y10617809D01*
X5780532Y10619587D01*
X5778296Y10622330D01*
X5777077Y10625683D01*
X5771642Y10658246D01*
X5771845Y10662412D01*
X5773724Y10666222D01*
X5776925Y10668914D01*
X5780989Y10670032D01*
X5785154Y10669473D01*
X5791911Y10667034D01*
X5791911Y10715548D01*
X5763260Y10715548D01*
X5759348Y10716310D01*
X5756097Y10718546D01*
X5753862Y10721848D01*
X5753100Y10725708D01*
X5753100Y10788091D01*
X5753862Y10792002D01*
X5756097Y10795254D01*
X5759348Y10797489D01*
X5763260Y10798251D01*
X5791911Y10798251D01*
X5791911Y10854994D01*
X5792673Y10858855D01*
X5794857Y10862157D01*
X5813602Y10880902D01*
X5816904Y10883138D01*
X5820816Y10883900D01*
X5980684Y10883900D01*
X5981700Y10884916D01*
X5981700Y13235940D01*
X5982462Y13239851D01*
X5984697Y13243102D01*
X5987948Y13245338D01*
X5991860Y13246100D01*
X6677355Y13246100D01*
X6681419Y13245236D01*
X6684772Y13242848D01*
X6686905Y13239292D01*
X6687464Y13235178D01*
X6686346Y13231215D01*
X6683654Y13228015D01*
X6681825Y13226542D01*
X6671970Y13216331D01*
X6663436Y13204951D01*
X6656882Y13193318D01*
X6707530Y13193318D01*
X6707530Y13235940D01*
X6708292Y13239851D01*
X6710527Y13243102D01*
X6713829Y13245338D01*
X6717690Y13246100D01*
X6795058Y13246100D01*
X6798970Y13245338D01*
X6802272Y13243102D01*
X6804456Y13239851D01*
X6805218Y13235940D01*
X6805218Y13193318D01*
X6847840Y13193318D01*
X6851751Y13192506D01*
X6855002Y13190321D01*
X6857238Y13187019D01*
X6858000Y13183158D01*
X6858000Y13105739D01*
X6857238Y13101878D01*
X6855002Y13098576D01*
X6851751Y13096392D01*
X6847840Y13095579D01*
X6805218Y13095579D01*
X6805218Y13045135D01*
X6813854Y13049605D01*
X6825538Y13057733D01*
X6836054Y13067284D01*
X6840118Y13072059D01*
X6843318Y13074599D01*
X6847281Y13075615D01*
X6851345Y13075005D01*
X6854850Y13072871D01*
X6857187Y13069519D01*
X6858000Y13065506D01*
X6858000Y12642494D01*
X6857136Y12638328D01*
X6854596Y12634925D01*
X6850938Y12632791D01*
X6846722Y12632385D01*
X6840829Y12633045D01*
X6805218Y12633045D01*
X6805218Y12571018D01*
X6847840Y12571018D01*
X6851751Y12570206D01*
X6855002Y12568021D01*
X6857238Y12564719D01*
X6858000Y12560858D01*
X6858000Y12483439D01*
X6857238Y12479578D01*
X6855002Y12476276D01*
X6851751Y12474092D01*
X6847840Y12473279D01*
X6805218Y12473279D01*
X6805218Y12430760D01*
X6804456Y12426848D01*
X6802272Y12423597D01*
X6798970Y12421362D01*
X6795058Y12420600D01*
X6717690Y12420600D01*
X6713829Y12421362D01*
X6710527Y12423597D01*
X6708292Y12426848D01*
X6707530Y12430760D01*
X6707530Y12473279D01*
X6645503Y12473279D01*
X6645503Y12437719D01*
X6646164Y12431877D01*
X6645706Y12427661D01*
X6643624Y12424003D01*
X6640169Y12421463D01*
X6636054Y12420600D01*
X6617716Y12420600D01*
X6616700Y12419584D01*
X6616700Y11367516D01*
X6617716Y11366500D01*
X6695186Y11366500D01*
X6699453Y11365585D01*
X6702958Y11362944D01*
X6704990Y11359083D01*
X6705244Y11354714D01*
X6703618Y11350650D01*
X6700469Y11347653D01*
X6692950Y11343081D01*
X6681825Y11334242D01*
X6671970Y11324031D01*
X6663436Y11312652D01*
X6656882Y11301018D01*
X6707530Y11301018D01*
X6707530Y11356340D01*
X6708292Y11360251D01*
X6710527Y11363502D01*
X6713829Y11365738D01*
X6717690Y11366500D01*
X6795058Y11366500D01*
X6798970Y11365738D01*
X6802272Y11363502D01*
X6804456Y11360251D01*
X6805218Y11356340D01*
X6805218Y11301018D01*
X6847840Y11301018D01*
X6851751Y11300206D01*
X6855002Y11298021D01*
X6857238Y11294719D01*
X6858000Y11290858D01*
X6858000Y11213439D01*
X6857238Y11209578D01*
X6855002Y11206276D01*
X6851751Y11204092D01*
X6847840Y11203279D01*
X6805218Y11203279D01*
X6805218Y11152835D01*
X6813854Y11157305D01*
X6825538Y11165433D01*
X6836054Y11174984D01*
X6840118Y11179759D01*
X6843318Y11182299D01*
X6847281Y11183315D01*
X6851345Y11182705D01*
X6854850Y11180572D01*
X6857187Y11177219D01*
X6858000Y11173206D01*
X6858000Y11077092D01*
X6857187Y11073079D01*
X6854850Y11069726D01*
X6851345Y11067592D01*
X6847281Y11066983D01*
X6843318Y11067999D01*
X6840118Y11070539D01*
X6836054Y11075314D01*
X6825538Y11084864D01*
X6813854Y11092992D01*
X6801256Y11099546D01*
X6787946Y11104473D01*
X6774078Y11107623D01*
X6759956Y11108994D01*
X6745731Y11108537D01*
X6731711Y11106251D01*
X6718096Y11102187D01*
X6705092Y11096447D01*
X6692950Y11089081D01*
X6681825Y11080242D01*
X6671970Y11070031D01*
X6663436Y11058652D01*
X6656476Y11046256D01*
X6651142Y11033099D01*
X6647535Y11019332D01*
X6645757Y11005261D01*
X6645757Y10991037D01*
X6647535Y10976965D01*
X6651142Y10963198D01*
X6656476Y10950041D01*
X6663436Y10937646D01*
X6671970Y10926267D01*
X6681825Y10916056D01*
X6692950Y10907217D01*
X6705092Y10899851D01*
X6718096Y10894060D01*
X6731711Y10890046D01*
X6745731Y10887760D01*
X6759956Y10887303D01*
X6774078Y10888675D01*
X6787946Y10891824D01*
X6801256Y10896752D01*
X6813854Y10903305D01*
X6825538Y10911433D01*
X6836054Y10920984D01*
X6840118Y10925759D01*
X6843318Y10928299D01*
X6847281Y10929315D01*
X6851345Y10928705D01*
X6854850Y10926572D01*
X6857187Y10923219D01*
X6858000Y10919206D01*
X6858000Y10823092D01*
X6857187Y10819079D01*
X6854850Y10815726D01*
X6851345Y10813592D01*
X6847281Y10812983D01*
X6843318Y10813999D01*
X6840118Y10816539D01*
X6836054Y10821314D01*
X6825538Y10830864D01*
X6813854Y10838992D01*
X6805218Y10843463D01*
X6805218Y10793018D01*
X6847840Y10793018D01*
X6851751Y10792206D01*
X6855002Y10790021D01*
X6857238Y10786719D01*
X6858000Y10782858D01*
X6858000Y10705439D01*
X6857238Y10701578D01*
X6855002Y10698276D01*
X6851751Y10696092D01*
X6847840Y10695279D01*
X6805218Y10695279D01*
X6805218Y10644835D01*
X6813854Y10649305D01*
X6825538Y10657433D01*
X6836054Y10666984D01*
X6840118Y10671759D01*
X6843318Y10674299D01*
X6847281Y10675315D01*
X6851345Y10674705D01*
X6854850Y10672572D01*
X6857187Y10669219D01*
X6858000Y10665206D01*
X6858000Y10627360D01*
X6857238Y10623448D01*
X6855002Y10620197D01*
X6851751Y10617962D01*
X6847840Y10617200D01*
G37*

%LPC*%
G36*
X6707530Y10644733D02*
G01*
X6707530Y10695279D01*
X6656882Y10695279D01*
X6663436Y10683646D01*
X6671970Y10672267D01*
X6681825Y10662056D01*
X6692950Y10653217D01*
X6705092Y10645851D01*
G37*
G36*
X5892088Y10666984D02*
G01*
X5897676Y10668965D01*
X5909310Y10674959D01*
X5920028Y10682528D01*
X5929579Y10691469D01*
X5937808Y10701629D01*
X5944616Y10712805D01*
X5945835Y10715548D01*
X5892088Y10715548D01*
G37*
G36*
X6656882Y10793018D02*
G01*
X6707530Y10793018D01*
X6707530Y10843564D01*
X6705092Y10842447D01*
X6692950Y10835081D01*
X6681825Y10826242D01*
X6671970Y10816031D01*
X6663436Y10804652D01*
G37*
G36*
X5892088Y10798251D02*
G01*
X5945835Y10798251D01*
X5944616Y10800994D01*
X5937808Y10812221D01*
X5929579Y10822330D01*
X5920028Y10831271D01*
X5909310Y10838840D01*
X5897676Y10844834D01*
X5892088Y10846866D01*
G37*
G36*
X6707530Y11152733D02*
G01*
X6707530Y11203279D01*
X6656882Y11203279D01*
X6663436Y11191646D01*
X6671970Y11180267D01*
X6681825Y11170056D01*
X6692950Y11161217D01*
X6705092Y11153851D01*
G37*
G36*
X6645503Y12571018D02*
G01*
X6707530Y12571018D01*
X6707530Y12633045D01*
X6671970Y12633045D01*
X6665620Y12632334D01*
X6660184Y12630454D01*
X6655257Y12627356D01*
X6651193Y12623241D01*
X6648094Y12618364D01*
X6646214Y12612878D01*
X6645503Y12606578D01*
G37*
G36*
X6707530Y13045033D02*
G01*
X6707530Y13095579D01*
X6656882Y13095579D01*
X6663436Y13083946D01*
X6671970Y13072567D01*
X6681825Y13062356D01*
X6692950Y13053517D01*
X6705092Y13046151D01*
G37*

%LPD*%
G36*
X5759450Y10674350D02*
G01*
X5880100Y10668000D01*
X5873750Y10674350D01*
G37*
D10*
X4318000Y15582900D02*
G01*
X4785106Y15582900D01*
X4912106Y15455900D01*
X6616700Y15455900D01*
D11*
X7848600Y12511811D02*
G01*
X7528737Y12511811D01*
X7518400Y12522149D01*
X7874000Y14937511D02*
G01*
X7533462Y14937511D01*
X7518400Y14922449D01*
X3657600Y16090900D02*
G01*
X5486400Y16090900D01*
X5765800Y16370300D01*
X6756400Y13906500D02*
G01*
X7188200Y13906500D01*
X7315200Y13779500D01*
X7721600Y13779500D01*
X7975600Y14033500D01*
X7975600Y14300200D01*
X8305800Y14630400D01*
X8305800Y14655800D01*
D10*
X4318000Y12788900D02*
G01*
X4165600Y12915900D01*
X3020568Y12915900D01*
X2957829Y12853162D01*
X2908554Y12853162D01*
X2883154Y12878562D01*
X2883154Y12927837D01*
X2857754Y12953237D01*
X2808731Y12953237D01*
X2783331Y12927837D01*
X2783331Y12878562D01*
X2757931Y12853162D01*
X2708656Y12853162D01*
X2657856Y12903200D01*
X2298700Y12903200D01*
X1651000Y13550900D01*
D11*
X1651000Y13042900D02*
G01*
X1397000Y13296900D01*
X1397000Y13400024D01*
X1168400Y13628624D01*
X1168400Y13828776D02*
G01*
X1039876Y13828776D01*
X800100Y13589000D01*
X787400Y13589000D01*
X1168400Y13219099D02*
G01*
X903300Y13219099D01*
X787400Y13335000D01*
X8305800Y11582400D02*
G01*
X7696149Y11582400D01*
X7518400Y11760149D01*
X8305800Y10744200D02*
G01*
X7518450Y10744200D01*
X7518400Y10744149D01*
X8305800Y11176000D02*
G01*
X7594549Y11176000D01*
X7518400Y11252149D01*
X8674100Y12915900D02*
G01*
X8595431Y12915900D01*
X8595408Y12915874D01*
X8517483Y12915874D02*
G01*
X8595410Y12915874D01*
D12*
X7518400Y12268200D02*
G01*
X7442200Y12268200D01*
X7061200Y11887200D01*
X6426200Y11887200D01*
D11*
X6756400Y11506200D02*
G01*
X6972300Y11506200D01*
X7349997Y11883897D01*
X8041640Y11883897D01*
X8222995Y12065000D01*
X6756400Y13398500D02*
G01*
X6934200Y13398500D01*
X7061200Y13271500D01*
X7848600Y13271500D01*
X8128000Y13550900D01*
X8712200Y13550900D01*
X8839200Y13677900D01*
X8839200Y13931900D01*
X8750300Y14020800D01*
X8382000Y14020800D01*
X8297418Y14105381D01*
X8297418Y14198600D01*
X6756400Y12014200D02*
G01*
X6896100Y12014200D01*
X7162800Y12280900D01*
X7162800Y12496800D01*
X7404100Y12738100D01*
X8750300Y12738100D01*
X8839200Y12827000D01*
X8839200Y13042900D01*
X8750300Y13131800D01*
X8394700Y13131800D01*
X8297418Y13229081D01*
X8297418Y13335000D01*
X8305800Y12065000D02*
G01*
X8222894Y12065000D01*
X8509000Y12496800D02*
G01*
X8674100Y12496800D01*
X8509000Y12065000D02*
G01*
X8674100Y12065000D01*
X5321300Y15595600D02*
G01*
X5321300Y15582900D01*
X5842000Y15582900D01*
X5842000Y14058900D02*
G01*
X5626100Y14058900D01*
X5499100Y14185900D01*
X4216400Y14185900D01*
X4089400Y14312900D01*
X4044188Y14312900D01*
X3993388Y14262862D01*
X3944111Y14262862D01*
X3918711Y14288262D01*
X3918711Y14337537D01*
X3893311Y14362937D01*
X3844036Y14362937D01*
X3818636Y14337537D01*
X3818636Y14288262D01*
X3793236Y14262862D01*
X3743959Y14262862D01*
X3718559Y14288262D01*
X3718559Y14337537D01*
X3693159Y14362937D01*
X3644138Y14362937D01*
X3618738Y14337537D01*
X3618738Y14288262D01*
X3593338Y14262862D01*
X3544061Y14262862D01*
X3518661Y14288262D01*
X3518661Y14337537D01*
X3493261Y14362937D01*
X3443986Y14362937D01*
X3393186Y14312900D01*
X3175000Y14312900D01*
X7518400Y13398449D02*
G01*
X7137400Y13779449D01*
X6121450Y13779449D01*
X5842000Y14058900D01*
D10*
X3175000Y15328900D02*
G01*
X3280409Y15328900D01*
X3310381Y15358871D01*
X3314700Y15430500D01*
X3340100Y15494000D01*
X3390900Y15494000D01*
X3410458Y15461742D01*
X3410458Y15289021D01*
X3440429Y15258795D01*
X3480308Y15258795D01*
X3505200Y15290800D01*
X3505200Y15455900D01*
X3543300Y15494000D01*
X3581400Y15494000D01*
X3606800Y15455900D01*
X3610356Y15289021D01*
X3640327Y15258795D01*
X3680459Y15258795D01*
X3710431Y15289021D01*
X3708400Y15455900D01*
X3746500Y15494000D01*
X3771900Y15494000D01*
X3810000Y15455900D01*
X3810508Y15289021D01*
X3840479Y15258795D01*
X3880358Y15258795D01*
X3898900Y15290800D01*
X3898900Y15455900D01*
X3937000Y15494000D01*
X3975100Y15494000D01*
X4013200Y15455900D01*
X4010406Y15289021D01*
X4040377Y15258795D01*
X4080509Y15258795D01*
X4114800Y15290800D01*
X4114800Y15341600D01*
X4152900Y15379700D01*
X4241800Y15379700D01*
X4318000Y15328900D01*
D11*
X2534920Y15101824D02*
G01*
X2400300Y15236444D01*
X2400300Y15557500D01*
X3060700Y16217900D01*
X3314700Y16217900D01*
X3556000Y15976600D01*
X6591300Y15976600D01*
X6743700Y15824200D01*
X7340600Y15824200D01*
X7429500Y15913100D01*
X8128000Y15913100D01*
X8331200Y15709900D01*
X2534920Y15301976D02*
G01*
X2534920Y15552420D01*
X2946400Y15963900D01*
X3403600Y15963900D01*
X3492500Y15875000D01*
X3552443Y15875000D01*
X3577843Y15900400D01*
X3577843Y15884652D01*
X3603243Y15910052D01*
X3652520Y15910052D01*
X3677920Y15884652D01*
X3677920Y15865347D01*
X3703320Y15839947D01*
X3752595Y15839947D01*
X3777995Y15865347D01*
X3777995Y15884652D01*
X3803395Y15910052D01*
X3852418Y15910052D01*
X3877818Y15884652D01*
X3877818Y15865347D01*
X3903218Y15839947D01*
X3952493Y15839947D01*
X3977893Y15865347D01*
X3977893Y15884652D01*
X4003293Y15910052D01*
X4052570Y15910052D01*
X4077970Y15884652D01*
X4077970Y15865347D01*
X4103370Y15839947D01*
X4152645Y15839947D01*
X4178045Y15865347D01*
X4178045Y15884652D01*
X4203445Y15910052D01*
X4252468Y15910052D01*
X4277868Y15884652D01*
X4277868Y15865347D01*
X4303268Y15839947D01*
X4352543Y15839947D01*
X4377943Y15865347D01*
X4377943Y15884652D01*
X4403343Y15910052D01*
X4452620Y15910052D01*
X4478020Y15884652D01*
X4478020Y15865347D01*
X4503420Y15839947D01*
X4552441Y15839947D01*
X4577841Y15865347D01*
X4577841Y15884652D01*
X4603241Y15910052D01*
X4652518Y15910052D01*
X4677918Y15884652D01*
X4677918Y15865347D01*
X4703318Y15839947D01*
X4752593Y15839947D01*
X4777993Y15865347D01*
X4777993Y15884652D01*
X4803393Y15910052D01*
X4852415Y15910052D01*
X4877815Y15884652D01*
X4877815Y15865347D01*
X4903215Y15839947D01*
X4952491Y15839947D01*
X4977891Y15865347D01*
X4977891Y15884652D01*
X5003291Y15910052D01*
X5052568Y15910052D01*
X5077968Y15884652D01*
X5077968Y15865347D01*
X5103368Y15839947D01*
X5152643Y15839947D01*
X5178043Y15865347D01*
X5178043Y15884652D01*
X5203443Y15910052D01*
X5252465Y15910052D01*
X5277865Y15884652D01*
X5277865Y15865347D01*
X5303265Y15839947D01*
X5352541Y15839947D01*
X5377941Y15865347D01*
X5377941Y15884652D01*
X5403341Y15910052D01*
X5452618Y15910052D01*
X5478018Y15884652D01*
X5478018Y15900400D01*
X5503418Y15875000D01*
X6540500Y15875000D01*
X6718300Y15697200D01*
X7353300Y15697200D01*
X7493000Y15836900D01*
X7950200Y15836900D01*
X8077200Y15709900D01*
X2934970Y15301976D02*
G01*
X2933700Y15582900D01*
X3060700Y15709900D01*
X3403600Y15709900D01*
X3454400Y15760700D01*
X3656075Y15760700D01*
X3681475Y15735300D01*
X3681475Y15751047D01*
X3706875Y15725647D01*
X3756152Y15725647D01*
X3781552Y15751047D01*
X3781552Y15770097D01*
X3806952Y15795497D01*
X3855974Y15795497D01*
X3881374Y15770097D01*
X3881374Y15751047D01*
X3906774Y15725647D01*
X3956050Y15725394D01*
X3981450Y15750794D01*
X3981450Y15770097D01*
X4006850Y15795497D01*
X4056125Y15795497D01*
X4081525Y15770097D01*
X4081525Y15750794D01*
X4106925Y15725394D01*
X4156202Y15725394D01*
X4181602Y15750794D01*
X4181602Y15770097D01*
X4207002Y15795497D01*
X4256024Y15795497D01*
X4281424Y15770097D01*
X4281424Y15750794D01*
X4306824Y15725394D01*
X4356100Y15725394D01*
X4381500Y15750794D01*
X4381500Y15770097D01*
X4406900Y15795244D01*
X4456175Y15795244D01*
X4481575Y15769844D01*
X4481575Y15750794D01*
X4506975Y15725394D01*
X4555997Y15725394D01*
X4581397Y15750794D01*
X4581397Y15769844D01*
X4606797Y15795244D01*
X4656074Y15795244D01*
X4681474Y15769844D01*
X4681474Y15750794D01*
X4706874Y15725139D01*
X4756150Y15725139D01*
X4781550Y15750539D01*
X4781550Y15769844D01*
X4806950Y15795244D01*
X4856225Y15795244D01*
X4881372Y15769844D01*
X4881372Y15750539D01*
X4906772Y15725139D01*
X4956047Y15725139D01*
X4981447Y15750539D01*
X4981447Y15769844D01*
X5006847Y15795244D01*
X5056124Y15795244D01*
X5081524Y15769844D01*
X5081524Y15750539D01*
X5106924Y15725139D01*
X5156200Y15725139D01*
X5181600Y15750539D01*
X5181600Y15769589D01*
X5207000Y15794989D01*
X5256022Y15794989D01*
X5281422Y15769589D01*
X5281422Y15750539D01*
X5306822Y15725139D01*
X5356097Y15725139D01*
X5381497Y15750539D01*
X5381497Y15769589D01*
X5406897Y15794989D01*
X5456174Y15794989D01*
X5481574Y15769589D01*
X5481574Y15750286D01*
X5506974Y15724886D01*
X5555995Y15724886D01*
X5581395Y15750286D01*
X5581395Y15769589D01*
X5606795Y15794989D01*
X5656072Y15794989D01*
X5681472Y15769589D01*
X5681472Y15750286D01*
X5706872Y15724886D01*
X5756147Y15724886D01*
X5781547Y15750286D01*
X5781547Y15769589D01*
X5806947Y15794989D01*
X5856224Y15794989D01*
X5881370Y15769589D01*
X5881370Y15750286D01*
X5906770Y15724886D01*
X5956045Y15724886D01*
X5981445Y15750286D01*
X5981445Y15769336D01*
X6006845Y15794736D01*
X6056122Y15794736D01*
X6081522Y15769336D01*
X6081522Y15750286D01*
X6106922Y15724886D01*
X6156197Y15724886D01*
X6181597Y15750286D01*
X6181597Y15769336D01*
X6206997Y15794736D01*
X6256020Y15794736D01*
X6281420Y15769336D01*
X6281420Y15750031D01*
X6306820Y15724631D01*
X6356095Y15724631D01*
X6381495Y15750031D01*
X6381495Y15734284D01*
X6406895Y15759684D01*
X6452615Y15759684D01*
X6495288Y15717012D01*
X6495288Y15681197D01*
X6506463Y15692374D01*
X6506463Y15656560D01*
X6541261Y15621507D01*
X6577075Y15621507D01*
X6565900Y15610331D01*
X6601968Y15610331D01*
X6629400Y15582900D01*
X6638797Y15582900D01*
X6664197Y15608300D01*
X6664197Y15592552D01*
X6689597Y15617952D01*
X6738620Y15617952D01*
X6764020Y15592552D01*
X6764020Y15573247D01*
X6789420Y15547847D01*
X6838695Y15547847D01*
X6864095Y15573247D01*
X6864095Y15592552D01*
X6889495Y15617952D01*
X6938772Y15617952D01*
X6964172Y15592552D01*
X6964172Y15573247D01*
X6989572Y15547847D01*
X7038847Y15547847D01*
X7064247Y15573247D01*
X7064247Y15592552D01*
X7089647Y15617952D01*
X7138670Y15617952D01*
X7164070Y15592552D01*
X7164070Y15573247D01*
X7189470Y15547847D01*
X7238745Y15547847D01*
X7264145Y15573247D01*
X7264145Y15557500D01*
X7289545Y15582900D01*
X7823200Y15582900D01*
X7950200Y15455900D01*
D10*
X7696200Y15455900D02*
G01*
X7835900Y15367000D01*
X7835900Y15265400D01*
X7759700Y15189200D01*
X7701788Y15189200D01*
X7650988Y15139162D01*
X7601711Y15139162D01*
X7576311Y15164562D01*
X7576311Y15213837D01*
X7550911Y15239237D01*
X7501636Y15239237D01*
X7476236Y15213837D01*
X7476236Y15164562D01*
X7450836Y15139162D01*
X7401813Y15139162D01*
X7376413Y15164562D01*
X7376413Y15213837D01*
X7351013Y15239237D01*
X7301738Y15239237D01*
X7276338Y15213837D01*
X7276338Y15164562D01*
X7250938Y15139162D01*
X7201661Y15139162D01*
X7176261Y15164562D01*
X7176261Y15213837D01*
X7150861Y15239237D01*
X7101840Y15239237D01*
X7076440Y15213837D01*
X7076440Y15164562D01*
X7051040Y15139162D01*
X7001763Y15139162D01*
X6976363Y15164562D01*
X6976363Y15213837D01*
X6950963Y15239237D01*
X6901688Y15239237D01*
X6876288Y15213837D01*
X6876288Y15164562D01*
X6850888Y15139162D01*
X6801865Y15139162D01*
X6776465Y15164562D01*
X6776465Y15213837D01*
X6751065Y15239237D01*
X6701790Y15239237D01*
X6676390Y15213837D01*
X6676390Y15164562D01*
X6650990Y15139162D01*
X6601713Y15139162D01*
X6576313Y15164562D01*
X6576313Y15213837D01*
X6550913Y15239237D01*
X6501638Y15239237D01*
X6476238Y15213837D01*
X6476238Y15164562D01*
X6450838Y15139162D01*
X6401815Y15139162D01*
X6376415Y15164562D01*
X6376415Y15213837D01*
X6351015Y15239237D01*
X6301740Y15239237D01*
X6276340Y15213837D01*
X6276340Y15164562D01*
X6250940Y15139162D01*
X6201663Y15139162D01*
X6176263Y15164562D01*
X6176263Y15213837D01*
X6150863Y15239237D01*
X6101841Y15239237D01*
X6076441Y15213837D01*
X6076441Y15164562D01*
X6051041Y15139162D01*
X6001765Y15139162D01*
X5939027Y15201900D01*
X4241800Y15201900D01*
X4178300Y15138400D01*
X4123943Y15138400D01*
X4073143Y15188437D01*
X4023868Y15188437D01*
X3998468Y15163037D01*
X3998468Y15113762D01*
X3973068Y15088362D01*
X3924045Y15088362D01*
X3898645Y15113762D01*
X3898645Y15163037D01*
X3873245Y15188437D01*
X3823970Y15188437D01*
X3798570Y15163037D01*
X3798570Y15113762D01*
X3773170Y15088362D01*
X3723893Y15088362D01*
X3698493Y15113762D01*
X3698493Y15163037D01*
X3673093Y15188437D01*
X3623818Y15188437D01*
X3598418Y15163037D01*
X3598418Y15113762D01*
X3573018Y15088362D01*
X3523995Y15088362D01*
X3498595Y15113762D01*
X3498595Y15163037D01*
X3473195Y15188437D01*
X3423920Y15188437D01*
X3373120Y15138400D01*
X3365500Y15138400D01*
X3302000Y15201900D01*
X3035045Y15201900D01*
X2934970Y15101824D01*
D12*
X3187700Y16357600D02*
G01*
X3810000Y16357600D01*
X3810000Y16357600D02*
G01*
X3810000Y16281400D01*
X3886200Y16205200D01*
X4535931Y16205200D01*
X4602734Y16272002D01*
X6756400Y14922449D02*
G01*
X7010400Y14668449D01*
X7518400Y14668449D01*
X7874000Y14653488D02*
G01*
X7859039Y14668449D01*
X7518400Y14668449D01*
D11*
X3175000Y15582900D02*
G01*
X4038600Y15582900D01*
X4165600Y15455900D01*
X4521200Y15455900D01*
X4648200Y15328900D01*
X4976875Y15328900D01*
X5007102Y15358871D01*
X5007102Y15348966D01*
X5037074Y15378937D01*
X5076952Y15378937D01*
X5106924Y15348966D01*
X5106924Y15308834D01*
X5136895Y15278862D01*
X5177027Y15278862D01*
X5207000Y15308834D01*
X5207000Y15348966D01*
X5236972Y15378937D01*
X5276850Y15378937D01*
X5307075Y15348966D01*
X5307075Y15308834D01*
X5337047Y15278862D01*
X5376925Y15278862D01*
X5406897Y15308834D01*
X5406897Y15348966D01*
X5436870Y15378937D01*
X5477002Y15378937D01*
X5506974Y15348966D01*
X5506974Y15308834D01*
X5536945Y15278862D01*
X5577077Y15278862D01*
X5607050Y15308834D01*
X5607050Y15298928D01*
X5637022Y15328900D01*
X5842000Y15328900D01*
X3175000Y15328900D02*
G01*
X3280409Y15328900D01*
X3310381Y15358871D01*
X3314700Y15430500D01*
X3340100Y15494000D01*
X3390900Y15494000D01*
X3410458Y15461742D01*
X3410458Y15289021D01*
X3440429Y15258795D01*
X3480308Y15258795D01*
X3505200Y15290800D01*
X3505200Y15455900D01*
X3543300Y15494000D01*
X3581400Y15494000D01*
X3606800Y15455900D01*
X3610356Y15289021D01*
X3640327Y15258795D01*
X3680459Y15258795D01*
X3710431Y15289021D01*
X3708400Y15455900D01*
X3746500Y15494000D01*
X3771900Y15494000D01*
X3810000Y15455900D01*
X3810508Y15289021D01*
X3840479Y15258795D01*
X3880358Y15258795D01*
X3898900Y15290800D01*
X3898900Y15455900D01*
X3937000Y15494000D01*
X3975100Y15494000D01*
X4013200Y15455900D01*
X4010406Y15289021D01*
X4040377Y15258795D01*
X4080509Y15258795D01*
X4114800Y15290800D01*
X4114800Y15341600D01*
X4152900Y15379700D01*
X4241800Y15379700D01*
X4318000Y15328900D01*
X5842000Y15074900D02*
G01*
X5366258Y15074900D01*
X5336286Y15044928D01*
X5336286Y15054834D01*
X5306059Y15024862D01*
X5266181Y15024862D01*
X5236209Y15054834D01*
X5236209Y15094966D01*
X5206238Y15124937D01*
X5166106Y15124937D01*
X5136134Y15094966D01*
X5136134Y15054834D01*
X5106161Y15024862D01*
X5066284Y15024862D01*
X5036058Y15054834D01*
X5036058Y15094966D01*
X5006086Y15124937D01*
X4966208Y15124937D01*
X4936236Y15094966D01*
X4936236Y15054834D01*
X4906263Y15024862D01*
X4866131Y15024862D01*
X4836159Y15054834D01*
X4836159Y15094966D01*
X4806188Y15124937D01*
X4766309Y15124937D01*
X4736084Y15094966D01*
X4736084Y15104871D01*
X4706111Y15074900D01*
X4635500Y15074900D01*
X4508500Y14947900D01*
X3302000Y14947900D01*
X3175000Y15074900D01*
X1651000Y15328900D02*
G01*
X2019300Y15328900D01*
X2654300Y14693900D01*
X2693670Y14693900D01*
X2744470Y14643862D01*
X2793491Y14643862D01*
X2818891Y14669262D01*
X2818891Y14718537D01*
X2844291Y14743937D01*
X2893568Y14743937D01*
X2918968Y14718537D01*
X2918968Y14669262D01*
X2944368Y14643862D01*
X2993643Y14643862D01*
X3044443Y14693900D01*
X3479800Y14693900D01*
X3606800Y14566900D01*
X4318000Y14566900D01*
X4318000Y14312900D02*
G01*
X4188713Y14442186D01*
X2283713Y14442186D01*
X2225802Y14498066D01*
X2225293Y14533879D01*
X2214118Y14522450D01*
X2213609Y14558518D01*
X2178050Y14592554D01*
X2142236Y14592045D01*
X2128774Y14578076D01*
X2092959Y14577568D01*
X2057654Y14611604D01*
X2056891Y14647418D01*
X2070100Y14661387D01*
X2069591Y14697202D01*
X2034031Y14731492D01*
X1998218Y14730729D01*
X2009140Y14742160D01*
X1973325Y14741397D01*
X1879600Y14782800D01*
X1803400Y14859000D01*
X1803400Y14922500D01*
X1651000Y15074900D01*
X6756400Y14160449D02*
G01*
X6727647Y14189202D01*
X5779338Y14189202D01*
X5655640Y14312900D01*
X4318000Y14312900D01*
X7518400Y13906500D02*
G01*
X7353300Y13906500D01*
X6972300Y14287500D01*
X6629400Y14287500D01*
X6477000Y14439900D01*
X4445000Y14439900D01*
X4318000Y14566900D01*
D10*
X4318000Y14820900D02*
G01*
X5473700Y14820900D01*
X5600700Y14693900D01*
X6756400Y14693900D01*
X6756400Y14668500D01*
D11*
X2735072Y15101824D02*
G01*
X2619756Y14986507D01*
X2485643Y14986507D01*
X2311400Y15160752D01*
X2311400Y15963900D01*
X3225800Y16878300D01*
X7264654Y16878300D01*
X7429754Y16713200D01*
X8099806Y16713200D01*
X8239506Y16852900D01*
X8519159Y16852900D01*
X8519195Y16852900D02*
G01*
X8826500Y16545595D01*
X8826500Y16281400D01*
X8902700Y16205200D01*
X8902700Y15632099D01*
X7518400Y10998200D02*
G01*
X8788400Y10998200D01*
X9131300Y11366500D01*
X9131300Y14897100D01*
X8623300Y15405100D01*
X8623300Y15621000D01*
X8394700Y15862300D01*
X7696200Y16560800D01*
X7150100Y16560800D01*
X6934200Y16776700D01*
X5918200Y16776700D01*
X5765800Y16624300D01*
X5760211Y16624300D01*
D12*
X1168400Y11300688D02*
G01*
X789711Y11300688D01*
X787400Y11303000D01*
X787400Y12827000D02*
G01*
X652297Y12691897D01*
X652297Y11438102D01*
X787400Y11303000D01*
D11*
X787400Y13081000D02*
G01*
X635000Y13233400D01*
X635000Y13868400D01*
X736600Y13970000D01*
X1485900Y13970000D01*
X1651000Y13804900D01*
X1651000Y13042900D02*
G01*
X1627200Y13019100D01*
X1168400Y13019100D01*
X1651000Y13042900D02*
G01*
X977900Y12369800D01*
X977900Y11760200D01*
X787400Y11569700D01*
X787400Y11557000D01*
X1168400Y11584711D02*
G01*
X815111Y11584711D01*
X787400Y11557000D01*
X8496300Y15062200D02*
G01*
X8661400Y15062200D01*
X8674100Y13766800D02*
G01*
X8674087Y13766787D01*
X8517409Y13766787D01*
X8305800Y12496800D02*
G01*
X8108701Y12611100D01*
X8102600Y12611100D01*
X6756400Y14414500D02*
G01*
X6883400Y14541500D01*
X8013700Y14541500D01*
X8140700Y14668500D01*
X8140700Y14998700D01*
X8204200Y15062200D01*
X8293100Y15062200D01*
D12*
X7518400Y12268149D02*
G01*
X7558760Y12227788D01*
X7848600Y12227788D01*
X6756400Y13144500D02*
G01*
X6756400Y12522200D01*
X6426200Y12192000D01*
X6426200Y10934700D01*
X6756400Y10744200D01*
D11*
X3175000Y14820900D02*
G01*
X3530600Y14820900D01*
X3657600Y14693900D01*
X4533900Y14693900D01*
X4610100Y14617700D01*
X4862068Y14617700D01*
X4912868Y14667737D01*
X4962143Y14667737D01*
X4987543Y14642337D01*
X4987543Y14593062D01*
X5012943Y14567662D01*
X5061965Y14567662D01*
X5087365Y14593062D01*
X5087365Y14642337D01*
X5112765Y14667737D01*
X5162041Y14667737D01*
X5187441Y14642337D01*
X5187441Y14593062D01*
X5212841Y14567662D01*
X5262118Y14567662D01*
X5287518Y14593062D01*
X5287518Y14642337D01*
X5312918Y14667737D01*
X5361940Y14667737D01*
X5387340Y14642337D01*
X5387340Y14593062D01*
X5412740Y14567662D01*
X5462015Y14567662D01*
X5512815Y14617700D01*
X5588000Y14617700D01*
X5638800Y14566900D01*
X5842000Y14566900D01*
X1651000Y14820900D02*
G01*
X2286000Y14198600D01*
X2336800Y14198600D01*
X2374900Y14236700D01*
X2442463Y14235937D01*
X2467863Y14210537D01*
X2467863Y14161262D01*
X2493263Y14135862D01*
X2542540Y14135862D01*
X2567940Y14161262D01*
X2567940Y14210537D01*
X2593340Y14235937D01*
X2642615Y14235937D01*
X2668015Y14210537D01*
X2668015Y14161262D01*
X2693415Y14135862D01*
X2742691Y14135862D01*
X2768091Y14161262D01*
X2768091Y14210537D01*
X2793491Y14235937D01*
X2842513Y14235937D01*
X2867913Y14210537D01*
X2867913Y14161262D01*
X2893313Y14135862D01*
X2942590Y14135862D01*
X2993390Y14185900D01*
X3314700Y14185900D01*
X3441700Y14058900D01*
X4318000Y14058900D01*
D10*
X3175000Y14058900D02*
G01*
X3314700Y13919200D01*
X4880102Y13919200D01*
X4942586Y13981937D01*
X4991861Y13981937D01*
X5017261Y13956537D01*
X5017261Y13907262D01*
X5042661Y13881862D01*
X5091938Y13881862D01*
X5117338Y13907262D01*
X5117338Y13956537D01*
X5142738Y13981937D01*
X5191759Y13981937D01*
X5217159Y13956537D01*
X5217159Y13907262D01*
X5242559Y13881862D01*
X5291836Y13881862D01*
X5317236Y13907262D01*
X5317236Y13956537D01*
X5342636Y13981937D01*
X5391911Y13981937D01*
X5417311Y13956537D01*
X5417311Y13907262D01*
X5435600Y13893800D01*
X5486400Y13893800D01*
X5542788Y13931900D01*
X5715000Y13931900D01*
X5842000Y13804900D01*
X5842000Y13550900D02*
G01*
X5715000Y13677900D01*
X5563870Y13677900D01*
X5513070Y13627862D01*
X5463793Y13627862D01*
X5438393Y13653262D01*
X5438393Y13702537D01*
X5412993Y13727937D01*
X5363972Y13727937D01*
X5338572Y13702537D01*
X5338572Y13653262D01*
X5313172Y13627862D01*
X5263895Y13627862D01*
X5238495Y13653262D01*
X5238495Y13702537D01*
X5213095Y13727937D01*
X5163820Y13727937D01*
X5138420Y13702537D01*
X5138420Y13653262D01*
X5113020Y13627862D01*
X5063997Y13627862D01*
X5038597Y13653262D01*
X5038597Y13702537D01*
X5013197Y13727937D01*
X4963922Y13727937D01*
X4913122Y13677900D01*
X3594100Y13677900D01*
X3467100Y13804900D01*
X3175000Y13804900D01*
X1651000Y14566900D02*
G01*
X2379979Y13837920D01*
X2379979Y13801852D01*
X2391156Y13813028D01*
X2391156Y13777213D01*
X2425954Y13742416D01*
X2462022Y13742416D01*
X2450845Y13731239D01*
X2486659Y13731239D01*
X2540761Y13677137D01*
X3378200Y13677900D01*
X3505200Y13550900D01*
X4318000Y13550900D01*
X3175000Y13550900D02*
G01*
X3352800Y13550900D01*
X3479800Y13423900D01*
X4927600Y13423900D01*
X4981447Y13486637D01*
X5030724Y13486637D01*
X5056124Y13461237D01*
X5056124Y13411962D01*
X5081524Y13386562D01*
X5130545Y13386562D01*
X5155945Y13411962D01*
X5155945Y13461237D01*
X5181345Y13486637D01*
X5230622Y13486637D01*
X5256022Y13461237D01*
X5256022Y13411962D01*
X5281422Y13386562D01*
X5330697Y13386562D01*
X5356097Y13411962D01*
X5356097Y13461237D01*
X5381497Y13486637D01*
X5430520Y13486637D01*
X5455920Y13461237D01*
X5455920Y13411962D01*
X5481320Y13386562D01*
X5530595Y13386562D01*
X5575300Y13423900D01*
X5702300Y13423900D01*
X5842000Y13296900D01*
X1651000Y14312900D02*
G01*
X2394458Y13569695D01*
X2394458Y13533628D01*
X2405634Y13544804D01*
X2405634Y13508989D01*
X2440177Y13474192D01*
X2476245Y13474192D01*
X2465070Y13463016D01*
X2500884Y13463016D01*
X2537459Y13426439D01*
X3233674Y13426439D01*
X3363213Y13296900D01*
X4318000Y13296900D01*
X1651000Y14058900D02*
G01*
X2365502Y13344397D01*
X2365502Y13308329D01*
X2376677Y13319505D01*
X2376677Y13283692D01*
X2411475Y13248894D01*
X2447543Y13248894D01*
X2436368Y13237718D01*
X2472181Y13237718D01*
X2540000Y13169900D01*
X4191000Y13169900D01*
X4318000Y13042900D01*
X5842000Y13042900D02*
G01*
X5562600Y13042900D01*
X5522975Y13007847D01*
X5518150Y12936728D01*
X5481320Y12904215D01*
X5445506Y12906247D01*
X5412993Y12943078D01*
X5376925Y12945363D01*
X5340350Y12912597D01*
X5338063Y12876784D01*
X5370575Y12839954D01*
X5368543Y12804139D01*
X5331713Y12771628D01*
X5295900Y12773660D01*
X5263134Y12810489D01*
X5227320Y12812776D01*
X5190490Y12780010D01*
X5185663Y12708889D01*
X5143500Y12649200D01*
X5017770Y12649200D01*
X4978400Y12611100D01*
X4914900Y12611100D01*
X4866893Y12649200D01*
X4165600Y12649200D01*
X4025900Y12788900D01*
X3175000Y12788900D01*
X4318000Y12534900D02*
G01*
X3429000Y12534900D01*
X3302000Y12661900D01*
X2990850Y12661900D01*
X2940050Y12611862D01*
X2890774Y12611862D01*
X2865374Y12637262D01*
X2865374Y12686537D01*
X2839974Y12711937D01*
X2790952Y12711937D01*
X2765552Y12686537D01*
X2765552Y12637262D01*
X2740152Y12611862D01*
X2690875Y12611862D01*
X2640075Y12661900D01*
X2286000Y12661900D01*
X1651000Y13296900D01*
X5842000Y12788900D02*
G01*
X5689600Y12788900D01*
X5569965Y12665963D01*
X5569965Y12594589D01*
X5535929Y12559284D01*
X5500115Y12558776D01*
X5464809Y12593065D01*
X5428741Y12592558D01*
X5394452Y12557252D01*
X5394959Y12521437D01*
X5430265Y12487147D01*
X5430774Y12451334D01*
X5396484Y12414758D01*
X5325109Y12414758D01*
X5254752Y12344400D01*
X4991100Y12344400D01*
X4864100Y12471400D01*
X4660900Y12471400D01*
X4597400Y12407900D01*
X3302000Y12407900D01*
X3175000Y12534900D01*
X4318000Y12280900D02*
G01*
X3467100Y12280900D01*
X3340100Y12153900D01*
X2286000Y12153900D01*
X2219452Y12220955D01*
X2148331Y12220955D01*
X2113534Y12255754D01*
X2113534Y12291821D01*
X2148331Y12326365D01*
X2148331Y12362434D01*
X2113534Y12397231D01*
X2077465Y12397231D01*
X2042668Y12362434D01*
X2006854Y12362434D01*
X1971547Y12397231D01*
X1971547Y12468352D01*
X1651000Y12788900D01*
X3175000Y12026900D02*
G01*
X3403600Y12026900D01*
X3530600Y12153900D01*
X4923536Y12153900D01*
X4974336Y12203937D01*
X5023611Y12203937D01*
X5049011Y12178537D01*
X5049011Y12129262D01*
X5074411Y12103862D01*
X5123688Y12103862D01*
X5149088Y12129262D01*
X5149088Y12178537D01*
X5174488Y12203937D01*
X5223509Y12203937D01*
X5248909Y12178537D01*
X5248909Y12129262D01*
X5274309Y12103862D01*
X5323586Y12103862D01*
X5348986Y12129262D01*
X5348986Y12178537D01*
X5374386Y12203937D01*
X5423661Y12203937D01*
X5449061Y12178537D01*
X5449061Y12129262D01*
X5474461Y12103862D01*
X5523738Y12103862D01*
X5574538Y12153900D01*
X5715000Y12153900D01*
X5842000Y12280900D01*
X1651000Y12534900D02*
G01*
X2032000Y12153900D01*
X2032000Y11938000D01*
X2133600Y11836400D01*
X3022600Y11836400D01*
X3086100Y11899900D01*
X3467100Y11899900D01*
X3594100Y12026900D01*
X4318000Y12026900D01*
X3175000Y11772900D02*
G01*
X3530600Y11772900D01*
X3657600Y11899900D01*
X4926838Y11899900D01*
X4977638Y11949937D01*
X5026913Y11949937D01*
X5052313Y11924537D01*
X5052313Y11875262D01*
X5077713Y11849862D01*
X5126736Y11849862D01*
X5152136Y11875262D01*
X5152136Y11924537D01*
X5177536Y11949937D01*
X5226811Y11949937D01*
X5252211Y11924537D01*
X5252211Y11875262D01*
X5277611Y11849862D01*
X5326888Y11849862D01*
X5352288Y11875262D01*
X5352288Y11924537D01*
X5377688Y11949937D01*
X5426709Y11949937D01*
X5452109Y11924537D01*
X5452109Y11875262D01*
X5477509Y11849862D01*
X5526786Y11849862D01*
X5577586Y11899900D01*
X5715000Y11899900D01*
X5842000Y12026900D01*
X1651000Y11772900D02*
G01*
X1778000Y11645900D01*
X2199640Y11645900D01*
X2265425Y11711686D01*
X2314447Y11711686D01*
X2339847Y11686286D01*
X2339847Y11637263D01*
X2365247Y11611863D01*
X2414524Y11611863D01*
X2439924Y11637263D01*
X2439924Y11686286D01*
X2465324Y11711686D01*
X2514600Y11711686D01*
X2540000Y11686286D01*
X2540000Y11637263D01*
X2565400Y11611863D01*
X2614422Y11611863D01*
X2639822Y11637263D01*
X2639822Y11686286D01*
X2665222Y11711686D01*
X2714497Y11711686D01*
X2739897Y11686286D01*
X2739897Y11637263D01*
X2765297Y11611863D01*
X2814574Y11611863D01*
X2870200Y11645900D01*
X3606800Y11645900D01*
X3733800Y11772900D01*
X4318000Y11772900D01*
X3175000Y11518900D02*
G01*
X3683000Y11518900D01*
X3795522Y11631421D01*
X4918963Y11631421D01*
X4969763Y11681460D01*
X5019040Y11681460D01*
X5044440Y11656060D01*
X5044440Y11606784D01*
X5069840Y11581384D01*
X5119115Y11581384D01*
X5144515Y11606784D01*
X5144515Y11656060D01*
X5169915Y11681460D01*
X5218938Y11681460D01*
X5244338Y11656060D01*
X5244338Y11606784D01*
X5269738Y11581384D01*
X5319013Y11581384D01*
X5344413Y11606784D01*
X5344413Y11656060D01*
X5369813Y11681460D01*
X5419090Y11681460D01*
X5444490Y11656060D01*
X5444490Y11606784D01*
X5469890Y11581384D01*
X5519165Y11581384D01*
X5569965Y11631421D01*
X5700522Y11631421D01*
X5842000Y11772900D01*
X1651000Y11518900D02*
G01*
X1778000Y11391900D01*
X2196845Y11391900D01*
X2262631Y11457686D01*
X2311908Y11457686D01*
X2337308Y11432286D01*
X2337308Y11383263D01*
X2362708Y11357863D01*
X2411984Y11357863D01*
X2437384Y11383263D01*
X2437384Y11432286D01*
X2462784Y11457686D01*
X2512059Y11457686D01*
X2537459Y11432286D01*
X2537459Y11383263D01*
X2562859Y11357863D01*
X2611881Y11357863D01*
X2637281Y11383263D01*
X2637281Y11432286D01*
X2662681Y11457686D01*
X2711958Y11457686D01*
X2737358Y11432286D01*
X2737358Y11383263D01*
X2762758Y11357863D01*
X2812034Y11357863D01*
X2846070Y11391900D01*
X3746245Y11391900D01*
X3872738Y11518392D01*
X4318000Y11518900D01*
X3175000Y11264900D02*
G01*
X3797300Y11264900D01*
X3924300Y11391900D01*
X4910581Y11391900D01*
X4961381Y11441937D01*
X5010658Y11441937D01*
X5036058Y11416537D01*
X5036058Y11367262D01*
X5061458Y11341862D01*
X5110479Y11341862D01*
X5135879Y11367262D01*
X5135879Y11416537D01*
X5161279Y11441937D01*
X5210556Y11441937D01*
X5235956Y11416537D01*
X5235956Y11367262D01*
X5261356Y11341862D01*
X5310631Y11341862D01*
X5336031Y11367262D01*
X5336031Y11416537D01*
X5361431Y11441937D01*
X5410708Y11441937D01*
X5436108Y11416537D01*
X5436108Y11367262D01*
X5461508Y11341862D01*
X5510529Y11341862D01*
X5561329Y11391900D01*
X5715000Y11391900D01*
X5842000Y11518900D01*
X4318000Y11264900D02*
G01*
X3987800Y11264900D01*
X3860800Y11137900D01*
X2873247Y11137900D01*
X2822447Y11087862D01*
X2773425Y11087862D01*
X2748025Y11113262D01*
X2748025Y11162537D01*
X2722625Y11187937D01*
X2673350Y11187937D01*
X2647950Y11162537D01*
X2647950Y11113262D01*
X2622550Y11087862D01*
X2573274Y11087862D01*
X2547874Y11113262D01*
X2547874Y11162537D01*
X2522474Y11187937D01*
X2473452Y11187937D01*
X2448052Y11162537D01*
X2448052Y11113262D01*
X2422652Y11087862D01*
X2373375Y11087862D01*
X2347975Y11113262D01*
X2347975Y11162537D01*
X2322575Y11187937D01*
X2273300Y11187937D01*
X2222500Y11137900D01*
X1778000Y11137900D01*
X1651000Y11264900D01*
X3175000Y11010900D02*
G01*
X3937000Y11010900D01*
X4049522Y11123421D01*
X4907788Y11123421D01*
X4958588Y11173460D01*
X5007863Y11173460D01*
X5033263Y11148060D01*
X5033263Y11098784D01*
X5058663Y11073384D01*
X5107686Y11073384D01*
X5133086Y11098784D01*
X5133086Y11148060D01*
X5158486Y11173460D01*
X5207761Y11173460D01*
X5233161Y11148060D01*
X5233161Y11098784D01*
X5258561Y11073384D01*
X5307838Y11073384D01*
X5333238Y11098784D01*
X5333238Y11148060D01*
X5358638Y11173460D01*
X5407659Y11173460D01*
X5433059Y11148060D01*
X5433059Y11098784D01*
X5458459Y11073384D01*
X5507736Y11073384D01*
X5558536Y11123421D01*
X5700522Y11123421D01*
X5842000Y11264900D01*
X1651000Y11010900D02*
G01*
X1778000Y10883900D01*
X2199640Y10883900D01*
X2265425Y10949686D01*
X2314447Y10949686D01*
X2339847Y10924286D01*
X2339847Y10875263D01*
X2365247Y10849863D01*
X2414524Y10849863D01*
X2439924Y10875263D01*
X2439924Y10924286D01*
X2465324Y10949686D01*
X2514600Y10949686D01*
X2540000Y10924286D01*
X2540000Y10875263D01*
X2565400Y10849863D01*
X2614422Y10849863D01*
X2639822Y10875263D01*
X2639822Y10924286D01*
X2665222Y10949686D01*
X2714497Y10949686D01*
X2739897Y10924286D01*
X2739897Y10875263D01*
X2765297Y10849863D01*
X2814574Y10849863D01*
X2848609Y10883900D01*
X4038600Y10883900D01*
X4165600Y11010900D01*
X4318000Y11010900D01*
X5842000Y11010900D02*
G01*
X5715000Y10883900D01*
X5564124Y10883900D01*
X5513324Y10833862D01*
X5464302Y10833862D01*
X5438902Y10859262D01*
X5438902Y10908537D01*
X5413502Y10933937D01*
X5364225Y10933937D01*
X5338825Y10908537D01*
X5338825Y10859262D01*
X5313425Y10833862D01*
X5264150Y10833862D01*
X5238750Y10859262D01*
X5238750Y10908537D01*
X5213350Y10933937D01*
X5164074Y10933937D01*
X5138674Y10908537D01*
X5138674Y10859262D01*
X5113274Y10833862D01*
X5064252Y10833862D01*
X5038852Y10859262D01*
X5038852Y10908537D01*
X5013452Y10933937D01*
X4964175Y10933937D01*
X4913375Y10883900D01*
X4270247Y10883900D01*
X4143247Y10756900D01*
X3175000Y10756900D01*
X1651000Y10756900D02*
G01*
X1778000Y10629900D01*
X2207768Y10629900D01*
X2270252Y10692384D01*
X2319527Y10692384D01*
X2344927Y10666984D01*
X2344927Y10617962D01*
X2370327Y10592562D01*
X2419604Y10592562D01*
X2445004Y10617962D01*
X2445004Y10666984D01*
X2470404Y10692384D01*
X2519679Y10692384D01*
X2545079Y10666984D01*
X2545079Y10617962D01*
X2570479Y10592562D01*
X2619502Y10592562D01*
X2644902Y10617962D01*
X2644902Y10666984D01*
X2670302Y10692384D01*
X2719577Y10692384D01*
X2744977Y10666984D01*
X2744977Y10617962D01*
X2770377Y10592562D01*
X2819654Y10592562D01*
X2856991Y10629900D01*
X4191000Y10629900D01*
X4318000Y10756900D01*
D11*
X8219440Y13766800D02*
G01*
X7975600Y13766800D01*
X7861300Y13652500D01*
X7518400Y13652500D01*
X8305800Y14630400D02*
G01*
X8305800Y14655800D01*
X8509000Y14655800D02*
G01*
X8674100Y14655800D01*
X8517409Y14198600D02*
G01*
X8686800Y14198600D01*
X8305800Y14630400D02*
G01*
X8305800Y14655800D01*
X8297392Y13766800D02*
G01*
X8219490Y13766800D01*
X8297418Y12915900D02*
G01*
X8064500Y12915900D01*
X7835900Y13144500D01*
X7518400Y13144500D01*
X8517409Y13335000D02*
G01*
X8674100Y13335000D01*
X8509000Y10744200D02*
G01*
X8509000Y10744200D01*
X8509000Y11176000D02*
G01*
X8591905Y11176000D01*
X8591910Y11176000D02*
G01*
X8610600Y11176000D01*
X8674100Y11239500D01*
X8509000Y11582400D02*
G01*
X8591905Y11582400D01*
X8674100Y11645900D02*
G01*
X8655410Y11645900D01*
X8591910Y11582400D01*
D12*
X6756400Y10744200D02*
G01*
X6654800Y10744200D01*
X6527800Y10871200D01*
X6527800Y11125200D01*
X6629400Y11125200D01*
X6756400Y11252200D01*
X5842000Y10744200D02*
G01*
X6756400Y10744200D01*
X5842000Y10744200D02*
G01*
X5842000Y10756900D01*
X5842000Y10744200D02*
G01*
X5842000Y10676483D01*
X5837758Y10672241D01*
D13*
G01*
X7874000Y14937511D03*
G01*
X7874000Y14653488D03*
D14*
G01*
X8902700Y15632102D03*
D15*
G01*
X8902700Y15432100D03*
D16*
G01*
X1168400Y13019095D03*
D17*
G01*
X1168400Y13219099D03*
D18*
G01*
X8297397Y13766789D03*
G01*
X8517412Y13766789D03*
G01*
X8297478Y12915879D03*
G01*
X8517493Y12915879D03*
D13*
G01*
X7848600Y12511811D03*
G01*
X7848600Y12227788D03*
G01*
X1168400Y11584711D03*
G01*
X1168400Y11300688D03*
D19*
G01*
X8496301Y15062200D03*
G01*
X8293101Y15062200D03*
G01*
X8509001Y14655800D03*
G01*
X8305801Y14655800D03*
D18*
G01*
X8297392Y14198600D03*
G01*
X8517407Y14198600D03*
D19*
G01*
X8509001Y12496800D03*
G01*
X8305801Y12496800D03*
D18*
G01*
X8297392Y13335000D03*
G01*
X8517407Y13335000D03*
D19*
G01*
X8509001Y11582400D03*
G01*
X8305801Y11582400D03*
G01*
X8509001Y12065000D03*
G01*
X8305801Y12065000D03*
G01*
X8509001Y10744200D03*
G01*
X8305801Y10744200D03*
G01*
X8509001Y11176000D03*
G01*
X8305801Y11176000D03*
D16*
G01*
X1168400Y13628695D03*
D17*
G01*
X1168400Y13828699D03*
D20*
G01*
X787400Y11303000D03*
G01*
X787400Y11557000D03*
G01*
X787400Y11811000D03*
G01*
X787400Y12065000D03*
G01*
X787400Y12319000D03*
G01*
X787400Y12573000D03*
G01*
X787400Y12827000D03*
G01*
X787400Y13081000D03*
G01*
X787400Y13335000D03*
G01*
X787400Y13589000D03*
G01*
X787400Y13843000D03*
G01*
X787400Y14097000D03*
G01*
X787400Y14351000D03*
G01*
X787400Y14605000D03*
G01*
X787400Y14859000D03*
G01*
X787400Y15113000D03*
G01*
X787400Y15367000D03*
G01*
X787400Y15621000D03*
G01*
X787400Y15875000D03*
G01*
X787400Y16129000D03*
D21*
G01*
X9105900Y10845800D03*
G01*
X9105900Y16560800D03*
G01*
X787400Y16573500D03*
G01*
X787400Y10858500D03*
D22*
G01*
X7508234Y16852823D03*
G01*
X7254234Y16682821D03*
G01*
X8519231Y16852823D03*
G01*
X8265231Y16682821D03*
D23*
G01*
X8331220Y15709823D03*
G01*
X8204220Y15455823D03*
G01*
X8077220Y15709823D03*
G01*
X7950220Y15455823D03*
G01*
X7823220Y15709823D03*
G01*
X7696220Y15455823D03*
G01*
X7569220Y15709823D03*
G01*
X7442220Y15455823D03*
D24*
G01*
X8674247Y16039820D03*
G01*
X7099244Y16039845D03*
D25*
G01*
X4318000Y15582900D03*
G01*
X5842000Y15582900D03*
G01*
X4318000Y15328900D03*
G01*
X5842000Y15328900D03*
G01*
X4318000Y15074900D03*
G01*
X5842000Y15074900D03*
G01*
X4318000Y14820900D03*
G01*
X5842000Y14820900D03*
G01*
X4318000Y14566900D03*
G01*
X5842000Y14566900D03*
G01*
X4318000Y14312900D03*
G01*
X5842000Y14312900D03*
G01*
X4318000Y14058900D03*
G01*
X5842000Y14058900D03*
G01*
X4318000Y13804900D03*
G01*
X5842000Y13804900D03*
G01*
X4318000Y13550900D03*
G01*
X5842000Y13550900D03*
G01*
X4318000Y13296900D03*
G01*
X5842000Y13296900D03*
G01*
X4318000Y13042900D03*
G01*
X5842000Y13042900D03*
G01*
X4318000Y12788900D03*
G01*
X5842000Y12788900D03*
G01*
X4318000Y12534900D03*
G01*
X5842000Y12534900D03*
G01*
X4318000Y12280900D03*
G01*
X5842000Y12280900D03*
G01*
X4318000Y12026900D03*
G01*
X5842000Y12026900D03*
G01*
X4318000Y11772900D03*
G01*
X5842000Y11772900D03*
G01*
X4318000Y11518900D03*
G01*
X5842000Y11518900D03*
G01*
X4318000Y11264900D03*
G01*
X5842000Y11264900D03*
G01*
X4318000Y11010900D03*
G01*
X5842000Y11010900D03*
G01*
X4318000Y10756900D03*
G01*
X5842000Y10756900D03*
D26*
G01*
X5765800Y16624300D03*
G01*
X5765800Y16370300D03*
G01*
X6527800Y16370300D03*
G01*
X6527800Y16624300D03*
D27*
G01*
X3810000Y16357600D03*
G01*
X3937000Y16357600D03*
D28*
G01*
X4064000Y16357600D03*
D29*
G01*
X6756400Y12522149D03*
D26*
G01*
X6756400Y12268149D03*
G01*
X6756400Y10998149D03*
G01*
X6756400Y10744149D03*
G01*
X6756400Y12014149D03*
G01*
X6756400Y11760149D03*
G01*
X6756400Y11252149D03*
G01*
X6756400Y11506149D03*
G01*
X7518400Y10744149D03*
G01*
X7518400Y10998149D03*
G01*
X7518400Y11252149D03*
G01*
X7518400Y11506149D03*
G01*
X7518400Y11760149D03*
G01*
X7518400Y12014149D03*
G01*
X7518400Y12268149D03*
G01*
X7518400Y12522149D03*
D29*
G01*
X6756400Y14922449D03*
D26*
G01*
X6756400Y14668449D03*
G01*
X6756400Y13398449D03*
G01*
X6756400Y13144449D03*
G01*
X6756400Y14414449D03*
G01*
X6756400Y14160449D03*
G01*
X6756400Y13652449D03*
G01*
X6756400Y13906449D03*
G01*
X7518400Y13144449D03*
G01*
X7518400Y13398449D03*
G01*
X7518400Y13652449D03*
G01*
X7518400Y13906449D03*
G01*
X7518400Y14160449D03*
G01*
X7518400Y14414449D03*
G01*
X7518400Y14668449D03*
G01*
X7518400Y14922449D03*
D30*
G01*
X4602759Y16724020D03*
G01*
X5252999Y16724020D03*
G01*
X4602759Y16271900D03*
G01*
X5252999Y16271900D03*
D23*
G01*
X1651000Y10756900D03*
G01*
X1651000Y11264900D03*
G01*
X1651000Y11518900D03*
G01*
X1651000Y11010900D03*
G01*
X1651000Y11772900D03*
G01*
X3175000Y11010900D03*
G01*
X3175000Y10756900D03*
G01*
X1651000Y12026900D03*
G01*
X1905000Y12026900D03*
G01*
X2159000Y12026900D03*
G01*
X2413000Y12026900D03*
G01*
X2667000Y12026900D03*
G01*
X2921000Y12026900D03*
G01*
X3175000Y12026900D03*
G01*
X3175000Y11772900D03*
G01*
X3175000Y11518900D03*
G01*
X3175000Y11264900D03*
G01*
X1651000Y12280900D03*
G01*
X1651000Y12788900D03*
G01*
X1651000Y13042900D03*
G01*
X1651000Y13296900D03*
G01*
X1651000Y13550900D03*
G01*
X1651000Y13804900D03*
G01*
X1651000Y14058900D03*
G01*
X1651000Y14312900D03*
G01*
X1651000Y14566900D03*
G01*
X1651000Y14820900D03*
G01*
X1651000Y15074900D03*
G01*
X1651000Y15328900D03*
G01*
X1651000Y15582900D03*
G01*
X1651000Y15836900D03*
G01*
X1651000Y16090900D03*
G01*
X1651000Y16344900D03*
G01*
X1651000Y16598900D03*
G01*
X3175000Y16598900D03*
G01*
X3175000Y16344900D03*
G01*
X3175000Y16090900D03*
G01*
X3175000Y15836900D03*
G01*
X3175000Y15582900D03*
G01*
X3175000Y15328900D03*
G01*
X3175000Y15074900D03*
G01*
X3175000Y14820900D03*
G01*
X3175000Y14566900D03*
G01*
X3175000Y14312900D03*
G01*
X3175000Y14058900D03*
G01*
X3175000Y13804900D03*
G01*
X3175000Y13550900D03*
G01*
X3175000Y13296900D03*
G01*
X3175000Y13042900D03*
G01*
X3175000Y12788900D03*
G01*
X3175000Y12280900D03*
G01*
X2921000Y16344900D03*
D31*
G01*
X2734995Y15301899D03*
G01*
X2934995Y15101900D03*
G01*
X2934995Y15301899D03*
D23*
G01*
X3175000Y12534900D03*
G01*
X1651000Y12534900D03*
G01*
X2286000Y16537889D03*
G01*
X2540000Y16537889D03*
G01*
X1950999Y15963900D03*
G01*
X1950999Y15709900D03*
G01*
X1950999Y15455900D03*
G01*
X1950999Y15201900D03*
G01*
X1950999Y14947900D03*
D31*
G01*
X2534996Y15301899D03*
G01*
X2734995Y15101900D03*
G01*
X2534996Y15101900D03*
D32*
G01*
X8674100Y11645900D03*
G01*
X8674100Y11239500D03*
G01*
X8674100Y13335000D03*
G01*
X8102600Y12611100D03*
G01*
X8686800Y14198600D03*
G01*
X8674100Y14655800D03*
G01*
X8509000Y10744200D03*
G01*
X8674100Y13766800D03*
G01*
X8661400Y15062200D03*
G01*
X8902700Y15430500D03*
G01*
X6616700Y15455900D03*
G01*
X5321300Y15595600D03*
G01*
X8674100Y12065000D03*
G01*
X8674100Y12496800D03*
G01*
X8674100Y12915900D03*
G01*
X3657600Y16090900D03*
M02*
