G04 Layer: BottomSilkscreenLayer*
G04 EasyEDA v6.5.40, 2024-02-01 00:24:09*
G04 faf3267638cc42b38ab6b6bb7f3975a6,cb1d8df9e4d043698efa6217e4288dd5,10*
G04 Gerber Generator version 0.2*
G04 Scale: 100 percent, Rotated: No, Reflected: No *
G04 Dimensions in millimeters *
G04 leading zeros omitted , absolute positions ,4 integer and 5 decimal *
%FSLAX45Y45*%
%MOMM*%

%ADD10C,0.1524*%
%ADD11C,0.1999*%

%LPD*%
G36*
X5484114Y12458700D02*
G01*
X5478678Y12458496D01*
X5474208Y12457938D01*
X5474208Y12443968D01*
X5486400Y12443968D01*
X5494629Y12443460D01*
X5501792Y12442037D01*
X5507939Y12439700D01*
X5512968Y12436500D01*
X5516880Y12432436D01*
X5519674Y12427559D01*
X5521401Y12421920D01*
X5521960Y12415520D01*
X5521350Y12409525D01*
X5519521Y12403886D01*
X5516626Y12398603D01*
X5512562Y12393879D01*
X5507482Y12389815D01*
X5501386Y12386564D01*
X5494324Y12384176D01*
X5486400Y12382754D01*
X5486400Y12443968D01*
X5474208Y12443968D01*
X5474208Y12383008D01*
X5468264Y12383516D01*
X5462727Y12384633D01*
X5457545Y12386208D01*
X5452821Y12388291D01*
X5448554Y12390882D01*
X5444744Y12393879D01*
X5441442Y12397384D01*
X5438698Y12401245D01*
X5436463Y12405563D01*
X5434888Y12410236D01*
X5433923Y12415215D01*
X5433568Y12420600D01*
X5434177Y12428270D01*
X5435904Y12435382D01*
X5438698Y12442037D01*
X5442458Y12448286D01*
X5431536Y12454382D01*
X5427218Y12446965D01*
X5425338Y12442952D01*
X5423662Y12438684D01*
X5422290Y12434112D01*
X5421274Y12429286D01*
X5420614Y12424105D01*
X5420360Y12418568D01*
X5420614Y12413234D01*
X5421325Y12408001D01*
X5422544Y12403023D01*
X5424271Y12398197D01*
X5426405Y12393676D01*
X5428996Y12389358D01*
X5432044Y12385344D01*
X5435549Y12381687D01*
X5439460Y12378334D01*
X5443728Y12375337D01*
X5448452Y12372746D01*
X5453583Y12370562D01*
X5459069Y12368834D01*
X5464962Y12367564D01*
X5471160Y12366752D01*
X5477764Y12366498D01*
X5484266Y12366752D01*
X5490464Y12367564D01*
X5496306Y12368834D01*
X5501792Y12370562D01*
X5506872Y12372746D01*
X5511647Y12375286D01*
X5515965Y12378232D01*
X5519928Y12381484D01*
X5523433Y12385040D01*
X5526532Y12388850D01*
X5529224Y12392914D01*
X5531408Y12397130D01*
X5533136Y12401550D01*
X5534406Y12406122D01*
X5535168Y12410795D01*
X5535422Y12415520D01*
X5535015Y12422124D01*
X5533847Y12428220D01*
X5531866Y12433858D01*
X5529173Y12438888D01*
X5525770Y12443409D01*
X5521655Y12447371D01*
X5516930Y12450775D01*
X5511546Y12453620D01*
X5505500Y12455804D01*
X5498947Y12457430D01*
X5491784Y12458395D01*
G37*
G36*
X5409438Y12356084D02*
G01*
X5404561Y12355626D01*
X5399786Y12354356D01*
X5395214Y12352223D01*
X5390896Y12349327D01*
X5386882Y12345670D01*
X5383225Y12341250D01*
X5379974Y12336170D01*
X5377180Y12330430D01*
X5374944Y12324029D01*
X5373268Y12317069D01*
X5372201Y12309551D01*
X5371946Y12303760D01*
X5383530Y12303760D01*
X5384038Y12311583D01*
X5385562Y12318593D01*
X5387848Y12324791D01*
X5390845Y12329972D01*
X5394452Y12334189D01*
X5398414Y12337288D01*
X5402732Y12339167D01*
X5407152Y12339828D01*
X5413857Y12338354D01*
X5418277Y12334036D01*
X5420664Y12326874D01*
X5421376Y12316968D01*
X5421376Y12296648D01*
X5421934Y12290348D01*
X5423408Y12282678D01*
X5418683Y12277293D01*
X5413705Y12273584D01*
X5408625Y12271451D01*
X5403596Y12270740D01*
X5399227Y12271298D01*
X5395315Y12273026D01*
X5391912Y12275769D01*
X5388965Y12279528D01*
X5386679Y12284252D01*
X5384952Y12289942D01*
X5383885Y12296444D01*
X5383530Y12303760D01*
X5371946Y12303760D01*
X5371846Y12301474D01*
X5372049Y12294870D01*
X5372760Y12288672D01*
X5373827Y12282881D01*
X5375351Y12277598D01*
X5377332Y12272822D01*
X5379669Y12268555D01*
X5382412Y12264847D01*
X5385511Y12261748D01*
X5388965Y12259310D01*
X5392826Y12257481D01*
X5397042Y12256363D01*
X5401564Y12256008D01*
X5408523Y12257125D01*
X5415178Y12260326D01*
X5421325Y12265456D01*
X5426710Y12272264D01*
X5427472Y12272264D01*
X5430570Y12268352D01*
X5434634Y12265202D01*
X5439664Y12263120D01*
X5445760Y12262358D01*
X5452211Y12263526D01*
X5457850Y12266472D01*
X5462473Y12270384D01*
X5466080Y12274550D01*
X5466842Y12274550D01*
X5471972Y12269317D01*
X5478830Y12264745D01*
X5487111Y12261545D01*
X5496560Y12260326D01*
X5502249Y12260681D01*
X5507532Y12261799D01*
X5512511Y12263577D01*
X5517032Y12265964D01*
X5521096Y12268911D01*
X5524754Y12272365D01*
X5527903Y12276277D01*
X5530545Y12280595D01*
X5532628Y12285268D01*
X5534152Y12290298D01*
X5535117Y12295530D01*
X5535422Y12300966D01*
X5535218Y12305385D01*
X5534609Y12309449D01*
X5533694Y12313056D01*
X5532628Y12316206D01*
X5532628Y12354306D01*
X5519928Y12354306D01*
X5519928Y12331192D01*
X5515356Y12334900D01*
X5509717Y12337897D01*
X5503214Y12339878D01*
X5496052Y12340590D01*
X5490413Y12340234D01*
X5485079Y12339167D01*
X5480202Y12337491D01*
X5475732Y12335205D01*
X5471668Y12332411D01*
X5468112Y12329058D01*
X5465013Y12325248D01*
X5462473Y12321082D01*
X5460390Y12316460D01*
X5458917Y12311583D01*
X5458002Y12306401D01*
X5457698Y12300966D01*
X5469128Y12300966D01*
X5469636Y12305792D01*
X5471058Y12310364D01*
X5473395Y12314580D01*
X5476544Y12318238D01*
X5480507Y12321286D01*
X5485180Y12323622D01*
X5490565Y12325096D01*
X5496560Y12325604D01*
X5502351Y12325096D01*
X5507532Y12323622D01*
X5512054Y12321336D01*
X5515864Y12318339D01*
X5518912Y12314682D01*
X5521147Y12310516D01*
X5522518Y12305893D01*
X5522976Y12300966D01*
X5522518Y12296038D01*
X5521147Y12291415D01*
X5518962Y12287250D01*
X5515965Y12283592D01*
X5512155Y12280595D01*
X5507634Y12278309D01*
X5502452Y12276836D01*
X5496560Y12276328D01*
X5490565Y12276836D01*
X5485180Y12278309D01*
X5480507Y12280646D01*
X5476544Y12283694D01*
X5473395Y12287351D01*
X5471058Y12291568D01*
X5469636Y12296140D01*
X5469128Y12300966D01*
X5457698Y12300966D01*
X5457952Y12296800D01*
X5458663Y12292482D01*
X5459933Y12288215D01*
X5461762Y12284202D01*
X5459018Y12281357D01*
X5455920Y12279020D01*
X5452262Y12277394D01*
X5447792Y12276836D01*
X5442864Y12277801D01*
X5439054Y12281001D01*
X5436514Y12286996D01*
X5435600Y12296394D01*
X5435600Y12318238D01*
X5435193Y12327077D01*
X5434025Y12334748D01*
X5432094Y12341250D01*
X5429300Y12346584D01*
X5425643Y12350750D01*
X5421122Y12353696D01*
X5415737Y12355474D01*
G37*
G36*
X5422900Y12226544D02*
G01*
X5422900Y12212828D01*
X5436108Y12211304D01*
X5436108Y12210796D01*
X5432958Y12207392D01*
X5430012Y12203734D01*
X5427319Y12199772D01*
X5424982Y12195606D01*
X5423052Y12191187D01*
X5421630Y12186564D01*
X5420664Y12181738D01*
X5420577Y12180316D01*
X5434330Y12180316D01*
X5435346Y12188088D01*
X5438241Y12195454D01*
X5443118Y12202718D01*
X5449824Y12210034D01*
X5509260Y12210034D01*
X5514797Y12202820D01*
X5518607Y12195860D01*
X5520740Y12188901D01*
X5521452Y12181840D01*
X5521096Y12177318D01*
X5519978Y12172950D01*
X5518251Y12168835D01*
X5515813Y12165025D01*
X5512816Y12161520D01*
X5509209Y12158370D01*
X5505094Y12155627D01*
X5500471Y12153239D01*
X5495391Y12151360D01*
X5489905Y12149988D01*
X5484012Y12149124D01*
X5477764Y12148820D01*
X5471261Y12149074D01*
X5465216Y12149734D01*
X5459628Y12150902D01*
X5454548Y12152528D01*
X5449976Y12154560D01*
X5445963Y12157049D01*
X5442508Y12159945D01*
X5439613Y12163247D01*
X5437327Y12166904D01*
X5435701Y12171019D01*
X5434685Y12175490D01*
X5434330Y12180316D01*
X5420577Y12180316D01*
X5420360Y12176760D01*
X5420614Y12171730D01*
X5421325Y12166955D01*
X5422493Y12162383D01*
X5424170Y12158116D01*
X5426252Y12154103D01*
X5428792Y12150394D01*
X5431790Y12146991D01*
X5435244Y12143892D01*
X5439105Y12141098D01*
X5443423Y12138609D01*
X5448147Y12136526D01*
X5453278Y12134748D01*
X5458764Y12133376D01*
X5464708Y12132360D01*
X5471058Y12131751D01*
X5477764Y12131548D01*
X5484215Y12131802D01*
X5490362Y12132564D01*
X5496204Y12133783D01*
X5501690Y12135459D01*
X5506770Y12137542D01*
X5511546Y12140031D01*
X5515864Y12142825D01*
X5519826Y12145975D01*
X5523382Y12149429D01*
X5526481Y12153138D01*
X5529173Y12157100D01*
X5531358Y12161215D01*
X5533136Y12165533D01*
X5534406Y12170003D01*
X5535168Y12174626D01*
X5535422Y12179300D01*
X5534558Y12188291D01*
X5532018Y12196165D01*
X5527903Y12203531D01*
X5522468Y12210796D01*
X5541518Y12210034D01*
X5584698Y12210034D01*
X5584698Y12226544D01*
G37*
G36*
X5567680Y12104878D02*
G01*
X5562904Y12104014D01*
X5559298Y12101626D01*
X5557012Y12098020D01*
X5556250Y12093448D01*
X5557012Y12088774D01*
X5559298Y12085167D01*
X5562904Y12082830D01*
X5567680Y12082018D01*
X5572302Y12082830D01*
X5575858Y12085167D01*
X5578094Y12088774D01*
X5578856Y12093448D01*
X5578094Y12098020D01*
X5575858Y12101626D01*
X5572302Y12104014D01*
G37*
G36*
X5422900Y12101576D02*
G01*
X5422900Y12085320D01*
X5532628Y12085320D01*
X5532628Y12101576D01*
G37*
G36*
X5533136Y12066524D02*
G01*
X5518658Y12063222D01*
X5520029Y12058294D01*
X5520436Y12052808D01*
X5520080Y12049302D01*
X5519064Y12045594D01*
X5517286Y12041886D01*
X5514644Y12038126D01*
X5511088Y12034469D01*
X5506618Y12030964D01*
X5501132Y12027662D01*
X5494528Y12024614D01*
X5422900Y12024614D01*
X5422900Y12008104D01*
X5532628Y12008104D01*
X5532628Y12021566D01*
X5512562Y12023344D01*
X5512562Y12023852D01*
X5517489Y12026849D01*
X5521909Y12030202D01*
X5525820Y12033808D01*
X5529122Y12037618D01*
X5531815Y12041682D01*
X5533796Y12045950D01*
X5535015Y12050318D01*
X5535422Y12054840D01*
X5535320Y12058192D01*
X5534964Y12061139D01*
X5534253Y12063882D01*
G37*
G36*
X5466334Y11979656D02*
G01*
X5461050Y11979402D01*
X5456174Y11978589D01*
X5451551Y11977319D01*
X5447334Y11975541D01*
X5443423Y11973356D01*
X5439867Y11970664D01*
X5436666Y11967565D01*
X5433771Y11964060D01*
X5431231Y11960148D01*
X5428996Y11955881D01*
X5427116Y11951309D01*
X5425592Y11946331D01*
X5424424Y11941048D01*
X5423560Y11935510D01*
X5423052Y11929618D01*
X5422900Y11894058D01*
X5436362Y11894058D01*
X5436362Y11920728D01*
X5436565Y11927128D01*
X5437174Y11933072D01*
X5438140Y11938558D01*
X5439613Y11943537D01*
X5441442Y11948007D01*
X5443728Y11951970D01*
X5446471Y11955373D01*
X5449620Y11958218D01*
X5453278Y11960453D01*
X5457393Y11962079D01*
X5462016Y11963044D01*
X5467096Y11963400D01*
X5471617Y11963095D01*
X5475782Y11962130D01*
X5479440Y11960555D01*
X5482742Y11958370D01*
X5485638Y11955627D01*
X5488076Y11952274D01*
X5490159Y11948363D01*
X5491835Y11943892D01*
X5493156Y11938863D01*
X5494070Y11933326D01*
X5494578Y11927281D01*
X5494782Y11920728D01*
X5494782Y11894058D01*
X5507736Y11894058D01*
X5507736Y11916664D01*
X5508193Y11926011D01*
X5509514Y11933885D01*
X5511698Y11940387D01*
X5514644Y11945569D01*
X5518302Y11949480D01*
X5522620Y11952173D01*
X5527598Y11953748D01*
X5533136Y11954256D01*
X5539486Y11953697D01*
X5544769Y11951970D01*
X5549138Y11949125D01*
X5552541Y11945112D01*
X5555132Y11939981D01*
X5556910Y11933682D01*
X5557926Y11926265D01*
X5558282Y11917680D01*
X5558282Y11894058D01*
X5422900Y11894058D01*
X5422900Y11877040D01*
X5571744Y11877040D01*
X5571744Y11920220D01*
X5571540Y11927586D01*
X5570829Y11934494D01*
X5569661Y11940895D01*
X5568035Y11946839D01*
X5565851Y11952173D01*
X5563158Y11956948D01*
X5559958Y11961114D01*
X5556148Y11964568D01*
X5551830Y11967311D01*
X5546852Y11969343D01*
X5541314Y11970613D01*
X5535168Y11971020D01*
X5529732Y11970664D01*
X5524601Y11969546D01*
X5519775Y11967768D01*
X5515305Y11965330D01*
X5511342Y11962180D01*
X5507939Y11958370D01*
X5505094Y11953951D01*
X5502910Y11948922D01*
X5502148Y11948922D01*
X5500420Y11955475D01*
X5497931Y11961418D01*
X5494629Y11966702D01*
X5490514Y11971172D01*
X5485638Y11974728D01*
X5479999Y11977420D01*
X5473547Y11979097D01*
G37*
G36*
X5532628Y11808460D02*
G01*
X5407609Y11764619D01*
X5402681Y11762536D01*
X5398058Y11760200D01*
X5393690Y11757660D01*
X5389626Y11754916D01*
X5386019Y11751868D01*
X5382818Y11748516D01*
X5380075Y11744858D01*
X5377891Y11740845D01*
X5376265Y11736527D01*
X5375249Y11731802D01*
X5374894Y11726672D01*
X5375046Y11723065D01*
X5375452Y11719763D01*
X5376164Y11716766D01*
X5377180Y11713972D01*
X5390642Y11717528D01*
X5389473Y11721338D01*
X5389016Y11723624D01*
X5388864Y11725910D01*
X5389372Y11730482D01*
X5390743Y11734596D01*
X5392978Y11738356D01*
X5395976Y11741708D01*
X5399633Y11744655D01*
X5403850Y11747296D01*
X5408625Y11749582D01*
X5413756Y11751564D01*
X5422392Y11754104D01*
X5532628Y11709654D01*
X5532628Y11726926D01*
X5462371Y11752986D01*
X5438902Y11761216D01*
X5438902Y11762232D01*
X5469890Y11771630D01*
X5532628Y11792204D01*
G37*
G36*
X5452364Y11699494D02*
G01*
X5445963Y11698833D01*
X5439968Y11696954D01*
X5434533Y11693804D01*
X5429808Y11689486D01*
X5425846Y11683898D01*
X5422900Y11677192D01*
X5421020Y11669369D01*
X5420360Y11660378D01*
X5420664Y11654536D01*
X5421477Y11648795D01*
X5422849Y11643258D01*
X5424627Y11637924D01*
X5426811Y11632844D01*
X5429351Y11628069D01*
X5432247Y11623598D01*
X5435346Y11619484D01*
X5446522Y11627866D01*
X5441137Y11635079D01*
X5436971Y11642750D01*
X5434279Y11651284D01*
X5433314Y11660886D01*
X5434736Y11670893D01*
X5438648Y11678005D01*
X5444439Y11682323D01*
X5451602Y11683746D01*
X5455716Y11683136D01*
X5459272Y11681510D01*
X5462371Y11678920D01*
X5465064Y11675567D01*
X5467451Y11671655D01*
X5469534Y11667337D01*
X5475376Y11652148D01*
X5477865Y11646357D01*
X5480710Y11640870D01*
X5484063Y11635943D01*
X5488025Y11631726D01*
X5492750Y11628424D01*
X5498236Y11626342D01*
X5504688Y11625580D01*
X5510987Y11626240D01*
X5516778Y11628069D01*
X5522010Y11631168D01*
X5526532Y11635384D01*
X5530240Y11640718D01*
X5533034Y11647119D01*
X5534812Y11654536D01*
X5535422Y11662918D01*
X5534456Y11672570D01*
X5531916Y11681460D01*
X5528005Y11689435D01*
X5523230Y11696192D01*
X5512562Y11688064D01*
X5516321Y11682425D01*
X5519369Y11676430D01*
X5521452Y11669979D01*
X5522214Y11662918D01*
X5520893Y11653469D01*
X5517286Y11646814D01*
X5512054Y11642902D01*
X5505704Y11641582D01*
X5498541Y11643563D01*
X5493308Y11648897D01*
X5489346Y11656568D01*
X5483504Y11671757D01*
X5480913Y11677751D01*
X5477967Y11683441D01*
X5474563Y11688622D01*
X5470448Y11693042D01*
X5465521Y11696446D01*
X5459526Y11698681D01*
G37*
G36*
X5422900Y11595608D02*
G01*
X5422900Y11578844D01*
X5490464Y11578844D01*
X5497880Y11578539D01*
X5504230Y11577574D01*
X5509463Y11575948D01*
X5513679Y11573611D01*
X5516930Y11570614D01*
X5519166Y11566855D01*
X5520486Y11562334D01*
X5520944Y11557000D01*
X5520639Y11552834D01*
X5519826Y11548922D01*
X5518404Y11545112D01*
X5516422Y11541404D01*
X5513933Y11537645D01*
X5510885Y11533835D01*
X5503164Y11525758D01*
X5422900Y11525758D01*
X5422900Y11509248D01*
X5532628Y11509248D01*
X5532628Y11522710D01*
X5516626Y11524488D01*
X5516626Y11524996D01*
X5520436Y11529009D01*
X5523941Y11533124D01*
X5527141Y11537391D01*
X5529935Y11541810D01*
X5532221Y11546484D01*
X5533948Y11551361D01*
X5535066Y11556542D01*
X5535422Y11562080D01*
X5535117Y11567566D01*
X5534202Y11572494D01*
X5532678Y11576964D01*
X5530545Y11580926D01*
X5527852Y11584432D01*
X5524550Y11587429D01*
X5520639Y11589918D01*
X5516168Y11592001D01*
X5511088Y11593576D01*
X5505450Y11594693D01*
X5499252Y11595404D01*
X5492496Y11595608D01*
G37*
G36*
X5484114Y11481562D02*
G01*
X5478678Y11481358D01*
X5474208Y11480800D01*
X5474208Y11466830D01*
X5486400Y11466830D01*
X5494629Y11466322D01*
X5501792Y11464899D01*
X5507939Y11462562D01*
X5512968Y11459362D01*
X5516880Y11455298D01*
X5519674Y11450421D01*
X5521401Y11444782D01*
X5521960Y11438382D01*
X5521350Y11432387D01*
X5519521Y11426698D01*
X5516626Y11421414D01*
X5512562Y11416690D01*
X5507482Y11412575D01*
X5501386Y11409324D01*
X5494324Y11406936D01*
X5486400Y11405616D01*
X5486400Y11466830D01*
X5474208Y11466830D01*
X5474208Y11405616D01*
X5468264Y11406174D01*
X5462727Y11407241D01*
X5457545Y11408867D01*
X5452821Y11410950D01*
X5448554Y11413540D01*
X5444744Y11416588D01*
X5441442Y11420094D01*
X5438698Y11423954D01*
X5436463Y11428272D01*
X5434888Y11432895D01*
X5433923Y11437874D01*
X5433568Y11443208D01*
X5434177Y11451031D01*
X5435904Y11458244D01*
X5438698Y11464899D01*
X5442458Y11471148D01*
X5431536Y11477244D01*
X5427218Y11469674D01*
X5425338Y11465610D01*
X5423662Y11461292D01*
X5422290Y11456720D01*
X5421274Y11451894D01*
X5420614Y11446713D01*
X5420360Y11441176D01*
X5420614Y11435842D01*
X5421325Y11430711D01*
X5422544Y11425732D01*
X5424271Y11420957D01*
X5426405Y11416436D01*
X5428996Y11412169D01*
X5432044Y11408156D01*
X5435549Y11404498D01*
X5439460Y11401145D01*
X5443728Y11398199D01*
X5448452Y11395608D01*
X5453583Y11393424D01*
X5459069Y11391696D01*
X5464962Y11390426D01*
X5471160Y11389614D01*
X5477764Y11389360D01*
X5484266Y11389614D01*
X5490464Y11390426D01*
X5496306Y11391696D01*
X5501792Y11393424D01*
X5506872Y11395608D01*
X5511647Y11398148D01*
X5515965Y11401094D01*
X5519928Y11404295D01*
X5523433Y11407851D01*
X5526532Y11411661D01*
X5529224Y11415674D01*
X5531408Y11419890D01*
X5533136Y11424310D01*
X5534406Y11428831D01*
X5535168Y11433454D01*
X5535422Y11438128D01*
X5535015Y11444732D01*
X5533847Y11450878D01*
X5531866Y11456466D01*
X5529173Y11461597D01*
X5525770Y11466118D01*
X5521655Y11470132D01*
X5516930Y11473535D01*
X5511546Y11476380D01*
X5505500Y11478615D01*
X5498947Y11480241D01*
X5491784Y11481206D01*
G37*
G36*
X5484114Y11370056D02*
G01*
X5478678Y11369852D01*
X5474208Y11369040D01*
X5474208Y11355324D01*
X5486400Y11355324D01*
X5494629Y11354816D01*
X5501792Y11353393D01*
X5507939Y11351006D01*
X5512968Y11347754D01*
X5516880Y11343690D01*
X5519674Y11338814D01*
X5521401Y11333226D01*
X5521960Y11326876D01*
X5521350Y11320881D01*
X5519521Y11315192D01*
X5516626Y11309908D01*
X5512562Y11305133D01*
X5507482Y11301018D01*
X5501386Y11297716D01*
X5494324Y11295278D01*
X5486400Y11293856D01*
X5486400Y11355324D01*
X5474208Y11355324D01*
X5474208Y11294110D01*
X5468264Y11294668D01*
X5462727Y11295735D01*
X5457545Y11297361D01*
X5452821Y11299444D01*
X5448554Y11302034D01*
X5444744Y11305082D01*
X5441442Y11308588D01*
X5438698Y11312448D01*
X5436463Y11316766D01*
X5434888Y11321389D01*
X5433923Y11326368D01*
X5433568Y11331702D01*
X5434177Y11339525D01*
X5435904Y11346738D01*
X5438698Y11353393D01*
X5442458Y11359642D01*
X5431536Y11365738D01*
X5427218Y11358168D01*
X5425338Y11354104D01*
X5423662Y11349786D01*
X5422290Y11345214D01*
X5421274Y11340388D01*
X5420614Y11335207D01*
X5420360Y11329670D01*
X5420614Y11324336D01*
X5421325Y11319205D01*
X5422544Y11314226D01*
X5424271Y11309400D01*
X5426405Y11304879D01*
X5428996Y11300561D01*
X5432044Y11296548D01*
X5435549Y11292890D01*
X5439460Y11289487D01*
X5443728Y11286490D01*
X5448452Y11283899D01*
X5453583Y11281714D01*
X5459069Y11279936D01*
X5464962Y11278666D01*
X5471160Y11277854D01*
X5477764Y11277600D01*
X5484266Y11277854D01*
X5490464Y11278666D01*
X5496306Y11279987D01*
X5501792Y11281714D01*
X5506872Y11283899D01*
X5511647Y11286490D01*
X5515965Y11289436D01*
X5519928Y11292687D01*
X5523433Y11296243D01*
X5526532Y11300053D01*
X5529224Y11304117D01*
X5531408Y11308334D01*
X5533136Y11312753D01*
X5534406Y11317274D01*
X5535168Y11321948D01*
X5535422Y11326622D01*
X5535015Y11333226D01*
X5533847Y11339372D01*
X5531866Y11344960D01*
X5529173Y11350091D01*
X5525770Y11354612D01*
X5521655Y11358626D01*
X5516930Y11362029D01*
X5511546Y11364874D01*
X5505500Y11367109D01*
X5498947Y11368735D01*
X5491784Y11369700D01*
G37*
G36*
X5557520Y11275314D02*
G01*
X5557520Y11229848D01*
X5422900Y11229848D01*
X5422900Y11212576D01*
X5557520Y11212576D01*
X5557520Y11167364D01*
X5571744Y11167364D01*
X5571744Y11275314D01*
G37*
G36*
X5473192Y11162284D02*
G01*
X5473192Y11110976D01*
X5486146Y11110976D01*
X5486146Y11162284D01*
G37*
G36*
X5422900Y11091164D02*
G01*
X5422900Y10999216D01*
X5432806Y10999216D01*
X5444896Y11012678D01*
X5456377Y11024565D01*
X5467248Y11034979D01*
X5477560Y11043869D01*
X5487365Y11051336D01*
X5496661Y11057331D01*
X5501182Y11059820D01*
X5509869Y11063782D01*
X5518200Y11066373D01*
X5526227Y11067643D01*
X5530088Y11067796D01*
X5536438Y11067389D01*
X5542280Y11066119D01*
X5547512Y11063986D01*
X5552033Y11060938D01*
X5555742Y11057026D01*
X5558485Y11052149D01*
X5560212Y11046358D01*
X5560822Y11039602D01*
X5560466Y11035030D01*
X5559501Y11030610D01*
X5557875Y11026343D01*
X5555792Y11022279D01*
X5553202Y11018418D01*
X5550204Y11014710D01*
X5546902Y11011204D01*
X5543296Y11007852D01*
X5552440Y10998200D01*
X5557164Y11002721D01*
X5561431Y11007394D01*
X5565140Y11012220D01*
X5568340Y11017300D01*
X5570829Y11022736D01*
X5572709Y11028476D01*
X5573877Y11034674D01*
X5574284Y11041380D01*
X5573928Y11047780D01*
X5572912Y11053724D01*
X5571236Y11059210D01*
X5568899Y11064189D01*
X5565952Y11068659D01*
X5562447Y11072622D01*
X5558434Y11076025D01*
X5553862Y11078870D01*
X5548782Y11081105D01*
X5543245Y11082731D01*
X5537250Y11083696D01*
X5530850Y11084052D01*
X5526328Y11083899D01*
X5521756Y11083340D01*
X5517235Y11082477D01*
X5512663Y11081308D01*
X5508091Y11079784D01*
X5503468Y11077956D01*
X5494223Y11073434D01*
X5484876Y11067694D01*
X5475376Y11060887D01*
X5465775Y11053064D01*
X5456021Y11044275D01*
X5446014Y11034623D01*
X5435854Y11024108D01*
X5436768Y11036401D01*
X5437124Y11048492D01*
X5437124Y11091164D01*
G37*
G36*
X5497830Y10979658D02*
G01*
X5488381Y10979454D01*
X5479542Y10978845D01*
X5471363Y10977880D01*
X5463743Y10976457D01*
X5456783Y10974730D01*
X5450433Y10972647D01*
X5444693Y10970209D01*
X5439562Y10967415D01*
X5435041Y10964265D01*
X5431129Y10960862D01*
X5427827Y10957102D01*
X5425135Y10953089D01*
X5423052Y10948771D01*
X5421528Y10944148D01*
X5420664Y10939322D01*
X5420360Y10934192D01*
X5433568Y10934192D01*
X5433974Y10938459D01*
X5435244Y10942472D01*
X5437378Y10946180D01*
X5440426Y10949635D01*
X5444337Y10952734D01*
X5449112Y10955477D01*
X5454853Y10957915D01*
X5461508Y10959896D01*
X5469128Y10961522D01*
X5477713Y10962690D01*
X5487263Y10963402D01*
X5497830Y10963656D01*
X5508193Y10963402D01*
X5517591Y10962690D01*
X5525973Y10961522D01*
X5533440Y10959896D01*
X5539994Y10957915D01*
X5545632Y10955477D01*
X5550306Y10952734D01*
X5554167Y10949635D01*
X5557062Y10946180D01*
X5559196Y10942472D01*
X5560415Y10938459D01*
X5560822Y10934192D01*
X5560415Y10929924D01*
X5559196Y10925911D01*
X5557062Y10922203D01*
X5554167Y10918748D01*
X5550306Y10915650D01*
X5545632Y10912906D01*
X5539994Y10910468D01*
X5533440Y10908487D01*
X5525973Y10906861D01*
X5517591Y10905693D01*
X5508193Y10904982D01*
X5497830Y10904728D01*
X5487263Y10904982D01*
X5477713Y10905693D01*
X5469128Y10906861D01*
X5461508Y10908487D01*
X5454853Y10910468D01*
X5449112Y10912906D01*
X5444337Y10915650D01*
X5440426Y10918748D01*
X5437378Y10922203D01*
X5435244Y10925911D01*
X5433974Y10929924D01*
X5433568Y10934192D01*
X5420360Y10934192D01*
X5420664Y10929061D01*
X5421528Y10924184D01*
X5423052Y10919612D01*
X5425135Y10915243D01*
X5427827Y10911230D01*
X5431129Y10907471D01*
X5435041Y10904016D01*
X5439562Y10900867D01*
X5444693Y10898022D01*
X5450433Y10895584D01*
X5456783Y10893450D01*
X5463743Y10891672D01*
X5471363Y10890300D01*
X5479542Y10889284D01*
X5488381Y10888675D01*
X5497830Y10888472D01*
X5507177Y10888675D01*
X5515914Y10889284D01*
X5524042Y10890300D01*
X5531510Y10891672D01*
X5538419Y10893450D01*
X5544667Y10895584D01*
X5550357Y10898022D01*
X5555386Y10900867D01*
X5559856Y10904016D01*
X5563666Y10907471D01*
X5566918Y10911230D01*
X5569610Y10915243D01*
X5571642Y10919612D01*
X5573115Y10924184D01*
X5573979Y10929061D01*
X5574284Y10934192D01*
X5573979Y10939322D01*
X5573115Y10944148D01*
X5571642Y10948771D01*
X5569610Y10953089D01*
X5566918Y10957102D01*
X5563666Y10960862D01*
X5559856Y10964265D01*
X5555386Y10967415D01*
X5550357Y10970209D01*
X5544667Y10972647D01*
X5538419Y10974730D01*
X5531510Y10976508D01*
X5524042Y10977880D01*
X5515914Y10978845D01*
X5507177Y10979454D01*
G37*
G36*
X5471160Y10867390D02*
G01*
X5463336Y10866932D01*
X5456123Y10865561D01*
X5449519Y10863376D01*
X5443524Y10860430D01*
X5438241Y10856823D01*
X5433568Y10852607D01*
X5429605Y10847933D01*
X5426303Y10842802D01*
X5423712Y10837265D01*
X5421884Y10831474D01*
X5420715Y10825480D01*
X5420360Y10819384D01*
X5420817Y10811154D01*
X5422036Y10803737D01*
X5423916Y10797032D01*
X5426405Y10791088D01*
X5429351Y10785703D01*
X5432704Y10780877D01*
X5436209Y10776559D01*
X5439918Y10772648D01*
X5450840Y10780776D01*
X5447639Y10784128D01*
X5444591Y10787735D01*
X5441746Y10791698D01*
X5439206Y10796016D01*
X5437124Y10800740D01*
X5435498Y10805972D01*
X5434431Y10811764D01*
X5434076Y10818114D01*
X5434736Y10824616D01*
X5436666Y10830712D01*
X5439765Y10836300D01*
X5443982Y10841177D01*
X5449265Y10845190D01*
X5455513Y10848238D01*
X5462676Y10850219D01*
X5470652Y10850880D01*
X5478424Y10850321D01*
X5485333Y10848594D01*
X5491327Y10845850D01*
X5496356Y10842142D01*
X5500370Y10837468D01*
X5503316Y10832033D01*
X5505094Y10825784D01*
X5505704Y10818876D01*
X5505145Y10811814D01*
X5503468Y10805617D01*
X5500674Y10799775D01*
X5496814Y10793730D01*
X5502656Y10784586D01*
X5571744Y10789158D01*
X5571744Y10860278D01*
X5557520Y10860278D01*
X5557520Y10803890D01*
X5512308Y10799826D01*
X5514898Y10805007D01*
X5516930Y10810443D01*
X5518200Y10816336D01*
X5518658Y10822940D01*
X5518353Y10828985D01*
X5517438Y10834776D01*
X5515864Y10840262D01*
X5513628Y10845393D01*
X5510733Y10850118D01*
X5507177Y10854385D01*
X5502960Y10858144D01*
X5498033Y10861344D01*
X5492394Y10863884D01*
X5486044Y10865815D01*
X5478983Y10866983D01*
G37*
G36*
X5468366Y10757916D02*
G01*
X5461406Y10757509D01*
X5454853Y10756392D01*
X5448757Y10754563D01*
X5443169Y10752074D01*
X5438089Y10749026D01*
X5433618Y10745419D01*
X5429707Y10741406D01*
X5426405Y10736935D01*
X5423814Y10732109D01*
X5421934Y10726978D01*
X5420766Y10721594D01*
X5420360Y10716006D01*
X5433568Y10716006D01*
X5434228Y10721441D01*
X5436108Y10726420D01*
X5439156Y10730890D01*
X5443270Y10734700D01*
X5448300Y10737850D01*
X5454243Y10740186D01*
X5460949Y10741660D01*
X5468366Y10742168D01*
X5475732Y10741761D01*
X5482386Y10740491D01*
X5488279Y10738358D01*
X5493207Y10735360D01*
X5497220Y10731449D01*
X5500166Y10726623D01*
X5502046Y10720882D01*
X5502656Y10714228D01*
X5502402Y10710621D01*
X5501538Y10706811D01*
X5500116Y10702899D01*
X5498084Y10698886D01*
X5495340Y10694873D01*
X5491937Y10690809D01*
X5487771Y10686846D01*
X5482844Y10682986D01*
X5475274Y10683697D01*
X5468264Y10684764D01*
X5461863Y10686237D01*
X5456072Y10688116D01*
X5450890Y10690352D01*
X5446420Y10692942D01*
X5442559Y10695889D01*
X5439359Y10699191D01*
X5436819Y10702899D01*
X5435041Y10706912D01*
X5433923Y10711281D01*
X5433568Y10716006D01*
X5420360Y10716006D01*
X5420664Y10710722D01*
X5421528Y10705642D01*
X5422950Y10700816D01*
X5424982Y10696244D01*
X5427573Y10691926D01*
X5430723Y10687862D01*
X5434431Y10684154D01*
X5438749Y10680750D01*
X5443626Y10677652D01*
X5449062Y10674908D01*
X5455056Y10672572D01*
X5461609Y10670590D01*
X5468721Y10669066D01*
X5476443Y10667898D01*
X5484672Y10667238D01*
X5493512Y10666984D01*
X5502097Y10667187D01*
X5510072Y10667746D01*
X5517591Y10668660D01*
X5524550Y10669930D01*
X5531002Y10671454D01*
X5536946Y10673334D01*
X5542432Y10675518D01*
X5547410Y10677906D01*
X5551932Y10680598D01*
X5555996Y10683494D01*
X5559602Y10686592D01*
X5562803Y10689894D01*
X5565597Y10693400D01*
X5567984Y10697057D01*
X5569966Y10700867D01*
X5571540Y10704779D01*
X5572760Y10708792D01*
X5573623Y10712907D01*
X5574131Y10717072D01*
X5574284Y10721340D01*
X5573979Y10726775D01*
X5573166Y10731855D01*
X5571845Y10736529D01*
X5570067Y10740948D01*
X5567883Y10744962D01*
X5565394Y10748721D01*
X5562600Y10752175D01*
X5559552Y10755376D01*
X5549138Y10745978D01*
X5553913Y10740898D01*
X5557520Y10735056D01*
X5559806Y10728604D01*
X5560568Y10721848D01*
X5560364Y10717987D01*
X5559755Y10714228D01*
X5558739Y10710570D01*
X5557266Y10707014D01*
X5555335Y10703661D01*
X5552897Y10700461D01*
X5550001Y10697413D01*
X5546496Y10694619D01*
X5542483Y10692079D01*
X5537860Y10689793D01*
X5532628Y10687761D01*
X5526836Y10686034D01*
X5520334Y10684611D01*
X5513171Y10683544D01*
X5505348Y10682833D01*
X5496814Y10682478D01*
X5500776Y10686135D01*
X5504332Y10690098D01*
X5507431Y10694314D01*
X5510022Y10698683D01*
X5512104Y10703153D01*
X5513578Y10707674D01*
X5514543Y10712246D01*
X5514848Y10716768D01*
X5514543Y10722914D01*
X5513578Y10728655D01*
X5511952Y10733887D01*
X5509666Y10738713D01*
X5506770Y10743031D01*
X5503214Y10746841D01*
X5499049Y10750143D01*
X5494172Y10752886D01*
X5488686Y10755071D01*
X5482590Y10756646D01*
X5475782Y10757611D01*
G37*
G36*
X5153914Y11825478D02*
G01*
X5148478Y11825274D01*
X5144008Y11824716D01*
X5144008Y11810746D01*
X5156200Y11810746D01*
X5164429Y11810238D01*
X5171592Y11808815D01*
X5177739Y11806478D01*
X5182768Y11803278D01*
X5186680Y11799214D01*
X5189474Y11794337D01*
X5191201Y11788698D01*
X5191760Y11782298D01*
X5191150Y11776303D01*
X5189321Y11770614D01*
X5186426Y11765330D01*
X5182362Y11760555D01*
X5177282Y11756491D01*
X5171186Y11753240D01*
X5164124Y11750852D01*
X5156200Y11749532D01*
X5156200Y11810746D01*
X5144008Y11810746D01*
X5144008Y11749532D01*
X5138064Y11750090D01*
X5132527Y11751157D01*
X5127345Y11752783D01*
X5122621Y11754866D01*
X5118354Y11757456D01*
X5114544Y11760504D01*
X5111242Y11764010D01*
X5108498Y11767870D01*
X5106263Y11772188D01*
X5104688Y11776811D01*
X5103723Y11781790D01*
X5103368Y11787124D01*
X5103977Y11794947D01*
X5105704Y11802160D01*
X5108498Y11808815D01*
X5112258Y11815064D01*
X5101336Y11821160D01*
X5097018Y11813590D01*
X5095138Y11809526D01*
X5093462Y11805208D01*
X5092090Y11800636D01*
X5091074Y11795810D01*
X5090414Y11790629D01*
X5090160Y11785092D01*
X5090414Y11779758D01*
X5091125Y11774627D01*
X5092344Y11769648D01*
X5094071Y11764873D01*
X5096205Y11760352D01*
X5098796Y11756085D01*
X5101844Y11752072D01*
X5105349Y11748414D01*
X5109260Y11745061D01*
X5113528Y11742115D01*
X5118252Y11739524D01*
X5123383Y11737340D01*
X5128869Y11735612D01*
X5134762Y11734342D01*
X5140960Y11733530D01*
X5147564Y11733276D01*
X5154066Y11733530D01*
X5160264Y11734342D01*
X5166106Y11735612D01*
X5171592Y11737340D01*
X5176672Y11739524D01*
X5181447Y11742064D01*
X5185765Y11745010D01*
X5189728Y11748211D01*
X5193233Y11751767D01*
X5196332Y11755577D01*
X5199024Y11759590D01*
X5201208Y11763806D01*
X5202936Y11768226D01*
X5204206Y11772747D01*
X5204968Y11777370D01*
X5205222Y11782044D01*
X5204815Y11788648D01*
X5203647Y11794794D01*
X5201666Y11800382D01*
X5198973Y11805513D01*
X5195570Y11810034D01*
X5191455Y11814048D01*
X5186730Y11817451D01*
X5181346Y11820296D01*
X5175300Y11822531D01*
X5168747Y11824157D01*
X5161584Y11825122D01*
G37*
G36*
X5092700Y11703304D02*
G01*
X5092700Y11689588D01*
X5105908Y11688318D01*
X5105908Y11687556D01*
X5102758Y11684152D01*
X5099812Y11680545D01*
X5097119Y11676634D01*
X5094782Y11672468D01*
X5092852Y11668099D01*
X5091430Y11663527D01*
X5090464Y11658752D01*
X5090362Y11657076D01*
X5104130Y11657076D01*
X5105146Y11664848D01*
X5108041Y11672316D01*
X5112918Y11679580D01*
X5119624Y11686794D01*
X5179060Y11686794D01*
X5184597Y11679580D01*
X5188407Y11672620D01*
X5190540Y11665813D01*
X5191252Y11658854D01*
X5190896Y11654231D01*
X5189778Y11649862D01*
X5188051Y11645747D01*
X5185613Y11641886D01*
X5182616Y11638330D01*
X5179009Y11635181D01*
X5174894Y11632387D01*
X5170271Y11630050D01*
X5165191Y11628120D01*
X5159705Y11626748D01*
X5153812Y11625884D01*
X5147564Y11625580D01*
X5141061Y11625834D01*
X5135016Y11626494D01*
X5129428Y11627662D01*
X5124348Y11629288D01*
X5119776Y11631320D01*
X5115763Y11633809D01*
X5112308Y11636705D01*
X5109413Y11640007D01*
X5107127Y11643664D01*
X5105501Y11647779D01*
X5104485Y11652250D01*
X5104130Y11657076D01*
X5090362Y11657076D01*
X5090160Y11653774D01*
X5090414Y11648694D01*
X5091125Y11643868D01*
X5092293Y11639296D01*
X5093970Y11634978D01*
X5096052Y11630964D01*
X5098592Y11627205D01*
X5101590Y11623802D01*
X5105044Y11620652D01*
X5108905Y11617858D01*
X5113223Y11615369D01*
X5117947Y11613286D01*
X5123078Y11611508D01*
X5128564Y11610136D01*
X5134508Y11609120D01*
X5140858Y11608511D01*
X5147564Y11608308D01*
X5154015Y11608562D01*
X5160162Y11609324D01*
X5166004Y11610543D01*
X5171490Y11612219D01*
X5176570Y11614302D01*
X5181346Y11616791D01*
X5185664Y11619585D01*
X5189626Y11622735D01*
X5193182Y11626189D01*
X5196281Y11629898D01*
X5198973Y11633860D01*
X5201158Y11637975D01*
X5202936Y11642293D01*
X5204206Y11646763D01*
X5204968Y11651386D01*
X5205222Y11656060D01*
X5204358Y11665153D01*
X5201818Y11673027D01*
X5197703Y11680291D01*
X5192268Y11687556D01*
X5211318Y11686794D01*
X5254498Y11686794D01*
X5254498Y11703304D01*
G37*
G36*
X5147564Y11586972D02*
G01*
X5140909Y11586718D01*
X5134660Y11585905D01*
X5128768Y11584584D01*
X5123281Y11582806D01*
X5118150Y11580622D01*
X5113426Y11577980D01*
X5109108Y11574983D01*
X5105247Y11571681D01*
X5101793Y11568023D01*
X5098745Y11564061D01*
X5096154Y11559895D01*
X5094020Y11555476D01*
X5092344Y11550853D01*
X5091125Y11546078D01*
X5090414Y11541201D01*
X5090160Y11536172D01*
X5103876Y11536172D01*
X5104231Y11540998D01*
X5105298Y11545519D01*
X5107025Y11549786D01*
X5109413Y11553647D01*
X5112359Y11557203D01*
X5115915Y11560352D01*
X5119979Y11563096D01*
X5124602Y11565432D01*
X5129682Y11567261D01*
X5135219Y11568582D01*
X5141214Y11569395D01*
X5147564Y11569700D01*
X5153863Y11569395D01*
X5159806Y11568582D01*
X5165344Y11567261D01*
X5170424Y11565432D01*
X5174996Y11563096D01*
X5179110Y11560352D01*
X5182666Y11557203D01*
X5185664Y11553647D01*
X5188051Y11549786D01*
X5189829Y11545519D01*
X5190896Y11540998D01*
X5191252Y11536172D01*
X5190896Y11531396D01*
X5189829Y11526926D01*
X5188051Y11522710D01*
X5185664Y11518849D01*
X5182666Y11515344D01*
X5179110Y11512194D01*
X5174996Y11509451D01*
X5170424Y11507165D01*
X5165344Y11505336D01*
X5159806Y11504015D01*
X5153863Y11503202D01*
X5147564Y11502898D01*
X5141214Y11503202D01*
X5135219Y11504015D01*
X5129682Y11505336D01*
X5124602Y11507165D01*
X5119979Y11509451D01*
X5115915Y11512194D01*
X5112359Y11515344D01*
X5109413Y11518849D01*
X5107025Y11522710D01*
X5105298Y11526926D01*
X5104231Y11531396D01*
X5103876Y11536172D01*
X5090160Y11536172D01*
X5090414Y11531193D01*
X5091125Y11526367D01*
X5092344Y11521643D01*
X5094020Y11517071D01*
X5096154Y11512702D01*
X5098745Y11508536D01*
X5101793Y11504625D01*
X5105247Y11501018D01*
X5109108Y11497716D01*
X5113426Y11494770D01*
X5118150Y11492179D01*
X5123281Y11489994D01*
X5128768Y11488216D01*
X5134660Y11486946D01*
X5140909Y11486134D01*
X5147564Y11485880D01*
X5154218Y11486134D01*
X5160518Y11486946D01*
X5166461Y11488216D01*
X5171998Y11489994D01*
X5177129Y11492179D01*
X5181904Y11494770D01*
X5186222Y11497716D01*
X5190134Y11501018D01*
X5193588Y11504625D01*
X5196636Y11508536D01*
X5199227Y11512702D01*
X5201361Y11517071D01*
X5203037Y11521643D01*
X5204256Y11526367D01*
X5204968Y11531193D01*
X5205222Y11536172D01*
X5204968Y11541201D01*
X5204256Y11546078D01*
X5203037Y11550853D01*
X5201361Y11555476D01*
X5199227Y11559895D01*
X5196636Y11564061D01*
X5193588Y11568023D01*
X5190134Y11571681D01*
X5186222Y11574983D01*
X5181904Y11577980D01*
X5177129Y11580622D01*
X5171998Y11582806D01*
X5166461Y11584584D01*
X5160518Y11585905D01*
X5154218Y11586718D01*
G37*
G36*
X5111496Y11467592D02*
G01*
X5106619Y11463070D01*
X5102352Y11458295D01*
X5098694Y11453266D01*
X5095697Y11447830D01*
X5093309Y11442090D01*
X5091582Y11435943D01*
X5090515Y11429390D01*
X5090160Y11422380D01*
X5090363Y11416944D01*
X5091023Y11411661D01*
X5092090Y11406530D01*
X5093512Y11401602D01*
X5095392Y11396827D01*
X5097678Y11392306D01*
X5100320Y11387988D01*
X5103368Y11383924D01*
X5106771Y11380114D01*
X5110530Y11376558D01*
X5114696Y11373307D01*
X5119166Y11370310D01*
X5124043Y11367617D01*
X5129225Y11365230D01*
X5134762Y11363198D01*
X5140604Y11361470D01*
X5146751Y11360150D01*
X5153253Y11359184D01*
X5160010Y11358575D01*
X5167122Y11358372D01*
X5174132Y11358575D01*
X5180888Y11359184D01*
X5187340Y11360150D01*
X5193487Y11361521D01*
X5199278Y11363248D01*
X5204815Y11365331D01*
X5209997Y11367719D01*
X5214823Y11370411D01*
X5219344Y11373459D01*
X5223510Y11376761D01*
X5227320Y11380368D01*
X5230723Y11384280D01*
X5233822Y11388394D01*
X5236464Y11392763D01*
X5238750Y11397386D01*
X5240680Y11402212D01*
X5242153Y11407241D01*
X5243220Y11412423D01*
X5243880Y11417858D01*
X5244084Y11423396D01*
X5243677Y11430050D01*
X5242610Y11436248D01*
X5240832Y11442039D01*
X5238597Y11447322D01*
X5235905Y11452199D01*
X5232857Y11456619D01*
X5229504Y11460581D01*
X5226050Y11464036D01*
X5215128Y11454638D01*
X5220868Y11448288D01*
X5225389Y11441074D01*
X5228285Y11432844D01*
X5229352Y11423650D01*
X5229098Y11418316D01*
X5228285Y11413286D01*
X5226913Y11408460D01*
X5225084Y11403939D01*
X5222697Y11399672D01*
X5219852Y11395760D01*
X5216550Y11392103D01*
X5212740Y11388801D01*
X5208524Y11385804D01*
X5203850Y11383213D01*
X5198770Y11380927D01*
X5193233Y11379047D01*
X5187340Y11377574D01*
X5181041Y11376507D01*
X5174386Y11375847D01*
X5167376Y11375644D01*
X5160365Y11375847D01*
X5153660Y11376507D01*
X5147360Y11377523D01*
X5141417Y11378946D01*
X5135880Y11380774D01*
X5130749Y11382959D01*
X5126024Y11385550D01*
X5121757Y11388445D01*
X5117896Y11391696D01*
X5114544Y11395252D01*
X5111648Y11399164D01*
X5109260Y11403380D01*
X5107381Y11407902D01*
X5106009Y11412728D01*
X5105196Y11417808D01*
X5104892Y11423142D01*
X5105196Y11428425D01*
X5106009Y11433352D01*
X5107381Y11438026D01*
X5109311Y11442496D01*
X5111750Y11446662D01*
X5114645Y11450675D01*
X5118049Y11454485D01*
X5121910Y11458194D01*
G37*
G36*
X5092700Y11340338D02*
G01*
X5092700Y11321542D01*
X5156962Y11284204D01*
X5156962Y11256518D01*
X5170678Y11256518D01*
X5170678Y11282426D01*
X5171135Y11290960D01*
X5172506Y11298428D01*
X5174792Y11304828D01*
X5177993Y11310162D01*
X5182108Y11314328D01*
X5187188Y11317325D01*
X5193182Y11319154D01*
X5200142Y11319764D01*
X5207152Y11319154D01*
X5213045Y11317325D01*
X5217820Y11314328D01*
X5221579Y11310162D01*
X5224424Y11304828D01*
X5226354Y11298428D01*
X5227472Y11290960D01*
X5227828Y11282426D01*
X5227828Y11256518D01*
X5092700Y11256518D01*
X5092700Y11239500D01*
X5241544Y11239500D01*
X5241544Y11285220D01*
X5241290Y11292586D01*
X5240578Y11299494D01*
X5239359Y11305997D01*
X5237581Y11311940D01*
X5235244Y11317376D01*
X5232247Y11322202D01*
X5228691Y11326418D01*
X5224424Y11329924D01*
X5219446Y11332768D01*
X5213807Y11334851D01*
X5207355Y11336070D01*
X5200142Y11336528D01*
X5194503Y11336223D01*
X5189270Y11335410D01*
X5184444Y11334038D01*
X5180025Y11332210D01*
X5176012Y11329873D01*
X5172354Y11327079D01*
X5169103Y11323828D01*
X5166258Y11320221D01*
X5163769Y11316157D01*
X5161635Y11311788D01*
X5159857Y11307064D01*
X5158486Y11301984D01*
G37*
G36*
X5167630Y11206988D02*
G01*
X5160772Y11206784D01*
X5154168Y11206276D01*
X5147868Y11205362D01*
X5141874Y11204143D01*
X5136184Y11202568D01*
X5130850Y11200587D01*
X5125770Y11198301D01*
X5121046Y11195710D01*
X5116677Y11192713D01*
X5112613Y11189411D01*
X5108956Y11185753D01*
X5105603Y11181740D01*
X5102656Y11177422D01*
X5100066Y11172748D01*
X5097830Y11167770D01*
X5096002Y11162436D01*
X5094579Y11156797D01*
X5093512Y11150803D01*
X5092903Y11144504D01*
X5092700Y11137900D01*
X5092700Y11117580D01*
X5106416Y11117580D01*
X5106416Y11135868D01*
X5106670Y11142472D01*
X5107482Y11148618D01*
X5108803Y11154308D01*
X5110683Y11159591D01*
X5112969Y11164468D01*
X5115814Y11168888D01*
X5119065Y11172850D01*
X5122824Y11176406D01*
X5126990Y11179556D01*
X5131612Y11182248D01*
X5136642Y11184534D01*
X5142077Y11186414D01*
X5147919Y11187836D01*
X5154117Y11188903D01*
X5160721Y11189512D01*
X5167630Y11189716D01*
X5174589Y11189512D01*
X5181142Y11188903D01*
X5187289Y11187836D01*
X5193080Y11186414D01*
X5198414Y11184534D01*
X5203342Y11182248D01*
X5207812Y11179556D01*
X5211876Y11176406D01*
X5215483Y11172850D01*
X5218633Y11168888D01*
X5221325Y11164468D01*
X5223560Y11159591D01*
X5225288Y11154308D01*
X5226558Y11148618D01*
X5227320Y11142472D01*
X5227574Y11135868D01*
X5227574Y11117580D01*
X5092700Y11117580D01*
X5092700Y11100816D01*
X5241544Y11100816D01*
X5241544Y11137392D01*
X5241340Y11144097D01*
X5240731Y11150447D01*
X5239715Y11156492D01*
X5238343Y11162182D01*
X5236565Y11167567D01*
X5234432Y11172596D01*
X5231892Y11177270D01*
X5228996Y11181638D01*
X5225745Y11185652D01*
X5222087Y11189360D01*
X5218125Y11192662D01*
X5213858Y11195659D01*
X5209184Y11198301D01*
X5204206Y11200587D01*
X5198872Y11202517D01*
X5193284Y11204143D01*
X5187340Y11205362D01*
X5181041Y11206276D01*
X5174488Y11206784D01*
G37*
G36*
X5167630Y11068050D02*
G01*
X5160772Y11067897D01*
X5154168Y11067338D01*
X5147868Y11066475D01*
X5141874Y11065256D01*
X5136184Y11063630D01*
X5130850Y11061750D01*
X5125770Y11059464D01*
X5121046Y11056823D01*
X5116677Y11053876D01*
X5112613Y11050574D01*
X5108956Y11046968D01*
X5105603Y11042954D01*
X5102656Y11038687D01*
X5100066Y11034014D01*
X5097830Y11029035D01*
X5096002Y11023752D01*
X5094579Y11018113D01*
X5093512Y11012119D01*
X5092903Y11005820D01*
X5092700Y10999216D01*
X5092700Y10978896D01*
X5106416Y10978896D01*
X5106416Y10997184D01*
X5106670Y11003737D01*
X5107482Y11009833D01*
X5108803Y11015522D01*
X5110683Y11020755D01*
X5112969Y11025581D01*
X5115814Y11030000D01*
X5119065Y11033963D01*
X5122824Y11037519D01*
X5126990Y11040618D01*
X5131612Y11043310D01*
X5136642Y11045596D01*
X5142077Y11047476D01*
X5147919Y11048898D01*
X5154117Y11049965D01*
X5160721Y11050574D01*
X5167630Y11050778D01*
X5174589Y11050574D01*
X5181142Y11049965D01*
X5187289Y11048898D01*
X5193080Y11047476D01*
X5198414Y11045596D01*
X5203342Y11043310D01*
X5207812Y11040618D01*
X5211876Y11037519D01*
X5215483Y11033963D01*
X5218633Y11030000D01*
X5221325Y11025581D01*
X5223560Y11020755D01*
X5225288Y11015522D01*
X5226558Y11009833D01*
X5227320Y11003737D01*
X5227574Y10997184D01*
X5227574Y10978896D01*
X5092700Y10978896D01*
X5092700Y10962132D01*
X5241544Y10962132D01*
X5241544Y10998708D01*
X5241340Y11005413D01*
X5240731Y11011763D01*
X5239715Y11017808D01*
X5238343Y11023498D01*
X5236565Y11028832D01*
X5234432Y11033861D01*
X5231892Y11038535D01*
X5228996Y11042853D01*
X5225745Y11046866D01*
X5222087Y11050524D01*
X5218125Y11053826D01*
X5213858Y11056823D01*
X5209184Y11059414D01*
X5204206Y11061700D01*
X5198872Y11063630D01*
X5193284Y11065205D01*
X5187340Y11066475D01*
X5181041Y11067338D01*
X5174488Y11067897D01*
G37*
G36*
X5202428Y10893298D02*
G01*
X5077409Y10849508D01*
X5072481Y10847425D01*
X5067858Y10845139D01*
X5063490Y10842650D01*
X5059426Y10839856D01*
X5055819Y10836808D01*
X5052618Y10833404D01*
X5049875Y10829747D01*
X5047691Y10825734D01*
X5046065Y10821365D01*
X5045049Y10816640D01*
X5044694Y10811510D01*
X5044846Y10808004D01*
X5045252Y10804702D01*
X5045964Y10801604D01*
X5046980Y10798810D01*
X5060442Y10802366D01*
X5058816Y10808462D01*
X5058664Y10810748D01*
X5059172Y10815320D01*
X5060543Y10819434D01*
X5062778Y10823194D01*
X5065776Y10826546D01*
X5069433Y10829493D01*
X5073650Y10832134D01*
X5078425Y10834420D01*
X5083556Y10836402D01*
X5092192Y10838942D01*
X5202428Y10794492D01*
X5202428Y10811764D01*
X5132171Y10837824D01*
X5108702Y10846308D01*
X5108702Y10847324D01*
X5139690Y10856468D01*
X5202428Y10877042D01*
G37*
G36*
X5149342Y10782300D02*
G01*
X5142484Y10782046D01*
X5135981Y10781284D01*
X5129936Y10780064D01*
X5124246Y10778388D01*
X5118963Y10776305D01*
X5114086Y10773816D01*
X5109667Y10770971D01*
X5105654Y10767822D01*
X5102098Y10764367D01*
X5098948Y10760659D01*
X5096306Y10756696D01*
X5094122Y10752531D01*
X5092395Y10748162D01*
X5091176Y10743641D01*
X5090414Y10739018D01*
X5090160Y10734294D01*
X5090454Y10731754D01*
X5104130Y10731754D01*
X5104485Y10736427D01*
X5105552Y10740847D01*
X5107279Y10745012D01*
X5109616Y10748822D01*
X5112613Y10752378D01*
X5116220Y10755528D01*
X5120386Y10758322D01*
X5125110Y10760659D01*
X5130393Y10762488D01*
X5136134Y10763910D01*
X5142382Y10764723D01*
X5149088Y10765028D01*
X5155133Y10764824D01*
X5160873Y10764266D01*
X5166156Y10763351D01*
X5171084Y10761980D01*
X5175554Y10760202D01*
X5179517Y10757966D01*
X5182971Y10755325D01*
X5185867Y10752175D01*
X5188153Y10748518D01*
X5189880Y10744403D01*
X5190896Y10739729D01*
X5191252Y10734548D01*
X5190236Y10727232D01*
X5187188Y10719663D01*
X5182260Y10711891D01*
X5175504Y10703814D01*
X5116068Y10703814D01*
X5110429Y10711434D01*
X5106771Y10718850D01*
X5104739Y10725708D01*
X5104130Y10731754D01*
X5090454Y10731754D01*
X5091074Y10726420D01*
X5093817Y10718241D01*
X5098186Y10710164D01*
X5104130Y10702544D01*
X5104130Y10702036D01*
X5092700Y10700258D01*
X5092700Y10687304D01*
X5254498Y10687304D01*
X5254498Y10703814D01*
X5209540Y10703814D01*
X5189474Y10703052D01*
X5192623Y10706963D01*
X5195570Y10711078D01*
X5198262Y10715345D01*
X5200599Y10719765D01*
X5202529Y10724286D01*
X5203952Y10728909D01*
X5204917Y10733633D01*
X5205222Y10738358D01*
X5204968Y10743590D01*
X5204206Y10748467D01*
X5202936Y10753090D01*
X5201259Y10757357D01*
X5199075Y10761268D01*
X5196433Y10764875D01*
X5193385Y10768126D01*
X5189931Y10771073D01*
X5186121Y10773714D01*
X5181854Y10775950D01*
X5177282Y10777880D01*
X5172303Y10779455D01*
X5167020Y10780725D01*
X5161432Y10781588D01*
X5155539Y10782096D01*
G37*
G36*
X4829302Y11627866D02*
G01*
X4829302Y11607546D01*
X4787900Y11607546D01*
X4787900Y11591798D01*
X4829302Y11591798D01*
X4829302Y11544300D01*
X4842510Y11544300D01*
X4842510Y11591798D01*
X4891024Y11591798D01*
X4904130Y11592255D01*
X4917440Y11593068D01*
X4917440Y11592052D01*
X4906670Y11586413D01*
X4895850Y11580368D01*
X4842510Y11544300D01*
X4829302Y11544300D01*
X4829302Y11526520D01*
X4840224Y11526520D01*
X4936744Y11589766D01*
X4936744Y11607546D01*
X4842510Y11607546D01*
X4842510Y11627866D01*
G37*
G36*
X4787900Y11512296D02*
G01*
X4787900Y11420348D01*
X4797806Y11420348D01*
X4809896Y11433810D01*
X4821377Y11445697D01*
X4832248Y11456111D01*
X4842560Y11465001D01*
X4852365Y11472468D01*
X4861661Y11478463D01*
X4866182Y11480952D01*
X4874869Y11484914D01*
X4883200Y11487505D01*
X4891227Y11488775D01*
X4895088Y11488928D01*
X4901438Y11488521D01*
X4907280Y11487251D01*
X4912512Y11485118D01*
X4917033Y11482070D01*
X4920742Y11478158D01*
X4923485Y11473281D01*
X4925212Y11467490D01*
X4925822Y11460734D01*
X4925466Y11456162D01*
X4924501Y11451742D01*
X4922875Y11447475D01*
X4920792Y11443411D01*
X4918202Y11439550D01*
X4915204Y11435842D01*
X4911902Y11432336D01*
X4908296Y11428984D01*
X4917440Y11419332D01*
X4922164Y11423853D01*
X4926431Y11428526D01*
X4930140Y11433403D01*
X4933340Y11438534D01*
X4935829Y11443970D01*
X4937709Y11449710D01*
X4938877Y11455908D01*
X4939284Y11462512D01*
X4938928Y11468912D01*
X4937912Y11474856D01*
X4936236Y11480342D01*
X4933899Y11485321D01*
X4930952Y11489791D01*
X4927447Y11493754D01*
X4923434Y11497157D01*
X4918862Y11500002D01*
X4913782Y11502237D01*
X4908245Y11503863D01*
X4902250Y11504828D01*
X4895850Y11505184D01*
X4891328Y11505031D01*
X4886756Y11504472D01*
X4882235Y11503660D01*
X4873091Y11500967D01*
X4863846Y11497056D01*
X4854549Y11491925D01*
X4845151Y11485676D01*
X4835601Y11478361D01*
X4825898Y11470030D01*
X4816043Y11460784D01*
X4800854Y11445240D01*
X4801768Y11457736D01*
X4802124Y11469624D01*
X4802124Y11512296D01*
G37*
G36*
X4862830Y11400790D02*
G01*
X4853381Y11400586D01*
X4844542Y11399977D01*
X4836363Y11399012D01*
X4828743Y11397640D01*
X4821783Y11395862D01*
X4815433Y11393779D01*
X4809693Y11391341D01*
X4804562Y11388547D01*
X4800041Y11385448D01*
X4796129Y11382044D01*
X4792827Y11378336D01*
X4790135Y11374323D01*
X4788052Y11370056D01*
X4786528Y11365484D01*
X4785664Y11360658D01*
X4785360Y11355578D01*
X4798568Y11355578D01*
X4798974Y11359845D01*
X4800244Y11363807D01*
X4802378Y11367516D01*
X4805426Y11370919D01*
X4809337Y11374018D01*
X4814112Y11376761D01*
X4819853Y11379149D01*
X4826508Y11381130D01*
X4834128Y11382705D01*
X4842713Y11383822D01*
X4852263Y11384534D01*
X4862830Y11384788D01*
X4873193Y11384534D01*
X4882591Y11383822D01*
X4890973Y11382705D01*
X4898440Y11381130D01*
X4904994Y11379149D01*
X4910632Y11376761D01*
X4915306Y11374018D01*
X4919167Y11370919D01*
X4922062Y11367516D01*
X4924196Y11363807D01*
X4925415Y11359845D01*
X4925822Y11355578D01*
X4925415Y11351260D01*
X4924196Y11347196D01*
X4922062Y11343436D01*
X4919167Y11339982D01*
X4915306Y11336832D01*
X4910632Y11334038D01*
X4904994Y11331651D01*
X4898440Y11329619D01*
X4890973Y11327993D01*
X4882591Y11326825D01*
X4873193Y11326114D01*
X4862830Y11325860D01*
X4852263Y11326114D01*
X4842713Y11326825D01*
X4834128Y11327993D01*
X4826508Y11329619D01*
X4819853Y11331651D01*
X4814112Y11334038D01*
X4809337Y11336832D01*
X4805426Y11339982D01*
X4802378Y11343436D01*
X4800244Y11347196D01*
X4798974Y11351260D01*
X4798568Y11355578D01*
X4785360Y11355578D01*
X4785664Y11350396D01*
X4786528Y11345519D01*
X4788052Y11340896D01*
X4790135Y11336528D01*
X4792827Y11332464D01*
X4796129Y11328704D01*
X4800041Y11325250D01*
X4804562Y11322151D01*
X4809693Y11319357D01*
X4815433Y11316868D01*
X4821783Y11314785D01*
X4828743Y11313058D01*
X4836363Y11311636D01*
X4844542Y11310670D01*
X4853381Y11310061D01*
X4862830Y11309858D01*
X4872177Y11310061D01*
X4880914Y11310670D01*
X4889042Y11311636D01*
X4896510Y11313058D01*
X4903419Y11314785D01*
X4909667Y11316868D01*
X4915357Y11319357D01*
X4920386Y11322151D01*
X4924856Y11325250D01*
X4928666Y11328704D01*
X4931918Y11332464D01*
X4934610Y11336528D01*
X4936642Y11340896D01*
X4938115Y11345519D01*
X4938979Y11350396D01*
X4939284Y11355578D01*
X4938979Y11360658D01*
X4938115Y11365484D01*
X4936642Y11370056D01*
X4934610Y11374323D01*
X4931918Y11378336D01*
X4928666Y11382044D01*
X4924856Y11385448D01*
X4920386Y11388547D01*
X4915357Y11391341D01*
X4909667Y11393779D01*
X4903419Y11395862D01*
X4896510Y11397640D01*
X4889042Y11399012D01*
X4880914Y11399977D01*
X4872177Y11400586D01*
G37*
G36*
X4787900Y11289284D02*
G01*
X4787900Y11197336D01*
X4797806Y11197336D01*
X4809896Y11210798D01*
X4821377Y11222685D01*
X4832248Y11233099D01*
X4842560Y11241989D01*
X4852365Y11249456D01*
X4861661Y11255451D01*
X4866182Y11257940D01*
X4874869Y11261902D01*
X4883200Y11264493D01*
X4891227Y11265763D01*
X4895088Y11265916D01*
X4901438Y11265509D01*
X4907280Y11264239D01*
X4912512Y11262106D01*
X4917033Y11259058D01*
X4920742Y11255146D01*
X4923485Y11250269D01*
X4925212Y11244478D01*
X4925822Y11237722D01*
X4925466Y11233150D01*
X4924501Y11228730D01*
X4922875Y11224463D01*
X4920792Y11220399D01*
X4918202Y11216538D01*
X4915204Y11212830D01*
X4911902Y11209324D01*
X4908296Y11205972D01*
X4917440Y11196320D01*
X4922164Y11200841D01*
X4926431Y11205514D01*
X4930140Y11210340D01*
X4933340Y11215420D01*
X4935829Y11220856D01*
X4937709Y11226596D01*
X4938877Y11232794D01*
X4939284Y11239500D01*
X4938928Y11245900D01*
X4937912Y11251844D01*
X4936236Y11257330D01*
X4933899Y11262309D01*
X4930952Y11266779D01*
X4927447Y11270742D01*
X4923434Y11274145D01*
X4918862Y11276990D01*
X4913782Y11279225D01*
X4908245Y11280851D01*
X4902250Y11281816D01*
X4895850Y11282172D01*
X4891328Y11282019D01*
X4886756Y11281460D01*
X4882235Y11280597D01*
X4877663Y11279428D01*
X4873091Y11277904D01*
X4868468Y11276076D01*
X4859223Y11271554D01*
X4849876Y11265814D01*
X4840376Y11259007D01*
X4830775Y11251184D01*
X4821021Y11242395D01*
X4811014Y11232743D01*
X4800854Y11222228D01*
X4801768Y11234521D01*
X4802124Y11246612D01*
X4802124Y11289284D01*
G37*
G36*
X4791202Y11131042D02*
G01*
X4784344Y11130534D01*
X4777943Y11129060D01*
X4771999Y11126673D01*
X4766564Y11123422D01*
X4761636Y11119358D01*
X4757267Y11114532D01*
X4753457Y11108994D01*
X4750308Y11102848D01*
X4759960Y11098784D01*
X4765090Y11106962D01*
X4771542Y11113109D01*
X4779111Y11117021D01*
X4787646Y11118342D01*
X4787392Y11116056D01*
X4788204Y11111179D01*
X4790541Y11107115D01*
X4794351Y11104372D01*
X4799584Y11103356D01*
X4804714Y11104422D01*
X4808524Y11107216D01*
X4810963Y11111280D01*
X4811776Y11116056D01*
X4810353Y11122253D01*
X4806238Y11126978D01*
X4799787Y11129975D01*
G37*
G36*
X4862830Y11077448D02*
G01*
X4853381Y11077244D01*
X4844542Y11076635D01*
X4836363Y11075670D01*
X4828743Y11074298D01*
X4821783Y11072571D01*
X4815433Y11070488D01*
X4809693Y11068100D01*
X4804562Y11065306D01*
X4800041Y11062208D01*
X4796129Y11058804D01*
X4792827Y11055096D01*
X4790135Y11051082D01*
X4788052Y11046764D01*
X4786528Y11042192D01*
X4785664Y11037366D01*
X4785360Y11032236D01*
X4798568Y11032236D01*
X4798974Y11036503D01*
X4800244Y11040465D01*
X4802378Y11044174D01*
X4805426Y11047577D01*
X4809337Y11050676D01*
X4814112Y11053419D01*
X4819853Y11055807D01*
X4826508Y11057788D01*
X4834128Y11059363D01*
X4842713Y11060480D01*
X4852263Y11061192D01*
X4862830Y11061446D01*
X4873193Y11061192D01*
X4882591Y11060480D01*
X4890973Y11059363D01*
X4898440Y11057788D01*
X4904994Y11055807D01*
X4910632Y11053419D01*
X4915306Y11050676D01*
X4919167Y11047577D01*
X4922062Y11044174D01*
X4924196Y11040465D01*
X4925415Y11036503D01*
X4925822Y11032236D01*
X4925415Y11027918D01*
X4924196Y11023854D01*
X4922062Y11020094D01*
X4919167Y11016640D01*
X4915306Y11013490D01*
X4910632Y11010696D01*
X4904994Y11008309D01*
X4898440Y11006277D01*
X4890973Y11004651D01*
X4882591Y11003483D01*
X4873193Y11002772D01*
X4862830Y11002518D01*
X4852263Y11002772D01*
X4842713Y11003483D01*
X4834128Y11004651D01*
X4826508Y11006277D01*
X4819853Y11008309D01*
X4814112Y11010696D01*
X4809337Y11013490D01*
X4805426Y11016640D01*
X4802378Y11020094D01*
X4800244Y11023854D01*
X4798974Y11027918D01*
X4798568Y11032236D01*
X4785360Y11032236D01*
X4785664Y11027105D01*
X4786528Y11022228D01*
X4788052Y11017656D01*
X4790135Y11013287D01*
X4792827Y11009274D01*
X4796129Y11005515D01*
X4800041Y11002060D01*
X4804562Y10998911D01*
X4809693Y10996066D01*
X4815433Y10993628D01*
X4821783Y10991494D01*
X4828743Y10989716D01*
X4836363Y10988344D01*
X4844542Y10987328D01*
X4853381Y10986719D01*
X4862830Y10986516D01*
X4872177Y10986719D01*
X4880914Y10987328D01*
X4889042Y10988344D01*
X4896510Y10989716D01*
X4903419Y10991494D01*
X4909667Y10993628D01*
X4915357Y10996066D01*
X4920386Y10998911D01*
X4924856Y11002060D01*
X4928666Y11005515D01*
X4931918Y11009274D01*
X4934610Y11013287D01*
X4936642Y11017656D01*
X4938115Y11022228D01*
X4938979Y11027105D01*
X4939284Y11032236D01*
X4938979Y11037366D01*
X4938115Y11042192D01*
X4936642Y11046764D01*
X4934610Y11051082D01*
X4931918Y11055096D01*
X4928666Y11058804D01*
X4924856Y11062208D01*
X4920386Y11065306D01*
X4915357Y11068100D01*
X4909667Y11070488D01*
X4903419Y11072571D01*
X4896510Y11074298D01*
X4889042Y11075670D01*
X4880914Y11076635D01*
X4872177Y11077244D01*
G37*
G36*
X4798314Y10961370D02*
G01*
X4792980Y10960354D01*
X4788865Y10957610D01*
X4786274Y10953546D01*
X4785360Y10948670D01*
X4786274Y10943945D01*
X4788865Y10939983D01*
X4792980Y10937240D01*
X4798314Y10936224D01*
X4803851Y10937240D01*
X4808118Y10939983D01*
X4810810Y10943945D01*
X4811776Y10948670D01*
X4810810Y10953546D01*
X4808118Y10957610D01*
X4803851Y10960354D01*
G37*
G36*
X4787900Y10908030D02*
G01*
X4787900Y10828020D01*
X4801616Y10828020D01*
X4801616Y10861294D01*
X4915662Y10861294D01*
X4915662Y10835132D01*
X4926584Y10835132D01*
X4928362Y10844123D01*
X4930597Y10851997D01*
X4933391Y10859008D01*
X4936744Y10865104D01*
X4936744Y10877804D01*
X4801616Y10877804D01*
X4801616Y10908030D01*
G37*
G36*
X4897628Y10807192D02*
G01*
X4787900Y10768076D01*
X4787900Y10748772D01*
X4897628Y10708640D01*
X4897628Y10725912D01*
X4833874Y10747756D01*
X4817465Y10752886D01*
X4801616Y10758170D01*
X4801616Y10758932D01*
X4817465Y10764215D01*
X4833874Y10769346D01*
X4897628Y10790936D01*
G37*
G36*
X1054100Y16204438D02*
G01*
X942594Y16166338D01*
X942594Y16159226D01*
X953008Y16159226D01*
X953008Y16159988D01*
X962710Y16162680D01*
X990853Y16171418D01*
X1008887Y16177260D01*
X1008887Y16141954D01*
X986129Y16149370D01*
X953008Y16159226D01*
X942594Y16159226D01*
X942594Y16152368D01*
X1054100Y16114268D01*
X1054100Y16127730D01*
X1018794Y16138651D01*
X1018794Y16180307D01*
X1054100Y16191738D01*
G37*
G36*
X1012952Y16105378D02*
G01*
X1006551Y16105022D01*
X1000556Y16104006D01*
X995070Y16102431D01*
X990041Y16100247D01*
X985469Y16097605D01*
X981456Y16094506D01*
X978001Y16091052D01*
X975106Y16087191D01*
X972819Y16083076D01*
X971143Y16078758D01*
X970127Y16074237D01*
X969771Y16069563D01*
X969972Y16067532D01*
X980186Y16067532D01*
X980795Y16072612D01*
X982573Y16077336D01*
X985469Y16081552D01*
X989330Y16085210D01*
X994105Y16088207D01*
X999693Y16090493D01*
X1005992Y16091916D01*
X1012952Y16092424D01*
X1020165Y16092017D01*
X1026617Y16090849D01*
X1032154Y16088918D01*
X1036828Y16086226D01*
X1040536Y16082873D01*
X1043228Y16078809D01*
X1044905Y16074136D01*
X1045464Y16068801D01*
X1044752Y16063010D01*
X1042568Y16057422D01*
X1038910Y16051936D01*
X1033780Y16046450D01*
X989330Y16046450D01*
X985113Y16051936D01*
X982268Y16057168D01*
X980694Y16062299D01*
X980186Y16067532D01*
X969972Y16067532D01*
X970432Y16062858D01*
X972312Y16056914D01*
X975360Y16051377D01*
X979424Y16045942D01*
X965200Y16046450D01*
X932687Y16046450D01*
X932687Y16034257D01*
X1054100Y16034257D01*
X1054100Y16044418D01*
X1044194Y16045434D01*
X1044194Y16045942D01*
X1048867Y16051326D01*
X1052626Y16057422D01*
X1055217Y16064128D01*
X1056132Y16071342D01*
X1055827Y16076371D01*
X1054862Y16081095D01*
X1053287Y16085464D01*
X1051102Y16089426D01*
X1048308Y16092982D01*
X1044905Y16096183D01*
X1040993Y16098926D01*
X1036472Y16101161D01*
X1031392Y16102990D01*
X1025753Y16104311D01*
X1019606Y16105124D01*
G37*
G36*
X1033018Y16010636D02*
G01*
X1028700Y16010331D01*
X1024737Y16009315D01*
X1021130Y16007638D01*
X1017879Y16005301D01*
X1014933Y16002254D01*
X1012291Y15998444D01*
X1009954Y15993922D01*
X1007871Y15988639D01*
X1006043Y15982543D01*
X1004468Y15975685D01*
X1003147Y15968065D01*
X1002030Y15959582D01*
X1010412Y15959582D01*
X1011885Y15969640D01*
X1013714Y15978022D01*
X1015847Y15984778D01*
X1018387Y15990112D01*
X1021283Y15994024D01*
X1024534Y15996716D01*
X1028192Y15998190D01*
X1032256Y15998698D01*
X1038555Y15997478D01*
X1042822Y15994227D01*
X1045210Y15989350D01*
X1045971Y15983457D01*
X1045260Y15977362D01*
X1043127Y15971519D01*
X1039520Y15965678D01*
X1034542Y15959582D01*
X1002030Y15959582D01*
X993952Y15960344D01*
X986891Y15963087D01*
X981862Y15968472D01*
X979932Y15977107D01*
X980744Y15984321D01*
X982878Y15991027D01*
X985824Y15997021D01*
X989076Y16002254D01*
X980440Y16007334D01*
X976833Y16001085D01*
X973378Y15993516D01*
X970787Y15984880D01*
X969771Y15975330D01*
X970381Y15968370D01*
X972159Y15962477D01*
X975055Y15957651D01*
X978966Y15953841D01*
X983792Y15950946D01*
X989482Y15948913D01*
X995934Y15947745D01*
X1003046Y15947390D01*
X1054100Y15947390D01*
X1054100Y15957550D01*
X1043940Y15958566D01*
X1043940Y15959074D01*
X1048715Y15965271D01*
X1052626Y15971977D01*
X1055166Y15979140D01*
X1056132Y15986760D01*
X1055725Y15991738D01*
X1054608Y15996259D01*
X1052677Y16000323D01*
X1050086Y16003828D01*
X1046784Y16006673D01*
X1042822Y16008857D01*
X1038250Y16010178D01*
G37*
G36*
X972566Y15929610D02*
G01*
X971803Y15918434D01*
X957580Y15918434D01*
X951636Y15918078D01*
X946353Y15917011D01*
X941781Y15915182D01*
X937971Y15912642D01*
X934923Y15909391D01*
X932738Y15905378D01*
X931367Y15900603D01*
X930910Y15895066D01*
X931113Y15891510D01*
X931621Y15888106D01*
X932434Y15884855D01*
X933450Y15881857D01*
X943102Y15884651D01*
X942086Y15886988D01*
X941374Y15889376D01*
X940816Y15894050D01*
X941882Y15899333D01*
X945083Y15903092D01*
X950366Y15905276D01*
X957580Y15905988D01*
X971803Y15905988D01*
X971803Y15888207D01*
X981964Y15888207D01*
X981964Y15905988D01*
X1054100Y15905988D01*
X1054100Y15918434D01*
X981964Y15918434D01*
X981964Y15929610D01*
G37*
G36*
X971803Y15871951D02*
G01*
X971803Y15861792D01*
X986790Y15860522D01*
X986790Y15860268D01*
X979830Y15855442D01*
X974445Y15849803D01*
X970991Y15843605D01*
X969771Y15836900D01*
X970076Y15832226D01*
X970635Y15830194D01*
X971550Y15828263D01*
X982218Y15830550D01*
X981303Y15834309D01*
X980948Y15838424D01*
X981964Y15843808D01*
X985316Y15849447D01*
X991362Y15854832D01*
X1000506Y15859506D01*
X1054100Y15859506D01*
X1054100Y15871951D01*
G37*
G36*
X971803Y15815310D02*
G01*
X971803Y15803118D01*
X1022603Y15803118D01*
X1032764Y15802203D01*
X1039825Y15799257D01*
X1043889Y15794126D01*
X1045210Y15786607D01*
X1044397Y15780512D01*
X1041806Y15774974D01*
X1037285Y15769437D01*
X1030732Y15763494D01*
X971803Y15763494D01*
X971803Y15751301D01*
X1054100Y15751301D01*
X1054100Y15761462D01*
X1040892Y15762478D01*
X1040892Y15762986D01*
X1047140Y15768878D01*
X1051915Y15775279D01*
X1055014Y15782391D01*
X1056132Y15790418D01*
X1055624Y15796463D01*
X1054100Y15801594D01*
X1051560Y15805861D01*
X1048054Y15809366D01*
X1043533Y15812007D01*
X1038047Y15813836D01*
X1031544Y15814954D01*
X1024128Y15815310D01*
G37*
G36*
X945387Y15724886D02*
G01*
X941933Y15724276D01*
X939292Y15722447D01*
X937615Y15719755D01*
X937006Y15716250D01*
X937615Y15712744D01*
X939292Y15710052D01*
X941933Y15708274D01*
X945387Y15707613D01*
X948994Y15708223D01*
X951687Y15710052D01*
X953414Y15712744D01*
X954024Y15716250D01*
X953414Y15719755D01*
X951687Y15722447D01*
X948994Y15724276D01*
G37*
G36*
X971803Y15722346D02*
G01*
X971803Y15710154D01*
X1054100Y15710154D01*
X1054100Y15722346D01*
G37*
G36*
X972566Y15691612D02*
G01*
X971803Y15678657D01*
X948436Y15677134D01*
X948436Y15666719D01*
X971803Y15666719D01*
X971803Y15644113D01*
X981964Y15644113D01*
X981964Y15666719D01*
X1029716Y15666719D01*
X1036523Y15666110D01*
X1041653Y15663976D01*
X1044854Y15659963D01*
X1045971Y15653766D01*
X1045768Y15651378D01*
X1043686Y15644113D01*
X1053084Y15641828D01*
X1055166Y15649092D01*
X1055878Y15652750D01*
X1056132Y15656306D01*
X1055624Y15662249D01*
X1054150Y15667177D01*
X1051814Y15671139D01*
X1048664Y15674238D01*
X1044752Y15676473D01*
X1040180Y15678048D01*
X1034948Y15678912D01*
X1029208Y15679166D01*
X981964Y15679166D01*
X981964Y15691612D01*
G37*
G36*
X942594Y15590012D02*
G01*
X942594Y15577566D01*
X1054100Y15577566D01*
X1054100Y15590012D01*
G37*
G36*
X942594Y15546324D02*
G01*
X942594Y15533624D01*
X1043432Y15533624D01*
X1043432Y15484348D01*
X1054100Y15484348D01*
X1054100Y15546324D01*
G37*
G36*
X942594Y15464790D02*
G01*
X942594Y15452090D01*
X1054100Y15452090D01*
X1054100Y15464790D01*
G37*
G36*
X976630Y15429738D02*
G01*
X968959Y15429077D01*
X961999Y15427198D01*
X955852Y15424251D01*
X950620Y15420390D01*
X946353Y15415666D01*
X943203Y15410332D01*
X941222Y15404490D01*
X940562Y15398242D01*
X950214Y15398242D01*
X950721Y15402306D01*
X952144Y15406014D01*
X954430Y15409316D01*
X957529Y15412212D01*
X961339Y15414548D01*
X965860Y15416326D01*
X970991Y15417393D01*
X976630Y15417800D01*
X982116Y15417495D01*
X987044Y15416530D01*
X991463Y15414904D01*
X995171Y15412669D01*
X998169Y15409773D01*
X1000404Y15406217D01*
X1001826Y15402051D01*
X1002284Y15397226D01*
X1001420Y15391180D01*
X998626Y15384983D01*
X993800Y15378887D01*
X986790Y15373096D01*
X978509Y15373908D01*
X971194Y15375432D01*
X964946Y15377668D01*
X959713Y15380512D01*
X955649Y15384018D01*
X952652Y15388183D01*
X950823Y15392907D01*
X950214Y15398242D01*
X940562Y15398242D01*
X940917Y15392958D01*
X942035Y15387980D01*
X943864Y15383357D01*
X946454Y15379039D01*
X949756Y15375128D01*
X953820Y15371622D01*
X958545Y15368524D01*
X964031Y15365984D01*
X970229Y15363901D01*
X977137Y15362428D01*
X984808Y15361462D01*
X993140Y15361157D01*
X1001369Y15361361D01*
X1008989Y15362021D01*
X1015949Y15363088D01*
X1022248Y15364510D01*
X1027988Y15366288D01*
X1033170Y15368371D01*
X1037742Y15370759D01*
X1041755Y15373400D01*
X1045260Y15376296D01*
X1048258Y15379446D01*
X1050747Y15382748D01*
X1052728Y15386253D01*
X1054252Y15389860D01*
X1055319Y15393568D01*
X1055928Y15397429D01*
X1056132Y15401290D01*
X1055268Y15409468D01*
X1052931Y15416479D01*
X1049375Y15422422D01*
X1044956Y15427451D01*
X1037082Y15420594D01*
X1040688Y15416631D01*
X1043381Y15412008D01*
X1045108Y15406928D01*
X1045718Y15401544D01*
X1045464Y15397937D01*
X1044651Y15394482D01*
X1043228Y15391130D01*
X1041146Y15387929D01*
X1038453Y15384983D01*
X1034999Y15382240D01*
X1030833Y15379801D01*
X1025906Y15377617D01*
X1020114Y15375839D01*
X1013460Y15374416D01*
X1005941Y15373400D01*
X997458Y15372842D01*
X1003198Y15378582D01*
X1007719Y15384983D01*
X1010615Y15391942D01*
X1011682Y15399257D01*
X1011123Y15405912D01*
X1009396Y15411856D01*
X1006602Y15417038D01*
X1002741Y15421457D01*
X997762Y15424962D01*
X991768Y15427604D01*
X984707Y15429179D01*
G37*
G36*
X1040892Y15348204D02*
G01*
X1032764Y15341854D01*
X1037590Y15336519D01*
X1041704Y15330220D01*
X1044600Y15322702D01*
X1045718Y15313660D01*
X1045311Y15308783D01*
X1044194Y15304312D01*
X1042365Y15300350D01*
X1039825Y15296946D01*
X1036726Y15294152D01*
X1032967Y15292069D01*
X1028700Y15290749D01*
X1023874Y15290292D01*
X1018946Y15290749D01*
X1014526Y15292171D01*
X1010615Y15294610D01*
X1007313Y15298216D01*
X1004620Y15303042D01*
X1002639Y15309138D01*
X1001420Y15316657D01*
X1001014Y15325598D01*
X991108Y15325598D01*
X990650Y15317622D01*
X989380Y15310967D01*
X987399Y15305532D01*
X984707Y15301315D01*
X981456Y15298166D01*
X977696Y15295981D01*
X973531Y15294762D01*
X969010Y15294356D01*
X961542Y15295676D01*
X955751Y15299537D01*
X952042Y15305735D01*
X950721Y15313913D01*
X951534Y15320518D01*
X953820Y15326664D01*
X957275Y15332252D01*
X961644Y15337282D01*
X953769Y15344140D01*
X948486Y15337688D01*
X944321Y15330474D01*
X941578Y15322397D01*
X940562Y15313406D01*
X941019Y15306801D01*
X942441Y15300706D01*
X944676Y15295321D01*
X947826Y15290647D01*
X951788Y15286888D01*
X956513Y15284043D01*
X962050Y15282265D01*
X968248Y15281656D01*
X973175Y15282011D01*
X977646Y15283129D01*
X981710Y15284856D01*
X985316Y15287193D01*
X988466Y15290139D01*
X991158Y15293543D01*
X993394Y15297454D01*
X995171Y15301722D01*
X995934Y15301722D01*
X997407Y15296896D01*
X999490Y15292425D01*
X1002182Y15288361D01*
X1005484Y15284805D01*
X1009396Y15281910D01*
X1013815Y15279725D01*
X1018844Y15278354D01*
X1024382Y15277846D01*
X1031443Y15278557D01*
X1037691Y15280589D01*
X1043127Y15283789D01*
X1047699Y15288056D01*
X1051306Y15293187D01*
X1053947Y15299182D01*
X1055573Y15305786D01*
X1056132Y15312898D01*
X1055776Y15319095D01*
X1054811Y15324683D01*
X1053338Y15329763D01*
X1051356Y15334386D01*
X1049070Y15338450D01*
X1046480Y15342107D01*
X1043736Y15345359D01*
G37*
G36*
X1014984Y15266162D02*
G01*
X942594Y15218918D01*
X942594Y15216378D01*
X957071Y15216378D01*
X957071Y15217140D01*
X973074Y15226030D01*
X1013206Y15252954D01*
X1013206Y15217394D01*
X972159Y15217292D01*
X957071Y15216378D01*
X942594Y15216378D01*
X942594Y15205710D01*
X1013206Y15205710D01*
X1013206Y15190469D01*
X1023112Y15190469D01*
X1023112Y15205710D01*
X1054100Y15205710D01*
X1054100Y15217394D01*
X1023112Y15217394D01*
X1023112Y15266162D01*
G37*
G36*
X1043686Y15171928D02*
G01*
X1043686Y15147036D01*
X958342Y15147036D01*
X958342Y15166594D01*
X950214Y15166594D01*
X948791Y15159786D01*
X947064Y15153843D01*
X945032Y15148610D01*
X942594Y15143988D01*
X942594Y15134590D01*
X1043686Y15134590D01*
X1043686Y15111984D01*
X1054100Y15111984D01*
X1054100Y15171928D01*
G37*
G36*
X1040892Y15063216D02*
G01*
X1032764Y15056866D01*
X1037590Y15051532D01*
X1041704Y15045232D01*
X1044600Y15037714D01*
X1045718Y15028672D01*
X1045311Y15023795D01*
X1044194Y15019324D01*
X1042365Y15015362D01*
X1039825Y15011958D01*
X1036726Y15009164D01*
X1032967Y15007082D01*
X1028700Y15005761D01*
X1023874Y15005304D01*
X1018946Y15005761D01*
X1014526Y15007183D01*
X1010615Y15009622D01*
X1007313Y15013228D01*
X1004620Y15018054D01*
X1002639Y15024150D01*
X1001420Y15031669D01*
X1001014Y15040610D01*
X991108Y15040610D01*
X990650Y15032634D01*
X989380Y15025979D01*
X987399Y15020544D01*
X984707Y15016327D01*
X981456Y15013178D01*
X977696Y15010993D01*
X973531Y15009774D01*
X969010Y15009368D01*
X961542Y15010688D01*
X955751Y15014600D01*
X952042Y15020747D01*
X950721Y15028926D01*
X951534Y15035530D01*
X953820Y15041676D01*
X957275Y15047264D01*
X961644Y15052294D01*
X953769Y15059151D01*
X948486Y15052700D01*
X944321Y15045486D01*
X941578Y15037460D01*
X940562Y15028418D01*
X941019Y15021813D01*
X942441Y15015718D01*
X944676Y15010333D01*
X947826Y15005659D01*
X951788Y15001900D01*
X956513Y14999055D01*
X962050Y14997277D01*
X968248Y14996668D01*
X973175Y14997023D01*
X977646Y14998141D01*
X981710Y14999868D01*
X985316Y15002205D01*
X988466Y15005151D01*
X991158Y15008555D01*
X993394Y15012466D01*
X995171Y15016734D01*
X995934Y15016734D01*
X997407Y15011907D01*
X999490Y15007437D01*
X1002182Y15003373D01*
X1005484Y14999868D01*
X1009396Y14996922D01*
X1013815Y14994737D01*
X1018844Y14993366D01*
X1024382Y14992857D01*
X1031443Y14993569D01*
X1037691Y14995601D01*
X1043127Y14998801D01*
X1047699Y15003068D01*
X1051306Y15008199D01*
X1053947Y15014194D01*
X1055573Y15020798D01*
X1056132Y15027910D01*
X1055776Y15034107D01*
X1054811Y15039695D01*
X1053338Y15044775D01*
X1051356Y15049347D01*
X1049070Y15053462D01*
X1046480Y15057119D01*
X1043736Y15060371D01*
G37*
G36*
X1046226Y14973046D02*
G01*
X1042111Y14972284D01*
X1038961Y14970251D01*
X1037031Y14967254D01*
X1036319Y14963648D01*
X1037031Y14960041D01*
X1039012Y14957044D01*
X1042111Y14955012D01*
X1046226Y14954250D01*
X1050239Y14955012D01*
X1053388Y14957044D01*
X1055420Y14960041D01*
X1056132Y14963648D01*
X1055420Y14967254D01*
X1053388Y14970251D01*
X1050239Y14972284D01*
G37*
G36*
X956818Y14936978D02*
G01*
X953363Y14933523D01*
X950214Y14930018D01*
X947419Y14926360D01*
X945083Y14922550D01*
X943152Y14918486D01*
X941730Y14914168D01*
X940866Y14909495D01*
X940562Y14904466D01*
X941171Y14897404D01*
X942848Y14891105D01*
X945642Y14885619D01*
X949401Y14881047D01*
X954074Y14877389D01*
X959612Y14874697D01*
X966012Y14873020D01*
X973074Y14872462D01*
X977341Y14872665D01*
X981557Y14873274D01*
X985875Y14874290D01*
X990142Y14875662D01*
X994460Y14877440D01*
X998829Y14879523D01*
X1003198Y14881961D01*
X1012088Y14887854D01*
X1021080Y14894966D01*
X1030274Y14903196D01*
X1039672Y14912441D01*
X1044448Y14917419D01*
X1043635Y14908174D01*
X1043432Y14899132D01*
X1043432Y14867128D01*
X1054100Y14867128D01*
X1054100Y14936216D01*
X1046734Y14936216D01*
X1035405Y14923719D01*
X1024839Y14913051D01*
X1014933Y14904161D01*
X1010259Y14900351D01*
X1001268Y14894051D01*
X996950Y14891512D01*
X992784Y14889378D01*
X988771Y14887651D01*
X984808Y14886330D01*
X980998Y14885416D01*
X977239Y14884857D01*
X973582Y14884654D01*
X968857Y14884958D01*
X964539Y14885924D01*
X960678Y14887498D01*
X957275Y14889784D01*
X954532Y14892680D01*
X952449Y14896338D01*
X951179Y14900656D01*
X950721Y14905736D01*
X951737Y14912543D01*
X954481Y14918842D01*
X958646Y14924532D01*
X963930Y14929612D01*
G37*
G36*
X936752Y14845538D02*
G01*
X936752Y14832330D01*
X951484Y14832584D01*
X978916Y14834869D01*
X978916Y14842998D01*
X951484Y14845284D01*
G37*
G36*
X936752Y14817090D02*
G01*
X936752Y14803628D01*
X951484Y14804136D01*
X978916Y14806676D01*
X978916Y14814296D01*
X951484Y14816836D01*
G37*
G36*
X1006856Y14741651D02*
G01*
X999490Y14741499D01*
X992327Y14740940D01*
X985367Y14740128D01*
X978611Y14738959D01*
X972007Y14737486D01*
X965606Y14735708D01*
X953160Y14731238D01*
X947115Y14728596D01*
X935380Y14722500D01*
X929640Y14719046D01*
X933450Y14711426D01*
X938936Y14714575D01*
X944575Y14717471D01*
X950366Y14720112D01*
X956259Y14722449D01*
X968451Y14726310D01*
X980998Y14729053D01*
X987399Y14730018D01*
X1000302Y14731085D01*
X1006856Y14731238D01*
X1013409Y14731085D01*
X1026312Y14730018D01*
X1032713Y14729053D01*
X1045260Y14726310D01*
X1057452Y14722449D01*
X1063345Y14720112D01*
X1069136Y14717471D01*
X1074775Y14714575D01*
X1080262Y14711426D01*
X1084072Y14719046D01*
X1078331Y14722500D01*
X1066596Y14728596D01*
X1060551Y14731238D01*
X1048156Y14735708D01*
X1041704Y14737486D01*
X1035100Y14738959D01*
X1028344Y14740128D01*
X1021384Y14740940D01*
X1014221Y14741499D01*
G37*
G36*
X1043686Y14691613D02*
G01*
X1043686Y14666722D01*
X958342Y14666722D01*
X958342Y14686280D01*
X950214Y14686280D01*
X948791Y14679625D01*
X947064Y14673681D01*
X945032Y14668449D01*
X942594Y14663928D01*
X942594Y14654276D01*
X1043686Y14654276D01*
X1043686Y14631669D01*
X1054100Y14631669D01*
X1054100Y14691613D01*
G37*
G36*
X942594Y14614144D02*
G01*
X942594Y14545056D01*
X949960Y14545056D01*
X956208Y14549780D01*
X962355Y14553996D01*
X968349Y14557756D01*
X974344Y14561108D01*
X980287Y14564055D01*
X986231Y14566646D01*
X992225Y14568881D01*
X998321Y14570811D01*
X1004519Y14572437D01*
X1010869Y14573808D01*
X1024128Y14575891D01*
X1038453Y14577212D01*
X1054100Y14578076D01*
X1054100Y14591030D01*
X1038707Y14590064D01*
X1024534Y14588439D01*
X1011377Y14586051D01*
X999032Y14582800D01*
X987247Y14578634D01*
X975817Y14573402D01*
X964590Y14567103D01*
X953262Y14559534D01*
X953262Y14614144D01*
G37*
G36*
X1014984Y14535150D02*
G01*
X942594Y14487651D01*
X942594Y14485112D01*
X957071Y14485112D01*
X957071Y14485874D01*
X973074Y14494763D01*
X1013206Y14521688D01*
X1013206Y14486128D01*
X972159Y14486026D01*
X957071Y14485112D01*
X942594Y14485112D01*
X942594Y14474444D01*
X1013206Y14474444D01*
X1013206Y14459204D01*
X1023112Y14459204D01*
X1023112Y14474444D01*
X1054100Y14474444D01*
X1054100Y14486128D01*
X1023112Y14486128D01*
X1023112Y14535150D01*
G37*
G36*
X1040892Y14449806D02*
G01*
X1032764Y14443201D01*
X1037590Y14438020D01*
X1041704Y14431772D01*
X1044600Y14424202D01*
X1045718Y14415007D01*
X1045311Y14410131D01*
X1044194Y14405711D01*
X1042365Y14401800D01*
X1039825Y14398396D01*
X1036726Y14395653D01*
X1032967Y14393621D01*
X1028700Y14392351D01*
X1023874Y14391894D01*
X1018946Y14392351D01*
X1014526Y14393773D01*
X1010615Y14396212D01*
X1007313Y14399818D01*
X1004620Y14404644D01*
X1002639Y14410740D01*
X1001420Y14418259D01*
X1001014Y14427200D01*
X991108Y14427200D01*
X990650Y14419122D01*
X989380Y14412417D01*
X987399Y14406981D01*
X984707Y14402663D01*
X981456Y14399513D01*
X977696Y14397329D01*
X973531Y14396110D01*
X969010Y14395704D01*
X961542Y14397075D01*
X955751Y14400987D01*
X952042Y14407184D01*
X950721Y14415262D01*
X951534Y14421916D01*
X953820Y14428063D01*
X957275Y14433702D01*
X961644Y14438630D01*
X953769Y14445488D01*
X948486Y14439087D01*
X944321Y14431924D01*
X941578Y14423898D01*
X940562Y14414754D01*
X941019Y14408150D01*
X942441Y14402054D01*
X944676Y14396669D01*
X947826Y14391995D01*
X951788Y14388236D01*
X956513Y14385391D01*
X962050Y14383613D01*
X968248Y14383004D01*
X973175Y14383359D01*
X977646Y14384477D01*
X981710Y14386204D01*
X985316Y14388541D01*
X988466Y14391487D01*
X991158Y14394891D01*
X993394Y14398802D01*
X995171Y14403069D01*
X995934Y14403069D01*
X997407Y14398244D01*
X999490Y14393773D01*
X1002182Y14389709D01*
X1005484Y14386153D01*
X1009396Y14383257D01*
X1013815Y14381073D01*
X1018844Y14379701D01*
X1024382Y14379194D01*
X1031443Y14379905D01*
X1037691Y14381937D01*
X1043127Y14385188D01*
X1047699Y14389506D01*
X1051306Y14394688D01*
X1053947Y14400631D01*
X1055573Y14407184D01*
X1056132Y14414246D01*
X1055776Y14420494D01*
X1054811Y14426184D01*
X1053338Y14431263D01*
X1051356Y14435836D01*
X1049070Y14439950D01*
X1046480Y14443608D01*
X1043736Y14446859D01*
G37*
G36*
X933450Y14364462D02*
G01*
X929640Y14356842D01*
X935380Y14353387D01*
X947115Y14347291D01*
X953160Y14344650D01*
X959307Y14342313D01*
X965555Y14340230D01*
X972007Y14338401D01*
X978611Y14336928D01*
X985367Y14335760D01*
X992327Y14334947D01*
X999490Y14334388D01*
X1006856Y14334236D01*
X1014221Y14334388D01*
X1021384Y14334947D01*
X1028344Y14335760D01*
X1035100Y14336928D01*
X1041704Y14338401D01*
X1048156Y14340230D01*
X1054404Y14342313D01*
X1060551Y14344650D01*
X1066596Y14347291D01*
X1078331Y14353387D01*
X1084072Y14356842D01*
X1080262Y14364462D01*
X1074775Y14361312D01*
X1069136Y14358416D01*
X1063345Y14355775D01*
X1057452Y14353438D01*
X1045260Y14349577D01*
X1032713Y14346834D01*
X1026312Y14345869D01*
X1013409Y14344802D01*
X1006856Y14344650D01*
X1000302Y14344802D01*
X987399Y14345869D01*
X980998Y14346834D01*
X974699Y14348104D01*
X968451Y14349628D01*
X962304Y14351406D01*
X956259Y14353438D01*
X950366Y14355775D01*
X944575Y14358416D01*
X938936Y14361312D01*
G37*
G36*
X4595825Y13573251D02*
G01*
X4592574Y13573048D01*
X4591304Y13572744D01*
X4591304Y13564107D01*
X4598924Y13564107D01*
X4608626Y13562888D01*
X4615637Y13559434D01*
X4619853Y13553795D01*
X4621276Y13546328D01*
X4619752Y13539063D01*
X4615332Y13532815D01*
X4608322Y13528192D01*
X4598924Y13525754D01*
X4598924Y13564107D01*
X4591304Y13564107D01*
X4591304Y13526007D01*
X4585817Y13526617D01*
X4580890Y13527938D01*
X4576572Y13530021D01*
X4572863Y13532764D01*
X4569917Y13536066D01*
X4567732Y13540028D01*
X4566361Y13544448D01*
X4565904Y13549376D01*
X4566259Y13554303D01*
X4567377Y13558824D01*
X4569104Y13562990D01*
X4571492Y13566901D01*
X4564634Y13570712D01*
X4561890Y13565987D01*
X4559655Y13560755D01*
X4558080Y13554862D01*
X4557522Y13548106D01*
X4558131Y13541552D01*
X4559960Y13535406D01*
X4562957Y13529868D01*
X4567072Y13525093D01*
X4572254Y13521131D01*
X4578400Y13518134D01*
X4585563Y13516254D01*
X4593590Y13515594D01*
X4601464Y13516254D01*
X4608525Y13518184D01*
X4614722Y13521182D01*
X4619904Y13525042D01*
X4624070Y13529665D01*
X4627118Y13534898D01*
X4628997Y13540486D01*
X4629658Y13546328D01*
X4629099Y13552373D01*
X4627422Y13557707D01*
X4624679Y13562330D01*
X4620971Y13566190D01*
X4616399Y13569238D01*
X4610912Y13571423D01*
X4604664Y13572794D01*
G37*
G36*
X4550918Y13509244D02*
G01*
X4546346Y13508634D01*
X4541977Y13506805D01*
X4537964Y13503910D01*
X4534458Y13499896D01*
X4531512Y13494969D01*
X4529226Y13489076D01*
X4527804Y13482421D01*
X4527399Y13476478D01*
X4534662Y13476478D01*
X4535932Y13485774D01*
X4539284Y13492937D01*
X4544009Y13497458D01*
X4549394Y13499084D01*
X4553610Y13498118D01*
X4556455Y13495375D01*
X4558030Y13490854D01*
X4558538Y13484606D01*
X4558588Y13470280D01*
X4559554Y13463269D01*
X4556607Y13459968D01*
X4553559Y13457682D01*
X4550460Y13456361D01*
X4547362Y13455904D01*
X4542078Y13457275D01*
X4538065Y13461339D01*
X4535525Y13467791D01*
X4534662Y13476478D01*
X4527399Y13476478D01*
X4527296Y13474954D01*
X4527600Y13468908D01*
X4528566Y13463473D01*
X4530090Y13458647D01*
X4532172Y13454583D01*
X4534814Y13451281D01*
X4538014Y13448792D01*
X4541672Y13447268D01*
X4545838Y13446760D01*
X4550206Y13447471D01*
X4554372Y13449452D01*
X4558233Y13452652D01*
X4561586Y13456919D01*
X4562094Y13456919D01*
X4564075Y13454430D01*
X4566564Y13452398D01*
X4569714Y13451078D01*
X4573524Y13450569D01*
X4577486Y13451281D01*
X4581042Y13453160D01*
X4583938Y13455599D01*
X4586224Y13458190D01*
X4586732Y13458190D01*
X4589983Y13454989D01*
X4594301Y13452144D01*
X4599432Y13450062D01*
X4605274Y13449300D01*
X4610557Y13449807D01*
X4615281Y13451332D01*
X4619447Y13453719D01*
X4623003Y13456869D01*
X4625848Y13460628D01*
X4627930Y13464946D01*
X4629200Y13469670D01*
X4629658Y13474700D01*
X4629150Y13479983D01*
X4627880Y13484351D01*
X4627880Y13507974D01*
X4620006Y13507974D01*
X4620006Y13493496D01*
X4617161Y13495934D01*
X4613656Y13497864D01*
X4609592Y13499134D01*
X4605020Y13499592D01*
X4599787Y13499084D01*
X4595063Y13497661D01*
X4590999Y13495375D01*
X4587544Y13492378D01*
X4584801Y13488720D01*
X4582820Y13484504D01*
X4581550Y13479780D01*
X4581144Y13474700D01*
X4588256Y13474700D01*
X4589475Y13480643D01*
X4592878Y13485571D01*
X4598212Y13488974D01*
X4605274Y13490194D01*
X4612284Y13488974D01*
X4617567Y13485571D01*
X4620869Y13480643D01*
X4622038Y13474700D01*
X4620869Y13468807D01*
X4617567Y13463930D01*
X4612284Y13460679D01*
X4605274Y13459460D01*
X4598212Y13460679D01*
X4592878Y13464032D01*
X4589475Y13468908D01*
X4588256Y13474700D01*
X4581144Y13474700D01*
X4581702Y13469416D01*
X4582414Y13466724D01*
X4583430Y13464286D01*
X4581855Y13462507D01*
X4579975Y13461034D01*
X4577689Y13460069D01*
X4574794Y13459713D01*
X4571796Y13460272D01*
X4569358Y13462304D01*
X4567732Y13466013D01*
X4567174Y13471906D01*
X4567174Y13485622D01*
X4566208Y13495934D01*
X4563211Y13503351D01*
X4558182Y13507770D01*
G37*
G36*
X4559300Y13428218D02*
G01*
X4559300Y13419582D01*
X4567428Y13418819D01*
X4567428Y13418312D01*
X4563618Y13413943D01*
X4560468Y13408913D01*
X4558334Y13403326D01*
X4557792Y13399262D01*
X4566412Y13399262D01*
X4567021Y13404088D01*
X4568850Y13408710D01*
X4571898Y13413282D01*
X4576064Y13417804D01*
X4613148Y13417804D01*
X4616754Y13413333D01*
X4619193Y13409066D01*
X4620564Y13404748D01*
X4621022Y13400278D01*
X4620514Y13396061D01*
X4618990Y13392150D01*
X4616551Y13388644D01*
X4613300Y13385596D01*
X4609287Y13383158D01*
X4604613Y13381278D01*
X4599381Y13380110D01*
X4593590Y13379704D01*
X4587544Y13380008D01*
X4582160Y13381024D01*
X4577537Y13382599D01*
X4573625Y13384834D01*
X4570526Y13387628D01*
X4568240Y13390930D01*
X4566869Y13394842D01*
X4566412Y13399262D01*
X4557792Y13399262D01*
X4557522Y13397230D01*
X4558131Y13391032D01*
X4559960Y13385495D01*
X4562906Y13380618D01*
X4566970Y13376503D01*
X4572152Y13373252D01*
X4578299Y13370813D01*
X4585462Y13369290D01*
X4593590Y13368782D01*
X4601464Y13369442D01*
X4608525Y13371271D01*
X4614722Y13374116D01*
X4619904Y13377875D01*
X4624070Y13382345D01*
X4627118Y13387425D01*
X4628997Y13392962D01*
X4629658Y13398754D01*
X4629099Y13404392D01*
X4627473Y13409320D01*
X4624933Y13413841D01*
X4621530Y13418312D01*
X4633468Y13417804D01*
X4660392Y13417804D01*
X4660392Y13428218D01*
G37*
G36*
X4649978Y13352272D02*
G01*
X4646879Y13351713D01*
X4644593Y13350240D01*
X4643120Y13348004D01*
X4642612Y13345160D01*
X4643120Y13342162D01*
X4644593Y13339876D01*
X4646879Y13338352D01*
X4649978Y13337794D01*
X4652772Y13338352D01*
X4654905Y13339876D01*
X4656328Y13342162D01*
X4656836Y13345160D01*
X4656328Y13348004D01*
X4654905Y13350240D01*
X4652772Y13351713D01*
G37*
G36*
X4559300Y13350240D02*
G01*
X4559300Y13339826D01*
X4627880Y13339826D01*
X4627880Y13350240D01*
G37*
G36*
X4628134Y13328142D02*
G01*
X4619244Y13326110D01*
X4620056Y13323011D01*
X4620260Y13319760D01*
X4619396Y13315188D01*
X4616602Y13310463D01*
X4611573Y13305993D01*
X4604004Y13301980D01*
X4559300Y13301980D01*
X4559300Y13291819D01*
X4627880Y13291819D01*
X4627880Y13300201D01*
X4615180Y13301218D01*
X4615180Y13301472D01*
X4621174Y13305434D01*
X4625746Y13310107D01*
X4628642Y13315340D01*
X4629658Y13321030D01*
X4629353Y13324789D01*
X4628896Y13326465D01*
G37*
G36*
X4594606Y13273024D02*
G01*
X4586325Y13272414D01*
X4578959Y13270585D01*
X4572609Y13267740D01*
X4567326Y13264032D01*
X4563110Y13259562D01*
X4560011Y13254482D01*
X4558182Y13248944D01*
X4557522Y13243051D01*
X4557726Y13241528D01*
X4566412Y13241528D01*
X4566920Y13245846D01*
X4568342Y13249808D01*
X4570730Y13253364D01*
X4573930Y13256412D01*
X4577994Y13258901D01*
X4582820Y13260781D01*
X4588357Y13261949D01*
X4594606Y13262356D01*
X4600194Y13262101D01*
X4605274Y13261289D01*
X4609795Y13259968D01*
X4613605Y13257987D01*
X4616754Y13255345D01*
X4619091Y13252094D01*
X4620514Y13248081D01*
X4621022Y13243306D01*
X4620361Y13238683D01*
X4618431Y13233958D01*
X4615230Y13229031D01*
X4610862Y13224001D01*
X4573778Y13224001D01*
X4570374Y13228777D01*
X4568088Y13233450D01*
X4566818Y13237768D01*
X4566412Y13241528D01*
X4557726Y13241528D01*
X4558182Y13238124D01*
X4559960Y13233044D01*
X4562754Y13228015D01*
X4566412Y13223240D01*
X4566412Y13222986D01*
X4559300Y13221969D01*
X4559300Y13213842D01*
X4660392Y13213842D01*
X4660392Y13224001D01*
X4632198Y13224001D01*
X4619752Y13223494D01*
X4623562Y13228624D01*
X4626711Y13234060D01*
X4628845Y13239750D01*
X4629658Y13245592D01*
X4628997Y13251942D01*
X4627168Y13257479D01*
X4624120Y13262203D01*
X4620056Y13266064D01*
X4614976Y13269112D01*
X4608982Y13271296D01*
X4602175Y13272566D01*
G37*
G36*
X4541774Y13200126D02*
G01*
X4541774Y13132562D01*
X4548886Y13132562D01*
X4548886Y13200126D01*
G37*
G36*
X4559300Y13124434D02*
G01*
X4559300Y13067030D01*
X4565396Y13067030D01*
X4571746Y13074142D01*
X4577791Y13080542D01*
X4583582Y13086283D01*
X4589170Y13091363D01*
X4594504Y13095833D01*
X4599584Y13099643D01*
X4604512Y13102844D01*
X4609185Y13105434D01*
X4613706Y13107416D01*
X4618075Y13108838D01*
X4622292Y13109701D01*
X4626356Y13109956D01*
X4633925Y13108889D01*
X4639970Y13105638D01*
X4643983Y13100100D01*
X4645406Y13092176D01*
X4644542Y13086638D01*
X4642256Y13081406D01*
X4638751Y13076631D01*
X4634484Y13072363D01*
X4640326Y13066268D01*
X4645863Y13072110D01*
X4650130Y13078307D01*
X4652822Y13085318D01*
X4653788Y13093446D01*
X4653280Y13099338D01*
X4651857Y13104571D01*
X4649571Y13109143D01*
X4646422Y13112953D01*
X4642510Y13116051D01*
X4637938Y13118287D01*
X4632706Y13119658D01*
X4626864Y13120116D01*
X4622088Y13119811D01*
X4617313Y13118896D01*
X4612538Y13117474D01*
X4607712Y13115442D01*
X4602886Y13112902D01*
X4598009Y13109905D01*
X4593082Y13106400D01*
X4588103Y13102437D01*
X4577892Y13093242D01*
X4567428Y13082524D01*
X4567986Y13090347D01*
X4568190Y13097763D01*
X4568190Y13124434D01*
G37*
G36*
X4606036Y13054838D02*
G01*
X4598314Y13054634D01*
X4591253Y13053923D01*
X4584852Y13052856D01*
X4579112Y13051332D01*
X4574082Y13049453D01*
X4569663Y13047167D01*
X4565954Y13044525D01*
X4562906Y13041579D01*
X4560570Y13038226D01*
X4558893Y13034568D01*
X4557877Y13030606D01*
X4557522Y13026390D01*
X4565904Y13026390D01*
X4566513Y13030301D01*
X4568342Y13033857D01*
X4571390Y13036956D01*
X4575708Y13039648D01*
X4581296Y13041782D01*
X4588205Y13043357D01*
X4596434Y13044322D01*
X4606036Y13044678D01*
X4615535Y13044322D01*
X4623663Y13043357D01*
X4630420Y13041782D01*
X4635906Y13039648D01*
X4640122Y13036956D01*
X4643069Y13033857D01*
X4644847Y13030301D01*
X4645406Y13026390D01*
X4644847Y13022478D01*
X4643069Y13018871D01*
X4640122Y13015721D01*
X4635906Y13013029D01*
X4630420Y13010845D01*
X4623663Y13009219D01*
X4615535Y13008203D01*
X4606036Y13007848D01*
X4596434Y13008203D01*
X4588205Y13009219D01*
X4581296Y13010845D01*
X4575708Y13013029D01*
X4571390Y13015721D01*
X4568342Y13018871D01*
X4566513Y13022478D01*
X4565904Y13026390D01*
X4557522Y13026390D01*
X4557877Y13022173D01*
X4558893Y13018211D01*
X4560570Y13014553D01*
X4562906Y13011200D01*
X4565954Y13008254D01*
X4569663Y13005612D01*
X4574082Y13003326D01*
X4579112Y13001447D01*
X4584852Y12999923D01*
X4591253Y12998856D01*
X4598314Y12998145D01*
X4606036Y12997942D01*
X4613757Y12998145D01*
X4620768Y12998856D01*
X4627118Y12999923D01*
X4632756Y13001447D01*
X4637735Y13003326D01*
X4642002Y13005612D01*
X4645609Y13008254D01*
X4648555Y13011200D01*
X4650841Y13014553D01*
X4652467Y13018211D01*
X4653483Y13022173D01*
X4653788Y13026390D01*
X4653483Y13030606D01*
X4652467Y13034568D01*
X4650841Y13038226D01*
X4648555Y13041579D01*
X4645609Y13044525D01*
X4642002Y13047167D01*
X4637735Y13049453D01*
X4632756Y13051332D01*
X4627118Y13052856D01*
X4620768Y13053923D01*
X4613757Y13054634D01*
G37*
G36*
X4589272Y12984734D02*
G01*
X4582160Y12984073D01*
X4575860Y12982194D01*
X4570425Y12979247D01*
X4565853Y12975488D01*
X4562297Y12970967D01*
X4559655Y12965887D01*
X4558080Y12960400D01*
X4557522Y12954762D01*
X4558588Y12944957D01*
X4561484Y12936982D01*
X4565446Y12930530D01*
X4569968Y12925298D01*
X4576826Y12930632D01*
X4572863Y12934950D01*
X4569510Y12940080D01*
X4567275Y12946278D01*
X4566412Y12953746D01*
X4566818Y12957860D01*
X4567986Y12961670D01*
X4569917Y12965176D01*
X4572508Y12968224D01*
X4575810Y12970764D01*
X4579721Y12972694D01*
X4584192Y12973913D01*
X4589272Y12974320D01*
X4598466Y12972897D01*
X4605324Y12968884D01*
X4609642Y12962534D01*
X4611116Y12954254D01*
X4610760Y12949885D01*
X4609642Y12946024D01*
X4607915Y12942316D01*
X4605528Y12938506D01*
X4609084Y12932918D01*
X4652264Y12935712D01*
X4652264Y12980162D01*
X4643374Y12980162D01*
X4643374Y12944856D01*
X4615180Y12942316D01*
X4616907Y12945567D01*
X4618177Y12948970D01*
X4618990Y12952679D01*
X4619244Y12956794D01*
X4618786Y12962432D01*
X4617466Y12967716D01*
X4615180Y12972440D01*
X4611979Y12976555D01*
X4607814Y12979958D01*
X4602632Y12982549D01*
X4596485Y12984175D01*
G37*
G36*
X4587748Y12916154D02*
G01*
X4581296Y12915595D01*
X4575403Y12914071D01*
X4570272Y12911632D01*
X4565853Y12908381D01*
X4562348Y12904520D01*
X4559706Y12900101D01*
X4558080Y12895224D01*
X4557522Y12889992D01*
X4565904Y12889992D01*
X4567478Y12896545D01*
X4571949Y12901777D01*
X4578858Y12905232D01*
X4587748Y12906502D01*
X4596434Y12905435D01*
X4603191Y12902234D01*
X4607560Y12896748D01*
X4609084Y12888976D01*
X4608372Y12884353D01*
X4606188Y12879374D01*
X4602327Y12874345D01*
X4596638Y12869418D01*
X4589678Y12870180D01*
X4583582Y12871450D01*
X4578299Y12873278D01*
X4573930Y12875615D01*
X4570476Y12878460D01*
X4567936Y12881813D01*
X4566412Y12885674D01*
X4565904Y12889992D01*
X4557522Y12889992D01*
X4557826Y12885674D01*
X4558842Y12881559D01*
X4560468Y12877698D01*
X4562703Y12874142D01*
X4565650Y12870891D01*
X4569155Y12867944D01*
X4573320Y12865404D01*
X4578146Y12863271D01*
X4583582Y12861544D01*
X4589576Y12860324D01*
X4596231Y12859512D01*
X4603496Y12859258D01*
X4612182Y12859562D01*
X4619904Y12860528D01*
X4626762Y12862052D01*
X4632807Y12864134D01*
X4637989Y12866674D01*
X4642358Y12869621D01*
X4645964Y12872923D01*
X4648860Y12876580D01*
X4651095Y12880492D01*
X4652619Y12884607D01*
X4653483Y12888874D01*
X4653788Y12893294D01*
X4653127Y12899898D01*
X4651197Y12905587D01*
X4648301Y12910464D01*
X4644644Y12914630D01*
X4638294Y12908788D01*
X4641240Y12905638D01*
X4643475Y12901980D01*
X4644898Y12897967D01*
X4645406Y12893802D01*
X4644898Y12888976D01*
X4643374Y12884454D01*
X4640630Y12880340D01*
X4636617Y12876733D01*
X4631182Y12873685D01*
X4624273Y12871348D01*
X4615789Y12869824D01*
X4605528Y12869164D01*
X4610150Y12873939D01*
X4613706Y12879273D01*
X4615942Y12884861D01*
X4616704Y12890500D01*
X4616246Y12896138D01*
X4614875Y12901168D01*
X4612640Y12905536D01*
X4609490Y12909245D01*
X4605375Y12912191D01*
X4600397Y12914376D01*
X4594555Y12915696D01*
G37*
G36*
X4541774Y12850368D02*
G01*
X4541774Y12783058D01*
X4548886Y12783058D01*
X4548886Y12850368D01*
G37*
G36*
X4627880Y12779756D02*
G01*
X4552950Y12753594D01*
X4548225Y12751765D01*
X4543806Y12749631D01*
X4539792Y12747193D01*
X4536287Y12744348D01*
X4533392Y12741097D01*
X4531207Y12737388D01*
X4529836Y12733223D01*
X4529328Y12728448D01*
X4529683Y12724231D01*
X4530598Y12720574D01*
X4538980Y12722860D01*
X4538268Y12725247D01*
X4537964Y12728194D01*
X4539183Y12733578D01*
X4542485Y12737998D01*
X4547514Y12741503D01*
X4553712Y12744196D01*
X4559046Y12745720D01*
X4627880Y12718034D01*
X4627880Y12728702D01*
X4588764Y12743434D01*
X4569206Y12750292D01*
X4569206Y12750800D01*
X4588764Y12756642D01*
X4627880Y12769596D01*
G37*
G36*
X4577588Y12711684D02*
G01*
X4573676Y12711277D01*
X4569968Y12710109D01*
X4566564Y12708128D01*
X4563567Y12705384D01*
X4561078Y12701879D01*
X4559147Y12697663D01*
X4557928Y12692684D01*
X4557522Y12687046D01*
X4558233Y12679883D01*
X4560214Y12673126D01*
X4563211Y12666929D01*
X4566920Y12661646D01*
X4574032Y12666726D01*
X4570730Y12671348D01*
X4568139Y12676174D01*
X4566513Y12681508D01*
X4565904Y12687554D01*
X4566767Y12693751D01*
X4569104Y12698171D01*
X4572660Y12700863D01*
X4577080Y12701778D01*
X4581906Y12700355D01*
X4585563Y12696647D01*
X4588408Y12691465D01*
X4593590Y12678410D01*
X4597450Y12671907D01*
X4602835Y12667234D01*
X4610354Y12665456D01*
X4617872Y12666980D01*
X4624019Y12671501D01*
X4628134Y12678867D01*
X4629658Y12688824D01*
X4629099Y12694767D01*
X4627473Y12700304D01*
X4625035Y12705283D01*
X4622038Y12709652D01*
X4615180Y12704572D01*
X4617669Y12700914D01*
X4619701Y12697155D01*
X4621022Y12693192D01*
X4621530Y12688824D01*
X4620666Y12682880D01*
X4618380Y12678664D01*
X4614976Y12676174D01*
X4610862Y12675362D01*
X4606442Y12676581D01*
X4603242Y12679883D01*
X4600803Y12684709D01*
X4595520Y12697968D01*
X4591558Y12704826D01*
X4585868Y12709753D01*
G37*
G36*
X4559300Y12646660D02*
G01*
X4559300Y12636246D01*
X4601464Y12636246D01*
X4609998Y12635484D01*
X4615942Y12632994D01*
X4619396Y12628727D01*
X4620514Y12622530D01*
X4619802Y12617450D01*
X4617669Y12612776D01*
X4614214Y12608052D01*
X4609338Y12602972D01*
X4559300Y12602972D01*
X4559300Y12592812D01*
X4627880Y12592812D01*
X4627880Y12601194D01*
X4617720Y12602210D01*
X4617720Y12602464D01*
X4622393Y12607544D01*
X4626152Y12612979D01*
X4628743Y12618923D01*
X4629658Y12625578D01*
X4629251Y12630658D01*
X4627930Y12634976D01*
X4625848Y12638633D01*
X4622901Y12641529D01*
X4619142Y12643815D01*
X4614570Y12645390D01*
X4609185Y12646355D01*
X4602988Y12646660D01*
G37*
G36*
X4595825Y12575286D02*
G01*
X4592574Y12575082D01*
X4591304Y12574778D01*
X4591304Y12566142D01*
X4598924Y12566142D01*
X4608626Y12564922D01*
X4615637Y12561468D01*
X4619853Y12555880D01*
X4621276Y12548362D01*
X4619752Y12541097D01*
X4615332Y12534849D01*
X4608322Y12530226D01*
X4598924Y12527788D01*
X4598924Y12566142D01*
X4591304Y12566142D01*
X4591304Y12528042D01*
X4585817Y12528651D01*
X4580890Y12529972D01*
X4576572Y12532055D01*
X4572863Y12534747D01*
X4569917Y12538100D01*
X4567732Y12542062D01*
X4566361Y12546482D01*
X4565904Y12551410D01*
X4566259Y12556337D01*
X4567377Y12560858D01*
X4569104Y12565024D01*
X4571492Y12568936D01*
X4564634Y12572746D01*
X4561890Y12568021D01*
X4559655Y12562789D01*
X4558080Y12556896D01*
X4557522Y12550140D01*
X4558131Y12543586D01*
X4559960Y12537440D01*
X4562957Y12531902D01*
X4567072Y12527127D01*
X4572254Y12523165D01*
X4578400Y12520168D01*
X4585563Y12518288D01*
X4593590Y12517628D01*
X4601464Y12518288D01*
X4608525Y12520218D01*
X4614722Y12523216D01*
X4619904Y12527076D01*
X4624070Y12531699D01*
X4627118Y12536932D01*
X4628997Y12542520D01*
X4629658Y12548362D01*
X4629099Y12554407D01*
X4627422Y12559741D01*
X4624679Y12564364D01*
X4620971Y12568224D01*
X4616399Y12571272D01*
X4610912Y12573457D01*
X4604664Y12574828D01*
G37*
G36*
X4597654Y12505690D02*
G01*
X4594098Y12505537D01*
X4591304Y12505182D01*
X4591304Y12496546D01*
X4598924Y12496546D01*
X4608626Y12495326D01*
X4615637Y12491821D01*
X4619853Y12486284D01*
X4621276Y12478766D01*
X4619752Y12471450D01*
X4615332Y12465151D01*
X4608322Y12460528D01*
X4598924Y12458192D01*
X4598924Y12496546D01*
X4591304Y12496546D01*
X4591304Y12458192D01*
X4585817Y12458852D01*
X4580890Y12460274D01*
X4576572Y12462408D01*
X4572863Y12465151D01*
X4569917Y12468504D01*
X4567732Y12472466D01*
X4566361Y12476886D01*
X4565904Y12481814D01*
X4566259Y12486589D01*
X4567377Y12491008D01*
X4569104Y12495174D01*
X4571492Y12499086D01*
X4564634Y12502896D01*
X4561890Y12498273D01*
X4559655Y12493040D01*
X4558080Y12487198D01*
X4557522Y12480544D01*
X4558131Y12473990D01*
X4559960Y12467844D01*
X4562957Y12462306D01*
X4567072Y12457531D01*
X4572254Y12453569D01*
X4578400Y12450572D01*
X4585563Y12448692D01*
X4593590Y12448032D01*
X4601464Y12448692D01*
X4608525Y12450572D01*
X4614722Y12453518D01*
X4619904Y12457379D01*
X4624070Y12461951D01*
X4627118Y12467082D01*
X4628997Y12472670D01*
X4629658Y12478512D01*
X4629099Y12484658D01*
X4627422Y12490043D01*
X4624679Y12494717D01*
X4620971Y12498578D01*
X4616399Y12501626D01*
X4610912Y12503861D01*
X4604664Y12505232D01*
G37*
G36*
X4560062Y12441428D02*
G01*
X4557776Y12432233D01*
X4557522Y12429236D01*
X4557928Y12424257D01*
X4559147Y12420142D01*
X4561128Y12416840D01*
X4563770Y12414300D01*
X4567072Y12412421D01*
X4570933Y12411151D01*
X4575302Y12410389D01*
X4580128Y12410186D01*
X4619244Y12410186D01*
X4619244Y12399772D01*
X4627372Y12399772D01*
X4627880Y12410694D01*
X4647438Y12411964D01*
X4647438Y12420600D01*
X4627880Y12420600D01*
X4627880Y12439396D01*
X4619244Y12439396D01*
X4619244Y12420600D01*
X4579620Y12420600D01*
X4573981Y12421108D01*
X4569764Y12422886D01*
X4567072Y12426188D01*
X4566158Y12431268D01*
X4566666Y12435433D01*
X4567936Y12439396D01*
G37*
G36*
X4659884Y12393168D02*
G01*
X4536694Y12354052D01*
X4536694Y12346432D01*
X4659884Y12385548D01*
G37*
G36*
X4595825Y12339574D02*
G01*
X4592574Y12339370D01*
X4591304Y12339066D01*
X4591304Y12330430D01*
X4598924Y12330430D01*
X4608626Y12329210D01*
X4615637Y12325705D01*
X4619853Y12320168D01*
X4621276Y12312650D01*
X4619752Y12305385D01*
X4615332Y12299137D01*
X4608322Y12294514D01*
X4598924Y12292076D01*
X4598924Y12330430D01*
X4591304Y12330430D01*
X4591304Y12292330D01*
X4585817Y12292939D01*
X4580890Y12294260D01*
X4576572Y12296343D01*
X4572863Y12299086D01*
X4569917Y12302388D01*
X4567732Y12306350D01*
X4566361Y12310770D01*
X4565904Y12315698D01*
X4566259Y12320625D01*
X4567377Y12325146D01*
X4569104Y12329312D01*
X4571492Y12333224D01*
X4564634Y12337034D01*
X4561890Y12332309D01*
X4559655Y12327077D01*
X4558080Y12321184D01*
X4557522Y12314428D01*
X4558131Y12307874D01*
X4559960Y12301728D01*
X4562957Y12296190D01*
X4567072Y12291415D01*
X4572254Y12287453D01*
X4578400Y12284456D01*
X4585563Y12282576D01*
X4593590Y12281916D01*
X4601464Y12282576D01*
X4608525Y12284506D01*
X4614722Y12287504D01*
X4619904Y12291364D01*
X4624070Y12295987D01*
X4627118Y12301220D01*
X4628997Y12306808D01*
X4629658Y12312650D01*
X4629099Y12318695D01*
X4627422Y12324029D01*
X4624679Y12328652D01*
X4620971Y12332512D01*
X4616399Y12335560D01*
X4610912Y12337745D01*
X4604664Y12339116D01*
G37*
G36*
X4559300Y12263374D02*
G01*
X4559300Y12254738D01*
X4567428Y12253976D01*
X4567428Y12253468D01*
X4563618Y12249099D01*
X4560468Y12244070D01*
X4558334Y12238482D01*
X4557792Y12234418D01*
X4566412Y12234418D01*
X4567021Y12239244D01*
X4568850Y12243866D01*
X4571898Y12248438D01*
X4576064Y12252960D01*
X4613148Y12252960D01*
X4616754Y12248489D01*
X4619193Y12244171D01*
X4620564Y12239904D01*
X4621022Y12235434D01*
X4620514Y12231217D01*
X4618990Y12227306D01*
X4616551Y12223800D01*
X4613300Y12220752D01*
X4609287Y12218263D01*
X4604613Y12216434D01*
X4599381Y12215266D01*
X4593590Y12214860D01*
X4587544Y12215164D01*
X4582160Y12216180D01*
X4577537Y12217755D01*
X4573625Y12219990D01*
X4570526Y12222784D01*
X4568240Y12226086D01*
X4566869Y12229998D01*
X4566412Y12234418D01*
X4557792Y12234418D01*
X4557522Y12232386D01*
X4558131Y12226188D01*
X4559960Y12220651D01*
X4562906Y12215774D01*
X4566970Y12211710D01*
X4572152Y12208408D01*
X4578299Y12205970D01*
X4585462Y12204446D01*
X4593590Y12203938D01*
X4601464Y12204598D01*
X4608525Y12206427D01*
X4614722Y12209272D01*
X4619904Y12213031D01*
X4624070Y12217501D01*
X4627118Y12222581D01*
X4628997Y12228118D01*
X4629658Y12233910D01*
X4629099Y12239548D01*
X4627473Y12244476D01*
X4624933Y12248997D01*
X4621530Y12253468D01*
X4633468Y12252960D01*
X4660392Y12252960D01*
X4660392Y12263374D01*
G37*
G36*
X4593590Y12190476D02*
G01*
X4585462Y12189815D01*
X4578299Y12187936D01*
X4572152Y12184938D01*
X4566970Y12181027D01*
X4562906Y12176302D01*
X4559960Y12170968D01*
X4558131Y12165126D01*
X4557522Y12158980D01*
X4566412Y12158980D01*
X4566920Y12163399D01*
X4568342Y12167362D01*
X4570679Y12170918D01*
X4573828Y12173966D01*
X4577740Y12176455D01*
X4582363Y12178284D01*
X4587697Y12179401D01*
X4593590Y12179808D01*
X4599432Y12179401D01*
X4604715Y12178284D01*
X4609388Y12176455D01*
X4613402Y12173966D01*
X4616653Y12170918D01*
X4619040Y12167362D01*
X4620514Y12163399D01*
X4621022Y12158980D01*
X4620514Y12154509D01*
X4619040Y12150496D01*
X4616653Y12146940D01*
X4613402Y12143892D01*
X4609388Y12141454D01*
X4604715Y12139676D01*
X4599432Y12138558D01*
X4593590Y12138152D01*
X4587697Y12138558D01*
X4582363Y12139676D01*
X4577740Y12141454D01*
X4573828Y12143892D01*
X4570679Y12146940D01*
X4568342Y12150496D01*
X4566920Y12154509D01*
X4566412Y12158980D01*
X4557522Y12158980D01*
X4558131Y12152833D01*
X4559960Y12146991D01*
X4562906Y12141657D01*
X4566970Y12136932D01*
X4572152Y12133021D01*
X4578299Y12130024D01*
X4585462Y12128144D01*
X4593590Y12127484D01*
X4601718Y12128144D01*
X4608880Y12130024D01*
X4615027Y12133021D01*
X4620209Y12136932D01*
X4624273Y12141657D01*
X4627219Y12146991D01*
X4629048Y12152833D01*
X4629658Y12158980D01*
X4629048Y12165126D01*
X4627219Y12170968D01*
X4624273Y12176302D01*
X4620209Y12181027D01*
X4615027Y12184938D01*
X4608880Y12187936D01*
X4601718Y12189815D01*
G37*
G36*
X4566412Y12120118D02*
G01*
X4562754Y12115292D01*
X4559960Y12109907D01*
X4558182Y12104166D01*
X4557522Y12098020D01*
X4558131Y12091466D01*
X4559960Y12085421D01*
X4562906Y12079986D01*
X4566970Y12075261D01*
X4572152Y12071400D01*
X4578299Y12068505D01*
X4585462Y12066676D01*
X4593590Y12066016D01*
X4601718Y12066727D01*
X4608880Y12068657D01*
X4615027Y12071756D01*
X4620209Y12075820D01*
X4624273Y12080697D01*
X4627219Y12086285D01*
X4629048Y12092330D01*
X4629658Y12098782D01*
X4628997Y12104979D01*
X4627219Y12110313D01*
X4624628Y12114936D01*
X4621530Y12118848D01*
X4614672Y12113260D01*
X4617161Y12110161D01*
X4619193Y12106808D01*
X4620514Y12103150D01*
X4621022Y12099036D01*
X4620514Y12094413D01*
X4619040Y12090196D01*
X4616653Y12086386D01*
X4613402Y12083084D01*
X4609388Y12080392D01*
X4604715Y12078411D01*
X4599432Y12077141D01*
X4593590Y12076684D01*
X4587697Y12077090D01*
X4582363Y12078258D01*
X4577740Y12080189D01*
X4573828Y12082780D01*
X4570679Y12085980D01*
X4568342Y12089739D01*
X4566920Y12094057D01*
X4566412Y12098782D01*
X4566970Y12103557D01*
X4568393Y12108027D01*
X4570577Y12112040D01*
X4573270Y12115546D01*
G37*
G36*
X4628134Y12061190D02*
G01*
X4619244Y12059158D01*
X4620056Y12056059D01*
X4620260Y12052554D01*
X4619396Y12047982D01*
X4616602Y12043308D01*
X4611573Y12038888D01*
X4604004Y12035028D01*
X4559300Y12035028D01*
X4559300Y12024614D01*
X4627880Y12024614D01*
X4627880Y12032996D01*
X4615180Y12034012D01*
X4615180Y12034520D01*
X4621174Y12038380D01*
X4625746Y12043003D01*
X4628642Y12048236D01*
X4629658Y12053824D01*
X4629353Y12057786D01*
X4628896Y12059513D01*
G37*
G36*
X4559300Y12000738D02*
G01*
X4559300Y11992102D01*
X4567428Y11991340D01*
X4567428Y11990832D01*
X4563618Y11986463D01*
X4560468Y11981434D01*
X4558334Y11975846D01*
X4557792Y11971782D01*
X4566412Y11971782D01*
X4567021Y11976608D01*
X4568850Y11981230D01*
X4571898Y11985802D01*
X4576064Y11990324D01*
X4613148Y11990324D01*
X4616754Y11985853D01*
X4619193Y11981586D01*
X4620564Y11977268D01*
X4621022Y11972798D01*
X4620514Y11968581D01*
X4618990Y11964670D01*
X4616551Y11961164D01*
X4613300Y11958116D01*
X4609287Y11955678D01*
X4604613Y11953798D01*
X4599381Y11952630D01*
X4593590Y11952224D01*
X4587544Y11952528D01*
X4582160Y11953544D01*
X4577537Y11955119D01*
X4573625Y11957354D01*
X4570526Y11960148D01*
X4568240Y11963450D01*
X4566869Y11967362D01*
X4566412Y11971782D01*
X4557792Y11971782D01*
X4557522Y11969750D01*
X4558131Y11963552D01*
X4559960Y11958015D01*
X4562906Y11953138D01*
X4566970Y11949074D01*
X4572152Y11945772D01*
X4578299Y11943334D01*
X4585462Y11941810D01*
X4593590Y11941302D01*
X4601464Y11941962D01*
X4608525Y11943791D01*
X4614722Y11946636D01*
X4619904Y11950395D01*
X4624070Y11954865D01*
X4627118Y11959945D01*
X4628997Y11965482D01*
X4629658Y11971274D01*
X4629099Y11976912D01*
X4627473Y11981789D01*
X4624933Y11986361D01*
X4621530Y11990832D01*
X4633468Y11990324D01*
X4660392Y11990324D01*
X4660392Y12000738D01*
G37*
G36*
X4559300Y11922506D02*
G01*
X4559300Y11914124D01*
X4567428Y11913108D01*
X4567428Y11912854D01*
X4563618Y11908332D01*
X4560468Y11903252D01*
X4558334Y11897614D01*
X4557826Y11893804D01*
X4566412Y11893804D01*
X4567021Y11898630D01*
X4568850Y11903252D01*
X4571898Y11907824D01*
X4576064Y11912346D01*
X4613148Y11912346D01*
X4616754Y11907774D01*
X4619193Y11903405D01*
X4620564Y11899138D01*
X4621022Y11894820D01*
X4620514Y11890552D01*
X4618990Y11886641D01*
X4616551Y11883085D01*
X4613300Y11880037D01*
X4609287Y11877497D01*
X4604613Y11875617D01*
X4599381Y11874398D01*
X4593590Y11873992D01*
X4587544Y11874347D01*
X4582160Y11875312D01*
X4577537Y11876887D01*
X4573625Y11879122D01*
X4570526Y11881967D01*
X4568240Y11885371D01*
X4566869Y11889282D01*
X4566412Y11893804D01*
X4557826Y11893804D01*
X4557522Y11891518D01*
X4558131Y11885371D01*
X4559960Y11879834D01*
X4562906Y11875008D01*
X4566970Y11870944D01*
X4572152Y11867692D01*
X4578299Y11865305D01*
X4585462Y11863832D01*
X4593590Y11863324D01*
X4601464Y11863933D01*
X4608525Y11865762D01*
X4614722Y11868556D01*
X4619904Y11872264D01*
X4624070Y11876735D01*
X4627118Y11881764D01*
X4628997Y11887250D01*
X4629658Y11893042D01*
X4629099Y11898680D01*
X4627473Y11903608D01*
X4624933Y11908231D01*
X4621530Y11912854D01*
X4633468Y11912346D01*
X4660392Y11912346D01*
X4660392Y11922506D01*
G37*
G36*
X4659884Y11859514D02*
G01*
X4536694Y11820398D01*
X4536694Y11812778D01*
X4659884Y11851894D01*
G37*
G36*
X4559300Y11800332D02*
G01*
X4559300Y11789918D01*
X4601464Y11789918D01*
X4609998Y11789156D01*
X4615942Y11786768D01*
X4619396Y11782653D01*
X4620514Y11776710D01*
X4619853Y11772442D01*
X4617770Y11768074D01*
X4614316Y11763502D01*
X4609338Y11758676D01*
X4559300Y11758676D01*
X4559300Y11748262D01*
X4601464Y11748262D01*
X4609998Y11747500D01*
X4615942Y11745061D01*
X4619396Y11740845D01*
X4620514Y11734800D01*
X4619853Y11730685D01*
X4617770Y11726265D01*
X4614316Y11721744D01*
X4609338Y11717020D01*
X4559300Y11717020D01*
X4559300Y11706606D01*
X4627880Y11706606D01*
X4627880Y11714988D01*
X4617720Y11716004D01*
X4617720Y11716512D01*
X4622393Y11721185D01*
X4626152Y11726316D01*
X4628743Y11731904D01*
X4629658Y11737848D01*
X4628743Y11744909D01*
X4626051Y11750294D01*
X4621834Y11754154D01*
X4616196Y11756644D01*
X4621631Y11762181D01*
X4625898Y11767769D01*
X4628642Y11773560D01*
X4629658Y11779504D01*
X4629251Y11784431D01*
X4627930Y11788648D01*
X4625848Y11792254D01*
X4622901Y11795150D01*
X4619142Y11797436D01*
X4614570Y11799062D01*
X4609185Y11800027D01*
X4602988Y11800332D01*
G37*
G36*
X4593590Y11688064D02*
G01*
X4585462Y11687403D01*
X4578299Y11685473D01*
X4572152Y11682425D01*
X4566970Y11678462D01*
X4562906Y11673738D01*
X4559960Y11668353D01*
X4558131Y11662511D01*
X4557522Y11656314D01*
X4566412Y11656314D01*
X4566920Y11660784D01*
X4568342Y11664848D01*
X4570679Y11668455D01*
X4573828Y11671503D01*
X4577740Y11673992D01*
X4582363Y11675872D01*
X4587697Y11676989D01*
X4593590Y11677396D01*
X4599432Y11676989D01*
X4604715Y11675872D01*
X4609388Y11673992D01*
X4613402Y11671503D01*
X4616653Y11668455D01*
X4619040Y11664848D01*
X4620514Y11660784D01*
X4621022Y11656314D01*
X4620514Y11651894D01*
X4619040Y11647932D01*
X4616653Y11644376D01*
X4613402Y11641328D01*
X4609388Y11638838D01*
X4604715Y11637010D01*
X4599432Y11635892D01*
X4593590Y11635486D01*
X4587697Y11635892D01*
X4582363Y11637010D01*
X4577740Y11638838D01*
X4573828Y11641328D01*
X4570679Y11644376D01*
X4568342Y11647932D01*
X4566920Y11651894D01*
X4566412Y11656314D01*
X4557522Y11656314D01*
X4558131Y11650167D01*
X4559960Y11644325D01*
X4562906Y11638991D01*
X4566970Y11634266D01*
X4572152Y11630355D01*
X4578299Y11627358D01*
X4585462Y11625478D01*
X4593590Y11624818D01*
X4601718Y11625478D01*
X4608880Y11627358D01*
X4615027Y11630355D01*
X4620209Y11634266D01*
X4624273Y11638991D01*
X4627219Y11644325D01*
X4629048Y11650167D01*
X4629658Y11656314D01*
X4629048Y11662511D01*
X4627219Y11668353D01*
X4624273Y11673738D01*
X4620209Y11678462D01*
X4615027Y11682425D01*
X4608880Y11685473D01*
X4601718Y11687403D01*
G37*
G36*
X4566412Y11617452D02*
G01*
X4562754Y11612626D01*
X4559960Y11607241D01*
X4558182Y11601500D01*
X4557522Y11595354D01*
X4558131Y11588800D01*
X4559960Y11582806D01*
X4562906Y11577370D01*
X4566970Y11572697D01*
X4572152Y11568887D01*
X4578299Y11566042D01*
X4585462Y11564213D01*
X4593590Y11563604D01*
X4601718Y11564315D01*
X4608880Y11566245D01*
X4615027Y11569344D01*
X4620209Y11573408D01*
X4624273Y11578234D01*
X4627219Y11583771D01*
X4629048Y11589766D01*
X4629658Y11596116D01*
X4628997Y11602415D01*
X4627219Y11607749D01*
X4624628Y11612321D01*
X4621530Y11616182D01*
X4614672Y11610848D01*
X4617161Y11607698D01*
X4619193Y11604294D01*
X4620514Y11600637D01*
X4621022Y11596624D01*
X4620514Y11591950D01*
X4619040Y11587683D01*
X4616653Y11583873D01*
X4613402Y11580571D01*
X4609388Y11577929D01*
X4604715Y11575948D01*
X4599432Y11574678D01*
X4593590Y11574272D01*
X4587697Y11574678D01*
X4582363Y11575846D01*
X4577740Y11577777D01*
X4573828Y11580368D01*
X4570679Y11583568D01*
X4568342Y11587327D01*
X4566920Y11591645D01*
X4566412Y11596370D01*
X4566970Y11601043D01*
X4568393Y11605412D01*
X4570577Y11609374D01*
X4573270Y11612880D01*
G37*
G36*
X4565904Y11549126D02*
G01*
X4562551Y11548516D01*
X4559909Y11546789D01*
X4558131Y11544300D01*
X4557522Y11541252D01*
X4558131Y11538204D01*
X4559909Y11535714D01*
X4562551Y11533987D01*
X4565904Y11533378D01*
X4569256Y11533987D01*
X4571898Y11535714D01*
X4573676Y11538204D01*
X4574286Y11541252D01*
X4573676Y11544300D01*
X4571898Y11546789D01*
X4569256Y11548516D01*
G37*
G36*
X4594606Y11518900D02*
G01*
X4586325Y11518290D01*
X4578959Y11516461D01*
X4572609Y11513616D01*
X4567326Y11509908D01*
X4563110Y11505438D01*
X4560011Y11500358D01*
X4558182Y11494820D01*
X4557522Y11488928D01*
X4557726Y11487404D01*
X4566412Y11487404D01*
X4566920Y11491722D01*
X4568342Y11495684D01*
X4570730Y11499240D01*
X4573930Y11502288D01*
X4577994Y11504777D01*
X4582820Y11506657D01*
X4588357Y11507825D01*
X4594606Y11508232D01*
X4600194Y11507978D01*
X4605274Y11507165D01*
X4609795Y11505844D01*
X4613605Y11503863D01*
X4616754Y11501221D01*
X4619091Y11497919D01*
X4620514Y11493957D01*
X4621022Y11489182D01*
X4620361Y11484559D01*
X4618431Y11479834D01*
X4615230Y11474907D01*
X4610862Y11469878D01*
X4573778Y11469878D01*
X4570374Y11474653D01*
X4568088Y11479326D01*
X4566818Y11483644D01*
X4566412Y11487404D01*
X4557726Y11487404D01*
X4558182Y11484000D01*
X4559960Y11478920D01*
X4562754Y11473891D01*
X4566412Y11469116D01*
X4566412Y11468862D01*
X4559300Y11467846D01*
X4559300Y11459718D01*
X4660392Y11459718D01*
X4660392Y11469878D01*
X4632198Y11469878D01*
X4619752Y11469370D01*
X4623562Y11474500D01*
X4626711Y11479936D01*
X4628845Y11485626D01*
X4629658Y11491468D01*
X4628997Y11497818D01*
X4627168Y11503355D01*
X4624120Y11508079D01*
X4620056Y11511940D01*
X4614976Y11514988D01*
X4608982Y11517172D01*
X4602175Y11518442D01*
G37*
G36*
X4559300Y11435588D02*
G01*
X4559300Y11427206D01*
X4570222Y11426190D01*
X4570222Y11425936D01*
X4565142Y11420906D01*
X4561128Y11415572D01*
X4558487Y11409680D01*
X4557522Y11403076D01*
X4557979Y11398046D01*
X4559249Y11393728D01*
X4561433Y11390122D01*
X4564430Y11387226D01*
X4568240Y11385042D01*
X4572863Y11383467D01*
X4578248Y11382552D01*
X4584446Y11382248D01*
X4627880Y11382248D01*
X4627880Y11392408D01*
X4585462Y11392408D01*
X4577080Y11393170D01*
X4571187Y11395659D01*
X4567783Y11399926D01*
X4566666Y11406124D01*
X4567377Y11411153D01*
X4569510Y11415877D01*
X4573219Y11420500D01*
X4578604Y11425428D01*
X4627880Y11425428D01*
X4627880Y11435588D01*
G37*
G36*
X4559300Y11360658D02*
G01*
X4559300Y11350244D01*
X4601464Y11350244D01*
X4609998Y11349482D01*
X4615942Y11346992D01*
X4619396Y11342725D01*
X4620514Y11336528D01*
X4619802Y11331448D01*
X4617669Y11326723D01*
X4614214Y11322050D01*
X4609338Y11316970D01*
X4559300Y11316970D01*
X4559300Y11306810D01*
X4660392Y11306810D01*
X4660392Y11316970D01*
X4632198Y11316970D01*
X4617974Y11316716D01*
X4622495Y11321745D01*
X4626203Y11327079D01*
X4628743Y11332972D01*
X4629658Y11339576D01*
X4629251Y11344656D01*
X4627930Y11348974D01*
X4625848Y11352631D01*
X4622901Y11355527D01*
X4619142Y11357813D01*
X4614570Y11359388D01*
X4609185Y11360353D01*
X4602988Y11360658D01*
G37*
G36*
X4560062Y11292840D02*
G01*
X4557776Y11283645D01*
X4557522Y11280648D01*
X4559147Y11271707D01*
X4563770Y11265916D01*
X4570933Y11262766D01*
X4580128Y11261852D01*
X4619244Y11261852D01*
X4619244Y11251438D01*
X4627372Y11251438D01*
X4627880Y11262106D01*
X4647438Y11263376D01*
X4647438Y11272012D01*
X4627880Y11272012D01*
X4627880Y11291062D01*
X4619244Y11291062D01*
X4619244Y11272012D01*
X4579620Y11272012D01*
X4573981Y11272520D01*
X4569764Y11274348D01*
X4567072Y11277701D01*
X4566158Y11282934D01*
X4566666Y11286947D01*
X4567936Y11290808D01*
G37*
G36*
X4649978Y11237976D02*
G01*
X4646879Y11237417D01*
X4644593Y11235944D01*
X4643120Y11233708D01*
X4642612Y11230864D01*
X4643120Y11227917D01*
X4644593Y11225682D01*
X4646879Y11224260D01*
X4649978Y11223752D01*
X4652772Y11224260D01*
X4654905Y11225682D01*
X4656328Y11227917D01*
X4656836Y11230864D01*
X4656328Y11233708D01*
X4654905Y11235944D01*
X4652772Y11237417D01*
G37*
G36*
X4559300Y11235944D02*
G01*
X4559300Y11225784D01*
X4627880Y11225784D01*
X4627880Y11235944D01*
G37*
G36*
X4550918Y11212068D02*
G01*
X4546346Y11211458D01*
X4541977Y11209629D01*
X4537964Y11206734D01*
X4534458Y11202720D01*
X4531512Y11197793D01*
X4529226Y11191900D01*
X4527804Y11185245D01*
X4527399Y11179302D01*
X4534662Y11179302D01*
X4535932Y11188598D01*
X4539284Y11195761D01*
X4544009Y11200282D01*
X4549394Y11201908D01*
X4553610Y11200942D01*
X4556455Y11198199D01*
X4558030Y11193678D01*
X4558538Y11187430D01*
X4558588Y11173104D01*
X4559554Y11166094D01*
X4556607Y11162792D01*
X4553559Y11160506D01*
X4550460Y11159185D01*
X4547362Y11158728D01*
X4542078Y11160099D01*
X4538065Y11164163D01*
X4535525Y11170615D01*
X4534662Y11179302D01*
X4527399Y11179302D01*
X4527296Y11177778D01*
X4527600Y11171732D01*
X4528566Y11166297D01*
X4530090Y11161471D01*
X4532172Y11157407D01*
X4534814Y11154105D01*
X4538014Y11151616D01*
X4541672Y11150092D01*
X4545838Y11149584D01*
X4550206Y11150295D01*
X4554372Y11152276D01*
X4558233Y11155476D01*
X4561586Y11159744D01*
X4562094Y11159744D01*
X4564075Y11157254D01*
X4566564Y11155222D01*
X4569714Y11153902D01*
X4573524Y11153394D01*
X4577486Y11154105D01*
X4581042Y11155984D01*
X4583938Y11158423D01*
X4586224Y11161014D01*
X4586732Y11161014D01*
X4589983Y11157813D01*
X4594301Y11154968D01*
X4599432Y11152886D01*
X4605274Y11152124D01*
X4610557Y11152632D01*
X4615281Y11154156D01*
X4619447Y11156543D01*
X4623003Y11159693D01*
X4625848Y11163452D01*
X4627930Y11167770D01*
X4629200Y11172494D01*
X4629658Y11177524D01*
X4629150Y11182807D01*
X4627880Y11187176D01*
X4627880Y11210798D01*
X4620006Y11210798D01*
X4620006Y11196320D01*
X4617161Y11198758D01*
X4613656Y11200688D01*
X4609592Y11201958D01*
X4605020Y11202416D01*
X4599787Y11201908D01*
X4595063Y11200485D01*
X4590999Y11198199D01*
X4587544Y11195202D01*
X4584801Y11191544D01*
X4582820Y11187328D01*
X4581550Y11182604D01*
X4581144Y11177524D01*
X4588256Y11177524D01*
X4589475Y11183467D01*
X4592878Y11188395D01*
X4598212Y11191798D01*
X4605274Y11193018D01*
X4612284Y11191798D01*
X4617567Y11188395D01*
X4620869Y11183467D01*
X4622038Y11177524D01*
X4620869Y11171631D01*
X4617567Y11166754D01*
X4612284Y11163503D01*
X4605274Y11162284D01*
X4598212Y11163503D01*
X4592878Y11166856D01*
X4589475Y11171732D01*
X4588256Y11177524D01*
X4581144Y11177524D01*
X4581702Y11172240D01*
X4582414Y11169548D01*
X4583430Y11167110D01*
X4581855Y11165332D01*
X4579975Y11163858D01*
X4577689Y11162893D01*
X4574794Y11162538D01*
X4571796Y11163096D01*
X4569358Y11165128D01*
X4567732Y11168837D01*
X4567174Y11174730D01*
X4567174Y11188446D01*
X4566208Y11198758D01*
X4563211Y11206175D01*
X4558182Y11210594D01*
G37*
G36*
X4659884Y11142726D02*
G01*
X4536694Y11103610D01*
X4536694Y11095990D01*
X4659884Y11135106D01*
G37*
G36*
X4659884Y11092942D02*
G01*
X4536694Y11053826D01*
X4536694Y11046206D01*
X4659884Y11085322D01*
G37*
G36*
X4617720Y11035284D02*
G01*
X4614367Y11034674D01*
X4611725Y11032947D01*
X4609947Y11030458D01*
X4609338Y11027410D01*
X4609947Y11024514D01*
X4611725Y11022076D01*
X4614367Y11020399D01*
X4617720Y11019790D01*
X4621022Y11020399D01*
X4623612Y11022076D01*
X4625238Y11024514D01*
X4625848Y11027410D01*
X4625238Y11030458D01*
X4623612Y11032947D01*
X4621022Y11034674D01*
G37*
G36*
X4565904Y11035284D02*
G01*
X4562551Y11034674D01*
X4559909Y11032947D01*
X4558131Y11030458D01*
X4557522Y11027410D01*
X4558131Y11024514D01*
X4559909Y11022076D01*
X4562551Y11020399D01*
X4565904Y11019790D01*
X4569256Y11020399D01*
X4571898Y11022076D01*
X4573676Y11024514D01*
X4574286Y11027410D01*
X4573676Y11030458D01*
X4571898Y11032947D01*
X4569256Y11034674D01*
G37*
G36*
X4577588Y11005820D02*
G01*
X4573676Y11005413D01*
X4569968Y11004245D01*
X4566564Y11002264D01*
X4563567Y10999520D01*
X4561078Y10996015D01*
X4559147Y10991799D01*
X4557928Y10986820D01*
X4557522Y10981182D01*
X4558233Y10974019D01*
X4560214Y10967262D01*
X4563211Y10961065D01*
X4566920Y10955782D01*
X4574032Y10960862D01*
X4570730Y10965484D01*
X4568139Y10970310D01*
X4566513Y10975644D01*
X4565904Y10981690D01*
X4566767Y10987887D01*
X4569104Y10992307D01*
X4572660Y10994999D01*
X4577080Y10995914D01*
X4581906Y10994491D01*
X4585563Y10990783D01*
X4588408Y10985652D01*
X4593590Y10972546D01*
X4597450Y10966043D01*
X4602835Y10961370D01*
X4610354Y10959592D01*
X4617872Y10961116D01*
X4624019Y10965637D01*
X4628134Y10973003D01*
X4629658Y10982960D01*
X4629099Y10988903D01*
X4627473Y10994440D01*
X4625035Y10999419D01*
X4622038Y11003788D01*
X4615180Y10998708D01*
X4617669Y10995050D01*
X4619701Y10991291D01*
X4621022Y10987328D01*
X4621530Y10982960D01*
X4620666Y10977016D01*
X4618380Y10972800D01*
X4614976Y10970310D01*
X4610862Y10969498D01*
X4606442Y10970717D01*
X4603242Y10974019D01*
X4600803Y10978845D01*
X4595520Y10992104D01*
X4591558Y10998962D01*
X4585868Y11003889D01*
G37*
G36*
X4594606Y10944860D02*
G01*
X4586325Y10944250D01*
X4578959Y10942421D01*
X4572609Y10939576D01*
X4567326Y10935868D01*
X4563110Y10931398D01*
X4560011Y10926318D01*
X4558182Y10920780D01*
X4557522Y10914888D01*
X4557700Y10913364D01*
X4566412Y10913364D01*
X4566920Y10917682D01*
X4568342Y10921644D01*
X4570730Y10925200D01*
X4573930Y10928248D01*
X4577994Y10930737D01*
X4582820Y10932617D01*
X4588357Y10933785D01*
X4594606Y10934192D01*
X4600194Y10933938D01*
X4605274Y10933125D01*
X4609795Y10931804D01*
X4613605Y10929823D01*
X4616754Y10927181D01*
X4619091Y10923930D01*
X4620514Y10919917D01*
X4621022Y10915142D01*
X4620361Y10910570D01*
X4618431Y10905845D01*
X4615230Y10901019D01*
X4610862Y10895838D01*
X4573778Y10895838D01*
X4570374Y10900714D01*
X4568088Y10905388D01*
X4566818Y10909604D01*
X4566412Y10913364D01*
X4557700Y10913364D01*
X4558080Y10910112D01*
X4559706Y10905337D01*
X4562246Y10900511D01*
X4565650Y10895584D01*
X4553712Y10895838D01*
X4529836Y10895838D01*
X4529836Y10885678D01*
X4627880Y10885678D01*
X4627880Y10894060D01*
X4620006Y10895076D01*
X4620006Y10895330D01*
X4623663Y10900359D01*
X4626762Y10905794D01*
X4628845Y10911535D01*
X4629658Y10917428D01*
X4628997Y10923778D01*
X4627168Y10929315D01*
X4624120Y10934039D01*
X4620056Y10937900D01*
X4614976Y10940948D01*
X4608982Y10943132D01*
X4602175Y10944402D01*
G37*
G36*
X4560062Y10871708D02*
G01*
X4557776Y10862513D01*
X4557522Y10859516D01*
X4559147Y10850575D01*
X4563770Y10844784D01*
X4570933Y10841634D01*
X4580128Y10840720D01*
X4619244Y10840720D01*
X4619244Y10830306D01*
X4627372Y10830306D01*
X4627880Y10840974D01*
X4647438Y10842244D01*
X4647438Y10850880D01*
X4627880Y10850880D01*
X4627880Y10869930D01*
X4619244Y10869930D01*
X4619244Y10850880D01*
X4579620Y10850880D01*
X4573981Y10851388D01*
X4569764Y10853216D01*
X4567072Y10856569D01*
X4566158Y10861802D01*
X4566666Y10865815D01*
X4567936Y10869676D01*
G37*
G36*
X4560062Y10827512D02*
G01*
X4557776Y10818418D01*
X4557522Y10815574D01*
X4557928Y10810595D01*
X4559147Y10806480D01*
X4561128Y10803178D01*
X4563770Y10800638D01*
X4567072Y10798759D01*
X4570933Y10797489D01*
X4575302Y10796727D01*
X4580128Y10796524D01*
X4619244Y10796524D01*
X4619244Y10786110D01*
X4627372Y10786110D01*
X4627880Y10796778D01*
X4647438Y10798048D01*
X4647438Y10806938D01*
X4627880Y10806938D01*
X4627880Y10825734D01*
X4619244Y10825734D01*
X4619244Y10806938D01*
X4579620Y10806938D01*
X4573981Y10807446D01*
X4569764Y10809224D01*
X4567072Y10812526D01*
X4566158Y10817606D01*
X4566666Y10821619D01*
X4567936Y10825480D01*
G37*
G36*
X4559300Y10772140D02*
G01*
X4559300Y10761726D01*
X4601464Y10761726D01*
X4609998Y10760913D01*
X4615942Y10758373D01*
X4619396Y10754106D01*
X4620514Y10748010D01*
X4619802Y10742828D01*
X4617669Y10738154D01*
X4614214Y10733481D01*
X4609338Y10728452D01*
X4559300Y10728452D01*
X4559300Y10718292D01*
X4660392Y10718292D01*
X4660392Y10728452D01*
X4632198Y10728452D01*
X4617974Y10727944D01*
X4622495Y10733024D01*
X4626203Y10738459D01*
X4628743Y10744403D01*
X4629658Y10751058D01*
X4629251Y10756138D01*
X4627930Y10760456D01*
X4625848Y10764113D01*
X4622901Y10767009D01*
X4619142Y10769295D01*
X4614570Y10770870D01*
X4609185Y10771835D01*
X4602988Y10772140D01*
G37*
G36*
X9111996Y12706096D02*
G01*
X9106509Y12705842D01*
X9101582Y12705029D01*
X9097162Y12703606D01*
X9093454Y12701524D01*
X9090456Y12698730D01*
X9088221Y12695174D01*
X9086799Y12690805D01*
X9086342Y12685522D01*
X9094724Y12685522D01*
X9095943Y12691973D01*
X9099499Y12696190D01*
X9105341Y12698526D01*
X9113266Y12699238D01*
X9126220Y12699238D01*
X9126220Y12670790D01*
X9113266Y12670790D01*
X9105341Y12671653D01*
X9099499Y12674346D01*
X9095943Y12678918D01*
X9094724Y12685522D01*
X9086342Y12685522D01*
X9087561Y12677648D01*
X9090964Y12671602D01*
X9096400Y12667284D01*
X9103614Y12664694D01*
X9084310Y12631674D01*
X9093708Y12631674D01*
X9112250Y12663678D01*
X9126220Y12663678D01*
X9126220Y12631674D01*
X9134602Y12631674D01*
X9134602Y12706096D01*
G37*
G36*
X9034526Y12706096D02*
G01*
X9034526Y12698984D01*
X9062974Y12698984D01*
X9065006Y12676378D01*
X9062313Y12677698D01*
X9059570Y12678664D01*
X9056573Y12679222D01*
X9053322Y12679426D01*
X9048851Y12679070D01*
X9044686Y12678054D01*
X9040876Y12676327D01*
X9037574Y12673787D01*
X9034830Y12670536D01*
X9032748Y12666472D01*
X9031427Y12661544D01*
X9030970Y12655804D01*
X9031478Y12650063D01*
X9033002Y12644983D01*
X9035338Y12640614D01*
X9038386Y12637008D01*
X9041993Y12634163D01*
X9046057Y12632080D01*
X9050477Y12630810D01*
X9055100Y12630404D01*
X9062872Y12631216D01*
X9069273Y12633452D01*
X9074404Y12636601D01*
X9078468Y12640310D01*
X9074404Y12645644D01*
X9070898Y12642494D01*
X9066733Y12639852D01*
X9061805Y12637973D01*
X9055862Y12637262D01*
X9049410Y12638532D01*
X9044178Y12642189D01*
X9040622Y12647980D01*
X9039352Y12655550D01*
X9040520Y12662916D01*
X9043720Y12668402D01*
X9048800Y12671856D01*
X9055354Y12673076D01*
X9058859Y12672771D01*
X9062008Y12671958D01*
X9064955Y12670586D01*
X9068054Y12668758D01*
X9072626Y12671552D01*
X9070086Y12706096D01*
G37*
G36*
X9053068Y11856212D02*
G01*
X9044533Y11854738D01*
X9038132Y11850725D01*
X9034119Y11844528D01*
X9032748Y11836654D01*
X9032834Y11836146D01*
X9040114Y11836146D01*
X9040977Y11841480D01*
X9043466Y11845848D01*
X9047530Y11848795D01*
X9053068Y11849862D01*
X9057995Y11848947D01*
X9061958Y11846407D01*
X9064548Y11842445D01*
X9065514Y11837416D01*
X9064040Y11831421D01*
X9060129Y11826951D01*
X9054592Y11823598D01*
X9048242Y11820906D01*
X9044736Y11824309D01*
X9042196Y11828068D01*
X9040622Y11832031D01*
X9040114Y11836146D01*
X9032834Y11836146D01*
X9033713Y11830964D01*
X9036202Y11825935D01*
X9039504Y11821718D01*
X9042908Y11818620D01*
X9042908Y11818112D01*
X9038132Y11814860D01*
X9034068Y11810695D01*
X9031274Y11805361D01*
X9030247Y11798808D01*
X9038082Y11798808D01*
X9039758Y11805513D01*
X9044228Y11810339D01*
X9050731Y11814098D01*
X9058402Y11817350D01*
X9062770Y11813946D01*
X9066225Y11809831D01*
X9068511Y11805107D01*
X9069324Y11799824D01*
X9068104Y11794185D01*
X9064701Y11789664D01*
X9059570Y11786666D01*
X9053068Y11785600D01*
X9046972Y11786616D01*
X9042247Y11789359D01*
X9039148Y11793524D01*
X9038082Y11798808D01*
X9030247Y11798808D01*
X9031884Y11791086D01*
X9036608Y11785041D01*
X9043924Y11780977D01*
X9053322Y11779504D01*
X9062669Y11780977D01*
X9070035Y11785142D01*
X9074912Y11791391D01*
X9076690Y11799316D01*
X9075521Y11806224D01*
X9072422Y11811965D01*
X9068003Y11816588D01*
X9062974Y11819890D01*
X9062974Y11820398D01*
X9066834Y11823446D01*
X9070035Y11827306D01*
X9072321Y11831929D01*
X9073134Y11837416D01*
X9071610Y11845086D01*
X9067393Y11851030D01*
X9061043Y11854840D01*
G37*
G36*
X9111996Y11855196D02*
G01*
X9106509Y11854942D01*
X9101582Y11854129D01*
X9097162Y11852706D01*
X9093454Y11850624D01*
X9090456Y11847830D01*
X9088221Y11844274D01*
X9086799Y11839905D01*
X9086342Y11834622D01*
X9094724Y11834622D01*
X9095943Y11841073D01*
X9099499Y11845290D01*
X9105341Y11847626D01*
X9113266Y11848338D01*
X9126220Y11848338D01*
X9126220Y11819890D01*
X9113266Y11819890D01*
X9105341Y11820753D01*
X9099499Y11823446D01*
X9095943Y11828018D01*
X9094724Y11834622D01*
X9086342Y11834622D01*
X9087561Y11826748D01*
X9090964Y11820702D01*
X9096400Y11816384D01*
X9103614Y11813794D01*
X9084310Y11780774D01*
X9093708Y11780774D01*
X9112250Y11812778D01*
X9126220Y11812778D01*
X9126220Y11780774D01*
X9134602Y11780774D01*
X9134602Y11855196D01*
G37*
G36*
X9055862Y12262866D02*
G01*
X9050731Y12262307D01*
X9046006Y12260681D01*
X9041790Y12257938D01*
X9038234Y12254077D01*
X9035288Y12249150D01*
X9033052Y12243155D01*
X9031681Y12236043D01*
X9031449Y12231878D01*
X9039098Y12231878D01*
X9040723Y12242342D01*
X9044025Y12249962D01*
X9049105Y12254687D01*
X9055862Y12256262D01*
X9060992Y12254992D01*
X9065107Y12251436D01*
X9067850Y12246000D01*
X9068816Y12238990D01*
X9068003Y12231878D01*
X9065463Y12226442D01*
X9061196Y12222937D01*
X9055100Y12221718D01*
X9051188Y12222327D01*
X9047073Y12224105D01*
X9043009Y12227306D01*
X9039098Y12231878D01*
X9031449Y12231878D01*
X9031224Y12227814D01*
X9031782Y12217247D01*
X9033459Y12208408D01*
X9036050Y12201144D01*
X9039402Y12195454D01*
X9043416Y12191136D01*
X9047937Y12188190D01*
X9052814Y12186462D01*
X9057894Y12185904D01*
X9063380Y12186462D01*
X9068104Y12187986D01*
X9072067Y12190272D01*
X9075420Y12193270D01*
X9070594Y12198604D01*
X9068054Y12196064D01*
X9065056Y12194235D01*
X9061704Y12193117D01*
X9058148Y12192762D01*
X9054490Y12193168D01*
X9051086Y12194387D01*
X9047886Y12196622D01*
X9045092Y12199823D01*
X9042755Y12204192D01*
X9040876Y12209780D01*
X9039656Y12216688D01*
X9039098Y12225020D01*
X9042857Y12221108D01*
X9047073Y12218111D01*
X9051645Y12216282D01*
X9056370Y12215622D01*
X9060840Y12215977D01*
X9064802Y12217095D01*
X9068257Y12218924D01*
X9071203Y12221514D01*
X9073540Y12224766D01*
X9075267Y12228779D01*
X9076334Y12233554D01*
X9076690Y12238990D01*
X9076283Y12244120D01*
X9075064Y12248743D01*
X9073134Y12252807D01*
X9070543Y12256262D01*
X9067495Y12259056D01*
X9063939Y12261138D01*
X9060027Y12262408D01*
G37*
G36*
X9111996Y12261596D02*
G01*
X9106509Y12261342D01*
X9101582Y12260529D01*
X9097162Y12259106D01*
X9093454Y12257024D01*
X9090456Y12254230D01*
X9088221Y12250674D01*
X9086799Y12246305D01*
X9086342Y12241022D01*
X9094724Y12241022D01*
X9095943Y12247473D01*
X9099499Y12251690D01*
X9105341Y12254026D01*
X9113266Y12254738D01*
X9126220Y12254738D01*
X9126220Y12226290D01*
X9113266Y12226290D01*
X9105341Y12227153D01*
X9099499Y12229846D01*
X9095943Y12234418D01*
X9094724Y12241022D01*
X9086342Y12241022D01*
X9087561Y12233148D01*
X9090964Y12227102D01*
X9096400Y12222784D01*
X9103614Y12220194D01*
X9084310Y12187174D01*
X9093708Y12187174D01*
X9112250Y12219178D01*
X9126220Y12219178D01*
X9126220Y12187174D01*
X9134602Y12187174D01*
X9134602Y12261596D01*
G37*
G36*
X8669782Y10929366D02*
G01*
X8665057Y10928959D01*
X8660892Y10927791D01*
X8657234Y10925911D01*
X8654186Y10923371D01*
X8651697Y10920222D01*
X8649919Y10916513D01*
X8648801Y10912246D01*
X8648446Y10907522D01*
X8649004Y10901883D01*
X8650579Y10896193D01*
X8653119Y10890453D01*
X8656574Y10884662D01*
X8660892Y10878769D01*
X8666022Y10872724D01*
X8671864Y10866577D01*
X8678418Y10860278D01*
X8666226Y10860786D01*
X8644890Y10860786D01*
X8644890Y10853674D01*
X8690864Y10853674D01*
X8690864Y10858754D01*
X8682532Y10866221D01*
X8675420Y10873181D01*
X8669528Y10879734D01*
X8664752Y10885881D01*
X8661146Y10891672D01*
X8658555Y10897108D01*
X8657082Y10902289D01*
X8656574Y10907268D01*
X8657386Y10913414D01*
X8659926Y10918342D01*
X8664295Y10921593D01*
X8670544Y10922762D01*
X8675116Y10922050D01*
X8679281Y10920120D01*
X8683091Y10917275D01*
X8686546Y10913872D01*
X8691372Y10918444D01*
X8686698Y10922914D01*
X8681720Y10926368D01*
X8676132Y10928604D01*
G37*
G36*
X8781796Y10928096D02*
G01*
X8776309Y10927842D01*
X8771382Y10927029D01*
X8766962Y10925606D01*
X8763254Y10923524D01*
X8760256Y10920730D01*
X8758021Y10917174D01*
X8756599Y10912805D01*
X8756142Y10907522D01*
X8764524Y10907522D01*
X8765743Y10913973D01*
X8769299Y10918190D01*
X8775141Y10920526D01*
X8783066Y10921238D01*
X8796020Y10921238D01*
X8796020Y10892790D01*
X8783066Y10892790D01*
X8775141Y10893653D01*
X8769299Y10896346D01*
X8765743Y10900918D01*
X8764524Y10907522D01*
X8756142Y10907522D01*
X8757361Y10899648D01*
X8760764Y10893602D01*
X8766200Y10889284D01*
X8773414Y10886694D01*
X8754110Y10853674D01*
X8763508Y10853674D01*
X8782050Y10885678D01*
X8796020Y10885678D01*
X8796020Y10853674D01*
X8804402Y10853674D01*
X8804402Y10928096D01*
G37*
G36*
X8717280Y10928096D02*
G01*
X8717280Y10860532D01*
X8702040Y10860532D01*
X8702040Y10853674D01*
X8742172Y10853674D01*
X8742172Y10860532D01*
X8725408Y10860532D01*
X8725408Y10917682D01*
X8738616Y10917682D01*
X8738616Y10923016D01*
X8734145Y10923930D01*
X8730183Y10925098D01*
X8726678Y10926470D01*
X8723630Y10928096D01*
G37*
G36*
X8999220Y11450066D02*
G01*
X8990787Y11448846D01*
X8984081Y11445290D01*
X8979712Y11439550D01*
X8978138Y11431778D01*
X8979103Y11425377D01*
X8981795Y11420246D01*
X8985961Y11416334D01*
X8991346Y11413490D01*
X8991346Y11413236D01*
X8985250Y11410848D01*
X8980220Y11406784D01*
X8976868Y11401145D01*
X8975598Y11394186D01*
X8976055Y11389512D01*
X8977426Y11385296D01*
X8979560Y11381689D01*
X8982405Y11378692D01*
X8985859Y11376304D01*
X8989872Y11374526D01*
X8994241Y11373459D01*
X8998966Y11373104D01*
X9006890Y11373916D01*
X9013342Y11376202D01*
X9018524Y11379403D01*
X9022588Y11383264D01*
X9018270Y11388598D01*
X9014764Y11385296D01*
X9010599Y11382552D01*
X9005570Y11380673D01*
X8999474Y11379962D01*
X8993174Y11380978D01*
X8988298Y11383873D01*
X8985097Y11388445D01*
X8983980Y11394440D01*
X8985250Y11400739D01*
X8989314Y11405616D01*
X8996629Y11408816D01*
X9007602Y11409934D01*
X9007602Y11416284D01*
X8997645Y11417401D01*
X8991142Y11420500D01*
X8987586Y11425174D01*
X8986520Y11431016D01*
X8987434Y11436045D01*
X8990025Y11439906D01*
X8994140Y11442446D01*
X8999474Y11443462D01*
X9003944Y11442750D01*
X9008110Y11441176D01*
X9011920Y11438839D01*
X9015222Y11435842D01*
X9019794Y11441430D01*
X9015425Y11444833D01*
X9010650Y11447576D01*
X9005316Y11449405D01*
G37*
G36*
X9111996Y11448796D02*
G01*
X9106509Y11448542D01*
X9101582Y11447729D01*
X9097162Y11446306D01*
X9093454Y11444224D01*
X9090456Y11441430D01*
X9088221Y11437874D01*
X9086799Y11433505D01*
X9086342Y11428222D01*
X9094724Y11428222D01*
X9095943Y11434673D01*
X9099499Y11438890D01*
X9105341Y11441226D01*
X9113266Y11441938D01*
X9126220Y11441938D01*
X9126220Y11413490D01*
X9113266Y11413490D01*
X9105341Y11414353D01*
X9099499Y11417046D01*
X9095943Y11421618D01*
X9094724Y11428222D01*
X9086342Y11428222D01*
X9087561Y11420348D01*
X9090964Y11414302D01*
X9096400Y11409984D01*
X9103614Y11407394D01*
X9084310Y11374374D01*
X9093708Y11374374D01*
X9112250Y11406378D01*
X9126220Y11406378D01*
X9126220Y11374374D01*
X9134602Y11374374D01*
X9134602Y11448796D01*
G37*
G36*
X9047480Y11448796D02*
G01*
X9047480Y11381232D01*
X9032240Y11381232D01*
X9032240Y11374374D01*
X9072372Y11374374D01*
X9072372Y11381232D01*
X9055608Y11381232D01*
X9055608Y11438382D01*
X9068816Y11438382D01*
X9068816Y11443716D01*
X9064345Y11444630D01*
X9060383Y11445798D01*
X9056878Y11447170D01*
X9053830Y11448796D01*
G37*
G36*
X9123680Y13955522D02*
G01*
X9118193Y13955268D01*
X9113215Y13954455D01*
X9108795Y13953032D01*
X9105036Y13950950D01*
X9101937Y13948156D01*
X9099702Y13944600D01*
X9098280Y13940231D01*
X9097772Y13934948D01*
X9106408Y13934948D01*
X9107627Y13941399D01*
X9111183Y13945616D01*
X9117025Y13947952D01*
X9124950Y13948663D01*
X9137904Y13948663D01*
X9137904Y13920216D01*
X9124950Y13920216D01*
X9117025Y13921079D01*
X9111183Y13923772D01*
X9107627Y13928344D01*
X9106408Y13934948D01*
X9097772Y13934948D01*
X9098991Y13927074D01*
X9102496Y13921028D01*
X9107932Y13916710D01*
X9115044Y13914119D01*
X9095994Y13881100D01*
X9105392Y13881100D01*
X9123934Y13913104D01*
X9137904Y13913104D01*
X9137904Y13881100D01*
X9146286Y13881100D01*
X9146286Y13955522D01*
G37*
G36*
X9050528Y13955522D02*
G01*
X9050528Y13945869D01*
X9058402Y13945869D01*
X9064244Y13934948D01*
X9082278Y13908532D01*
X9058402Y13908532D01*
X9058351Y13935710D01*
X9057894Y13945869D01*
X9050528Y13945869D01*
X9050528Y13908532D01*
X9040368Y13908532D01*
X9040368Y13901928D01*
X9050528Y13901928D01*
X9050528Y13881100D01*
X9058402Y13881100D01*
X9058402Y13901928D01*
X9091168Y13901928D01*
X9091168Y13907262D01*
X9059418Y13955522D01*
G37*
G36*
X9063329Y13098018D02*
G01*
X9058097Y13097459D01*
X9053576Y13095935D01*
X9049613Y13093649D01*
X9046311Y13090652D01*
X9051086Y13085318D01*
X9053626Y13087705D01*
X9056522Y13089585D01*
X9059672Y13090753D01*
X9063075Y13091160D01*
X9066885Y13090753D01*
X9070492Y13089534D01*
X9073743Y13087350D01*
X9076690Y13084149D01*
X9079128Y13079831D01*
X9081008Y13074345D01*
X9082278Y13067538D01*
X9082836Y13059410D01*
X9078976Y13063169D01*
X9074708Y13065963D01*
X9070187Y13067690D01*
X9065564Y13068300D01*
X9061043Y13067944D01*
X9057030Y13066826D01*
X9053474Y13064998D01*
X9050528Y13062458D01*
X9048191Y13059206D01*
X9046464Y13055244D01*
X9045397Y13050570D01*
X9045041Y13045186D01*
X9052864Y13045186D01*
X9053728Y13052145D01*
X9056370Y13057530D01*
X9060688Y13060984D01*
X9066834Y13062204D01*
X9070644Y13061645D01*
X9074658Y13059918D01*
X9078671Y13056869D01*
X9082582Y13052298D01*
X9080957Y13041782D01*
X9077604Y13034060D01*
X9072626Y13029285D01*
X9066123Y13027660D01*
X9060840Y13028930D01*
X9056624Y13032536D01*
X9053880Y13038074D01*
X9052864Y13045186D01*
X9045041Y13045186D01*
X9045448Y13040004D01*
X9046718Y13035330D01*
X9048648Y13031165D01*
X9051290Y13027710D01*
X9054388Y13024865D01*
X9057995Y13022783D01*
X9061907Y13021513D01*
X9066123Y13021056D01*
X9071254Y13021614D01*
X9075928Y13023392D01*
X9080042Y13026288D01*
X9083598Y13030301D01*
X9086494Y13035432D01*
X9088678Y13041731D01*
X9089999Y13049148D01*
X9090507Y13057632D01*
X9089898Y13067842D01*
X9088221Y13076377D01*
X9085630Y13083336D01*
X9082227Y13088874D01*
X9078163Y13092988D01*
X9073540Y13095833D01*
X9068562Y13097510D01*
G37*
G36*
X9127032Y13096748D02*
G01*
X9121546Y13096494D01*
X9116568Y13095681D01*
X9112148Y13094258D01*
X9108389Y13092176D01*
X9105341Y13089382D01*
X9103055Y13085826D01*
X9101632Y13081457D01*
X9101175Y13076174D01*
X9109811Y13076174D01*
X9110980Y13082625D01*
X9114586Y13086842D01*
X9120378Y13089178D01*
X9128302Y13089890D01*
X9141307Y13089890D01*
X9141307Y13061442D01*
X9128302Y13061442D01*
X9120378Y13062305D01*
X9114586Y13064998D01*
X9110980Y13069569D01*
X9109811Y13076174D01*
X9101175Y13076174D01*
X9102394Y13068300D01*
X9105900Y13062254D01*
X9111335Y13057936D01*
X9118447Y13055346D01*
X9099397Y13022326D01*
X9108795Y13022326D01*
X9127286Y13054330D01*
X9141307Y13054330D01*
X9141307Y13022326D01*
X9149638Y13022326D01*
X9149638Y13096748D01*
G37*
G36*
X9123680Y15250922D02*
G01*
X9118193Y15250668D01*
X9113215Y15249855D01*
X9108795Y15248432D01*
X9105036Y15246350D01*
X9101937Y15243556D01*
X9099702Y15240000D01*
X9098280Y15235631D01*
X9097772Y15230348D01*
X9106408Y15230348D01*
X9107627Y15236799D01*
X9111183Y15241016D01*
X9117025Y15243352D01*
X9124950Y15244063D01*
X9137904Y15244063D01*
X9137904Y15215616D01*
X9124950Y15215616D01*
X9117025Y15216479D01*
X9111183Y15219172D01*
X9107627Y15223744D01*
X9106408Y15230348D01*
X9097772Y15230348D01*
X9098991Y15222474D01*
X9102496Y15216428D01*
X9107932Y15212110D01*
X9115044Y15209519D01*
X9095994Y15176500D01*
X9105392Y15176500D01*
X9123934Y15208504D01*
X9137904Y15208504D01*
X9137904Y15176500D01*
X9146286Y15176500D01*
X9146286Y15250922D01*
G37*
G36*
X9059164Y15250922D02*
G01*
X9059164Y15183357D01*
X9043924Y15183357D01*
X9043924Y15176500D01*
X9084056Y15176500D01*
X9084056Y15183357D01*
X9067292Y15183357D01*
X9067292Y15240507D01*
X9080500Y15240507D01*
X9080500Y15245842D01*
X9075928Y15246756D01*
X9071914Y15247924D01*
X9068409Y15249296D01*
X9065260Y15250922D01*
G37*
G36*
X9067292Y14845792D02*
G01*
X9062567Y14845385D01*
X9058402Y14844217D01*
X9054744Y14842337D01*
X9051645Y14839848D01*
X9049207Y14836648D01*
X9047429Y14832939D01*
X9046311Y14828672D01*
X9045956Y14823948D01*
X9046514Y14818309D01*
X9048089Y14812619D01*
X9050629Y14806879D01*
X9054084Y14801088D01*
X9058402Y14795195D01*
X9063532Y14789150D01*
X9069374Y14783003D01*
X9075928Y14776704D01*
X9063736Y14777212D01*
X9042400Y14777212D01*
X9042400Y14770100D01*
X9088374Y14770100D01*
X9088374Y14775180D01*
X9080093Y14782647D01*
X9073032Y14789607D01*
X9067139Y14796160D01*
X9062364Y14802307D01*
X9058706Y14808098D01*
X9056116Y14813534D01*
X9054592Y14818715D01*
X9054084Y14823694D01*
X9054947Y14829840D01*
X9057589Y14834768D01*
X9062008Y14838019D01*
X9068308Y14839188D01*
X9072727Y14838476D01*
X9076842Y14836546D01*
X9080652Y14833701D01*
X9084056Y14830298D01*
X9088882Y14834869D01*
X9084310Y14839340D01*
X9079331Y14842794D01*
X9073692Y14845030D01*
G37*
G36*
X9123680Y14844522D02*
G01*
X9118193Y14844268D01*
X9113215Y14843455D01*
X9108795Y14842032D01*
X9105036Y14839950D01*
X9101937Y14837156D01*
X9099702Y14833600D01*
X9098280Y14829231D01*
X9097772Y14823948D01*
X9106408Y14823948D01*
X9107627Y14830399D01*
X9111183Y14834616D01*
X9117025Y14836952D01*
X9124950Y14837663D01*
X9137904Y14837663D01*
X9137904Y14809216D01*
X9124950Y14809216D01*
X9117025Y14810079D01*
X9111183Y14812772D01*
X9107627Y14817344D01*
X9106408Y14823948D01*
X9097772Y14823948D01*
X9098991Y14816074D01*
X9102496Y14810028D01*
X9107932Y14805710D01*
X9115044Y14803119D01*
X9095994Y14770100D01*
X9105392Y14770100D01*
X9123934Y14802104D01*
X9137904Y14802104D01*
X9137904Y14770100D01*
X9146286Y14770100D01*
X9146286Y14844522D01*
G37*
G36*
X9066784Y14375892D02*
G01*
X9058300Y14374672D01*
X9051544Y14371116D01*
X9047073Y14365376D01*
X9045448Y14357604D01*
X9046464Y14351203D01*
X9049207Y14346072D01*
X9053474Y14342160D01*
X9058910Y14339316D01*
X9058910Y14339062D01*
X9052661Y14336674D01*
X9047581Y14332559D01*
X9044178Y14326971D01*
X9042908Y14320012D01*
X9043365Y14315338D01*
X9044736Y14311122D01*
X9046870Y14307515D01*
X9049715Y14304518D01*
X9053169Y14302130D01*
X9057182Y14300352D01*
X9061551Y14299285D01*
X9066276Y14298930D01*
X9074200Y14299742D01*
X9080652Y14302028D01*
X9085834Y14305229D01*
X9089898Y14309090D01*
X9085580Y14314424D01*
X9082074Y14311122D01*
X9077909Y14308378D01*
X9072880Y14306499D01*
X9066784Y14305788D01*
X9060637Y14306804D01*
X9055709Y14309699D01*
X9052458Y14314271D01*
X9051290Y14320266D01*
X9052560Y14326565D01*
X9056624Y14331442D01*
X9063939Y14334642D01*
X9074912Y14335760D01*
X9074912Y14342110D01*
X9065107Y14343227D01*
X9058706Y14346326D01*
X9055150Y14351000D01*
X9054084Y14356842D01*
X9054947Y14361871D01*
X9057538Y14365732D01*
X9061602Y14368272D01*
X9067038Y14369288D01*
X9071457Y14368576D01*
X9075572Y14367001D01*
X9079230Y14364665D01*
X9082532Y14361668D01*
X9087104Y14367256D01*
X9082836Y14370659D01*
X9078061Y14373402D01*
X9072727Y14375231D01*
G37*
G36*
X9123680Y14374622D02*
G01*
X9118193Y14374368D01*
X9113215Y14373555D01*
X9108795Y14372132D01*
X9105036Y14370050D01*
X9101937Y14367256D01*
X9099702Y14363700D01*
X9098280Y14359331D01*
X9097772Y14354048D01*
X9106408Y14354048D01*
X9107627Y14360499D01*
X9111183Y14364716D01*
X9117025Y14367052D01*
X9124950Y14367763D01*
X9137904Y14367763D01*
X9137904Y14339316D01*
X9124950Y14339316D01*
X9117025Y14340179D01*
X9111183Y14342872D01*
X9107627Y14347444D01*
X9106408Y14354048D01*
X9097772Y14354048D01*
X9098991Y14346174D01*
X9102496Y14340128D01*
X9107932Y14335810D01*
X9115044Y14333219D01*
X9095994Y14300200D01*
X9105392Y14300200D01*
X9123934Y14332204D01*
X9137904Y14332204D01*
X9137904Y14300200D01*
X9146286Y14300200D01*
X9146286Y14374622D01*
G37*
G36*
X9127032Y13515848D02*
G01*
X9121546Y13515594D01*
X9116568Y13514781D01*
X9112148Y13513358D01*
X9108389Y13511276D01*
X9105341Y13508482D01*
X9103055Y13504926D01*
X9101632Y13500557D01*
X9101175Y13495274D01*
X9109811Y13495274D01*
X9110980Y13501725D01*
X9114586Y13505942D01*
X9120378Y13508278D01*
X9128302Y13508990D01*
X9141307Y13508990D01*
X9141307Y13480542D01*
X9128302Y13480542D01*
X9120378Y13481405D01*
X9114586Y13484098D01*
X9110980Y13488669D01*
X9109811Y13495274D01*
X9101175Y13495274D01*
X9102394Y13487400D01*
X9105900Y13481354D01*
X9111335Y13477036D01*
X9118447Y13474446D01*
X9099397Y13441426D01*
X9108795Y13441426D01*
X9127286Y13473430D01*
X9141307Y13473430D01*
X9141307Y13441426D01*
X9149638Y13441426D01*
X9149638Y13515848D01*
G37*
G36*
X9045295Y13515848D02*
G01*
X9045295Y13510768D01*
X9049410Y13505230D01*
X9053017Y13499795D01*
X9056065Y13494461D01*
X9058605Y13489178D01*
X9060738Y13483844D01*
X9062516Y13478459D01*
X9063939Y13472972D01*
X9065869Y13461288D01*
X9066987Y13448436D01*
X9067393Y13441426D01*
X9076029Y13441426D01*
X9075013Y13454989D01*
X9074251Y13461187D01*
X9073235Y13467130D01*
X9072016Y13472769D01*
X9070492Y13478205D01*
X9068714Y13483488D01*
X9066631Y13488619D01*
X9064244Y13493699D01*
X9061500Y13498677D01*
X9058402Y13503706D01*
X9054947Y13508736D01*
X9091523Y13508736D01*
X9091523Y13515848D01*
G37*
D10*
X1282598Y13653566D02*
G01*
X1282598Y13532408D01*
X1282598Y13532408D02*
G01*
X1213510Y13532408D01*
X1175410Y13653566D02*
G01*
X1175410Y13532408D01*
X1096924Y13653566D02*
G01*
X1096924Y13532408D01*
X1137310Y13653566D02*
G01*
X1056284Y13653566D01*
X1018184Y13653566D02*
G01*
X1018184Y13532408D01*
X1018184Y13653566D02*
G01*
X943254Y13653566D01*
X1018184Y13595908D02*
G01*
X972210Y13595908D01*
X1018184Y13532408D02*
G01*
X943254Y13532408D01*
X1257300Y13399767D02*
G01*
X1257300Y13278355D01*
X1257300Y13399767D02*
G01*
X1205229Y13399767D01*
X1187957Y13393925D01*
X1182370Y13388083D01*
X1176528Y13376653D01*
X1176528Y13364969D01*
X1182370Y13353539D01*
X1187957Y13347697D01*
X1205229Y13341855D01*
X1257300Y13341855D01*
X1216913Y13341855D02*
G01*
X1176528Y13278355D01*
X1057655Y13382241D02*
G01*
X1069086Y13393925D01*
X1086357Y13399767D01*
X1109471Y13399767D01*
X1126744Y13393925D01*
X1138428Y13382241D01*
X1138428Y13370811D01*
X1132586Y13359127D01*
X1126744Y13353539D01*
X1115313Y13347697D01*
X1080770Y13336267D01*
X1069086Y13330425D01*
X1063244Y13324583D01*
X1057655Y13313153D01*
X1057655Y13295627D01*
X1069086Y13284197D01*
X1086357Y13278355D01*
X1109471Y13278355D01*
X1126744Y13284197D01*
X1138428Y13295627D01*
X979170Y13399767D02*
G01*
X979170Y13278355D01*
X1019555Y13399767D02*
G01*
X938529Y13399767D01*
X1295400Y13145767D02*
G01*
X1295400Y13024355D01*
X1295400Y13145767D02*
G01*
X1255013Y13145767D01*
X1237742Y13139925D01*
X1226057Y13128241D01*
X1220470Y13116811D01*
X1214628Y13099539D01*
X1214628Y13070583D01*
X1220470Y13053311D01*
X1226057Y13041627D01*
X1237742Y13030197D01*
X1255013Y13024355D01*
X1295400Y13024355D01*
X1072642Y13168627D02*
G01*
X1176528Y12983969D01*
X947928Y13116811D02*
G01*
X953770Y13128241D01*
X965200Y13139925D01*
X976629Y13145767D01*
X999744Y13145767D01*
X1011428Y13139925D01*
X1022857Y13128241D01*
X1028700Y13116811D01*
X1034542Y13099539D01*
X1034542Y13070583D01*
X1028700Y13053311D01*
X1022857Y13041627D01*
X1011428Y13030197D01*
X999744Y13024355D01*
X976629Y13024355D01*
X965200Y13030197D01*
X953770Y13041627D01*
X947928Y13053311D01*
X1069086Y12850111D02*
G01*
X1074928Y12861541D01*
X1086357Y12873225D01*
X1098042Y12879067D01*
X1121155Y12879067D01*
X1132586Y12873225D01*
X1144270Y12861541D01*
X1149857Y12850111D01*
X1155700Y12832839D01*
X1155700Y12803883D01*
X1149857Y12786611D01*
X1144270Y12774927D01*
X1132586Y12763497D01*
X1121155Y12757655D01*
X1098042Y12757655D01*
X1086357Y12763497D01*
X1074928Y12774927D01*
X1069086Y12786611D01*
X950213Y12861541D02*
G01*
X961644Y12873225D01*
X979170Y12879067D01*
X1002029Y12879067D01*
X1019555Y12873225D01*
X1030986Y12861541D01*
X1030986Y12850111D01*
X1025144Y12838427D01*
X1019555Y12832839D01*
X1007871Y12826997D01*
X973328Y12815567D01*
X961644Y12809725D01*
X956055Y12803883D01*
X950213Y12792453D01*
X950213Y12774927D01*
X961644Y12763497D01*
X979170Y12757655D01*
X1002029Y12757655D01*
X1019555Y12763497D01*
X1030986Y12774927D01*
X1346200Y12637764D02*
G01*
X1346200Y12516352D01*
X1346200Y12637764D02*
G01*
X1299971Y12516352D01*
X1253744Y12637764D02*
G01*
X1299971Y12516352D01*
X1253744Y12637764D02*
G01*
X1253744Y12516352D01*
X1181100Y12637764D02*
G01*
X1192529Y12631922D01*
X1204213Y12620238D01*
X1210055Y12608808D01*
X1215644Y12591536D01*
X1215644Y12562580D01*
X1210055Y12545308D01*
X1204213Y12533624D01*
X1192529Y12522194D01*
X1181100Y12516352D01*
X1157986Y12516352D01*
X1146555Y12522194D01*
X1134871Y12533624D01*
X1129029Y12545308D01*
X1123442Y12562580D01*
X1123442Y12591536D01*
X1129029Y12608808D01*
X1134871Y12620238D01*
X1146555Y12631922D01*
X1157986Y12637764D01*
X1181100Y12637764D01*
X1004570Y12620238D02*
G01*
X1016000Y12631922D01*
X1033271Y12637764D01*
X1056386Y12637764D01*
X1073657Y12631922D01*
X1085342Y12620238D01*
X1085342Y12608808D01*
X1079500Y12597124D01*
X1073657Y12591536D01*
X1062228Y12585694D01*
X1027429Y12574264D01*
X1016000Y12568422D01*
X1010157Y12562580D01*
X1004570Y12551150D01*
X1004570Y12533624D01*
X1016000Y12522194D01*
X1033271Y12516352D01*
X1056386Y12516352D01*
X1073657Y12522194D01*
X1085342Y12533624D01*
X966470Y12637764D02*
G01*
X966470Y12516352D01*
X1333500Y12383764D02*
G01*
X1333500Y12262352D01*
X1333500Y12383764D02*
G01*
X1287271Y12262352D01*
X1241044Y12383764D02*
G01*
X1287271Y12262352D01*
X1241044Y12383764D02*
G01*
X1241044Y12262352D01*
X1202944Y12383764D02*
G01*
X1202944Y12262352D01*
X1084071Y12366238D02*
G01*
X1095755Y12377922D01*
X1113028Y12383764D01*
X1136142Y12383764D01*
X1153413Y12377922D01*
X1164844Y12366238D01*
X1164844Y12354808D01*
X1159255Y12343124D01*
X1153413Y12337536D01*
X1141729Y12331694D01*
X1107186Y12320264D01*
X1095755Y12314422D01*
X1089913Y12308580D01*
X1084071Y12297150D01*
X1084071Y12279624D01*
X1095755Y12268194D01*
X1113028Y12262352D01*
X1136142Y12262352D01*
X1153413Y12268194D01*
X1164844Y12279624D01*
X1011428Y12383764D02*
G01*
X1022857Y12377922D01*
X1034542Y12366238D01*
X1040129Y12354808D01*
X1045971Y12337536D01*
X1045971Y12308580D01*
X1040129Y12291308D01*
X1034542Y12279624D01*
X1022857Y12268194D01*
X1011428Y12262352D01*
X988313Y12262352D01*
X976629Y12268194D01*
X965200Y12279624D01*
X959357Y12291308D01*
X953770Y12308580D01*
X953770Y12337536D01*
X959357Y12354808D01*
X965200Y12366238D01*
X976629Y12377922D01*
X988313Y12383764D01*
X1011428Y12383764D01*
X1183386Y12100808D02*
G01*
X1189228Y12112238D01*
X1200657Y12123922D01*
X1212342Y12129764D01*
X1235455Y12129764D01*
X1246886Y12123922D01*
X1258570Y12112238D01*
X1264157Y12100808D01*
X1270000Y12083536D01*
X1270000Y12054580D01*
X1264157Y12037308D01*
X1258570Y12025624D01*
X1246886Y12014194D01*
X1235455Y12008352D01*
X1212342Y12008352D01*
X1200657Y12014194D01*
X1189228Y12025624D01*
X1183386Y12037308D01*
X1145286Y12129764D02*
G01*
X1145286Y12008352D01*
X1145286Y12008352D02*
G01*
X1075944Y12008352D01*
X1037844Y12129764D02*
G01*
X1037844Y12008352D01*
X957071Y12129764D02*
G01*
X1037844Y12048738D01*
X1009142Y12077694D02*
G01*
X957071Y12008352D01*
X1396898Y11875566D02*
G01*
X1350924Y11754408D01*
X1304696Y11875566D02*
G01*
X1350924Y11754408D01*
X1231798Y11875566D02*
G01*
X1243482Y11869978D01*
X1254912Y11858294D01*
X1260754Y11846864D01*
X1266596Y11829592D01*
X1266596Y11800636D01*
X1260754Y11783364D01*
X1254912Y11771680D01*
X1243482Y11760250D01*
X1231798Y11754408D01*
X1208684Y11754408D01*
X1197254Y11760250D01*
X1185824Y11771680D01*
X1179982Y11783364D01*
X1174140Y11800636D01*
X1174140Y11829592D01*
X1179982Y11846864D01*
X1185824Y11858294D01*
X1197254Y11869978D01*
X1208684Y11875566D01*
X1231798Y11875566D01*
X1136040Y11875566D02*
G01*
X1136040Y11788952D01*
X1130198Y11771680D01*
X1118768Y11760250D01*
X1101496Y11754408D01*
X1089812Y11754408D01*
X1072540Y11760250D01*
X1061110Y11771680D01*
X1055268Y11788952D01*
X1055268Y11875566D01*
X976782Y11875566D02*
G01*
X976782Y11754408D01*
X1017168Y11875566D02*
G01*
X936396Y11875566D01*
X1219098Y11634266D02*
G01*
X1173124Y11513108D01*
X1126896Y11634266D02*
G01*
X1173124Y11513108D01*
X1088796Y11634266D02*
G01*
X1088796Y11513108D01*
X1050696Y11634266D02*
G01*
X1050696Y11513108D01*
X1050696Y11634266D02*
G01*
X969924Y11513108D01*
X969924Y11634266D02*
G01*
X969924Y11513108D01*
X1183386Y11338803D02*
G01*
X1189228Y11350233D01*
X1200657Y11361917D01*
X1212342Y11367759D01*
X1235455Y11367759D01*
X1246886Y11361917D01*
X1258570Y11350233D01*
X1264157Y11338803D01*
X1270000Y11321531D01*
X1270000Y11292575D01*
X1264157Y11275303D01*
X1258570Y11263619D01*
X1246886Y11252189D01*
X1235455Y11246347D01*
X1212342Y11246347D01*
X1200657Y11252189D01*
X1189228Y11263619D01*
X1183386Y11275303D01*
X1183386Y11292575D01*
X1212342Y11292575D02*
G01*
X1183386Y11292575D01*
X1145286Y11367759D02*
G01*
X1145286Y11246347D01*
X1145286Y11367759D02*
G01*
X1064513Y11246347D01*
X1064513Y11367759D02*
G01*
X1064513Y11246347D01*
X1026413Y11367759D02*
G01*
X1026413Y11246347D01*
X1026413Y11367759D02*
G01*
X986028Y11367759D01*
X968755Y11361917D01*
X957071Y11350233D01*
X951229Y11338803D01*
X945642Y11321531D01*
X945642Y11292575D01*
X951229Y11275303D01*
X957071Y11263619D01*
X968755Y11252189D01*
X986028Y11246347D01*
X1026413Y11246347D01*
X3809491Y13409421D02*
G01*
X3799077Y13414755D01*
X3788663Y13425170D01*
X3783584Y13435329D01*
X3783584Y13456157D01*
X3788663Y13466571D01*
X3799077Y13476986D01*
X3809491Y13482320D01*
X3825240Y13487400D01*
X3851147Y13487400D01*
X3866641Y13482320D01*
X3877056Y13476986D01*
X3887470Y13466571D01*
X3892550Y13456157D01*
X3892550Y13435329D01*
X3887470Y13425170D01*
X3877056Y13414755D01*
X3866641Y13409421D01*
X3804411Y13375131D02*
G01*
X3799077Y13364718D01*
X3783584Y13349224D01*
X3892550Y13349224D01*
X7872222Y15113507D02*
G01*
X7877556Y15123921D01*
X7887970Y15134336D01*
X7898129Y15139416D01*
X7918958Y15139416D01*
X7929372Y15134336D01*
X7939786Y15123921D01*
X7945120Y15113507D01*
X7950200Y15097760D01*
X7950200Y15071852D01*
X7945120Y15056357D01*
X7939786Y15045944D01*
X7929372Y15035529D01*
X7918958Y15030450D01*
X7898129Y15030450D01*
X7887970Y15035529D01*
X7877556Y15045944D01*
X7872222Y15056357D01*
X7827518Y15139416D02*
G01*
X7770368Y15139416D01*
X7801609Y15097760D01*
X7786115Y15097760D01*
X7775702Y15092679D01*
X7770368Y15087600D01*
X7765288Y15071852D01*
X7765288Y15061437D01*
X7770368Y15045944D01*
X7780781Y15035529D01*
X7796529Y15030450D01*
X7812024Y15030450D01*
X7827518Y15035529D01*
X7832852Y15040610D01*
X7837931Y15051024D01*
X4813808Y16575278D02*
G01*
X4824222Y16569944D01*
X4834636Y16559529D01*
X4839715Y16549370D01*
X4839715Y16528542D01*
X4834636Y16518128D01*
X4824222Y16507713D01*
X4813808Y16502379D01*
X4798059Y16497300D01*
X4772152Y16497300D01*
X4756658Y16502379D01*
X4746243Y16507713D01*
X4735829Y16518128D01*
X4730750Y16528542D01*
X4730750Y16549370D01*
X4735829Y16559529D01*
X4746243Y16569944D01*
X4756658Y16575278D01*
X4824222Y16671797D02*
G01*
X4834636Y16666718D01*
X4839715Y16650970D01*
X4839715Y16640810D01*
X4834636Y16625062D01*
X4818888Y16614647D01*
X4792979Y16609568D01*
X4767072Y16609568D01*
X4746243Y16614647D01*
X4735829Y16625062D01*
X4730750Y16640810D01*
X4730750Y16645889D01*
X4735829Y16661384D01*
X4746243Y16671797D01*
X4761738Y16677131D01*
X4767072Y16677131D01*
X4782565Y16671797D01*
X4792979Y16661384D01*
X4798059Y16645889D01*
X4798059Y16640810D01*
X4792979Y16625062D01*
X4782565Y16614647D01*
X4767072Y16609568D01*
X7796022Y12713208D02*
G01*
X7801356Y12723621D01*
X7811770Y12734036D01*
X7821929Y12739115D01*
X7842758Y12739115D01*
X7853172Y12734036D01*
X7863586Y12723621D01*
X7868920Y12713208D01*
X7874000Y12697460D01*
X7874000Y12671552D01*
X7868920Y12656058D01*
X7863586Y12645644D01*
X7853172Y12635229D01*
X7842758Y12630150D01*
X7821929Y12630150D01*
X7811770Y12635229D01*
X7801356Y12645644D01*
X7796022Y12656058D01*
X7756652Y12713208D02*
G01*
X7756652Y12718287D01*
X7751318Y12728702D01*
X7746238Y12734036D01*
X7735824Y12739115D01*
X7714995Y12739115D01*
X7704581Y12734036D01*
X7699502Y12728702D01*
X7694168Y12718287D01*
X7694168Y12707874D01*
X7699502Y12697460D01*
X7709915Y12681965D01*
X7761731Y12630150D01*
X7689088Y12630150D01*
X9013819Y12588509D02*
G01*
X9142313Y12588509D01*
X9142313Y12405090D01*
X9013819Y12405090D01*
X8918580Y12588509D02*
G01*
X8790086Y12588509D01*
X8790086Y12405090D01*
X8918580Y12405090D01*
X8918580Y11554190D02*
G01*
X8790086Y11554190D01*
X8790086Y11737609D01*
X8918580Y11737609D01*
X9013819Y11554190D02*
G01*
X9142313Y11554190D01*
X9142313Y11737609D01*
X9013819Y11737609D01*
X8918580Y11973290D02*
G01*
X8790086Y11973290D01*
X8790086Y12156709D01*
X8918580Y12156709D01*
X9013819Y11973290D02*
G01*
X9142313Y11973290D01*
X9142313Y12156709D01*
X9013819Y12156709D01*
X8562980Y10652490D02*
G01*
X8434486Y10652490D01*
X8434486Y10835909D01*
X8562980Y10835909D01*
X8658219Y10652490D02*
G01*
X8786713Y10652490D01*
X8786713Y10835909D01*
X8658219Y10835909D01*
X8918580Y11147790D02*
G01*
X8790086Y11147790D01*
X8790086Y11331209D01*
X8918580Y11331209D01*
X9013819Y11147790D02*
G01*
X9142313Y11147790D01*
X9142313Y11331209D01*
X9013819Y11331209D01*
X8918580Y13675090D02*
G01*
X8790086Y13675090D01*
X8790086Y13858509D01*
X8918580Y13858509D01*
X9013819Y13675090D02*
G01*
X9142313Y13675090D01*
X9142313Y13858509D01*
X9013819Y13858509D01*
X9017198Y13012435D02*
G01*
X9145691Y13012435D01*
X9145691Y12829016D01*
X9017198Y12829016D01*
X8921958Y13012435D02*
G01*
X8793464Y13012435D01*
X8793464Y12829016D01*
X8921958Y12829016D01*
X8918580Y14970490D02*
G01*
X8790086Y14970490D01*
X8790086Y15153909D01*
X8918580Y15153909D01*
X9013819Y14970490D02*
G01*
X9142313Y14970490D01*
X9142313Y15153909D01*
X9013819Y15153909D01*
X8918580Y14564090D02*
G01*
X8790086Y14564090D01*
X8790086Y14747509D01*
X8918580Y14747509D01*
X9013819Y14564090D02*
G01*
X9142313Y14564090D01*
X9142313Y14747509D01*
X9013819Y14747509D01*
X8918580Y14094190D02*
G01*
X8790086Y14094190D01*
X8790086Y14277609D01*
X8918580Y14277609D01*
X9013819Y14094190D02*
G01*
X9142313Y14094190D01*
X9142313Y14277609D01*
X9013819Y14277609D01*
X9017198Y13418835D02*
G01*
X9145691Y13418835D01*
X9145691Y13235416D01*
X9017198Y13235416D01*
X8921958Y13418835D02*
G01*
X8793464Y13418835D01*
X8793464Y13235416D01*
X8921958Y13235416D01*
X3935539Y13306280D02*
G01*
X3935539Y13447280D01*
X4116260Y13447280D02*
G01*
X4116260Y13306280D01*
X4101020Y13291040D02*
G01*
X3950779Y13291040D01*
X3935539Y13668519D02*
G01*
X3935539Y13527519D01*
X4116260Y13527519D02*
G01*
X4116260Y13668519D01*
X4101020Y13683759D02*
G01*
X3950779Y13683759D01*
D11*
X7791297Y14782800D02*
G01*
X7931302Y14782800D01*
D10*
X4687760Y16678419D02*
G01*
X4687760Y16537419D01*
X4507039Y16537419D02*
G01*
X4507039Y16678419D01*
X4522279Y16693659D02*
G01*
X4672520Y16693659D01*
X4687760Y16316180D02*
G01*
X4687760Y16457180D01*
X4507039Y16457180D02*
G01*
X4507039Y16316180D01*
X4522279Y16300940D02*
G01*
X4672520Y16300940D01*
D11*
X7715097Y12382500D02*
G01*
X7855102Y12382500D01*
D10*
G75*
G01*
X4116260Y13306280D02*
G02*
X4101021Y13291040I-15240J0D01*
G75*
G01*
X3950779Y13291040D02*
G02*
X3935540Y13306280I1J15240D01*
G75*
G01*
X4116260Y13668520D02*
G03*
X4101021Y13683760I-15240J0D01*
G75*
G01*
X3950779Y13683760D02*
G03*
X3935540Y13668520I1J-15240D01*
G75*
G01*
X4507040Y16678420D02*
G02*
X4522279Y16693660I15240J0D01*
G75*
G01*
X4672521Y16693660D02*
G02*
X4687760Y16678420I-1J-15240D01*
G75*
G01*
X4507040Y16316180D02*
G03*
X4522279Y16300940I15240J0D01*
G75*
G01*
X4672521Y16300940D02*
G03*
X4687760Y16316180I-1J15240D01*
M02*
